<svg version="1.1" xmlns="http://www.w3.org/2000/svg" xmlns:xlink="http://www.w3.org/1999/xlink" width="896" height="1230"><defs><clipPath id="dFAmnzvMLrJP"><path fill="none" stroke="none" d=" M 0 0 L 896 0 L 896 1230 L 0 1230 L 0 0 Z"/></clipPath></defs><g transform="scale(1,1)" clip-path="url(#dFAmnzvMLrJP)"><g><rect fill="rgb(255,255,255)" stroke="none" x="0" y="0" width="896" height="1230" fill-opacity="1"/><path fill="rgb(0,0,0)" stroke="none" paint-order="stroke fill markers" fill-rule="evenodd" d=" M 448 361.87500000000125 L 448 340.6617965644063 L 426.7867965644036 340.6617965644049 L 426.786796564405 361.87500000000125 L 448 361.87500000000125" fill-opacity="0.09803921568627451"/><path fill="none" stroke="rgb(0,0,0)" paint-order="fill stroke markers" d=" M 448 361.87500000000125 L 448 340.6617965644063 L 426.7867965644036 340.6617965644049 L 426.786796564405 361.87500000000125 L 448 361.87500000000125" stroke-opacity="0.6980392156862745" stroke-linecap="round" stroke-linejoin="round" stroke-miterlimit="10" stroke-width="2.5"/><path fill="rgb(0,0,255)" stroke="none" paint-order="stroke fill markers" d=" M 418 354.37500000000125 L 418 359.37500000000125 L 194.87499999999983 359.37500000000125 C 193.49428812542286 359.37500000000125 192.37499999999983 360.49428812542425 192.37499999999983 361.87500000000125 C 192.37499999999983 363.25571187457825 193.49428812542286 364.37500000000125 194.87499999999983 364.37500000000125 L 418 364.37500000000125 L 418 369.37500000000125 L 448 361.87500000000125 L 418 354.37500000000125 Z" fill-opacity="0.6980392156862745"/><g transform="scale(35,35)"><g transform="translate(8.571428571428571,11.342571428571429)"><path fill="rgb(0,0,255)" stroke="none" paint-order="stroke fill markers" d=" M 0.537 -0.595 L 0.217 -0.595 Q 0.186 -0.595 0.183 -0.609 Q 0.182 -0.612 0.182 -0.615 Q 0.188 -0.635 0.217 -0.635 L 0.554 -0.635 Q 0.534 -0.661 0.53 -0.6930000000000001 Q 0.53 -0.709 0.544 -0.713 Q 0.547 -0.714 0.55 -0.714 Q 0.5650000000000001 -0.714 0.5700000000000001 -0.6920000000000001 Q 0.583 -0.654 0.611 -0.635 Q 0.625 -0.625 0.625 -0.615 Q 0.625 -0.604 0.608 -0.594 Q 0.5630000000000001 -0.5720000000000001 0.529 -0.529 Q 0.518 -0.516 0.51 -0.516 Q 0.496 -0.516 0.491 -0.53 Q 0.49 -0.533 0.49 -0.536 Q 0.49 -0.552 0.537 -0.595 Z"/></g><g transform="translate(8.584428571428571,11.342571428571429)"><path fill="rgb(0,0,255)" stroke="none" paint-order="stroke fill markers" d=" M 0.35000000000000003 -0.056 L 0.35000000000000003 -0.056 Q 0.298 0.011 0.231 0.011 Q 0.15 0.011 0.121 -0.048 Q 0.108 -0.074 0.108 -0.109 Q 0.108 -0.163 0.161 -0.305 Q 0.163 -0.312 0.166 -0.319 Q 0.183 -0.362 0.183 -0.387 Q 0.183 -0.42 0.158 -0.42 Q 0.10200000000000001 -0.42 0.067 -0.325 Q 0.066 -0.325 0.066 -0.324 L 0.066 -0.323 Q 0.061 -0.31 0.057 -0.296 Q 0.046 -0.279 0.041 -0.278 Q 0.029 -0.278 0.029 -0.28800000000000003 Q 0.029 -0.306 0.05 -0.35100000000000003 Q 0.094 -0.442 0.161 -0.442 Q 0.214 -0.442 0.23500000000000001 -0.397 Q 0.243 -0.38 0.243 -0.36 Q 0.243 -0.34 0.226 -0.297 Q 0.17200000000000001 -0.154 0.17200000000000001 -0.093 Q 0.17200000000000001 -0.011 0.234 -0.011 Q 0.297 -0.011 0.34 -0.08 Q 0.34600000000000003 -0.089 0.34800000000000003 -0.095 Q 0.37 -0.194 0.423 -0.396 Q 0.431 -0.431 0.462 -0.431 Q 0.487 -0.426 0.491 -0.404 Q 0.491 -0.406 0.47600000000000003 -0.337 Q 0.462 -0.28600000000000003 0.459 -0.269 L 0.431 -0.161 Q 0.41100000000000003 -0.074 0.41100000000000003 -0.057 Q 0.41100000000000003 -0.011 0.442 -0.011 Q 0.484 -0.011 0.511 -0.111 Q 0.514 -0.121 0.517 -0.135 Q 0.525 -0.152 0.531 -0.153 Q 0.543 -0.153 0.543 -0.14300000000000002 Q 0.543 -0.128 0.525 -0.073 Q 0.519 -0.056 0.513 -0.044 Q 0.486 0.011 0.439 0.011 Q 0.382 0.011 0.358 -0.037 Q 0.353 -0.046 0.35000000000000003 -0.056 Z"/></g></g><path fill="rgb(0,102,51)" stroke="none" paint-order="stroke fill markers" d=" M 448 235.31250000000148 L 440.5 265.3125000000015 L 445.5 265.3125000000015 L 445.5 361.87500000000125 C 445.5 363.25571187457825 446.619288125423 364.37500000000125 448 364.37500000000125 C 449.380711874577 364.37500000000125 450.5 363.25571187457825 450.5 361.87500000000125 L 450.5 265.3125000000015 L 455.5 265.3125000000015 L 448 235.31250000000148 Z" fill-opacity="0.6980392156862745"/><g transform="scale(35,35)"><g transform="translate(13,9.171142857142858)"><path fill="rgb(0,102,51)" stroke="none" paint-order="stroke fill markers" d=" M 0.537 -0.595 L 0.217 -0.595 Q 0.186 -0.595 0.183 -0.609 Q 0.182 -0.612 0.182 -0.615 Q 0.188 -0.635 0.217 -0.635 L 0.554 -0.635 Q 0.534 -0.661 0.53 -0.6930000000000001 Q 0.53 -0.709 0.544 -0.713 Q 0.547 -0.714 0.55 -0.714 Q 0.5650000000000001 -0.714 0.5700000000000001 -0.6920000000000001 Q 0.583 -0.654 0.611 -0.635 Q 0.625 -0.625 0.625 -0.615 Q 0.625 -0.604 0.608 -0.594 Q 0.5630000000000001 -0.5720000000000001 0.529 -0.529 Q 0.518 -0.516 0.51 -0.516 Q 0.496 -0.516 0.491 -0.53 Q 0.49 -0.533 0.49 -0.536 Q 0.49 -0.552 0.537 -0.595 Z"/></g><g transform="translate(13.0385,9.171142857142858)"><path fill="rgb(0,102,51)" stroke="none" paint-order="stroke fill markers" d=" M 0.468 -0.372 Q 0.468 -0.317 0.438 -0.218 Q 0.38 -0.024 0.277 0.006 Q 0.261 0.011 0.243 0.011 Q 0.152 0.011 0.122 -0.052000000000000005 Q 0.109 -0.078 0.109 -0.113 Q 0.109 -0.165 0.155 -0.289 L 0.166 -0.318 Q 0.183 -0.362 0.183 -0.388 Q 0.183 -0.42 0.158 -0.42 Q 0.10400000000000001 -0.42 0.069 -0.331 Q 0.062 -0.315 0.057 -0.296 Q 0.046 -0.279 0.041 -0.278 Q 0.029 -0.278 0.029 -0.28800000000000003 Q 0.029 -0.306 0.051000000000000004 -0.35100000000000003 Q 0.094 -0.442 0.161 -0.442 Q 0.214 -0.442 0.23500000000000001 -0.397 Q 0.243 -0.38 0.243 -0.36 Q 0.243 -0.339 0.231 -0.31 Q 0.177 -0.166 0.17300000000000001 -0.111 L 0.17300000000000001 -0.098 Q 0.17300000000000001 -0.018000000000000002 0.23700000000000002 -0.011 L 0.247 -0.011 Q 0.328 -0.011 0.387 -0.147 Q 0.422 -0.227 0.425 -0.28200000000000003 Q 0.425 -0.332 0.391 -0.364 Q 0.375 -0.38 0.375 -0.394 Q 0.375 -0.419 0.401 -0.435 Q 0.41200000000000003 -0.442 0.424 -0.442 Q 0.453 -0.442 0.464 -0.405 Q 0.468 -0.391 0.468 -0.372 Z"/></g></g><path fill="rgb(255,0,0)" stroke="none" paint-order="stroke fill markers" d=" M 447.9999999999999 235.3125000000015 L 417.8130823037528 242.02070393250082 L 420.0491502812526 246.4928398875004 L 193.75696601124994 359.6389320225015 C 192.52201976769183 360.2564051442805 192.021458900721 361.758087745193 192.63893202250006 362.9930339887511 C 193.07694590306716 363.8690617498853 193.959892967867 364.37554764139463 194.87694115124592 364.3755476413947 C 195.25266616464256 364.3755476413947 195.63411550632577 364.290527218713 195.99303398874972 364.111067977501 L 422.2852182587524 250.9649758425 L 424.5212862362522 255.43711179749957 L 447.99999999999994 235.3125000000015 Z" fill-opacity="0.6980392156862745"/><g transform="scale(35,35)"><g transform="translate(7.057142857142857,8.028285714285714)"><path fill="rgb(255,0,0)" stroke="none" paint-order="stroke fill markers" d=" M 0.537 -0.595 L 0.217 -0.595 Q 0.186 -0.595 0.183 -0.609 Q 0.182 -0.612 0.182 -0.615 Q 0.188 -0.635 0.217 -0.635 L 0.554 -0.635 Q 0.534 -0.661 0.53 -0.6930000000000001 Q 0.53 -0.709 0.544 -0.713 Q 0.547 -0.714 0.55 -0.714 Q 0.5650000000000001 -0.714 0.5700000000000001 -0.6920000000000001 Q 0.583 -0.654 0.611 -0.635 Q 0.625 -0.625 0.625 -0.615 Q 0.625 -0.604 0.608 -0.594 Q 0.5630000000000001 -0.5720000000000001 0.529 -0.529 Q 0.518 -0.516 0.51 -0.516 Q 0.496 -0.516 0.491 -0.53 Q 0.49 -0.533 0.49 -0.536 Q 0.49 -0.552 0.537 -0.595 Z"/></g><g transform="translate(7.070142857142857,8.028285714285714)"><path fill="rgb(255,0,0)" stroke="none" paint-order="stroke fill markers" d=" M 0.35000000000000003 -0.056 L 0.35000000000000003 -0.056 Q 0.298 0.011 0.231 0.011 Q 0.15 0.011 0.121 -0.048 Q 0.108 -0.074 0.108 -0.109 Q 0.108 -0.163 0.161 -0.305 Q 0.163 -0.312 0.166 -0.319 Q 0.183 -0.362 0.183 -0.387 Q 0.183 -0.42 0.158 -0.42 Q 0.10200000000000001 -0.42 0.067 -0.325 Q 0.066 -0.325 0.066 -0.324 L 0.066 -0.323 Q 0.061 -0.31 0.057 -0.296 Q 0.046 -0.279 0.041 -0.278 Q 0.029 -0.278 0.029 -0.28800000000000003 Q 0.029 -0.306 0.05 -0.35100000000000003 Q 0.094 -0.442 0.161 -0.442 Q 0.214 -0.442 0.23500000000000001 -0.397 Q 0.243 -0.38 0.243 -0.36 Q 0.243 -0.34 0.226 -0.297 Q 0.17200000000000001 -0.154 0.17200000000000001 -0.093 Q 0.17200000000000001 -0.011 0.234 -0.011 Q 0.297 -0.011 0.34 -0.08 Q 0.34600000000000003 -0.089 0.34800000000000003 -0.095 Q 0.37 -0.194 0.423 -0.396 Q 0.431 -0.431 0.462 -0.431 Q 0.487 -0.426 0.491 -0.404 Q 0.491 -0.406 0.47600000000000003 -0.337 Q 0.462 -0.28600000000000003 0.459 -0.269 L 0.431 -0.161 Q 0.41100000000000003 -0.074 0.41100000000000003 -0.057 Q 0.41100000000000003 -0.011 0.442 -0.011 Q 0.484 -0.011 0.511 -0.111 Q 0.514 -0.121 0.517 -0.135 Q 0.525 -0.152 0.531 -0.153 Q 0.543 -0.153 0.543 -0.14300000000000002 Q 0.543 -0.128 0.525 -0.073 Q 0.519 -0.056 0.513 -0.044 Q 0.486 0.011 0.439 0.011 Q 0.382 0.011 0.358 -0.037 Q 0.353 -0.046 0.35000000000000003 -0.056 Z"/></g><g transform="translate(7.864365079365079,8.028285714285714)"><path fill="rgb(255,0,0)" stroke="none" paint-order="stroke fill markers" d=" M 0.40900000000000003 -0.23 L 0.40900000000000003 0.05 Q 0.40900000000000003 0.082 0.389 0.083 Q 0.369 0.083 0.369 0.05 L 0.369 -0.23 L 0.089 -0.23 Q 0.057 -0.23 0.056 -0.25 Q 0.056 -0.27 0.089 -0.27 L 0.369 -0.27 L 0.369 -0.55 Q 0.369 -0.582 0.389 -0.583 Q 0.40900000000000003 -0.583 0.40900000000000003 -0.55 L 0.40900000000000003 -0.27 L 0.6880000000000001 -0.27 Q 0.72 -0.27 0.721 -0.25 Q 0.721 -0.23 0.6880000000000001 -0.23 L 0.40900000000000003 -0.23 Z"/></g><g transform="translate(8.864587301587301,8.028285714285714)"><path fill="rgb(255,0,0)" stroke="none" paint-order="stroke fill markers" d=" M 0.537 -0.595 L 0.217 -0.595 Q 0.186 -0.595 0.183 -0.609 Q 0.182 -0.612 0.182 -0.615 Q 0.188 -0.635 0.217 -0.635 L 0.554 -0.635 Q 0.534 -0.661 0.53 -0.6930000000000001 Q 0.53 -0.709 0.544 -0.713 Q 0.547 -0.714 0.55 -0.714 Q 0.5650000000000001 -0.714 0.5700000000000001 -0.6920000000000001 Q 0.583 -0.654 0.611 -0.635 Q 0.625 -0.625 0.625 -0.615 Q 0.625 -0.604 0.608 -0.594 Q 0.5630000000000001 -0.5720000000000001 0.529 -0.529 Q 0.518 -0.516 0.51 -0.516 Q 0.496 -0.516 0.491 -0.53 Q 0.49 -0.533 0.49 -0.536 Q 0.49 -0.552 0.537 -0.595 Z"/></g><g transform="translate(8.903087301587302,8.028285714285714)"><path fill="rgb(255,0,0)" stroke="none" paint-order="stroke fill markers" d=" M 0.468 -0.372 Q 0.468 -0.317 0.438 -0.218 Q 0.38 -0.024 0.277 0.006 Q 0.261 0.011 0.243 0.011 Q 0.152 0.011 0.122 -0.052000000000000005 Q 0.109 -0.078 0.109 -0.113 Q 0.109 -0.165 0.155 -0.289 L 0.166 -0.318 Q 0.183 -0.362 0.183 -0.388 Q 0.183 -0.42 0.158 -0.42 Q 0.10400000000000001 -0.42 0.069 -0.331 Q 0.062 -0.315 0.057 -0.296 Q 0.046 -0.279 0.041 -0.278 Q 0.029 -0.278 0.029 -0.28800000000000003 Q 0.029 -0.306 0.051000000000000004 -0.35100000000000003 Q 0.094 -0.442 0.161 -0.442 Q 0.214 -0.442 0.23500000000000001 -0.397 Q 0.243 -0.38 0.243 -0.36 Q 0.243 -0.339 0.231 -0.31 Q 0.177 -0.166 0.17300000000000001 -0.111 L 0.17300000000000001 -0.098 Q 0.17300000000000001 -0.018000000000000002 0.23700000000000002 -0.011 L 0.247 -0.011 Q 0.328 -0.011 0.387 -0.147 Q 0.422 -0.227 0.425 -0.28200000000000003 Q 0.425 -0.332 0.391 -0.364 Q 0.375 -0.38 0.375 -0.394 Q 0.375 -0.419 0.401 -0.435 Q 0.41200000000000003 -0.442 0.424 -0.442 Q 0.453 -0.442 0.464 -0.405 Q 0.468 -0.391 0.468 -0.372 Z"/></g></g><path fill="rgb(0,0,0)" stroke="none" paint-order="stroke fill markers" d=" M 199.87499999999983 361.87500000000125 C 199.87499999999983 364.6364237491552 197.6364237491538 366.87500000000125 194.87499999999983 366.87500000000125 C 192.11357625084585 366.87500000000125 189.87499999999983 364.6364237491552 189.87499999999983 361.87500000000125 C 189.87499999999983 359.1135762508473 192.11357625084585 356.87500000000125 194.87499999999983 356.87500000000125 C 197.6364237491538 356.87500000000125 199.87499999999983 359.1135762508473 199.87499999999983 361.87500000000125 Z" fill-opacity="1"/><path fill="none" stroke="rgb(0,0,0)" paint-order="fill stroke markers" d=" M 199.87499999999983 361.87500000000125 C 199.87499999999983 364.6364237491552 197.6364237491538 366.87500000000125 194.87499999999983 366.87500000000125 C 192.11357625084585 366.87500000000125 189.87499999999983 364.6364237491552 189.87499999999983 361.87500000000125 C 189.87499999999983 359.1135762508473 192.11357625084585 356.87500000000125 194.87499999999983 356.87500000000125 C 197.6364237491538 356.87500000000125 199.87499999999983 359.1135762508473 199.87499999999983 361.87500000000125 Z" stroke-opacity="1" stroke-linecap="round" stroke-linejoin="round" stroke-miterlimit="10"/><g transform="scale(35,35)"><g transform="translate(4.6571428571428575,11.425857142857142)"><path fill="rgb(0,0,0)" stroke="none" paint-order="stroke fill markers" d=" M 0.179 -0.115 L 0.527 -0.6990000000000001 Q 0.537 -0.715 0.553 -0.716 Q 0.5680000000000001 -0.716 0.5700000000000001 -0.706 Q 0.5710000000000001 -0.7030000000000001 0.5720000000000001 -0.6920000000000001 L 0.633 -0.067 Q 0.636 -0.042 0.645 -0.037 L 0.646 -0.037 L 0.646 -0.037 L 0.646 -0.037 L 0.646 -0.037 L 0.646 -0.036000000000000004 Q 0.658 -0.031 0.6980000000000001 -0.031 Q 0.72 -0.031 0.721 -0.02 Q 0.721 0 0.7030000000000001 0 L 0.591 -0.003 L 0.59 -0.003 L 0.466 0 L 0.465 0 Q 0.451 0 0.451 -0.011 Q 0.459 -0.03 0.47500000000000003 -0.031 Q 0.547 -0.031 0.547 -0.064 Q 0.547 -0.063 0.531 -0.231 L 0.28 -0.231 L 0.20400000000000001 -0.10300000000000001 Q 0.19 -0.078 0.19 -0.066 Q 0.19 -0.035 0.23700000000000002 -0.031 Q 0.253 -0.031 0.253 -0.019 Q 0.253 0 0.234 0 L 0.138 -0.003 L 0.134 -0.003 L 0.05 0 L 0.048 0 Q 0.035 0 0.035 -0.011 Q 0.035 -0.029 0.05 -0.03 L 0.05 -0.031 L 0.056 -0.031 Q 0.11900000000000001 -0.035 0.159 -0.085 Q 0.169 -0.098 0.179 -0.115 M 0.299 -0.262 L 0.528 -0.262 L 0.496 -0.592 L 0.299 -0.262 Z"/></g></g><path fill="rgb(0,0,0)" stroke="none" paint-order="stroke fill markers" d=" M 453 361.87500000000125 C 453 364.6364237491552 450.76142374915395 366.87500000000125 448 366.87500000000125 C 445.23857625084605 366.87500000000125 443 364.6364237491552 443 361.87500000000125 C 443 359.1135762508473 445.23857625084605 356.87500000000125 448 356.87500000000125 C 450.76142374915395 356.87500000000125 453 359.1135762508473 453 361.87500000000125 Z" fill-opacity="1"/><path fill="none" stroke="rgb(0,0,0)" paint-order="fill stroke markers" d=" M 453 361.87500000000125 C 453 364.6364237491552 450.76142374915395 366.87500000000125 448 366.87500000000125 C 445.23857625084605 366.87500000000125 443 364.6364237491552 443 361.87500000000125 C 443 359.1135762508473 445.23857625084605 356.87500000000125 448 356.87500000000125 C 450.76142374915395 356.87500000000125 453 359.1135762508473 453 361.87500000000125 Z" stroke-opacity="1" stroke-linecap="round" stroke-linejoin="round" stroke-miterlimit="10"/><g transform="scale(35,35)"><g transform="translate(13.142857142857142,10.997285714285715)"><path fill="rgb(0,0,0)" stroke="none" paint-order="stroke fill markers" d=" M 0.16 -0.078 L 0.294 -0.615 Q 0.298 -0.631 0.298 -0.634 Q 0.298 -0.646 0.28200000000000003 -0.649 L 0.281 -0.649 L 0.28 -0.649 Q 0.277 -0.649 0.271 -0.65 Q 0.254 -0.652 0.233 -0.652 Q 0.20700000000000002 -0.652 0.20500000000000002 -0.663 Q 0.20500000000000002 -0.681 0.22 -0.683 L 0.221 -0.683 L 0.222 -0.683 L 0.234 -0.683 L 0.5700000000000001 -0.683 Q 0.685 -0.683 0.734 -0.615 Q 0.756 -0.583 0.756 -0.545 Q 0.756 -0.464 0.666 -0.404 Q 0.665 -0.404 0.664 -0.403 Q 0.611 -0.369 0.547 -0.357 Q 0.649 -0.34500000000000003 0.687 -0.277 Q 0.7020000000000001 -0.249 0.7020000000000001 -0.216 Q 0.7020000000000001 -0.14300000000000002 0.632 -0.079 L 0.631 -0.078 Q 0.545 0 0.426 0 L 0.069 0 Q 0.044 0 0.042 -0.011 Q 0.042 -0.029 0.057 -0.031 L 0.069 -0.031 Q 0.134 -0.031 0.147 -0.045 Q 0.153 -0.052000000000000005 0.159 -0.073 Q 0.159 -0.074 0.16 -0.078 M 0.311 -0.366 L 0.457 -0.366 Q 0.556 -0.366 0.62 -0.438 Q 0.665 -0.489 0.665 -0.549 Q 0.665 -0.622 0.605 -0.644 Q 0.584 -0.652 0.556 -0.652 L 0.427 -0.652 Q 0.391 -0.652 0.383 -0.642 L 0.383 -0.642 L 0.383 -0.641 L 0.382 -0.641 L 0.382 -0.64 Q 0.378 -0.634 0.373 -0.614 L 0.311 -0.366 M 0.266 -0.031 L 0.402 -0.031 Q 0.498 -0.031 0.561 -0.10300000000000001 Q 0.609 -0.159 0.609 -0.227 Q 0.609 -0.3 0.557 -0.33 Q 0.531 -0.34400000000000003 0.494 -0.34400000000000003 L 0.305 -0.34400000000000003 L 0.23600000000000002 -0.065 Q 0.231 -0.047 0.231 -0.042 Q 0.231 -0.034 0.24 -0.032 L 0.24 -0.032 L 0.24 -0.032 L 0.244 -0.032 Q 0.25 -0.031 0.266 -0.031 Z"/></g></g><path fill="rgb(0,0,0)" stroke="none" paint-order="stroke fill markers" d=" M 453 235.31250000000148 C 453 238.07392374915545 450.76142374915395 240.31250000000148 448 240.31250000000148 C 445.23857625084605 240.31250000000148 443 238.07392374915545 443 235.31250000000148 C 443 232.5510762508475 445.23857625084605 230.31250000000148 448 230.31250000000148 C 450.76142374915395 230.31250000000148 453 232.5510762508475 453 235.31250000000148 Z" fill-opacity="1"/><path fill="none" stroke="rgb(0,0,0)" paint-order="fill stroke markers" d=" M 453 235.31250000000148 C 453 238.07392374915545 450.76142374915395 240.31250000000148 448 240.31250000000148 C 445.23857625084605 240.31250000000148 443 238.07392374915545 443 235.31250000000148 C 443 232.5510762508475 445.23857625084605 230.31250000000148 448 230.31250000000148 C 450.76142374915395 230.31250000000148 453 232.5510762508475 453 235.31250000000148 Z" stroke-opacity="1" stroke-linecap="round" stroke-linejoin="round" stroke-miterlimit="10"/><g transform="scale(35,35)"><g transform="translate(13.257142857142858,6.968714285714285)"><path fill="rgb(0,0,0)" stroke="none" paint-order="stroke fill markers" d=" M 0.76 -0.6950000000000001 L 0.6970000000000001 -0.44 Q 0.6920000000000001 -0.422 0.687 -0.421 L 0.686 -0.42 L 0.679 -0.42 Q 0.664 -0.42 0.664 -0.43 L 0.667 -0.47900000000000004 L 0.667 -0.481 Q 0.667 -0.605 0.589 -0.652 L 0.588 -0.653 Q 0.553 -0.674 0.506 -0.674 Q 0.4 -0.674 0.305 -0.595 Q 0.281 -0.5760000000000001 0.262 -0.553 Q 0.167 -0.442 0.145 -0.271 Q 0.14100000000000001 -0.24 0.14100000000000001 -0.217 Q 0.14100000000000001 -0.077 0.247 -0.028 Q 0.28800000000000003 -0.009000000000000001 0.337 -0.009000000000000001 Q 0.431 -0.009000000000000001 0.521 -0.082 Q 0.591 -0.14100000000000001 0.622 -0.24 Q 0.624 -0.25 0.635 -0.25 Q 0.647 -0.25 0.647 -0.24 Q 0.647 -0.222 0.624 -0.176 Q 0.593 -0.113 0.537 -0.064 Q 0.438 0.022 0.321 0.022 Q 0.193 0.022 0.116 -0.066 Q 0.05 -0.14100000000000001 0.05 -0.252 Q 0.05 -0.401 0.159 -0.531 Q 0.26 -0.652 0.398 -0.6910000000000001 Q 0.449 -0.705 0.498 -0.705 Q 0.607 -0.705 0.664 -0.616 L 0.734 -0.6930000000000001 Q 0.746 -0.705 0.749 -0.705 Q 0.76 -0.705 0.76 -0.6950000000000001 Z"/></g></g></g></g></svg>