<svg version="1.1" xmlns="http://www.w3.org/2000/svg" xmlns:xlink="http://www.w3.org/1999/xlink" width="1028" height="1022"><defs><clipPath id="mlQTFxFNSqZM"><path fill="none" stroke="none" d=" M 0 0 L 1028 0 L 1028 1022 L 0 1022 L 0 0 Z"/></clipPath></defs><g transform="scale(1,1)" clip-path="url(#mlQTFxFNSqZM)"><g><rect fill="rgb(255,255,255)" stroke="none" x="0" y="0" width="1029" height="1023" fill-opacity="1"/><g transform="scale(35,35)"><g transform="translate(8.685714285714285,5.864285714285714)"><path fill="rgb(0,0,0)" stroke="none" paint-order="stroke fill markers" d=" M 0.159 -0.717 L 0.159 0.217 Q 0.159 0.249 0.139 0.25 Q 0.11900000000000001 0.25 0.11900000000000001 0.217 L 0.11900000000000001 -0.717 Q 0.11900000000000001 -0.749 0.139 -0.75 Q 0.159 -0.75 0.159 -0.717 Z"/></g><g transform="translate(8.963714285714286,5.864285714285714)"><path fill="rgb(0,0,0)" stroke="none" paint-order="stroke fill markers" d=" M 0.537 -0.595 L 0.217 -0.595 Q 0.186 -0.595 0.183 -0.609 Q 0.182 -0.612 0.182 -0.615 Q 0.188 -0.635 0.217 -0.635 L 0.554 -0.635 Q 0.534 -0.661 0.53 -0.6930000000000001 Q 0.53 -0.709 0.544 -0.713 Q 0.547 -0.714 0.55 -0.714 Q 0.5650000000000001 -0.714 0.5700000000000001 -0.6920000000000001 Q 0.583 -0.654 0.611 -0.635 Q 0.625 -0.625 0.625 -0.615 Q 0.625 -0.604 0.608 -0.594 Q 0.5630000000000001 -0.5720000000000001 0.529 -0.529 Q 0.518 -0.516 0.51 -0.516 Q 0.496 -0.516 0.491 -0.53 Q 0.49 -0.533 0.49 -0.536 Q 0.49 -0.552 0.537 -0.595 Z"/></g><g transform="translate(8.976714285714285,5.864285714285714)"><path fill="rgb(0,0,0)" stroke="none" paint-order="stroke fill markers" d=" M 0.35000000000000003 -0.056 L 0.35000000000000003 -0.056 Q 0.298 0.011 0.231 0.011 Q 0.15 0.011 0.121 -0.048 Q 0.108 -0.074 0.108 -0.109 Q 0.108 -0.163 0.161 -0.305 Q 0.163 -0.312 0.166 -0.319 Q 0.183 -0.362 0.183 -0.387 Q 0.183 -0.42 0.158 -0.42 Q 0.10200000000000001 -0.42 0.067 -0.325 Q 0.066 -0.325 0.066 -0.324 L 0.066 -0.323 Q 0.061 -0.31 0.057 -0.296 Q 0.046 -0.279 0.041 -0.278 Q 0.029 -0.278 0.029 -0.28800000000000003 Q 0.029 -0.306 0.05 -0.35100000000000003 Q 0.094 -0.442 0.161 -0.442 Q 0.214 -0.442 0.23500000000000001 -0.397 Q 0.243 -0.38 0.243 -0.36 Q 0.243 -0.34 0.226 -0.297 Q 0.17200000000000001 -0.154 0.17200000000000001 -0.093 Q 0.17200000000000001 -0.011 0.234 -0.011 Q 0.297 -0.011 0.34 -0.08 Q 0.34600000000000003 -0.089 0.34800000000000003 -0.095 Q 0.37 -0.194 0.423 -0.396 Q 0.431 -0.431 0.462 -0.431 Q 0.487 -0.426 0.491 -0.404 Q 0.491 -0.406 0.47600000000000003 -0.337 Q 0.462 -0.28600000000000003 0.459 -0.269 L 0.431 -0.161 Q 0.41100000000000003 -0.074 0.41100000000000003 -0.057 Q 0.41100000000000003 -0.011 0.442 -0.011 Q 0.484 -0.011 0.511 -0.111 Q 0.514 -0.121 0.517 -0.135 Q 0.525 -0.152 0.531 -0.153 Q 0.543 -0.153 0.543 -0.14300000000000002 Q 0.543 -0.128 0.525 -0.073 Q 0.519 -0.056 0.513 -0.044 Q 0.486 0.011 0.439 0.011 Q 0.382 0.011 0.358 -0.037 Q 0.353 -0.046 0.35000000000000003 -0.056 Z"/></g><g transform="translate(9.548714285714286,5.864285714285714)"><path fill="rgb(0,0,0)" stroke="none" paint-order="stroke fill markers" d=" M 0.159 -0.717 L 0.159 0.217 Q 0.159 0.249 0.139 0.25 Q 0.11900000000000001 0.25 0.11900000000000001 0.217 L 0.11900000000000001 -0.717 Q 0.11900000000000001 -0.749 0.139 -0.75 Q 0.159 -0.75 0.159 -0.717 Z"/></g></g><path fill="rgb(0,0,0)" stroke="none" paint-order="stroke fill markers" d=" M 204.65161202343523 179.36977962263785 L 203.63022037736346 181.65161202343654 L 203.63022037736343 181.65161202343654 L 411.3483879765647 274.6302203773645 L 411.34838797656477 274.6302203773645 L 412.36977962263654 272.3483879765658 L 412.36977962263666 272.3483879765658 L 204.6516120234352 179.36977962263785 Z" fill-opacity="0.6980392156862745"/><path fill="rgb(0,0,0)" stroke="none" paint-order="stroke fill markers" d=" M 203.90186709174424 174.925639375368 L 199.81630050745704 184.0529689785628 C 199.53425099259204 184.68307959687826 199.81641026650505 185.42253148713303 200.44652088482053 185.70458100199806 C 201.07663150313596 185.98663051686304 201.81608339339073 185.70447124295004 202.09813290825576 185.0743606246346 L 206.18369949254293 175.94703102143978 C 206.46574900740796 175.31692040312436 206.18358973349495 174.5774685128696 205.55347911517947 174.29541899800455 C 204.923368496864 174.01336948313954 204.18391660660922 174.29552875705255 203.90186709174424 174.925639375368 Z" fill-opacity="0.6980392156862745"/><path fill="rgb(0,0,0)" stroke="none" paint-order="stroke fill markers" d=" M 413.90186709174424 268.9256393753677 L 409.8163005074571 278.05296897856255 C 409.5342509925921 278.683079596878 409.8164102665051 279.4225314871328 410.4465208848205 279.7045810019978 C 411.07663150313596 279.98663051686276 411.8160833933908 279.7044712429498 412.09813290825576 279.0743606246343 L 416.1836994925429 269.94703102143956 C 416.46574900740796 269.3169204031241 416.18358973349495 268.5774685128693 415.55347911517947 268.2954189980043 C 414.92336849686404 268.0133694831393 414.1839166066093 268.2955287570523 413.90186709174424 268.9256393753677 Z" fill-opacity="0.6980392156862745"/><path fill="rgb(0,0,255)" stroke="none" paint-order="stroke fill markers" d=" M 203.00156357879564 203.24931775517587 C 201.9505692122072 203.24931775517587 200.94715633321275 203.85512754507536 200.4899843591213 204.87646918932222 C 199.8694754264183 206.26271254961623 200.4902258290269 207.88950670817675 201.87646918932091 208.51001564087977 L 381.75628149877815 289.0276459127318 L 379.5092198774202 294.0476771944889 L 412.99999999999994 300.00000000000097 L 386.25040474149404 278.9875833492176 L 384.0033431201361 284.0076146309747 L 204.12353081067886 203.48998435912262 C 203.75862909463171 203.32664740051104 203.37705952580248 203.24931775517587 203.00156357879564 203.24931775517587 Z" fill-opacity="0.6980392156862745"/><g transform="scale(35,35)"><g transform="translate(7.828571428571428,8.114)"><path fill="rgb(0,0,255)" stroke="none" paint-order="stroke fill markers" d=" M 0.537 -0.595 L 0.217 -0.595 Q 0.186 -0.595 0.183 -0.609 Q 0.182 -0.612 0.182 -0.615 Q 0.188 -0.635 0.217 -0.635 L 0.554 -0.635 Q 0.534 -0.661 0.53 -0.6930000000000001 Q 0.53 -0.709 0.544 -0.713 Q 0.547 -0.714 0.55 -0.714 Q 0.5650000000000001 -0.714 0.5700000000000001 -0.6920000000000001 Q 0.583 -0.654 0.611 -0.635 Q 0.625 -0.625 0.625 -0.615 Q 0.625 -0.604 0.608 -0.594 Q 0.5630000000000001 -0.5720000000000001 0.529 -0.529 Q 0.518 -0.516 0.51 -0.516 Q 0.496 -0.516 0.491 -0.53 Q 0.49 -0.533 0.49 -0.536 Q 0.49 -0.552 0.537 -0.595 Z"/></g><g transform="translate(7.841571428571428,8.114)"><path fill="rgb(0,0,255)" stroke="none" paint-order="stroke fill markers" d=" M 0.35000000000000003 -0.056 L 0.35000000000000003 -0.056 Q 0.298 0.011 0.231 0.011 Q 0.15 0.011 0.121 -0.048 Q 0.108 -0.074 0.108 -0.109 Q 0.108 -0.163 0.161 -0.305 Q 0.163 -0.312 0.166 -0.319 Q 0.183 -0.362 0.183 -0.387 Q 0.183 -0.42 0.158 -0.42 Q 0.10200000000000001 -0.42 0.067 -0.325 Q 0.066 -0.325 0.066 -0.324 L 0.066 -0.323 Q 0.061 -0.31 0.057 -0.296 Q 0.046 -0.279 0.041 -0.278 Q 0.029 -0.278 0.029 -0.28800000000000003 Q 0.029 -0.306 0.05 -0.35100000000000003 Q 0.094 -0.442 0.161 -0.442 Q 0.214 -0.442 0.23500000000000001 -0.397 Q 0.243 -0.38 0.243 -0.36 Q 0.243 -0.34 0.226 -0.297 Q 0.17200000000000001 -0.154 0.17200000000000001 -0.093 Q 0.17200000000000001 -0.011 0.234 -0.011 Q 0.297 -0.011 0.34 -0.08 Q 0.34600000000000003 -0.089 0.34800000000000003 -0.095 Q 0.37 -0.194 0.423 -0.396 Q 0.431 -0.431 0.462 -0.431 Q 0.487 -0.426 0.491 -0.404 Q 0.491 -0.406 0.47600000000000003 -0.337 Q 0.462 -0.28600000000000003 0.459 -0.269 L 0.431 -0.161 Q 0.41100000000000003 -0.074 0.41100000000000003 -0.057 Q 0.41100000000000003 -0.011 0.442 -0.011 Q 0.484 -0.011 0.511 -0.111 Q 0.514 -0.121 0.517 -0.135 Q 0.525 -0.152 0.531 -0.153 Q 0.543 -0.153 0.543 -0.14300000000000002 Q 0.543 -0.128 0.525 -0.073 Q 0.519 -0.056 0.513 -0.044 Q 0.486 0.011 0.439 0.011 Q 0.382 0.011 0.358 -0.037 Q 0.353 -0.046 0.35000000000000003 -0.056 Z"/></g></g><path fill="rgb(77,77,255)" stroke="none" paint-order="stroke fill markers" d=" M 207.9999999999999 206.0000000000012 C 207.9999999999999 208.76142374915517 205.76142374915386 211.0000000000012 202.9999999999999 211.0000000000012 C 200.2385762508459 211.0000000000012 197.9999999999999 208.76142374915517 197.9999999999999 206.0000000000012 C 197.9999999999999 203.23857625084722 200.2385762508459 201.0000000000012 202.9999999999999 201.0000000000012 C 205.76142374915386 201.0000000000012 207.9999999999999 203.23857625084722 207.9999999999999 206.0000000000012 Z" fill-opacity="1"/><path fill="none" stroke="rgb(0,0,0)" paint-order="fill stroke markers" d=" M 207.9999999999999 206.0000000000012 C 207.9999999999999 208.76142374915517 205.76142374915386 211.0000000000012 202.9999999999999 211.0000000000012 C 200.2385762508459 211.0000000000012 197.9999999999999 208.76142374915517 197.9999999999999 206.0000000000012 C 197.9999999999999 203.23857625084722 200.2385762508459 201.0000000000012 202.9999999999999 201.0000000000012 C 205.76142374915386 201.0000000000012 207.9999999999999 203.23857625084722 207.9999999999999 206.0000000000012 Z" stroke-opacity="1" stroke-linecap="round" stroke-linejoin="round" stroke-miterlimit="10"/><g transform="scale(35,35)"><g transform="translate(5.371428571428571,7.083)"><path fill="rgb(77,77,255)" stroke="none" paint-order="stroke fill markers" d=" M 0.179 -0.115 L 0.527 -0.6990000000000001 Q 0.537 -0.715 0.553 -0.716 Q 0.5680000000000001 -0.716 0.5700000000000001 -0.706 Q 0.5710000000000001 -0.7030000000000001 0.5720000000000001 -0.6920000000000001 L 0.633 -0.067 Q 0.636 -0.042 0.645 -0.037 L 0.646 -0.037 L 0.646 -0.037 L 0.646 -0.037 L 0.646 -0.037 L 0.646 -0.036000000000000004 Q 0.658 -0.031 0.6980000000000001 -0.031 Q 0.72 -0.031 0.721 -0.02 Q 0.721 0 0.7030000000000001 0 L 0.591 -0.003 L 0.59 -0.003 L 0.466 0 L 0.465 0 Q 0.451 0 0.451 -0.011 Q 0.459 -0.03 0.47500000000000003 -0.031 Q 0.547 -0.031 0.547 -0.064 Q 0.547 -0.063 0.531 -0.231 L 0.28 -0.231 L 0.20400000000000001 -0.10300000000000001 Q 0.19 -0.078 0.19 -0.066 Q 0.19 -0.035 0.23700000000000002 -0.031 Q 0.253 -0.031 0.253 -0.019 Q 0.253 0 0.234 0 L 0.138 -0.003 L 0.134 -0.003 L 0.05 0 L 0.048 0 Q 0.035 0 0.035 -0.011 Q 0.035 -0.029 0.05 -0.03 L 0.05 -0.031 L 0.056 -0.031 Q 0.11900000000000001 -0.035 0.159 -0.085 Q 0.169 -0.098 0.179 -0.115 M 0.299 -0.262 L 0.528 -0.262 L 0.496 -0.592 L 0.299 -0.262 Z"/></g></g><path fill="rgb(77,77,255)" stroke="none" paint-order="stroke fill markers" d=" M 417.99999999999994 300.00000000000097 C 417.99999999999994 302.7614237491549 415.7614237491539 305.00000000000097 412.99999999999994 305.00000000000097 C 410.238576250846 305.00000000000097 407.99999999999994 302.7614237491549 407.99999999999994 300.00000000000097 C 407.99999999999994 297.238576250847 410.238576250846 295.00000000000097 412.99999999999994 295.00000000000097 C 415.7614237491539 295.00000000000097 417.99999999999994 297.238576250847 417.99999999999994 300.00000000000097 Z" fill-opacity="1"/><path fill="none" stroke="rgb(0,0,0)" paint-order="fill stroke markers" d=" M 417.99999999999994 300.00000000000097 C 417.99999999999994 302.7614237491549 415.7614237491539 305.00000000000097 412.99999999999994 305.00000000000097 C 410.238576250846 305.00000000000097 407.99999999999994 302.7614237491549 407.99999999999994 300.00000000000097 C 407.99999999999994 297.238576250847 410.238576250846 295.00000000000097 412.99999999999994 295.00000000000097 C 415.7614237491539 295.00000000000097 417.99999999999994 297.238576250847 417.99999999999994 300.00000000000097 Z" stroke-opacity="1" stroke-linecap="round" stroke-linejoin="round" stroke-miterlimit="10"/><g transform="scale(35,35)"><g transform="translate(11.571428571428571,9.711571428571428)"><path fill="rgb(77,77,255)" stroke="none" paint-order="stroke fill markers" d=" M 0.16 -0.078 L 0.294 -0.615 Q 0.298 -0.631 0.298 -0.634 Q 0.298 -0.646 0.28200000000000003 -0.649 L 0.281 -0.649 L 0.28 -0.649 Q 0.277 -0.649 0.271 -0.65 Q 0.254 -0.652 0.233 -0.652 Q 0.20700000000000002 -0.652 0.20500000000000002 -0.663 Q 0.20500000000000002 -0.681 0.22 -0.683 L 0.221 -0.683 L 0.222 -0.683 L 0.234 -0.683 L 0.5700000000000001 -0.683 Q 0.685 -0.683 0.734 -0.615 Q 0.756 -0.583 0.756 -0.545 Q 0.756 -0.464 0.666 -0.404 Q 0.665 -0.404 0.664 -0.403 Q 0.611 -0.369 0.547 -0.357 Q 0.649 -0.34500000000000003 0.687 -0.277 Q 0.7020000000000001 -0.249 0.7020000000000001 -0.216 Q 0.7020000000000001 -0.14300000000000002 0.632 -0.079 L 0.631 -0.078 Q 0.545 0 0.426 0 L 0.069 0 Q 0.044 0 0.042 -0.011 Q 0.042 -0.029 0.057 -0.031 L 0.069 -0.031 Q 0.134 -0.031 0.147 -0.045 Q 0.153 -0.052000000000000005 0.159 -0.073 Q 0.159 -0.074 0.16 -0.078 M 0.311 -0.366 L 0.457 -0.366 Q 0.556 -0.366 0.62 -0.438 Q 0.665 -0.489 0.665 -0.549 Q 0.665 -0.622 0.605 -0.644 Q 0.584 -0.652 0.556 -0.652 L 0.427 -0.652 Q 0.391 -0.652 0.383 -0.642 L 0.383 -0.642 L 0.383 -0.641 L 0.382 -0.641 L 0.382 -0.64 Q 0.378 -0.634 0.373 -0.614 L 0.311 -0.366 M 0.266 -0.031 L 0.402 -0.031 Q 0.498 -0.031 0.561 -0.10300000000000001 Q 0.609 -0.159 0.609 -0.227 Q 0.609 -0.3 0.557 -0.33 Q 0.531 -0.34400000000000003 0.494 -0.34400000000000003 L 0.305 -0.34400000000000003 L 0.23600000000000002 -0.065 Q 0.231 -0.047 0.231 -0.042 Q 0.231 -0.034 0.24 -0.032 L 0.24 -0.032 L 0.24 -0.032 L 0.244 -0.032 Q 0.25 -0.031 0.266 -0.031 Z"/></g></g></g></g></svg>