<svg version="1.1" xmlns="http://www.w3.org/2000/svg" xmlns:xlink="http://www.w3.org/1999/xlink" width="852" height="352"><defs><clipPath id="PGhbyTUIsubx"><path fill="none" stroke="none" d=" M 0 0 L 852 0 L 852 352 L 0 352 L 0 0 Z"/></clipPath></defs><g transform="scale(1,1)" clip-path="url(#PGhbyTUIsubx)"><g><rect fill="rgb(255,255,255)" stroke="none" x="0" y="0" width="853" height="352" fill-opacity="1"/><path fill="none" stroke="rgb(192,192,192)" paint-order="fill stroke markers" d=" M 1.5 0.5 L 1.5 352.5 M 1.5 0.5 L 1.5 352.5 M 56.5 0.5 L 56.5 352.5 M 111.5 0.5 L 111.5 352.5 M 166.5 0.5 L 166.5 352.5 M 221.5 0.5 L 221.5 352.5 M 276.5 0.5 L 276.5 352.5 M 331.5 0.5 L 331.5 352.5 M 386.5 0.5 L 386.5 352.5 M 441.5 0.5 L 441.5 352.5 M 496.5 0.5 L 496.5 352.5 M 551.5 0.5 L 551.5 352.5 M 606.5 0.5 L 606.5 352.5 M 661.5 0.5 L 661.5 352.5 M 716.5 0.5 L 716.5 352.5 M 771.5 0.5 L 771.5 352.5 M 826.5 0.5 L 826.5 352.5" stroke-opacity="1" stroke-linecap="round" stroke-linejoin="round" stroke-miterlimit="10"/><path fill="none" stroke="rgb(192,192,192)" paint-order="fill stroke markers" d=" M 12.5 0.5 L 12.5 352.5 M 23.5 0.5 L 23.5 352.5 M 34.5 0.5 L 34.5 352.5 M 45.5 0.5 L 45.5 352.5 M 67.5 0.5 L 67.5 352.5 M 78.5 0.5 L 78.5 352.5 M 89.5 0.5 L 89.5 352.5 M 100.5 0.5 L 100.5 352.5 M 122.5 0.5 L 122.5 352.5 M 133.5 0.5 L 133.5 352.5 M 144.5 0.5 L 144.5 352.5 M 155.5 0.5 L 155.5 352.5 M 177.5 0.5 L 177.5 352.5 M 188.5 0.5 L 188.5 352.5 M 199.5 0.5 L 199.5 352.5 M 210.5 0.5 L 210.5 352.5 M 232.5 0.5 L 232.5 352.5 M 243.5 0.5 L 243.5 352.5 M 254.5 0.5 L 254.5 352.5 M 265.5 0.5 L 265.5 352.5 M 287.5 0.5 L 287.5 352.5 M 298.5 0.5 L 298.5 352.5 M 309.5 0.5 L 309.5 352.5 M 320.5 0.5 L 320.5 352.5 M 342.5 0.5 L 342.5 352.5 M 353.5 0.5 L 353.5 352.5 M 364.5 0.5 L 364.5 352.5 M 375.5 0.5 L 375.5 352.5 M 397.5 0.5 L 397.5 352.5 M 408.5 0.5 L 408.5 352.5 M 419.5 0.5 L 419.5 352.5 M 430.5 0.5 L 430.5 352.5 M 452.5 0.5 L 452.5 352.5 M 463.5 0.5 L 463.5 352.5 M 474.5 0.5 L 474.5 352.5 M 485.5 0.5 L 485.5 352.5 M 507.5 0.5 L 507.5 352.5 M 518.5 0.5 L 518.5 352.5 M 529.5 0.5 L 529.5 352.5 M 540.5 0.5 L 540.5 352.5 M 562.5 0.5 L 562.5 352.5 M 573.5 0.5 L 573.5 352.5 M 584.5 0.5 L 584.5 352.5 M 595.5 0.5 L 595.5 352.5 M 617.5 0.5 L 617.5 352.5 M 628.5 0.5 L 628.5 352.5 M 639.5 0.5 L 639.5 352.5 M 650.5 0.5 L 650.5 352.5 M 672.5 0.5 L 672.5 352.5 M 683.5 0.5 L 683.5 352.5 M 694.5 0.5 L 694.5 352.5 M 705.5 0.5 L 705.5 352.5 M 727.5 0.5 L 727.5 352.5 M 738.5 0.5 L 738.5 352.5 M 749.5 0.5 L 749.5 352.5 M 760.5 0.5 L 760.5 352.5 M 782.5 0.5 L 782.5 352.5 M 793.5 0.5 L 793.5 352.5 M 804.5 0.5 L 804.5 352.5 M 815.5 0.5 L 815.5 352.5 M 837.5 0.5 L 837.5 352.5 M 848.5 0.5 L 848.5 352.5" stroke-opacity="0.23529411764705882" stroke-linecap="round" stroke-linejoin="round" stroke-miterlimit="10"/><path fill="none" stroke="rgb(192,192,192)" paint-order="fill stroke markers" d=" M 0.5 43.5 L 852.5 43.5 M 0.5 43.5 L 852.5 43.5 M 0.5 98.5 L 852.5 98.5 M 0.5 153.5 L 852.5 153.5 M 0.5 208.5 L 852.5 208.5 M 0.5 263.5 L 852.5 263.5 M 0.5 318.5 L 852.5 318.5" stroke-opacity="1" stroke-linecap="round" stroke-linejoin="round" stroke-miterlimit="10"/><path fill="none" stroke="rgb(192,192,192)" paint-order="fill stroke markers" d=" M 0.5 10.5 L 852.5 10.5 M 0.5 10.5 L 852.5 10.5 M 0.5 21.5 L 852.5 21.5 M 0.5 32.5 L 852.5 32.5 M 0.5 54.5 L 852.5 54.5 M 0.5 65.5 L 852.5 65.5 M 0.5 76.5 L 852.5 76.5 M 0.5 87.5 L 852.5 87.5 M 0.5 109.5 L 852.5 109.5 M 0.5 120.5 L 852.5 120.5 M 0.5 131.5 L 852.5 131.5 M 0.5 142.5 L 852.5 142.5 M 0.5 164.5 L 852.5 164.5 M 0.5 175.5 L 852.5 175.5 M 0.5 186.5 L 852.5 186.5 M 0.5 197.5 L 852.5 197.5 M 0.5 219.5 L 852.5 219.5 M 0.5 230.5 L 852.5 230.5 M 0.5 241.5 L 852.5 241.5 M 0.5 252.5 L 852.5 252.5 M 0.5 274.5 L 852.5 274.5 M 0.5 285.5 L 852.5 285.5 M 0.5 296.5 L 852.5 296.5 M 0.5 307.5 L 852.5 307.5 M 0.5 329.5 L 852.5 329.5 M 0.5 340.5 L 852.5 340.5 M 0.5 351.5 L 852.5 351.5" stroke-opacity="0.23529411764705882" stroke-linecap="round" stroke-linejoin="round" stroke-miterlimit="10"/><path fill="rgb(0,0,0)" stroke="none" paint-order="stroke fill markers" d=" M 276.4990294243766 152.04972617930196 C 276.3111669176783 152.04972617930196 276.1204422468367 152.0922363906428 275.94098300562473 152.1819660112488 L 181.14624525262337 199.57933488774898 L 179.8046044661235 196.89605331474922 L 166.49999999999972 208.2999999999981 L 183.6059200278731 204.49868443824852 L 182.26427924137323 201.81540286524876 L 277.0590169943746 154.41803398874856 C 277.6764901161536 154.10929742785905 277.92677054963906 153.3584561274028 277.6180339887495 152.74098300562375 C 277.39902704846594 152.30296912505665 276.95755351606607 152.04972617930198 276.4990294243766 152.04972617930196 Z" fill-opacity="0.6980392156862745"/><g transform="scale(19,19)"><g transform="translate(12.842105263157896,9.819263157894737)"><path fill="rgb(0,0,0)" stroke="none" paint-order="stroke fill markers" d=" M 0.537 -0.595 L 0.217 -0.595 Q 0.186 -0.595 0.183 -0.609 Q 0.182 -0.612 0.182 -0.615 Q 0.188 -0.635 0.217 -0.635 L 0.554 -0.635 Q 0.534 -0.661 0.53 -0.6930000000000001 Q 0.53 -0.709 0.544 -0.713 Q 0.547 -0.714 0.55 -0.714 Q 0.5650000000000001 -0.714 0.5700000000000001 -0.6920000000000001 Q 0.583 -0.654 0.611 -0.635 Q 0.625 -0.625 0.625 -0.615 Q 0.625 -0.604 0.608 -0.594 Q 0.5630000000000001 -0.5720000000000001 0.529 -0.529 Q 0.518 -0.516 0.51 -0.516 Q 0.496 -0.516 0.491 -0.53 Q 0.49 -0.533 0.49 -0.536 Q 0.49 -0.552 0.537 -0.595 Z"/></g><g transform="translate(12.855105263157895,9.819263157894737)"><path fill="rgb(0,0,0)" stroke="none" paint-order="stroke fill markers" d=" M 0.35000000000000003 -0.056 L 0.35000000000000003 -0.056 Q 0.298 0.011 0.231 0.011 Q 0.15 0.011 0.121 -0.048 Q 0.108 -0.074 0.108 -0.109 Q 0.108 -0.163 0.161 -0.305 Q 0.163 -0.312 0.166 -0.319 Q 0.183 -0.362 0.183 -0.387 Q 0.183 -0.42 0.158 -0.42 Q 0.10200000000000001 -0.42 0.067 -0.325 Q 0.066 -0.325 0.066 -0.324 L 0.066 -0.323 Q 0.061 -0.31 0.057 -0.296 Q 0.046 -0.279 0.041 -0.278 Q 0.029 -0.278 0.029 -0.28800000000000003 Q 0.029 -0.306 0.05 -0.35100000000000003 Q 0.094 -0.442 0.161 -0.442 Q 0.214 -0.442 0.23500000000000001 -0.397 Q 0.243 -0.38 0.243 -0.36 Q 0.243 -0.34 0.226 -0.297 Q 0.17200000000000001 -0.154 0.17200000000000001 -0.093 Q 0.17200000000000001 -0.011 0.234 -0.011 Q 0.297 -0.011 0.34 -0.08 Q 0.34600000000000003 -0.089 0.34800000000000003 -0.095 Q 0.37 -0.194 0.423 -0.396 Q 0.431 -0.431 0.462 -0.431 Q 0.487 -0.426 0.491 -0.404 Q 0.491 -0.406 0.47600000000000003 -0.337 Q 0.462 -0.28600000000000003 0.459 -0.269 L 0.431 -0.161 Q 0.41100000000000003 -0.074 0.41100000000000003 -0.057 Q 0.41100000000000003 -0.011 0.442 -0.011 Q 0.484 -0.011 0.511 -0.111 Q 0.514 -0.121 0.517 -0.135 Q 0.525 -0.152 0.531 -0.153 Q 0.543 -0.153 0.543 -0.14300000000000002 Q 0.543 -0.128 0.525 -0.073 Q 0.519 -0.056 0.513 -0.044 Q 0.486 0.011 0.439 0.011 Q 0.382 0.011 0.358 -0.037 Q 0.353 -0.046 0.35000000000000003 -0.056 Z"/></g></g><path fill="rgb(0,0,0)" stroke="none" paint-order="stroke fill markers" d=" M 276.49999999999966 208.29999999999814 L 285.5156114601282 223.32601910021222 L 287.63693180368784 221.20469875665256 L 330.61611652351644 264.18388347648073 C 330.860194205861 264.42796115882527 331.1800971029303 264.54999999999757 331.4999999999996 264.54999999999757 C 331.8199028970689 264.54999999999757 332.1398057941382 264.42796115882527 332.38388347648277 264.18388347648073 C 332.87203884117184 263.69572811179165 332.87203884117184 262.9042718882035 332.38388347648277 262.4161165235144 L 289.4046987566542 219.4369318036862 L 289.40469875665417 219.4369318036862 L 291.52601910021383 217.31561146012652 L 276.4999999999997 208.29999999999814 Z" fill-opacity="0.6980392156862745"/><g transform="scale(19,19)"><g transform="translate(16,11.977157894736843)"><path fill="rgb(0,0,0)" stroke="none" paint-order="stroke fill markers" d=" M 0.537 -0.595 L 0.217 -0.595 Q 0.186 -0.595 0.183 -0.609 Q 0.182 -0.612 0.182 -0.615 Q 0.188 -0.635 0.217 -0.635 L 0.554 -0.635 Q 0.534 -0.661 0.53 -0.6930000000000001 Q 0.53 -0.709 0.544 -0.713 Q 0.547 -0.714 0.55 -0.714 Q 0.5650000000000001 -0.714 0.5700000000000001 -0.6920000000000001 Q 0.583 -0.654 0.611 -0.635 Q 0.625 -0.625 0.625 -0.615 Q 0.625 -0.604 0.608 -0.594 Q 0.5630000000000001 -0.5720000000000001 0.529 -0.529 Q 0.518 -0.516 0.51 -0.516 Q 0.496 -0.516 0.491 -0.53 Q 0.49 -0.533 0.49 -0.536 Q 0.49 -0.552 0.537 -0.595 Z"/></g><g transform="translate(16.0385,11.977157894736843)"><path fill="rgb(0,0,0)" stroke="none" paint-order="stroke fill markers" d=" M 0.468 -0.372 Q 0.468 -0.317 0.438 -0.218 Q 0.38 -0.024 0.277 0.006 Q 0.261 0.011 0.243 0.011 Q 0.152 0.011 0.122 -0.052000000000000005 Q 0.109 -0.078 0.109 -0.113 Q 0.109 -0.165 0.155 -0.289 L 0.166 -0.318 Q 0.183 -0.362 0.183 -0.388 Q 0.183 -0.42 0.158 -0.42 Q 0.10400000000000001 -0.42 0.069 -0.331 Q 0.062 -0.315 0.057 -0.296 Q 0.046 -0.279 0.041 -0.278 Q 0.029 -0.278 0.029 -0.28800000000000003 Q 0.029 -0.306 0.051000000000000004 -0.35100000000000003 Q 0.094 -0.442 0.161 -0.442 Q 0.214 -0.442 0.23500000000000001 -0.397 Q 0.243 -0.38 0.243 -0.36 Q 0.243 -0.339 0.231 -0.31 Q 0.177 -0.166 0.17300000000000001 -0.111 L 0.17300000000000001 -0.098 Q 0.17300000000000001 -0.018000000000000002 0.23700000000000002 -0.011 L 0.247 -0.011 Q 0.328 -0.011 0.387 -0.147 Q 0.422 -0.227 0.425 -0.28200000000000003 Q 0.425 -0.332 0.391 -0.364 Q 0.375 -0.38 0.375 -0.394 Q 0.375 -0.419 0.401 -0.435 Q 0.41200000000000003 -0.442 0.424 -0.442 Q 0.453 -0.442 0.464 -0.405 Q 0.468 -0.391 0.468 -0.372 Z"/></g></g><path fill="rgb(0,0,0)" stroke="none" paint-order="stroke fill markers" d=" M 221.49999999999966 98.29999999999922 L 206.4739808997855 107.31561146012764 L 208.59530124334515 109.4369318036873 L 208.5953012433451 109.4369318036873 L 165.61611652351652 152.41611652351548 C 165.12796115882745 152.90427188820456 165.12796115882745 153.6957281117928 165.61611652351652 154.18388347648187 C 165.86019420586106 154.4279611588264 166.1800971029304 154.54999999999868 166.49999999999972 154.54999999999868 C 166.81990289706903 154.54999999999868 167.13980579413837 154.4279611588264 167.3838834764829 154.18388347648187 L 210.36306819631147 111.20469875665368 L 210.3630681963115 111.20469875665368 L 212.48438853987113 113.32601910021332 L 221.49999999999966 98.29999999999922 Z" fill-opacity="0.6980392156862745"/><g transform="scale(19,19)"><g transform="translate(9.811710526315789,5.977157894736843)"><path fill="rgb(0,0,0)" stroke="none" paint-order="stroke fill markers" d=" M 0.537 -0.595 L 0.217 -0.595 Q 0.186 -0.595 0.183 -0.609 Q 0.182 -0.612 0.182 -0.615 Q 0.188 -0.635 0.217 -0.635 L 0.554 -0.635 Q 0.534 -0.661 0.53 -0.6930000000000001 Q 0.53 -0.709 0.544 -0.713 Q 0.547 -0.714 0.55 -0.714 Q 0.5650000000000001 -0.714 0.5700000000000001 -0.6920000000000001 Q 0.583 -0.654 0.611 -0.635 Q 0.625 -0.625 0.625 -0.615 Q 0.625 -0.604 0.608 -0.594 Q 0.5630000000000001 -0.5720000000000001 0.529 -0.529 Q 0.518 -0.516 0.51 -0.516 Q 0.496 -0.516 0.491 -0.53 Q 0.49 -0.533 0.49 -0.536 Q 0.49 -0.552 0.537 -0.595 Z"/></g><g transform="translate(9.68421052631579,5.977157894736843)"><path fill="rgb(0,0,0)" stroke="none" paint-order="stroke fill markers" d=" M 0.462 -0.339 L 0.42 -0.171 Q 0.40900000000000003 -0.132 0.40900000000000003 -0.098 Q 0.417 -0.016 0.483 -0.011 Q 0.55 -0.011 0.593 -0.099 Q 0.627 -0.167 0.644 -0.252 Q 0.648 -0.271 0.648 -0.28200000000000003 Q 0.648 -0.331 0.612 -0.367 Q 0.597 -0.38 0.597 -0.394 Q 0.597 -0.419 0.624 -0.435 Q 0.635 -0.442 0.647 -0.442 Q 0.675 -0.442 0.686 -0.40700000000000003 Q 0.6910000000000001 -0.392 0.6910000000000001 -0.372 Q 0.6910000000000001 -0.31 0.651 -0.183 Q 0.638 -0.14200000000000002 0.625 -0.112 Q 0.5720000000000001 0.011 0.48 0.011 Q 0.383 0.011 0.355 -0.059000000000000004 Q 0.315 0.011 0.251 0.011 Q 0.153 0.011 0.121 -0.056 Q 0.109 -0.082 0.109 -0.115 Q 0.109 -0.166 0.162 -0.31 Q 0.164 -0.313 0.165 -0.317 Q 0.183 -0.361 0.183 -0.387 Q 0.183 -0.42 0.158 -0.42 Q 0.097 -0.42 0.061 -0.309 Q 0.059000000000000004 -0.303 0.057 -0.296 Q 0.046 -0.279 0.041 -0.278 Q 0.029 -0.278 0.029 -0.28800000000000003 Q 0.029 -0.306 0.05 -0.35100000000000003 Q 0.094 -0.442 0.161 -0.442 Q 0.213 -0.442 0.234 -0.398 Q 0.243 -0.381 0.243 -0.36 Q 0.243 -0.342 0.226 -0.296 Q 0.17400000000000002 -0.16 0.17400000000000002 -0.10200000000000001 Q 0.17400000000000002 -0.013000000000000001 0.254 -0.011 Q 0.31 -0.011 0.34600000000000003 -0.095 Q 0.34500000000000003 -0.1 0.34500000000000003 -0.113 Q 0.34500000000000003 -0.14 0.354 -0.179 L 0.41100000000000003 -0.403 Q 0.42 -0.429 0.448 -0.431 Q 0.47300000000000003 -0.426 0.47700000000000004 -0.404 Q 0.47700000000000004 -0.405 0.462 -0.339 Z"/></g></g><path fill="rgb(77,77,255)" stroke="none" paint-order="stroke fill markers" d=" M 116.49999999999976 98.29999999999922 C 116.49999999999976 101.06142374915318 114.26142374915372 103.29999999999922 111.49999999999976 103.29999999999922 C 108.7385762508458 103.29999999999922 106.49999999999976 101.06142374915318 106.49999999999976 98.29999999999922 C 106.49999999999976 95.53857625084525 108.7385762508458 93.29999999999922 111.49999999999976 93.29999999999922 C 114.26142374915372 93.29999999999922 116.49999999999976 95.53857625084525 116.49999999999976 98.29999999999922 Z" fill-opacity="1"/><path fill="none" stroke="rgb(0,0,0)" paint-order="fill stroke markers" d=" M 116.49999999999976 98.29999999999922 C 116.49999999999976 101.06142374915318 114.26142374915372 103.29999999999922 111.49999999999976 103.29999999999922 C 108.7385762508458 103.29999999999922 106.49999999999976 101.06142374915318 106.49999999999976 98.29999999999922 C 106.49999999999976 95.53857625084525 108.7385762508458 93.29999999999922 111.49999999999976 93.29999999999922 C 114.26142374915372 93.29999999999922 116.49999999999976 95.53857625084525 116.49999999999976 98.29999999999922 Z" stroke-opacity="1" stroke-linecap="round" stroke-linejoin="round" stroke-miterlimit="10"/><text fill="rgb(77,77,255)" stroke="none" font-family="geogebra-sans-serif, sans-serif" font-size="16px" font-style="normal" font-weight="normal" text-decoration="normal" x="115" y="88" text-anchor="start" dominant-baseline="alphabetic" fill-opacity="1">A</text><text fill="none" stroke="rgb(255,255,255)" font-family="geogebra-sans-serif, sans-serif" font-size="16px" font-style="normal" font-weight="normal" text-decoration="normal" x="115" y="88" text-anchor="start" dominant-baseline="alphabetic" stroke-opacity="1" stroke-linejoin="bevel" stroke-miterlimit="10" stroke-width="3">A</text><text fill="rgb(77,77,255)" stroke="none" font-family="geogebra-sans-serif, sans-serif" font-size="16px" font-style="normal" font-weight="normal" text-decoration="normal" x="115" y="88" text-anchor="start" dominant-baseline="alphabetic" fill-opacity="1">A</text><path fill="rgb(77,77,255)" stroke="none" paint-order="stroke fill markers" d=" M 171.49999999999972 98.29999999999922 C 171.49999999999972 101.06142374915318 169.2614237491537 103.29999999999922 166.49999999999972 103.29999999999922 C 163.73857625084574 103.29999999999922 161.49999999999972 101.06142374915318 161.49999999999972 98.29999999999922 C 161.49999999999972 95.53857625084525 163.73857625084574 93.29999999999922 166.49999999999972 93.29999999999922 C 169.2614237491537 93.29999999999922 171.49999999999972 95.53857625084525 171.49999999999972 98.29999999999922 Z" fill-opacity="1"/><path fill="none" stroke="rgb(0,0,0)" paint-order="fill stroke markers" d=" M 171.49999999999972 98.29999999999922 C 171.49999999999972 101.06142374915318 169.2614237491537 103.29999999999922 166.49999999999972 103.29999999999922 C 163.73857625084574 103.29999999999922 161.49999999999972 101.06142374915318 161.49999999999972 98.29999999999922 C 161.49999999999972 95.53857625084525 163.73857625084574 93.29999999999922 166.49999999999972 93.29999999999922 C 169.2614237491537 93.29999999999922 171.49999999999972 95.53857625084525 171.49999999999972 98.29999999999922 Z" stroke-opacity="1" stroke-linecap="round" stroke-linejoin="round" stroke-miterlimit="10"/><text fill="rgb(77,77,255)" stroke="none" font-family="geogebra-sans-serif, sans-serif" font-size="16px" font-style="normal" font-weight="normal" text-decoration="normal" x="170" y="88" text-anchor="start" dominant-baseline="alphabetic" fill-opacity="1">B</text><text fill="none" stroke="rgb(255,255,255)" font-family="geogebra-sans-serif, sans-serif" font-size="16px" font-style="normal" font-weight="normal" text-decoration="normal" x="170" y="88" text-anchor="start" dominant-baseline="alphabetic" stroke-opacity="1" stroke-linejoin="bevel" stroke-miterlimit="10" stroke-width="3">B</text><text fill="rgb(77,77,255)" stroke="none" font-family="geogebra-sans-serif, sans-serif" font-size="16px" font-style="normal" font-weight="normal" text-decoration="normal" x="170" y="88" text-anchor="start" dominant-baseline="alphabetic" fill-opacity="1">B</text><path fill="rgb(77,77,255)" stroke="none" paint-order="stroke fill markers" d=" M 226.49999999999966 98.29999999999922 C 226.49999999999966 101.06142374915318 224.26142374915364 103.29999999999922 221.49999999999966 103.29999999999922 C 218.73857625084568 103.29999999999922 216.49999999999966 101.06142374915318 216.49999999999966 98.29999999999922 C 216.49999999999966 95.53857625084525 218.73857625084568 93.29999999999922 221.49999999999966 93.29999999999922 C 224.26142374915364 93.29999999999922 226.49999999999966 95.53857625084525 226.49999999999966 98.29999999999922 Z" fill-opacity="1"/><path fill="none" stroke="rgb(0,0,0)" paint-order="fill stroke markers" d=" M 226.49999999999966 98.29999999999922 C 226.49999999999966 101.06142374915318 224.26142374915364 103.29999999999922 221.49999999999966 103.29999999999922 C 218.73857625084568 103.29999999999922 216.49999999999966 101.06142374915318 216.49999999999966 98.29999999999922 C 216.49999999999966 95.53857625084525 218.73857625084568 93.29999999999922 221.49999999999966 93.29999999999922 C 224.26142374915364 93.29999999999922 226.49999999999966 95.53857625084525 226.49999999999966 98.29999999999922 Z" stroke-opacity="1" stroke-linecap="round" stroke-linejoin="round" stroke-miterlimit="10"/><text fill="rgb(77,77,255)" stroke="none" font-family="geogebra-sans-serif, sans-serif" font-size="16px" font-style="normal" font-weight="normal" text-decoration="normal" x="225" y="88" text-anchor="start" dominant-baseline="alphabetic" fill-opacity="1">C</text><text fill="none" stroke="rgb(255,255,255)" font-family="geogebra-sans-serif, sans-serif" font-size="16px" font-style="normal" font-weight="normal" text-decoration="normal" x="225" y="88" text-anchor="start" dominant-baseline="alphabetic" stroke-opacity="1" stroke-linejoin="bevel" stroke-miterlimit="10" stroke-width="3">C</text><text fill="rgb(77,77,255)" stroke="none" font-family="geogebra-sans-serif, sans-serif" font-size="16px" font-style="normal" font-weight="normal" text-decoration="normal" x="225" y="88" text-anchor="start" dominant-baseline="alphabetic" fill-opacity="1">C</text><path fill="rgb(77,77,255)" stroke="none" paint-order="stroke fill markers" d=" M 281.49999999999966 98.29999999999922 C 281.49999999999966 101.06142374915318 279.2614237491536 103.29999999999922 276.49999999999966 103.29999999999922 C 273.7385762508457 103.29999999999922 271.49999999999966 101.06142374915318 271.49999999999966 98.29999999999922 C 271.49999999999966 95.53857625084525 273.7385762508457 93.29999999999922 276.49999999999966 93.29999999999922 C 279.2614237491536 93.29999999999922 281.49999999999966 95.53857625084525 281.49999999999966 98.29999999999922 Z" fill-opacity="1"/><path fill="none" stroke="rgb(0,0,0)" paint-order="fill stroke markers" d=" M 281.49999999999966 98.29999999999922 C 281.49999999999966 101.06142374915318 279.2614237491536 103.29999999999922 276.49999999999966 103.29999999999922 C 273.7385762508457 103.29999999999922 271.49999999999966 101.06142374915318 271.49999999999966 98.29999999999922 C 271.49999999999966 95.53857625084525 273.7385762508457 93.29999999999922 276.49999999999966 93.29999999999922 C 279.2614237491536 93.29999999999922 281.49999999999966 95.53857625084525 281.49999999999966 98.29999999999922 Z" stroke-opacity="1" stroke-linecap="round" stroke-linejoin="round" stroke-miterlimit="10"/><text fill="rgb(77,77,255)" stroke="none" font-family="geogebra-sans-serif, sans-serif" font-size="16px" font-style="normal" font-weight="normal" text-decoration="normal" x="280" y="88" text-anchor="start" dominant-baseline="alphabetic" fill-opacity="1">D</text><text fill="none" stroke="rgb(255,255,255)" font-family="geogebra-sans-serif, sans-serif" font-size="16px" font-style="normal" font-weight="normal" text-decoration="normal" x="280" y="88" text-anchor="start" dominant-baseline="alphabetic" stroke-opacity="1" stroke-linejoin="bevel" stroke-miterlimit="10" stroke-width="3">D</text><text fill="rgb(77,77,255)" stroke="none" font-family="geogebra-sans-serif, sans-serif" font-size="16px" font-style="normal" font-weight="normal" text-decoration="normal" x="280" y="88" text-anchor="start" dominant-baseline="alphabetic" fill-opacity="1">D</text><path fill="rgb(77,77,255)" stroke="none" paint-order="stroke fill markers" d=" M 336.4999999999996 98.29999999999922 C 336.4999999999996 101.06142374915318 334.26142374915355 103.29999999999922 331.4999999999996 103.29999999999922 C 328.73857625084565 103.29999999999922 326.4999999999996 101.06142374915318 326.4999999999996 98.29999999999922 C 326.4999999999996 95.53857625084525 328.73857625084565 93.29999999999922 331.4999999999996 93.29999999999922 C 334.26142374915355 93.29999999999922 336.4999999999996 95.53857625084525 336.4999999999996 98.29999999999922 Z" fill-opacity="1"/><path fill="none" stroke="rgb(0,0,0)" paint-order="fill stroke markers" d=" M 336.4999999999996 98.29999999999922 C 336.4999999999996 101.06142374915318 334.26142374915355 103.29999999999922 331.4999999999996 103.29999999999922 C 328.73857625084565 103.29999999999922 326.4999999999996 101.06142374915318 326.4999999999996 98.29999999999922 C 326.4999999999996 95.53857625084525 328.73857625084565 93.29999999999922 331.4999999999996 93.29999999999922 C 334.26142374915355 93.29999999999922 336.4999999999996 95.53857625084525 336.4999999999996 98.29999999999922 Z" stroke-opacity="1" stroke-linecap="round" stroke-linejoin="round" stroke-miterlimit="10"/><text fill="rgb(77,77,255)" stroke="none" font-family="geogebra-sans-serif, sans-serif" font-size="16px" font-style="normal" font-weight="normal" text-decoration="normal" x="335" y="88" text-anchor="start" dominant-baseline="alphabetic" fill-opacity="1">E</text><text fill="none" stroke="rgb(255,255,255)" font-family="geogebra-sans-serif, sans-serif" font-size="16px" font-style="normal" font-weight="normal" text-decoration="normal" x="335" y="88" text-anchor="start" dominant-baseline="alphabetic" stroke-opacity="1" stroke-linejoin="bevel" stroke-miterlimit="10" stroke-width="3">E</text><text fill="rgb(77,77,255)" stroke="none" font-family="geogebra-sans-serif, sans-serif" font-size="16px" font-style="normal" font-weight="normal" text-decoration="normal" x="335" y="88" text-anchor="start" dominant-baseline="alphabetic" fill-opacity="1">E</text><path fill="rgb(77,77,255)" stroke="none" paint-order="stroke fill markers" d=" M 391.49999999999955 98.29999999999922 C 391.49999999999955 101.06142374915318 389.2614237491535 103.29999999999922 386.49999999999955 103.29999999999922 C 383.7385762508456 103.29999999999922 381.49999999999955 101.06142374915318 381.49999999999955 98.29999999999922 C 381.49999999999955 95.53857625084525 383.7385762508456 93.29999999999922 386.49999999999955 93.29999999999922 C 389.2614237491535 93.29999999999922 391.49999999999955 95.53857625084525 391.49999999999955 98.29999999999922 Z" fill-opacity="1"/><path fill="none" stroke="rgb(0,0,0)" paint-order="fill stroke markers" d=" M 391.49999999999955 98.29999999999922 C 391.49999999999955 101.06142374915318 389.2614237491535 103.29999999999922 386.49999999999955 103.29999999999922 C 383.7385762508456 103.29999999999922 381.49999999999955 101.06142374915318 381.49999999999955 98.29999999999922 C 381.49999999999955 95.53857625084525 383.7385762508456 93.29999999999922 386.49999999999955 93.29999999999922 C 389.2614237491535 93.29999999999922 391.49999999999955 95.53857625084525 391.49999999999955 98.29999999999922 Z" stroke-opacity="1" stroke-linecap="round" stroke-linejoin="round" stroke-miterlimit="10"/><text fill="rgb(77,77,255)" stroke="none" font-family="geogebra-sans-serif, sans-serif" font-size="16px" font-style="normal" font-weight="normal" text-decoration="normal" x="390" y="88" text-anchor="start" dominant-baseline="alphabetic" fill-opacity="1">F</text><text fill="none" stroke="rgb(255,255,255)" font-family="geogebra-sans-serif, sans-serif" font-size="16px" font-style="normal" font-weight="normal" text-decoration="normal" x="390" y="88" text-anchor="start" dominant-baseline="alphabetic" stroke-opacity="1" stroke-linejoin="bevel" stroke-miterlimit="10" stroke-width="3">F</text><text fill="rgb(77,77,255)" stroke="none" font-family="geogebra-sans-serif, sans-serif" font-size="16px" font-style="normal" font-weight="normal" text-decoration="normal" x="390" y="88" text-anchor="start" dominant-baseline="alphabetic" fill-opacity="1">F</text><path fill="rgb(77,77,255)" stroke="none" paint-order="stroke fill markers" d=" M 116.49999999999976 153.29999999999868 C 116.49999999999976 156.06142374915265 114.26142374915372 158.29999999999868 111.49999999999976 158.29999999999868 C 108.7385762508458 158.29999999999868 106.49999999999976 156.06142374915265 106.49999999999976 153.29999999999868 C 106.49999999999976 150.5385762508447 108.7385762508458 148.29999999999868 111.49999999999976 148.29999999999868 C 114.26142374915372 148.29999999999868 116.49999999999976 150.5385762508447 116.49999999999976 153.29999999999868 Z" fill-opacity="1"/><path fill="none" stroke="rgb(0,0,0)" paint-order="fill stroke markers" d=" M 116.49999999999976 153.29999999999868 C 116.49999999999976 156.06142374915265 114.26142374915372 158.29999999999868 111.49999999999976 158.29999999999868 C 108.7385762508458 158.29999999999868 106.49999999999976 156.06142374915265 106.49999999999976 153.29999999999868 C 106.49999999999976 150.5385762508447 108.7385762508458 148.29999999999868 111.49999999999976 148.29999999999868 C 114.26142374915372 148.29999999999868 116.49999999999976 150.5385762508447 116.49999999999976 153.29999999999868 Z" stroke-opacity="1" stroke-linecap="round" stroke-linejoin="round" stroke-miterlimit="10"/><text fill="rgb(77,77,255)" stroke="none" font-family="geogebra-sans-serif, sans-serif" font-size="16px" font-style="normal" font-weight="normal" text-decoration="normal" x="115" y="143" text-anchor="start" dominant-baseline="alphabetic" fill-opacity="1">G</text><text fill="none" stroke="rgb(255,255,255)" font-family="geogebra-sans-serif, sans-serif" font-size="16px" font-style="normal" font-weight="normal" text-decoration="normal" x="115" y="143" text-anchor="start" dominant-baseline="alphabetic" stroke-opacity="1" stroke-linejoin="bevel" stroke-miterlimit="10" stroke-width="3">G</text><text fill="rgb(77,77,255)" stroke="none" font-family="geogebra-sans-serif, sans-serif" font-size="16px" font-style="normal" font-weight="normal" text-decoration="normal" x="115" y="143" text-anchor="start" dominant-baseline="alphabetic" fill-opacity="1">G</text><path fill="rgb(77,77,255)" stroke="none" paint-order="stroke fill markers" d=" M 171.49999999999972 153.29999999999868 C 171.49999999999972 156.06142374915265 169.2614237491537 158.29999999999868 166.49999999999972 158.29999999999868 C 163.73857625084574 158.29999999999868 161.49999999999972 156.06142374915265 161.49999999999972 153.29999999999868 C 161.49999999999972 150.5385762508447 163.73857625084574 148.29999999999868 166.49999999999972 148.29999999999868 C 169.2614237491537 148.29999999999868 171.49999999999972 150.5385762508447 171.49999999999972 153.29999999999868 Z" fill-opacity="1"/><path fill="none" stroke="rgb(0,0,0)" paint-order="fill stroke markers" d=" M 171.49999999999972 153.29999999999868 C 171.49999999999972 156.06142374915265 169.2614237491537 158.29999999999868 166.49999999999972 158.29999999999868 C 163.73857625084574 158.29999999999868 161.49999999999972 156.06142374915265 161.49999999999972 153.29999999999868 C 161.49999999999972 150.5385762508447 163.73857625084574 148.29999999999868 166.49999999999972 148.29999999999868 C 169.2614237491537 148.29999999999868 171.49999999999972 150.5385762508447 171.49999999999972 153.29999999999868 Z" stroke-opacity="1" stroke-linecap="round" stroke-linejoin="round" stroke-miterlimit="10"/><text fill="rgb(77,77,255)" stroke="none" font-family="geogebra-sans-serif, sans-serif" font-size="16px" font-style="normal" font-weight="normal" text-decoration="normal" x="170" y="143" text-anchor="start" dominant-baseline="alphabetic" fill-opacity="1">H</text><text fill="none" stroke="rgb(255,255,255)" font-family="geogebra-sans-serif, sans-serif" font-size="16px" font-style="normal" font-weight="normal" text-decoration="normal" x="170" y="143" text-anchor="start" dominant-baseline="alphabetic" stroke-opacity="1" stroke-linejoin="bevel" stroke-miterlimit="10" stroke-width="3">H</text><text fill="rgb(77,77,255)" stroke="none" font-family="geogebra-sans-serif, sans-serif" font-size="16px" font-style="normal" font-weight="normal" text-decoration="normal" x="170" y="143" text-anchor="start" dominant-baseline="alphabetic" fill-opacity="1">H</text><path fill="rgb(77,77,255)" stroke="none" paint-order="stroke fill markers" d=" M 226.49999999999966 153.29999999999868 C 226.49999999999966 156.06142374915265 224.26142374915364 158.29999999999868 221.49999999999966 158.29999999999868 C 218.73857625084568 158.29999999999868 216.49999999999966 156.06142374915265 216.49999999999966 153.29999999999868 C 216.49999999999966 150.5385762508447 218.73857625084568 148.29999999999868 221.49999999999966 148.29999999999868 C 224.26142374915364 148.29999999999868 226.49999999999966 150.5385762508447 226.49999999999966 153.29999999999868 Z" fill-opacity="1"/><path fill="none" stroke="rgb(0,0,0)" paint-order="fill stroke markers" d=" M 226.49999999999966 153.29999999999868 C 226.49999999999966 156.06142374915265 224.26142374915364 158.29999999999868 221.49999999999966 158.29999999999868 C 218.73857625084568 158.29999999999868 216.49999999999966 156.06142374915265 216.49999999999966 153.29999999999868 C 216.49999999999966 150.5385762508447 218.73857625084568 148.29999999999868 221.49999999999966 148.29999999999868 C 224.26142374915364 148.29999999999868 226.49999999999966 150.5385762508447 226.49999999999966 153.29999999999868 Z" stroke-opacity="1" stroke-linecap="round" stroke-linejoin="round" stroke-miterlimit="10"/><text fill="rgb(77,77,255)" stroke="none" font-family="geogebra-sans-serif, sans-serif" font-size="16px" font-style="normal" font-weight="normal" text-decoration="normal" x="225" y="143" text-anchor="start" dominant-baseline="alphabetic" fill-opacity="1">I</text><text fill="none" stroke="rgb(255,255,255)" font-family="geogebra-sans-serif, sans-serif" font-size="16px" font-style="normal" font-weight="normal" text-decoration="normal" x="225" y="143" text-anchor="start" dominant-baseline="alphabetic" stroke-opacity="1" stroke-linejoin="bevel" stroke-miterlimit="10" stroke-width="3">I</text><text fill="rgb(77,77,255)" stroke="none" font-family="geogebra-sans-serif, sans-serif" font-size="16px" font-style="normal" font-weight="normal" text-decoration="normal" x="225" y="143" text-anchor="start" dominant-baseline="alphabetic" fill-opacity="1">I</text><path fill="rgb(77,77,255)" stroke="none" paint-order="stroke fill markers" d=" M 281.49999999999966 153.29999999999868 C 281.49999999999966 156.06142374915265 279.2614237491536 158.29999999999868 276.49999999999966 158.29999999999868 C 273.7385762508457 158.29999999999868 271.49999999999966 156.06142374915265 271.49999999999966 153.29999999999868 C 271.49999999999966 150.5385762508447 273.7385762508457 148.29999999999868 276.49999999999966 148.29999999999868 C 279.2614237491536 148.29999999999868 281.49999999999966 150.5385762508447 281.49999999999966 153.29999999999868 Z" fill-opacity="1"/><path fill="none" stroke="rgb(0,0,0)" paint-order="fill stroke markers" d=" M 281.49999999999966 153.29999999999868 C 281.49999999999966 156.06142374915265 279.2614237491536 158.29999999999868 276.49999999999966 158.29999999999868 C 273.7385762508457 158.29999999999868 271.49999999999966 156.06142374915265 271.49999999999966 153.29999999999868 C 271.49999999999966 150.5385762508447 273.7385762508457 148.29999999999868 276.49999999999966 148.29999999999868 C 279.2614237491536 148.29999999999868 281.49999999999966 150.5385762508447 281.49999999999966 153.29999999999868 Z" stroke-opacity="1" stroke-linecap="round" stroke-linejoin="round" stroke-miterlimit="10"/><text fill="rgb(77,77,255)" stroke="none" font-family="geogebra-sans-serif, sans-serif" font-size="16px" font-style="normal" font-weight="normal" text-decoration="normal" x="280" y="143" text-anchor="start" dominant-baseline="alphabetic" fill-opacity="1">J</text><text fill="none" stroke="rgb(255,255,255)" font-family="geogebra-sans-serif, sans-serif" font-size="16px" font-style="normal" font-weight="normal" text-decoration="normal" x="280" y="143" text-anchor="start" dominant-baseline="alphabetic" stroke-opacity="1" stroke-linejoin="bevel" stroke-miterlimit="10" stroke-width="3">J</text><text fill="rgb(77,77,255)" stroke="none" font-family="geogebra-sans-serif, sans-serif" font-size="16px" font-style="normal" font-weight="normal" text-decoration="normal" x="280" y="143" text-anchor="start" dominant-baseline="alphabetic" fill-opacity="1">J</text><path fill="rgb(77,77,255)" stroke="none" paint-order="stroke fill markers" d=" M 336.4999999999996 153.29999999999868 C 336.4999999999996 156.06142374915265 334.26142374915355 158.29999999999868 331.4999999999996 158.29999999999868 C 328.73857625084565 158.29999999999868 326.4999999999996 156.06142374915265 326.4999999999996 153.29999999999868 C 326.4999999999996 150.5385762508447 328.73857625084565 148.29999999999868 331.4999999999996 148.29999999999868 C 334.26142374915355 148.29999999999868 336.4999999999996 150.5385762508447 336.4999999999996 153.29999999999868 Z" fill-opacity="1"/><path fill="none" stroke="rgb(0,0,0)" paint-order="fill stroke markers" d=" M 336.4999999999996 153.29999999999868 C 336.4999999999996 156.06142374915265 334.26142374915355 158.29999999999868 331.4999999999996 158.29999999999868 C 328.73857625084565 158.29999999999868 326.4999999999996 156.06142374915265 326.4999999999996 153.29999999999868 C 326.4999999999996 150.5385762508447 328.73857625084565 148.29999999999868 331.4999999999996 148.29999999999868 C 334.26142374915355 148.29999999999868 336.4999999999996 150.5385762508447 336.4999999999996 153.29999999999868 Z" stroke-opacity="1" stroke-linecap="round" stroke-linejoin="round" stroke-miterlimit="10"/><text fill="rgb(77,77,255)" stroke="none" font-family="geogebra-sans-serif, sans-serif" font-size="16px" font-style="normal" font-weight="normal" text-decoration="normal" x="335" y="143" text-anchor="start" dominant-baseline="alphabetic" fill-opacity="1">K</text><text fill="none" stroke="rgb(255,255,255)" font-family="geogebra-sans-serif, sans-serif" font-size="16px" font-style="normal" font-weight="normal" text-decoration="normal" x="335" y="143" text-anchor="start" dominant-baseline="alphabetic" stroke-opacity="1" stroke-linejoin="bevel" stroke-miterlimit="10" stroke-width="3">K</text><text fill="rgb(77,77,255)" stroke="none" font-family="geogebra-sans-serif, sans-serif" font-size="16px" font-style="normal" font-weight="normal" text-decoration="normal" x="335" y="143" text-anchor="start" dominant-baseline="alphabetic" fill-opacity="1">K</text><path fill="rgb(77,77,255)" stroke="none" paint-order="stroke fill markers" d=" M 391.49999999999955 153.29999999999868 C 391.49999999999955 156.06142374915265 389.2614237491535 158.29999999999868 386.49999999999955 158.29999999999868 C 383.7385762508456 158.29999999999868 381.49999999999955 156.06142374915265 381.49999999999955 153.29999999999868 C 381.49999999999955 150.5385762508447 383.7385762508456 148.29999999999868 386.49999999999955 148.29999999999868 C 389.2614237491535 148.29999999999868 391.49999999999955 150.5385762508447 391.49999999999955 153.29999999999868 Z" fill-opacity="1"/><path fill="none" stroke="rgb(0,0,0)" paint-order="fill stroke markers" d=" M 391.49999999999955 153.29999999999868 C 391.49999999999955 156.06142374915265 389.2614237491535 158.29999999999868 386.49999999999955 158.29999999999868 C 383.7385762508456 158.29999999999868 381.49999999999955 156.06142374915265 381.49999999999955 153.29999999999868 C 381.49999999999955 150.5385762508447 383.7385762508456 148.29999999999868 386.49999999999955 148.29999999999868 C 389.2614237491535 148.29999999999868 391.49999999999955 150.5385762508447 391.49999999999955 153.29999999999868 Z" stroke-opacity="1" stroke-linecap="round" stroke-linejoin="round" stroke-miterlimit="10"/><text fill="rgb(77,77,255)" stroke="none" font-family="geogebra-sans-serif, sans-serif" font-size="16px" font-style="normal" font-weight="normal" text-decoration="normal" x="390" y="143" text-anchor="start" dominant-baseline="alphabetic" fill-opacity="1">L</text><text fill="none" stroke="rgb(255,255,255)" font-family="geogebra-sans-serif, sans-serif" font-size="16px" font-style="normal" font-weight="normal" text-decoration="normal" x="390" y="143" text-anchor="start" dominant-baseline="alphabetic" stroke-opacity="1" stroke-linejoin="bevel" stroke-miterlimit="10" stroke-width="3">L</text><text fill="rgb(77,77,255)" stroke="none" font-family="geogebra-sans-serif, sans-serif" font-size="16px" font-style="normal" font-weight="normal" text-decoration="normal" x="390" y="143" text-anchor="start" dominant-baseline="alphabetic" fill-opacity="1">L</text><path fill="rgb(77,77,255)" stroke="none" paint-order="stroke fill markers" d=" M 116.49999999999976 208.2999999999981 C 116.49999999999976 211.06142374915208 114.26142374915372 213.2999999999981 111.49999999999976 213.2999999999981 C 108.7385762508458 213.2999999999981 106.49999999999976 211.06142374915208 106.49999999999976 208.2999999999981 C 106.49999999999976 205.53857625084413 108.7385762508458 203.2999999999981 111.49999999999976 203.2999999999981 C 114.26142374915372 203.2999999999981 116.49999999999976 205.53857625084413 116.49999999999976 208.2999999999981 Z" fill-opacity="1"/><path fill="none" stroke="rgb(0,0,0)" paint-order="fill stroke markers" d=" M 116.49999999999976 208.2999999999981 C 116.49999999999976 211.06142374915208 114.26142374915372 213.2999999999981 111.49999999999976 213.2999999999981 C 108.7385762508458 213.2999999999981 106.49999999999976 211.06142374915208 106.49999999999976 208.2999999999981 C 106.49999999999976 205.53857625084413 108.7385762508458 203.2999999999981 111.49999999999976 203.2999999999981 C 114.26142374915372 203.2999999999981 116.49999999999976 205.53857625084413 116.49999999999976 208.2999999999981 Z" stroke-opacity="1" stroke-linecap="round" stroke-linejoin="round" stroke-miterlimit="10"/><text fill="rgb(77,77,255)" stroke="none" font-family="geogebra-sans-serif, sans-serif" font-size="16px" font-style="normal" font-weight="normal" text-decoration="normal" x="115" y="198" text-anchor="start" dominant-baseline="alphabetic" fill-opacity="1">M</text><text fill="none" stroke="rgb(255,255,255)" font-family="geogebra-sans-serif, sans-serif" font-size="16px" font-style="normal" font-weight="normal" text-decoration="normal" x="115" y="198" text-anchor="start" dominant-baseline="alphabetic" stroke-opacity="1" stroke-linejoin="bevel" stroke-miterlimit="10" stroke-width="3">M</text><text fill="rgb(77,77,255)" stroke="none" font-family="geogebra-sans-serif, sans-serif" font-size="16px" font-style="normal" font-weight="normal" text-decoration="normal" x="115" y="198" text-anchor="start" dominant-baseline="alphabetic" fill-opacity="1">M</text><path fill="rgb(77,77,255)" stroke="none" paint-order="stroke fill markers" d=" M 171.49999999999972 208.2999999999981 C 171.49999999999972 211.06142374915208 169.2614237491537 213.2999999999981 166.49999999999972 213.2999999999981 C 163.73857625084574 213.2999999999981 161.49999999999972 211.06142374915208 161.49999999999972 208.2999999999981 C 161.49999999999972 205.53857625084413 163.73857625084574 203.2999999999981 166.49999999999972 203.2999999999981 C 169.2614237491537 203.2999999999981 171.49999999999972 205.53857625084413 171.49999999999972 208.2999999999981 Z" fill-opacity="1"/><path fill="none" stroke="rgb(0,0,0)" paint-order="fill stroke markers" d=" M 171.49999999999972 208.2999999999981 C 171.49999999999972 211.06142374915208 169.2614237491537 213.2999999999981 166.49999999999972 213.2999999999981 C 163.73857625084574 213.2999999999981 161.49999999999972 211.06142374915208 161.49999999999972 208.2999999999981 C 161.49999999999972 205.53857625084413 163.73857625084574 203.2999999999981 166.49999999999972 203.2999999999981 C 169.2614237491537 203.2999999999981 171.49999999999972 205.53857625084413 171.49999999999972 208.2999999999981 Z" stroke-opacity="1" stroke-linecap="round" stroke-linejoin="round" stroke-miterlimit="10"/><text fill="rgb(77,77,255)" stroke="none" font-family="geogebra-sans-serif, sans-serif" font-size="16px" font-style="normal" font-weight="normal" text-decoration="normal" x="170" y="198" text-anchor="start" dominant-baseline="alphabetic" fill-opacity="1">N</text><text fill="none" stroke="rgb(255,255,255)" font-family="geogebra-sans-serif, sans-serif" font-size="16px" font-style="normal" font-weight="normal" text-decoration="normal" x="170" y="198" text-anchor="start" dominant-baseline="alphabetic" stroke-opacity="1" stroke-linejoin="bevel" stroke-miterlimit="10" stroke-width="3">N</text><text fill="rgb(77,77,255)" stroke="none" font-family="geogebra-sans-serif, sans-serif" font-size="16px" font-style="normal" font-weight="normal" text-decoration="normal" x="170" y="198" text-anchor="start" dominant-baseline="alphabetic" fill-opacity="1">N</text><path fill="rgb(77,77,255)" stroke="none" paint-order="stroke fill markers" d=" M 226.49999999999966 208.2999999999981 C 226.49999999999966 211.06142374915208 224.26142374915364 213.2999999999981 221.49999999999966 213.2999999999981 C 218.73857625084568 213.2999999999981 216.49999999999966 211.06142374915208 216.49999999999966 208.2999999999981 C 216.49999999999966 205.53857625084413 218.73857625084568 203.2999999999981 221.49999999999966 203.2999999999981 C 224.26142374915364 203.2999999999981 226.49999999999966 205.53857625084413 226.49999999999966 208.2999999999981 Z" fill-opacity="1"/><path fill="none" stroke="rgb(0,0,0)" paint-order="fill stroke markers" d=" M 226.49999999999966 208.2999999999981 C 226.49999999999966 211.06142374915208 224.26142374915364 213.2999999999981 221.49999999999966 213.2999999999981 C 218.73857625084568 213.2999999999981 216.49999999999966 211.06142374915208 216.49999999999966 208.2999999999981 C 216.49999999999966 205.53857625084413 218.73857625084568 203.2999999999981 221.49999999999966 203.2999999999981 C 224.26142374915364 203.2999999999981 226.49999999999966 205.53857625084413 226.49999999999966 208.2999999999981 Z" stroke-opacity="1" stroke-linecap="round" stroke-linejoin="round" stroke-miterlimit="10"/><text fill="rgb(77,77,255)" stroke="none" font-family="geogebra-sans-serif, sans-serif" font-size="16px" font-style="normal" font-weight="normal" text-decoration="normal" x="225" y="198" text-anchor="start" dominant-baseline="alphabetic" fill-opacity="1">O</text><text fill="none" stroke="rgb(255,255,255)" font-family="geogebra-sans-serif, sans-serif" font-size="16px" font-style="normal" font-weight="normal" text-decoration="normal" x="225" y="198" text-anchor="start" dominant-baseline="alphabetic" stroke-opacity="1" stroke-linejoin="bevel" stroke-miterlimit="10" stroke-width="3">O</text><text fill="rgb(77,77,255)" stroke="none" font-family="geogebra-sans-serif, sans-serif" font-size="16px" font-style="normal" font-weight="normal" text-decoration="normal" x="225" y="198" text-anchor="start" dominant-baseline="alphabetic" fill-opacity="1">O</text><path fill="rgb(77,77,255)" stroke="none" paint-order="stroke fill markers" d=" M 281.49999999999966 208.2999999999981 C 281.49999999999966 211.06142374915208 279.2614237491536 213.2999999999981 276.49999999999966 213.2999999999981 C 273.7385762508457 213.2999999999981 271.49999999999966 211.06142374915208 271.49999999999966 208.2999999999981 C 271.49999999999966 205.53857625084413 273.7385762508457 203.2999999999981 276.49999999999966 203.2999999999981 C 279.2614237491536 203.2999999999981 281.49999999999966 205.53857625084413 281.49999999999966 208.2999999999981 Z" fill-opacity="1"/><path fill="none" stroke="rgb(0,0,0)" paint-order="fill stroke markers" d=" M 281.49999999999966 208.2999999999981 C 281.49999999999966 211.06142374915208 279.2614237491536 213.2999999999981 276.49999999999966 213.2999999999981 C 273.7385762508457 213.2999999999981 271.49999999999966 211.06142374915208 271.49999999999966 208.2999999999981 C 271.49999999999966 205.53857625084413 273.7385762508457 203.2999999999981 276.49999999999966 203.2999999999981 C 279.2614237491536 203.2999999999981 281.49999999999966 205.53857625084413 281.49999999999966 208.2999999999981 Z" stroke-opacity="1" stroke-linecap="round" stroke-linejoin="round" stroke-miterlimit="10"/><text fill="rgb(77,77,255)" stroke="none" font-family="geogebra-sans-serif, sans-serif" font-size="16px" font-style="normal" font-weight="normal" text-decoration="normal" x="280" y="198" text-anchor="start" dominant-baseline="alphabetic" fill-opacity="1">P</text><text fill="none" stroke="rgb(255,255,255)" font-family="geogebra-sans-serif, sans-serif" font-size="16px" font-style="normal" font-weight="normal" text-decoration="normal" x="280" y="198" text-anchor="start" dominant-baseline="alphabetic" stroke-opacity="1" stroke-linejoin="bevel" stroke-miterlimit="10" stroke-width="3">P</text><text fill="rgb(77,77,255)" stroke="none" font-family="geogebra-sans-serif, sans-serif" font-size="16px" font-style="normal" font-weight="normal" text-decoration="normal" x="280" y="198" text-anchor="start" dominant-baseline="alphabetic" fill-opacity="1">P</text><path fill="rgb(77,77,255)" stroke="none" paint-order="stroke fill markers" d=" M 336.4999999999996 208.2999999999981 C 336.4999999999996 211.06142374915208 334.26142374915355 213.2999999999981 331.4999999999996 213.2999999999981 C 328.73857625084565 213.2999999999981 326.4999999999996 211.06142374915208 326.4999999999996 208.2999999999981 C 326.4999999999996 205.53857625084413 328.73857625084565 203.2999999999981 331.4999999999996 203.2999999999981 C 334.26142374915355 203.2999999999981 336.4999999999996 205.53857625084413 336.4999999999996 208.2999999999981 Z" fill-opacity="1"/><path fill="none" stroke="rgb(0,0,0)" paint-order="fill stroke markers" d=" M 336.4999999999996 208.2999999999981 C 336.4999999999996 211.06142374915208 334.26142374915355 213.2999999999981 331.4999999999996 213.2999999999981 C 328.73857625084565 213.2999999999981 326.4999999999996 211.06142374915208 326.4999999999996 208.2999999999981 C 326.4999999999996 205.53857625084413 328.73857625084565 203.2999999999981 331.4999999999996 203.2999999999981 C 334.26142374915355 203.2999999999981 336.4999999999996 205.53857625084413 336.4999999999996 208.2999999999981 Z" stroke-opacity="1" stroke-linecap="round" stroke-linejoin="round" stroke-miterlimit="10"/><text fill="rgb(77,77,255)" stroke="none" font-family="geogebra-sans-serif, sans-serif" font-size="16px" font-style="normal" font-weight="normal" text-decoration="normal" x="335" y="198" text-anchor="start" dominant-baseline="alphabetic" fill-opacity="1">Q</text><text fill="none" stroke="rgb(255,255,255)" font-family="geogebra-sans-serif, sans-serif" font-size="16px" font-style="normal" font-weight="normal" text-decoration="normal" x="335" y="198" text-anchor="start" dominant-baseline="alphabetic" stroke-opacity="1" stroke-linejoin="bevel" stroke-miterlimit="10" stroke-width="3">Q</text><text fill="rgb(77,77,255)" stroke="none" font-family="geogebra-sans-serif, sans-serif" font-size="16px" font-style="normal" font-weight="normal" text-decoration="normal" x="335" y="198" text-anchor="start" dominant-baseline="alphabetic" fill-opacity="1">Q</text><path fill="rgb(77,77,255)" stroke="none" paint-order="stroke fill markers" d=" M 391.49999999999955 208.2999999999981 C 391.49999999999955 211.06142374915208 389.2614237491535 213.2999999999981 386.49999999999955 213.2999999999981 C 383.7385762508456 213.2999999999981 381.49999999999955 211.06142374915208 381.49999999999955 208.2999999999981 C 381.49999999999955 205.53857625084413 383.7385762508456 203.2999999999981 386.49999999999955 203.2999999999981 C 389.2614237491535 203.2999999999981 391.49999999999955 205.53857625084413 391.49999999999955 208.2999999999981 Z" fill-opacity="1"/><path fill="none" stroke="rgb(0,0,0)" paint-order="fill stroke markers" d=" M 391.49999999999955 208.2999999999981 C 391.49999999999955 211.06142374915208 389.2614237491535 213.2999999999981 386.49999999999955 213.2999999999981 C 383.7385762508456 213.2999999999981 381.49999999999955 211.06142374915208 381.49999999999955 208.2999999999981 C 381.49999999999955 205.53857625084413 383.7385762508456 203.2999999999981 386.49999999999955 203.2999999999981 C 389.2614237491535 203.2999999999981 391.49999999999955 205.53857625084413 391.49999999999955 208.2999999999981 Z" stroke-opacity="1" stroke-linecap="round" stroke-linejoin="round" stroke-miterlimit="10"/><text fill="rgb(77,77,255)" stroke="none" font-family="geogebra-sans-serif, sans-serif" font-size="16px" font-style="normal" font-weight="normal" text-decoration="normal" x="390" y="198" text-anchor="start" dominant-baseline="alphabetic" fill-opacity="1">R</text><text fill="none" stroke="rgb(255,255,255)" font-family="geogebra-sans-serif, sans-serif" font-size="16px" font-style="normal" font-weight="normal" text-decoration="normal" x="390" y="198" text-anchor="start" dominant-baseline="alphabetic" stroke-opacity="1" stroke-linejoin="bevel" stroke-miterlimit="10" stroke-width="3">R</text><text fill="rgb(77,77,255)" stroke="none" font-family="geogebra-sans-serif, sans-serif" font-size="16px" font-style="normal" font-weight="normal" text-decoration="normal" x="390" y="198" text-anchor="start" dominant-baseline="alphabetic" fill-opacity="1">R</text><path fill="rgb(77,77,255)" stroke="none" paint-order="stroke fill markers" d=" M 116.49999999999976 263.29999999999757 C 116.49999999999976 266.0614237491515 114.26142374915372 268.29999999999757 111.49999999999976 268.29999999999757 C 108.7385762508458 268.29999999999757 106.49999999999976 266.0614237491515 106.49999999999976 263.29999999999757 C 106.49999999999976 260.5385762508436 108.7385762508458 258.29999999999757 111.49999999999976 258.29999999999757 C 114.26142374915372 258.29999999999757 116.49999999999976 260.5385762508436 116.49999999999976 263.29999999999757 Z" fill-opacity="1"/><path fill="none" stroke="rgb(0,0,0)" paint-order="fill stroke markers" d=" M 116.49999999999976 263.29999999999757 C 116.49999999999976 266.0614237491515 114.26142374915372 268.29999999999757 111.49999999999976 268.29999999999757 C 108.7385762508458 268.29999999999757 106.49999999999976 266.0614237491515 106.49999999999976 263.29999999999757 C 106.49999999999976 260.5385762508436 108.7385762508458 258.29999999999757 111.49999999999976 258.29999999999757 C 114.26142374915372 258.29999999999757 116.49999999999976 260.5385762508436 116.49999999999976 263.29999999999757 Z" stroke-opacity="1" stroke-linecap="round" stroke-linejoin="round" stroke-miterlimit="10"/><text fill="rgb(77,77,255)" stroke="none" font-family="geogebra-sans-serif, sans-serif" font-size="16px" font-style="normal" font-weight="normal" text-decoration="normal" x="115" y="253" text-anchor="start" dominant-baseline="alphabetic" fill-opacity="1">S</text><text fill="none" stroke="rgb(255,255,255)" font-family="geogebra-sans-serif, sans-serif" font-size="16px" font-style="normal" font-weight="normal" text-decoration="normal" x="115" y="253" text-anchor="start" dominant-baseline="alphabetic" stroke-opacity="1" stroke-linejoin="bevel" stroke-miterlimit="10" stroke-width="3">S</text><text fill="rgb(77,77,255)" stroke="none" font-family="geogebra-sans-serif, sans-serif" font-size="16px" font-style="normal" font-weight="normal" text-decoration="normal" x="115" y="253" text-anchor="start" dominant-baseline="alphabetic" fill-opacity="1">S</text><path fill="rgb(77,77,255)" stroke="none" paint-order="stroke fill markers" d=" M 171.49999999999972 263.29999999999757 C 171.49999999999972 266.0614237491515 169.2614237491537 268.29999999999757 166.49999999999972 268.29999999999757 C 163.73857625084574 268.29999999999757 161.49999999999972 266.0614237491515 161.49999999999972 263.29999999999757 C 161.49999999999972 260.5385762508436 163.73857625084574 258.29999999999757 166.49999999999972 258.29999999999757 C 169.2614237491537 258.29999999999757 171.49999999999972 260.5385762508436 171.49999999999972 263.29999999999757 Z" fill-opacity="1"/><path fill="none" stroke="rgb(0,0,0)" paint-order="fill stroke markers" d=" M 171.49999999999972 263.29999999999757 C 171.49999999999972 266.0614237491515 169.2614237491537 268.29999999999757 166.49999999999972 268.29999999999757 C 163.73857625084574 268.29999999999757 161.49999999999972 266.0614237491515 161.49999999999972 263.29999999999757 C 161.49999999999972 260.5385762508436 163.73857625084574 258.29999999999757 166.49999999999972 258.29999999999757 C 169.2614237491537 258.29999999999757 171.49999999999972 260.5385762508436 171.49999999999972 263.29999999999757 Z" stroke-opacity="1" stroke-linecap="round" stroke-linejoin="round" stroke-miterlimit="10"/><text fill="rgb(77,77,255)" stroke="none" font-family="geogebra-sans-serif, sans-serif" font-size="16px" font-style="normal" font-weight="normal" text-decoration="normal" x="170" y="253" text-anchor="start" dominant-baseline="alphabetic" fill-opacity="1">T</text><text fill="none" stroke="rgb(255,255,255)" font-family="geogebra-sans-serif, sans-serif" font-size="16px" font-style="normal" font-weight="normal" text-decoration="normal" x="170" y="253" text-anchor="start" dominant-baseline="alphabetic" stroke-opacity="1" stroke-linejoin="bevel" stroke-miterlimit="10" stroke-width="3">T</text><text fill="rgb(77,77,255)" stroke="none" font-family="geogebra-sans-serif, sans-serif" font-size="16px" font-style="normal" font-weight="normal" text-decoration="normal" x="170" y="253" text-anchor="start" dominant-baseline="alphabetic" fill-opacity="1">T</text><path fill="rgb(77,77,255)" stroke="none" paint-order="stroke fill markers" d=" M 226.49999999999966 263.29999999999757 C 226.49999999999966 266.0614237491515 224.26142374915364 268.29999999999757 221.49999999999966 268.29999999999757 C 218.73857625084568 268.29999999999757 216.49999999999966 266.0614237491515 216.49999999999966 263.29999999999757 C 216.49999999999966 260.5385762508436 218.73857625084568 258.29999999999757 221.49999999999966 258.29999999999757 C 224.26142374915364 258.29999999999757 226.49999999999966 260.5385762508436 226.49999999999966 263.29999999999757 Z" fill-opacity="1"/><path fill="none" stroke="rgb(0,0,0)" paint-order="fill stroke markers" d=" M 226.49999999999966 263.29999999999757 C 226.49999999999966 266.0614237491515 224.26142374915364 268.29999999999757 221.49999999999966 268.29999999999757 C 218.73857625084568 268.29999999999757 216.49999999999966 266.0614237491515 216.49999999999966 263.29999999999757 C 216.49999999999966 260.5385762508436 218.73857625084568 258.29999999999757 221.49999999999966 258.29999999999757 C 224.26142374915364 258.29999999999757 226.49999999999966 260.5385762508436 226.49999999999966 263.29999999999757 Z" stroke-opacity="1" stroke-linecap="round" stroke-linejoin="round" stroke-miterlimit="10"/><text fill="rgb(77,77,255)" stroke="none" font-family="geogebra-sans-serif, sans-serif" font-size="16px" font-style="normal" font-weight="normal" text-decoration="normal" x="225" y="253" text-anchor="start" dominant-baseline="alphabetic" fill-opacity="1">U</text><text fill="none" stroke="rgb(255,255,255)" font-family="geogebra-sans-serif, sans-serif" font-size="16px" font-style="normal" font-weight="normal" text-decoration="normal" x="225" y="253" text-anchor="start" dominant-baseline="alphabetic" stroke-opacity="1" stroke-linejoin="bevel" stroke-miterlimit="10" stroke-width="3">U</text><text fill="rgb(77,77,255)" stroke="none" font-family="geogebra-sans-serif, sans-serif" font-size="16px" font-style="normal" font-weight="normal" text-decoration="normal" x="225" y="253" text-anchor="start" dominant-baseline="alphabetic" fill-opacity="1">U</text><path fill="rgb(77,77,255)" stroke="none" paint-order="stroke fill markers" d=" M 281.49999999999966 263.29999999999757 C 281.49999999999966 266.0614237491515 279.2614237491536 268.29999999999757 276.49999999999966 268.29999999999757 C 273.7385762508457 268.29999999999757 271.49999999999966 266.0614237491515 271.49999999999966 263.29999999999757 C 271.49999999999966 260.5385762508436 273.7385762508457 258.29999999999757 276.49999999999966 258.29999999999757 C 279.2614237491536 258.29999999999757 281.49999999999966 260.5385762508436 281.49999999999966 263.29999999999757 Z" fill-opacity="1"/><path fill="none" stroke="rgb(0,0,0)" paint-order="fill stroke markers" d=" M 281.49999999999966 263.29999999999757 C 281.49999999999966 266.0614237491515 279.2614237491536 268.29999999999757 276.49999999999966 268.29999999999757 C 273.7385762508457 268.29999999999757 271.49999999999966 266.0614237491515 271.49999999999966 263.29999999999757 C 271.49999999999966 260.5385762508436 273.7385762508457 258.29999999999757 276.49999999999966 258.29999999999757 C 279.2614237491536 258.29999999999757 281.49999999999966 260.5385762508436 281.49999999999966 263.29999999999757 Z" stroke-opacity="1" stroke-linecap="round" stroke-linejoin="round" stroke-miterlimit="10"/><text fill="rgb(77,77,255)" stroke="none" font-family="geogebra-sans-serif, sans-serif" font-size="16px" font-style="normal" font-weight="normal" text-decoration="normal" x="280" y="253" text-anchor="start" dominant-baseline="alphabetic" fill-opacity="1">V</text><text fill="none" stroke="rgb(255,255,255)" font-family="geogebra-sans-serif, sans-serif" font-size="16px" font-style="normal" font-weight="normal" text-decoration="normal" x="280" y="253" text-anchor="start" dominant-baseline="alphabetic" stroke-opacity="1" stroke-linejoin="bevel" stroke-miterlimit="10" stroke-width="3">V</text><text fill="rgb(77,77,255)" stroke="none" font-family="geogebra-sans-serif, sans-serif" font-size="16px" font-style="normal" font-weight="normal" text-decoration="normal" x="280" y="253" text-anchor="start" dominant-baseline="alphabetic" fill-opacity="1">V</text><path fill="rgb(77,77,255)" stroke="none" paint-order="stroke fill markers" d=" M 336.4999999999996 263.29999999999757 C 336.4999999999996 266.0614237491515 334.26142374915355 268.29999999999757 331.4999999999996 268.29999999999757 C 328.73857625084565 268.29999999999757 326.4999999999996 266.0614237491515 326.4999999999996 263.29999999999757 C 326.4999999999996 260.5385762508436 328.73857625084565 258.29999999999757 331.4999999999996 258.29999999999757 C 334.26142374915355 258.29999999999757 336.4999999999996 260.5385762508436 336.4999999999996 263.29999999999757 Z" fill-opacity="1"/><path fill="none" stroke="rgb(0,0,0)" paint-order="fill stroke markers" d=" M 336.4999999999996 263.29999999999757 C 336.4999999999996 266.0614237491515 334.26142374915355 268.29999999999757 331.4999999999996 268.29999999999757 C 328.73857625084565 268.29999999999757 326.4999999999996 266.0614237491515 326.4999999999996 263.29999999999757 C 326.4999999999996 260.5385762508436 328.73857625084565 258.29999999999757 331.4999999999996 258.29999999999757 C 334.26142374915355 258.29999999999757 336.4999999999996 260.5385762508436 336.4999999999996 263.29999999999757 Z" stroke-opacity="1" stroke-linecap="round" stroke-linejoin="round" stroke-miterlimit="10"/><text fill="rgb(77,77,255)" stroke="none" font-family="geogebra-sans-serif, sans-serif" font-size="16px" font-style="normal" font-weight="normal" text-decoration="normal" x="335" y="253" text-anchor="start" dominant-baseline="alphabetic" fill-opacity="1">W</text><text fill="none" stroke="rgb(255,255,255)" font-family="geogebra-sans-serif, sans-serif" font-size="16px" font-style="normal" font-weight="normal" text-decoration="normal" x="335" y="253" text-anchor="start" dominant-baseline="alphabetic" stroke-opacity="1" stroke-linejoin="bevel" stroke-miterlimit="10" stroke-width="3">W</text><text fill="rgb(77,77,255)" stroke="none" font-family="geogebra-sans-serif, sans-serif" font-size="16px" font-style="normal" font-weight="normal" text-decoration="normal" x="335" y="253" text-anchor="start" dominant-baseline="alphabetic" fill-opacity="1">W</text><path fill="rgb(77,77,255)" stroke="none" paint-order="stroke fill markers" d=" M 391.49999999999955 263.29999999999757 C 391.49999999999955 266.0614237491515 389.2614237491535 268.29999999999757 386.49999999999955 268.29999999999757 C 383.7385762508456 268.29999999999757 381.49999999999955 266.0614237491515 381.49999999999955 263.29999999999757 C 381.49999999999955 260.5385762508436 383.7385762508456 258.29999999999757 386.49999999999955 258.29999999999757 C 389.2614237491535 258.29999999999757 391.49999999999955 260.5385762508436 391.49999999999955 263.29999999999757 Z" fill-opacity="1"/><path fill="none" stroke="rgb(0,0,0)" paint-order="fill stroke markers" d=" M 391.49999999999955 263.29999999999757 C 391.49999999999955 266.0614237491515 389.2614237491535 268.29999999999757 386.49999999999955 268.29999999999757 C 383.7385762508456 268.29999999999757 381.49999999999955 266.0614237491515 381.49999999999955 263.29999999999757 C 381.49999999999955 260.5385762508436 383.7385762508456 258.29999999999757 386.49999999999955 258.29999999999757 C 389.2614237491535 258.29999999999757 391.49999999999955 260.5385762508436 391.49999999999955 263.29999999999757 Z" stroke-opacity="1" stroke-linecap="round" stroke-linejoin="round" stroke-miterlimit="10"/><text fill="rgb(77,77,255)" stroke="none" font-family="geogebra-sans-serif, sans-serif" font-size="16px" font-style="normal" font-weight="normal" text-decoration="normal" x="390" y="253" text-anchor="start" dominant-baseline="alphabetic" fill-opacity="1">Z</text><text fill="none" stroke="rgb(255,255,255)" font-family="geogebra-sans-serif, sans-serif" font-size="16px" font-style="normal" font-weight="normal" text-decoration="normal" x="390" y="253" text-anchor="start" dominant-baseline="alphabetic" stroke-opacity="1" stroke-linejoin="bevel" stroke-miterlimit="10" stroke-width="3">Z</text><text fill="rgb(77,77,255)" stroke="none" font-family="geogebra-sans-serif, sans-serif" font-size="16px" font-style="normal" font-weight="normal" text-decoration="normal" x="390" y="253" text-anchor="start" dominant-baseline="alphabetic" fill-opacity="1">Z</text></g></g></svg>