<svg version="1.1" xmlns="http://www.w3.org/2000/svg" xmlns:xlink="http://www.w3.org/1999/xlink" width="982" height="1230"><defs><clipPath id="hDmHCamUBUES"><path fill="none" stroke="none" d=" M 0 0 L 982 0 L 982 1230 L 0 1230 L 0 0 Z"/></clipPath></defs><g transform="scale(1,1)" clip-path="url(#hDmHCamUBUES)"><g><rect fill="rgb(255,255,255)" stroke="none" x="0" y="0" width="982" height="1230" fill-opacity="1"/><path fill="rgb(0,100,0)" stroke="none" paint-order="stroke fill markers" d=" M 333.5554378205433 424.8616123068564 C 337.05949000645035 416.7214295365185 336.78508626335304 407.44847579362454 332.80582110888724 399.5297381362375 L 305.99999999999994 412.99999999999994 Z" fill-opacity="0.09803921568627451"/><path fill="none" stroke="rgb(0,100,0)" paint-order="fill stroke markers" d=" M 333.5554378205433 424.8616123068564 C 337.05949000645035 416.7214295365185 336.78508626335304 407.44847579362454 332.80582110888724 399.5297381362375 L 305.99999999999994 412.99999999999994 Z" stroke-opacity="0.6980392156862745" stroke-linecap="round" stroke-linejoin="round" stroke-miterlimit="10" stroke-width="2.5"/><g transform="scale(35,35)"><g transform="translate(9.914285714285715,11.888142857142856)"><path fill="rgb(0,100,0)" stroke="none" paint-order="stroke fill markers" d=" M 0.47700000000000004 -0.23600000000000002 L 0.47700000000000004 -0.23600000000000002 L 0.47700000000000004 -0.17400000000000002 Q 0.542 -0.255 0.5750000000000001 -0.372 Q 0.585 -0.392 0.59 -0.393 Q 0.602 -0.393 0.602 -0.383 Q 0.602 -0.366 0.579 -0.307 Q 0.545 -0.221 0.487 -0.148 Q 0.47700000000000004 -0.128 0.47700000000000004 -0.113 Q 0.47700000000000004 -0.011 0.508 -0.011 Q 0.539 -0.011 0.558 -0.046 Q 0.561 -0.052000000000000005 0.5640000000000001 -0.06 Q 0.5680000000000001 -0.07 0.577 -0.07 Q 0.589 -0.07 0.589 -0.06 Q 0.589 -0.041 0.5640000000000001 -0.015 Q 0.538 0.011 0.505 0.011 Q 0.442 0.011 0.418 -0.058 Q 0.41600000000000004 -0.065 0.41400000000000003 -0.073 Q 0.309 0.011 0.203 0.011 Q 0.109 0.011 0.065 -0.064 Q 0.041 -0.105 0.041 -0.158 Q 0.041 -0.26 0.11900000000000001 -0.34700000000000003 Q 0.196 -0.433 0.293 -0.441 Q 0.302 -0.442 0.31 -0.442 Q 0.394 -0.442 0.44 -0.376 Q 0.44 -0.375 0.441 -0.375 Q 0.47700000000000004 -0.322 0.47700000000000004 -0.23600000000000002 M 0.41000000000000003 -0.099 L 0.41000000000000003 -0.099 Q 0.40800000000000003 -0.116 0.40800000000000003 -0.211 Q 0.40800000000000003 -0.334 0.381 -0.379 Q 0.369 -0.399 0.352 -0.40900000000000003 L 0.35100000000000003 -0.41000000000000003 L 0.35100000000000003 -0.41000000000000003 L 0.35000000000000003 -0.41000000000000003 Q 0.332 -0.42 0.309 -0.42 Q 0.23800000000000002 -0.42 0.181 -0.34 L 0.17300000000000001 -0.328 Q 0.137 -0.27 0.12 -0.166 Q 0.115 -0.138 0.115 -0.12 Q 0.115 -0.036000000000000004 0.17400000000000002 -0.016 Q 0.188 -0.011 0.20500000000000002 -0.011 Q 0.309 -0.011 0.41000000000000003 -0.099 Z"/></g></g><path fill="none" stroke="rgb(0,102,51)" paint-order="fill stroke markers" d=" M 306 413 L 982 73.30150753768845" stroke-opacity="0.6980392156862745" stroke-linecap="round" stroke-linejoin="round" stroke-miterlimit="10" stroke-width="2.5"/><path fill="none" stroke="rgb(0,0,255)" paint-order="fill stroke markers" d=" M 306 413 L 982 703.9933774834437" stroke-opacity="0.6980392156862745" stroke-linecap="round" stroke-linejoin="round" stroke-miterlimit="10" stroke-width="2.5"/><path fill="rgb(0,0,255)" stroke="none" paint-order="stroke fill markers" d=" M 306.0012068792897 410.4993608538233 C 305.0327262857671 410.4993608538233 304.1109413470017 411.06551072869894 303.7037135149547 412.01153230776197 C 303.1577978828312 413.27973631469507 303.74332830082886 414.7503708529218 305.01153230776197 415.2962864850453 L 428.4560944872186 468.43467417818886 L 426.4791591027425 473.0272471482794 L 456.99999999999966 477.99999999999994 L 456.99999999999994 477.99999999999994 L 432.4099652561707 459.2495282380077 L 430.4330298716947 463.8421012080982 L 430.43302987169454 463.8421012080982 L 306.98846769223803 410.7037135149547 C 306.66628526436796 410.5650257148782 306.33103807539754 410.4993608538233 306.0012068792897 410.4993608538233 Z" fill-opacity="0.6980392156862745"/><path fill="rgb(0,102,51)" stroke="none" paint-order="stroke fill markers" d=" M 505 313 L 474.82661342517207 319.7688065865406 L 477.07165706913247 324.23644343802187 L 304.87747817801977 410.7661815742594 C 303.6437743275922 411.38613325789134 303.14622989062747 412.88881797155267 303.7661815742594 414.12252182198023 C 304.205154119514 414.99607718703686 305.0867032234979 415.5005437236448 306.0019608585384 415.5005437236448 C 306.3793023118332 415.5005437236448 306.7623733366093 415.4147975641179 307.12252182198023 415.2338184257406 L 479.3167007130929 328.70408028950305 L 481.5617443570533 333.1717171409843 L 505 313 Z" fill-opacity="0.6980392156862745"/><path fill="rgb(255,0,0)" stroke="none" paint-order="stroke fill markers" d=" M 311 413 C 311 415.76142374915395 308.76142374915395 418 306 418 C 303.23857625084605 418 301 415.76142374915395 301 413 C 301 410.23857625084605 303.23857625084605 408 306 408 C 308.76142374915395 408 311 410.23857625084605 311 413 Z" fill-opacity="1"/><path fill="none" stroke="rgb(0,0,0)" paint-order="fill stroke markers" d=" M 311 413 C 311 415.76142374915395 308.76142374915395 418 306 418 C 303.23857625084605 418 301 415.76142374915395 301 413 C 301 410.23857625084605 303.23857625084605 408 306 408 C 308.76142374915395 408 311 410.23857625084605 311 413 Z" stroke-opacity="1" stroke-linecap="round" stroke-linejoin="round" stroke-miterlimit="10"/><g transform="scale(35,35)"><g transform="translate(7.428571428571429,12.025857142857143)"><path fill="rgb(255,0,0)" stroke="none" paint-order="stroke fill markers" d=" M 0.74 -0.436 L 0.74 -0.436 Q 0.74 -0.281 0.63 -0.149 Q 0.531 -0.029 0.398 0.009000000000000001 Q 0.35100000000000003 0.022 0.305 0.022 Q 0.18 0.022 0.108 -0.066 Q 0.049 -0.138 0.049 -0.245 Q 0.049 -0.395 0.156 -0.529 Q 0.255 -0.65 0.388 -0.6900000000000001 Q 0.437 -0.705 0.485 -0.705 Q 0.612 -0.705 0.684 -0.613 Q 0.74 -0.541 0.74 -0.436 M 0.311 -0.004 L 0.311 -0.004 Q 0.405 -0.004 0.492 -0.088 Q 0.51 -0.105 0.525 -0.124 Q 0.623 -0.246 0.646 -0.41500000000000004 Q 0.651 -0.448 0.651 -0.47500000000000003 Q 0.651 -0.612 0.559 -0.661 Q 0.558 -0.661 0.557 -0.662 Q 0.521 -0.68 0.47900000000000004 -0.68 Q 0.385 -0.68 0.297 -0.599 Q 0.261 -0.5670000000000001 0.233 -0.524 Q 0.157 -0.40900000000000003 0.14400000000000002 -0.249 Q 0.14200000000000002 -0.231 0.14200000000000002 -0.217 Q 0.14200000000000002 -0.089 0.219 -0.033 Q 0.259 -0.004 0.311 -0.004 Z"/></g></g><path fill="rgb(0,0,255)" stroke="none" paint-order="stroke fill markers" d=" M 462 478 C 462 480.76142374915395 459.76142374915395 483 457 483 C 454.23857625084605 483 452 480.76142374915395 452 478 C 452 475.23857625084605 454.23857625084605 473 457 473 C 459.76142374915395 473 462 475.23857625084605 462 478 Z" fill-opacity="1"/><path fill="none" stroke="rgb(0,0,0)" paint-order="fill stroke markers" d=" M 462 478 C 462 480.76142374915395 459.76142374915395 483 457 483 C 454.23857625084605 483 452 480.76142374915395 452 478 C 452 475.23857625084605 454.23857625084605 473 457 473 C 459.76142374915395 473 462 475.23857625084605 462 478 Z" stroke-opacity="1" stroke-linecap="round" stroke-linejoin="round" stroke-miterlimit="10"/><g transform="scale(35,35)"><g transform="translate(12.8,14.797285714285714)"><path fill="rgb(0,0,255)" stroke="none" paint-order="stroke fill markers" d=" M 0.179 -0.115 L 0.527 -0.6990000000000001 Q 0.537 -0.715 0.553 -0.716 Q 0.5680000000000001 -0.716 0.5700000000000001 -0.706 Q 0.5710000000000001 -0.7030000000000001 0.5720000000000001 -0.6920000000000001 L 0.633 -0.067 Q 0.636 -0.042 0.645 -0.037 L 0.646 -0.037 L 0.646 -0.037 L 0.646 -0.037 L 0.646 -0.037 L 0.646 -0.036000000000000004 Q 0.658 -0.031 0.6980000000000001 -0.031 Q 0.72 -0.031 0.721 -0.02 Q 0.721 0 0.7030000000000001 0 L 0.591 -0.003 L 0.59 -0.003 L 0.466 0 L 0.465 0 Q 0.451 0 0.451 -0.011 Q 0.459 -0.03 0.47500000000000003 -0.031 Q 0.547 -0.031 0.547 -0.064 Q 0.547 -0.063 0.531 -0.231 L 0.28 -0.231 L 0.20400000000000001 -0.10300000000000001 Q 0.19 -0.078 0.19 -0.066 Q 0.19 -0.035 0.23700000000000002 -0.031 Q 0.253 -0.031 0.253 -0.019 Q 0.253 0 0.234 0 L 0.138 -0.003 L 0.134 -0.003 L 0.05 0 L 0.048 0 Q 0.035 0 0.035 -0.011 Q 0.035 -0.029 0.05 -0.03 L 0.05 -0.031 L 0.056 -0.031 Q 0.11900000000000001 -0.035 0.159 -0.085 Q 0.169 -0.098 0.179 -0.115 M 0.299 -0.262 L 0.528 -0.262 L 0.496 -0.592 L 0.299 -0.262 Z"/></g></g><path fill="rgb(0,102,51)" stroke="none" paint-order="stroke fill markers" d=" M 510 313 C 510 315.76142374915395 507.76142374915395 318 505 318 C 502.23857625084605 318 500 315.76142374915395 500 313 C 500 310.23857625084605 502.23857625084605 308 505 308 C 507.76142374915395 308 510 310.23857625084605 510 313 Z" fill-opacity="1"/><path fill="none" stroke="rgb(0,0,0)" paint-order="fill stroke markers" d=" M 510 313 C 510 315.76142374915395 507.76142374915395 318 505 318 C 502.23857625084605 318 500 315.76142374915395 500 313 C 500 310.23857625084605 502.23857625084605 308 505 308 C 507.76142374915395 308 510 310.23857625084605 510 313 Z" stroke-opacity="1" stroke-linecap="round" stroke-linejoin="round" stroke-miterlimit="10"/><g transform="scale(35,35)"><g transform="translate(14.057142857142857,8.254428571428571)"><path fill="rgb(0,102,51)" stroke="none" paint-order="stroke fill markers" d=" M 0.16 -0.078 L 0.294 -0.615 Q 0.298 -0.631 0.298 -0.634 Q 0.298 -0.646 0.28200000000000003 -0.649 L 0.281 -0.649 L 0.28 -0.649 Q 0.277 -0.649 0.271 -0.65 Q 0.254 -0.652 0.233 -0.652 Q 0.20700000000000002 -0.652 0.20500000000000002 -0.663 Q 0.20500000000000002 -0.681 0.22 -0.683 L 0.221 -0.683 L 0.222 -0.683 L 0.234 -0.683 L 0.5700000000000001 -0.683 Q 0.685 -0.683 0.734 -0.615 Q 0.756 -0.583 0.756 -0.545 Q 0.756 -0.464 0.666 -0.404 Q 0.665 -0.404 0.664 -0.403 Q 0.611 -0.369 0.547 -0.357 Q 0.649 -0.34500000000000003 0.687 -0.277 Q 0.7020000000000001 -0.249 0.7020000000000001 -0.216 Q 0.7020000000000001 -0.14300000000000002 0.632 -0.079 L 0.631 -0.078 Q 0.545 0 0.426 0 L 0.069 0 Q 0.044 0 0.042 -0.011 Q 0.042 -0.029 0.057 -0.031 L 0.069 -0.031 Q 0.134 -0.031 0.147 -0.045 Q 0.153 -0.052000000000000005 0.159 -0.073 Q 0.159 -0.074 0.16 -0.078 M 0.311 -0.366 L 0.457 -0.366 Q 0.556 -0.366 0.62 -0.438 Q 0.665 -0.489 0.665 -0.549 Q 0.665 -0.622 0.605 -0.644 Q 0.584 -0.652 0.556 -0.652 L 0.427 -0.652 Q 0.391 -0.652 0.383 -0.642 L 0.383 -0.642 L 0.383 -0.641 L 0.382 -0.641 L 0.382 -0.64 Q 0.378 -0.634 0.373 -0.614 L 0.311 -0.366 M 0.266 -0.031 L 0.402 -0.031 Q 0.498 -0.031 0.561 -0.10300000000000001 Q 0.609 -0.159 0.609 -0.227 Q 0.609 -0.3 0.557 -0.33 Q 0.531 -0.34400000000000003 0.494 -0.34400000000000003 L 0.305 -0.34400000000000003 L 0.23600000000000002 -0.065 Q 0.231 -0.047 0.231 -0.042 Q 0.231 -0.034 0.24 -0.032 L 0.24 -0.032 L 0.24 -0.032 L 0.244 -0.032 Q 0.25 -0.031 0.266 -0.031 Z"/></g></g></g></g></svg>