<svg version="1.1" xmlns="http://www.w3.org/2000/svg" xmlns:xlink="http://www.w3.org/1999/xlink" width="1028" height="1379"><defs><clipPath id="nHAuhRsFlNtd"><path fill="none" stroke="none" d=" M 0 0 L 1028 0 L 1028 1379 L 0 1379 L 0 0 Z"/></clipPath></defs><g transform="scale(1,1)" clip-path="url(#nHAuhRsFlNtd)"><g><rect fill="rgb(255,255,255)" stroke="none" x="0" y="0" width="1029" height="1380" fill-opacity="1"/><path fill="rgb(0,0,255)" stroke="none" paint-order="stroke fill markers" d=" M 104.00229580406095 283.49973706192566 C 103.1954670563879 283.49973706192566 102.40353758303978 283.88962598426497 101.92153255819062 284.61076528500826 C 101.15427941116513 285.75867115613937 101.46285941387708 287.3112142947839 102.61076528500823 288.0784674418094 L 270.66915598329535 400.40765086190805 L 270.6691559832954 400.40765086190805 L 267.8906865533118 404.56458574552687 L 297 415 L 276.2260948432625 392.0937810946705 L 273.44762541327896 396.25071597828924 L 273.44762541327884 396.25071597828924 L 105.38923471499177 283.9215325581906 C 104.96246814460395 283.6362844360143 104.47977295331604 283.49973706192566 104.00229580406095 283.49973706192566 Z" fill-opacity="0.6980392156862745"/><g transform="scale(35,35) translate(4.171428571428572,10.538303571428571)"><path fill="rgb(0,0,255)" stroke="none" paint-order="stroke fill markers" d=" M 0.089 -0.23 Q 0.059 -0.235 0.056 -0.25 Q 0.056 -0.27 0.089 -0.27 L 1.5070000000000001 -0.27 Q 1.439 -0.32 1.4050000000000002 -0.399 L 1.4040000000000001 -0.4 Q 1.399 -0.413 1.399 -0.416 Q 1.399 -0.428 1.4140000000000001 -0.428 Q 1.4250000000000003 -0.428 1.431 -0.414 Q 1.475 -0.315 1.5670000000000002 -0.268 L 1.568 -0.268 L 1.5690000000000002 -0.267 L 1.5700000000000003 -0.267 Q 1.5770000000000002 -0.263 1.584 -0.26 Q 1.588 -0.26 1.5910000000000002 -0.25 Q 1.5910000000000002 -0.243 1.5820000000000003 -0.238 Q 1.58 -0.238 1.5770000000000002 -0.236 Q 1.4780000000000002 -0.189 1.4320000000000002 -0.086 L 1.4320000000000002 -0.086 Q 1.431 -0.085 1.4300000000000002 -0.082 Q 1.4250000000000003 -0.072 1.4140000000000001 -0.072 Q 1.399 -0.072 1.399 -0.084 Q 1.399 -0.099 1.4280000000000002 -0.144 Q 1.4610000000000003 -0.196 1.5070000000000001 -0.23 L 1.5070000000000001 -0.23 Z"/><g transform="translate(-4.171428571428572,-10.538303571428571)"><g transform="translate(4.171428571428572,11.154741071428571)"><path fill="rgb(0,0,255)" stroke="none" paint-order="stroke fill markers" d=" M 0.179 -0.115 L 0.527 -0.6990000000000001 Q 0.537 -0.715 0.553 -0.716 Q 0.5680000000000001 -0.716 0.5700000000000001 -0.706 Q 0.5710000000000001 -0.7030000000000001 0.5720000000000001 -0.6920000000000001 L 0.633 -0.067 Q 0.636 -0.042 0.645 -0.037 L 0.646 -0.037 L 0.646 -0.037 L 0.646 -0.037 L 0.646 -0.037 L 0.646 -0.036000000000000004 Q 0.658 -0.031 0.6980000000000001 -0.031 Q 0.72 -0.031 0.721 -0.02 Q 0.721 0 0.7030000000000001 0 L 0.591 -0.003 L 0.59 -0.003 L 0.466 0 L 0.465 0 Q 0.451 0 0.451 -0.011 Q 0.459 -0.03 0.47500000000000003 -0.031 Q 0.547 -0.031 0.547 -0.064 Q 0.547 -0.063 0.531 -0.231 L 0.28 -0.231 L 0.20400000000000001 -0.10300000000000001 Q 0.19 -0.078 0.19 -0.066 Q 0.19 -0.035 0.23700000000000002 -0.031 Q 0.253 -0.031 0.253 -0.019 Q 0.253 0 0.234 0 L 0.138 -0.003 L 0.134 -0.003 L 0.05 0 L 0.048 0 Q 0.035 0 0.035 -0.011 Q 0.035 -0.029 0.05 -0.03 L 0.05 -0.031 L 0.056 -0.031 Q 0.11900000000000001 -0.035 0.159 -0.085 Q 0.169 -0.098 0.179 -0.115 M 0.299 -0.262 L 0.528 -0.262 L 0.496 -0.592 L 0.299 -0.262 Z"/></g><g transform="translate(4.921428571428572,11.154741071428571)"><path fill="rgb(0,0,255)" stroke="none" paint-order="stroke fill markers" d=" M 0.16 -0.078 L 0.294 -0.615 Q 0.298 -0.631 0.298 -0.634 Q 0.298 -0.646 0.28200000000000003 -0.649 L 0.281 -0.649 L 0.28 -0.649 Q 0.277 -0.649 0.271 -0.65 Q 0.254 -0.652 0.233 -0.652 Q 0.20700000000000002 -0.652 0.20500000000000002 -0.663 Q 0.20500000000000002 -0.681 0.22 -0.683 L 0.221 -0.683 L 0.222 -0.683 L 0.234 -0.683 L 0.5700000000000001 -0.683 Q 0.685 -0.683 0.734 -0.615 Q 0.756 -0.583 0.756 -0.545 Q 0.756 -0.464 0.666 -0.404 Q 0.665 -0.404 0.664 -0.403 Q 0.611 -0.369 0.547 -0.357 Q 0.649 -0.34500000000000003 0.687 -0.277 Q 0.7020000000000001 -0.249 0.7020000000000001 -0.216 Q 0.7020000000000001 -0.14300000000000002 0.632 -0.079 L 0.631 -0.078 Q 0.545 0 0.426 0 L 0.069 0 Q 0.044 0 0.042 -0.011 Q 0.042 -0.029 0.057 -0.031 L 0.069 -0.031 Q 0.134 -0.031 0.147 -0.045 Q 0.153 -0.052000000000000005 0.159 -0.073 Q 0.159 -0.074 0.16 -0.078 M 0.311 -0.366 L 0.457 -0.366 Q 0.556 -0.366 0.62 -0.438 Q 0.665 -0.489 0.665 -0.549 Q 0.665 -0.622 0.605 -0.644 Q 0.584 -0.652 0.556 -0.652 L 0.427 -0.652 Q 0.391 -0.652 0.383 -0.642 L 0.383 -0.642 L 0.383 -0.641 L 0.382 -0.641 L 0.382 -0.64 Q 0.378 -0.634 0.373 -0.614 L 0.311 -0.366 M 0.266 -0.031 L 0.402 -0.031 Q 0.498 -0.031 0.561 -0.10300000000000001 Q 0.609 -0.159 0.609 -0.227 Q 0.609 -0.3 0.557 -0.33 Q 0.531 -0.34400000000000003 0.494 -0.34400000000000003 L 0.305 -0.34400000000000003 L 0.23600000000000002 -0.065 Q 0.231 -0.047 0.231 -0.042 Q 0.231 -0.034 0.24 -0.032 L 0.24 -0.032 L 0.24 -0.032 L 0.244 -0.032 Q 0.25 -0.031 0.266 -0.031 Z"/></g></g></g><path fill="rgb(0,102,51)" stroke="none" paint-order="stroke fill markers" d=" M 276.00229580406074 258.49973706192566 C 275.1954670563877 258.49973706192566 274.4035375830396 258.8896259842649 273.92153255819045 259.6107652850082 C 273.15427941116496 260.7586711561393 273.4628594138769 262.3112142947839 274.61076528500803 263.0784674418094 L 442.6691559832954 375.4076508619081 L 442.66915598329547 375.4076508619081 L 439.89068655331187 379.5645857455269 L 468.9999999999999 389.99999999999994 L 469 389.99999999999994 L 448.22609484326256 367.09378109467053 L 445.44762541327907 371.25071597828924 L 445.44762541327884 371.25071597828924 L 277.38923471499163 258.9215325581906 C 276.9624681446038 258.6362844360143 276.4797729533159 258.49973706192566 276.00229580406074 258.49973706192566 Z" fill-opacity="0.6980392156862745"/><g transform="scale(35,35) translate(10.82857142857143,8.309732142857143)"><path fill="rgb(0,102,51)" stroke="none" paint-order="stroke fill markers" d=" M 0.089 -0.23 Q 0.059 -0.235 0.056 -0.25 Q 0.056 -0.27 0.089 -0.27 L 1.5909999999999997 -0.27 Q 1.5229999999999997 -0.32 1.4889999999999999 -0.399 L 1.4879999999999998 -0.4 Q 1.4829999999999997 -0.413 1.4829999999999997 -0.416 Q 1.4829999999999997 -0.428 1.4979999999999998 -0.428 Q 1.509 -0.428 1.5149999999999997 -0.414 Q 1.5589999999999997 -0.315 1.6509999999999998 -0.268 L 1.6519999999999997 -0.268 L 1.6529999999999998 -0.267 L 1.654 -0.267 Q 1.6609999999999998 -0.263 1.6679999999999997 -0.26 Q 1.6719999999999997 -0.26 1.6749999999999998 -0.25 Q 1.6749999999999998 -0.243 1.666 -0.238 Q 1.6639999999999997 -0.238 1.6609999999999998 -0.236 Q 1.5619999999999998 -0.189 1.5159999999999998 -0.086 L 1.5159999999999998 -0.086 Q 1.5149999999999997 -0.085 1.5139999999999998 -0.082 Q 1.509 -0.072 1.4979999999999998 -0.072 Q 1.4829999999999997 -0.072 1.4829999999999997 -0.084 Q 1.4829999999999997 -0.099 1.5119999999999998 -0.144 Q 1.545 -0.196 1.5909999999999997 -0.23 L 1.5909999999999997 -0.23 Z"/><g transform="translate(-10.82857142857143,-8.309732142857143)"><g transform="translate(10.82857142857143,8.926169642857143)"><path fill="rgb(0,102,51)" stroke="none" paint-order="stroke fill markers" d=" M 0.76 -0.6950000000000001 L 0.6970000000000001 -0.44 Q 0.6920000000000001 -0.422 0.687 -0.421 L 0.686 -0.42 L 0.679 -0.42 Q 0.664 -0.42 0.664 -0.43 L 0.667 -0.47900000000000004 L 0.667 -0.481 Q 0.667 -0.605 0.589 -0.652 L 0.588 -0.653 Q 0.553 -0.674 0.506 -0.674 Q 0.4 -0.674 0.305 -0.595 Q 0.281 -0.5760000000000001 0.262 -0.553 Q 0.167 -0.442 0.145 -0.271 Q 0.14100000000000001 -0.24 0.14100000000000001 -0.217 Q 0.14100000000000001 -0.077 0.247 -0.028 Q 0.28800000000000003 -0.009000000000000001 0.337 -0.009000000000000001 Q 0.431 -0.009000000000000001 0.521 -0.082 Q 0.591 -0.14100000000000001 0.622 -0.24 Q 0.624 -0.25 0.635 -0.25 Q 0.647 -0.25 0.647 -0.24 Q 0.647 -0.222 0.624 -0.176 Q 0.593 -0.113 0.537 -0.064 Q 0.438 0.022 0.321 0.022 Q 0.193 0.022 0.116 -0.066 Q 0.05 -0.14100000000000001 0.05 -0.252 Q 0.05 -0.401 0.159 -0.531 Q 0.26 -0.652 0.398 -0.6910000000000001 Q 0.449 -0.705 0.498 -0.705 Q 0.607 -0.705 0.664 -0.616 L 0.734 -0.6930000000000001 Q 0.746 -0.705 0.749 -0.705 Q 0.76 -0.705 0.76 -0.6950000000000001 Z"/></g><g transform="translate(11.615571428571428,8.926169642857143)"><path fill="rgb(0,102,51)" stroke="none" paint-order="stroke fill markers" d=" M 0.159 -0.078 L 0.159 -0.078 L 0.293 -0.615 Q 0.297 -0.631 0.297 -0.634 Q 0.297 -0.646 0.281 -0.649 L 0.28 -0.649 L 0.28 -0.649 Q 0.278 -0.65 0.275 -0.65 Q 0.251 -0.652 0.232 -0.652 Q 0.20600000000000002 -0.652 0.20400000000000001 -0.66 Q 0.203 -0.662 0.203 -0.664 Q 0.203 -0.681 0.22 -0.683 L 0.22 -0.683 L 0.233 -0.683 L 0.5690000000000001 -0.683 Q 0.6990000000000001 -0.683 0.763 -0.582 Q 0.804 -0.518 0.804 -0.43 Q 0.804 -0.28500000000000003 0.7030000000000001 -0.159 Q 0.607 -0.042 0.47700000000000004 -0.01 Q 0.438 0 0.399 0 L 0.068 0 Q 0.043000000000000003 0 0.041 -0.008 Q 0.04 -0.009000000000000001 0.04 -0.012 Q 0.04 -0.029 0.056 -0.031 L 0.068 -0.031 Q 0.133 -0.031 0.146 -0.045 Q 0.152 -0.052000000000000005 0.158 -0.073 Q 0.158 -0.074 0.159 -0.078 M 0.375 -0.614 L 0.23800000000000002 -0.065 Q 0.233 -0.047 0.233 -0.042 Q 0.233 -0.034 0.242 -0.032 L 0.242 -0.032 L 0.242 -0.032 L 0.246 -0.032 Q 0.252 -0.031 0.268 -0.031 L 0.381 -0.031 Q 0.505 -0.031 0.595 -0.124 Q 0.604 -0.134 0.612 -0.14400000000000002 Q 0.6920000000000001 -0.248 0.713 -0.41600000000000004 Q 0.717 -0.447 0.717 -0.467 Q 0.717 -0.601 0.612 -0.639 Q 0.578 -0.652 0.536 -0.652 L 0.429 -0.652 Q 0.393 -0.652 0.385 -0.642 L 0.385 -0.642 L 0.385 -0.641 L 0.384 -0.641 L 0.384 -0.64 Q 0.38 -0.634 0.375 -0.614 Z"/></g></g></g><path fill="rgb(77,77,255)" stroke="none" paint-order="stroke fill markers" d=" M 109 286 C 109 288.76142374915395 106.76142374915396 291 104 291 C 101.23857625084604 291 99 288.76142374915395 99 286 C 99 283.23857625084605 101.23857625084604 281 104 281 C 106.76142374915396 281 109 283.23857625084605 109 286 Z" fill-opacity="1"/><path fill="none" stroke="rgb(0,0,0)" paint-order="fill stroke markers" d=" M 109 286 C 109 288.76142374915395 106.76142374915396 291 104 291 C 101.23857625084604 291 99 288.76142374915395 99 286 C 99 283.23857625084605 101.23857625084604 281 104 281 C 106.76142374915396 281 109 283.23857625084605 109 286 Z" stroke-opacity="1" stroke-linecap="round" stroke-linejoin="round" stroke-miterlimit="10"/><g transform="scale(35,35)"><g transform="translate(3.2,7.8544285714285715)"><path fill="rgb(77,77,255)" stroke="none" paint-order="stroke fill markers" d=" M 0.179 -0.115 L 0.527 -0.6990000000000001 Q 0.537 -0.715 0.553 -0.716 Q 0.5680000000000001 -0.716 0.5700000000000001 -0.706 Q 0.5710000000000001 -0.7030000000000001 0.5720000000000001 -0.6920000000000001 L 0.633 -0.067 Q 0.636 -0.042 0.645 -0.037 L 0.646 -0.037 L 0.646 -0.037 L 0.646 -0.037 L 0.646 -0.037 L 0.646 -0.036000000000000004 Q 0.658 -0.031 0.6980000000000001 -0.031 Q 0.72 -0.031 0.721 -0.02 Q 0.721 0 0.7030000000000001 0 L 0.591 -0.003 L 0.59 -0.003 L 0.466 0 L 0.465 0 Q 0.451 0 0.451 -0.011 Q 0.459 -0.03 0.47500000000000003 -0.031 Q 0.547 -0.031 0.547 -0.064 Q 0.547 -0.063 0.531 -0.231 L 0.28 -0.231 L 0.20400000000000001 -0.10300000000000001 Q 0.19 -0.078 0.19 -0.066 Q 0.19 -0.035 0.23700000000000002 -0.031 Q 0.253 -0.031 0.253 -0.019 Q 0.253 0 0.234 0 L 0.138 -0.003 L 0.134 -0.003 L 0.05 0 L 0.048 0 Q 0.035 0 0.035 -0.011 Q 0.035 -0.029 0.05 -0.03 L 0.05 -0.031 L 0.056 -0.031 Q 0.11900000000000001 -0.035 0.159 -0.085 Q 0.169 -0.098 0.179 -0.115 M 0.299 -0.262 L 0.528 -0.262 L 0.496 -0.592 L 0.299 -0.262 Z"/></g></g><path fill="rgb(77,77,255)" stroke="none" paint-order="stroke fill markers" d=" M 302 415 C 302 417.76142374915395 299.76142374915395 420 297 420 C 294.23857625084605 420 292 417.76142374915395 292 415 C 292 412.23857625084605 294.23857625084605 410 297 410 C 299.76142374915395 410 302 412.23857625084605 302 415 Z" fill-opacity="1"/><path fill="none" stroke="rgb(0,0,0)" paint-order="fill stroke markers" d=" M 302 415 C 302 417.76142374915395 299.76142374915395 420 297 420 C 294.23857625084605 420 292 417.76142374915395 292 415 C 292 412.23857625084605 294.23857625084605 410 297 410 C 299.76142374915395 410 302 412.23857625084605 302 415 Z" stroke-opacity="1" stroke-linecap="round" stroke-linejoin="round" stroke-miterlimit="10"/><g transform="scale(35,35)"><g transform="translate(8.628571428571428,11.397285714285713)"><path fill="rgb(77,77,255)" stroke="none" paint-order="stroke fill markers" d=" M 0.16 -0.078 L 0.294 -0.615 Q 0.298 -0.631 0.298 -0.634 Q 0.298 -0.646 0.28200000000000003 -0.649 L 0.281 -0.649 L 0.28 -0.649 Q 0.277 -0.649 0.271 -0.65 Q 0.254 -0.652 0.233 -0.652 Q 0.20700000000000002 -0.652 0.20500000000000002 -0.663 Q 0.20500000000000002 -0.681 0.22 -0.683 L 0.221 -0.683 L 0.222 -0.683 L 0.234 -0.683 L 0.5700000000000001 -0.683 Q 0.685 -0.683 0.734 -0.615 Q 0.756 -0.583 0.756 -0.545 Q 0.756 -0.464 0.666 -0.404 Q 0.665 -0.404 0.664 -0.403 Q 0.611 -0.369 0.547 -0.357 Q 0.649 -0.34500000000000003 0.687 -0.277 Q 0.7020000000000001 -0.249 0.7020000000000001 -0.216 Q 0.7020000000000001 -0.14300000000000002 0.632 -0.079 L 0.631 -0.078 Q 0.545 0 0.426 0 L 0.069 0 Q 0.044 0 0.042 -0.011 Q 0.042 -0.029 0.057 -0.031 L 0.069 -0.031 Q 0.134 -0.031 0.147 -0.045 Q 0.153 -0.052000000000000005 0.159 -0.073 Q 0.159 -0.074 0.16 -0.078 M 0.311 -0.366 L 0.457 -0.366 Q 0.556 -0.366 0.62 -0.438 Q 0.665 -0.489 0.665 -0.549 Q 0.665 -0.622 0.605 -0.644 Q 0.584 -0.652 0.556 -0.652 L 0.427 -0.652 Q 0.391 -0.652 0.383 -0.642 L 0.383 -0.642 L 0.383 -0.641 L 0.382 -0.641 L 0.382 -0.64 Q 0.378 -0.634 0.373 -0.614 L 0.311 -0.366 M 0.266 -0.031 L 0.402 -0.031 Q 0.498 -0.031 0.561 -0.10300000000000001 Q 0.609 -0.159 0.609 -0.227 Q 0.609 -0.3 0.557 -0.33 Q 0.531 -0.34400000000000003 0.494 -0.34400000000000003 L 0.305 -0.34400000000000003 L 0.23600000000000002 -0.065 Q 0.231 -0.047 0.231 -0.042 Q 0.231 -0.034 0.24 -0.032 L 0.24 -0.032 L 0.24 -0.032 L 0.244 -0.032 Q 0.25 -0.031 0.266 -0.031 Z"/></g></g><path fill="rgb(0,102,51)" stroke="none" paint-order="stroke fill markers" d=" M 280.99999999999983 261 C 280.99999999999983 263.76142374915395 278.7614237491538 266 275.99999999999983 266 C 273.2385762508459 266 270.99999999999983 263.76142374915395 270.99999999999983 261 C 270.99999999999983 258.23857625084605 273.2385762508459 256 275.99999999999983 256 C 278.7614237491538 256 280.99999999999983 258.23857625084605 280.99999999999983 261 Z" fill-opacity="1"/><path fill="none" stroke="rgb(0,0,0)" paint-order="fill stroke markers" d=" M 280.99999999999983 261 C 280.99999999999983 263.76142374915395 278.7614237491538 266 275.99999999999983 266 C 273.2385762508459 266 270.99999999999983 263.76142374915395 270.99999999999983 261 C 270.99999999999983 258.23857625084605 273.2385762508459 256 275.99999999999983 256 C 278.7614237491538 256 280.99999999999983 258.23857625084605 280.99999999999983 261 Z" stroke-opacity="1" stroke-linecap="round" stroke-linejoin="round" stroke-miterlimit="10"/><g transform="scale(35,35)"><g transform="translate(8.314285714285715,7.168714285714286)"><path fill="rgb(0,102,51)" stroke="none" paint-order="stroke fill markers" d=" M 0.76 -0.6950000000000001 L 0.6970000000000001 -0.44 Q 0.6920000000000001 -0.422 0.687 -0.421 L 0.686 -0.42 L 0.679 -0.42 Q 0.664 -0.42 0.664 -0.43 L 0.667 -0.47900000000000004 L 0.667 -0.481 Q 0.667 -0.605 0.589 -0.652 L 0.588 -0.653 Q 0.553 -0.674 0.506 -0.674 Q 0.4 -0.674 0.305 -0.595 Q 0.281 -0.5760000000000001 0.262 -0.553 Q 0.167 -0.442 0.145 -0.271 Q 0.14100000000000001 -0.24 0.14100000000000001 -0.217 Q 0.14100000000000001 -0.077 0.247 -0.028 Q 0.28800000000000003 -0.009000000000000001 0.337 -0.009000000000000001 Q 0.431 -0.009000000000000001 0.521 -0.082 Q 0.591 -0.14100000000000001 0.622 -0.24 Q 0.624 -0.25 0.635 -0.25 Q 0.647 -0.25 0.647 -0.24 Q 0.647 -0.222 0.624 -0.176 Q 0.593 -0.113 0.537 -0.064 Q 0.438 0.022 0.321 0.022 Q 0.193 0.022 0.116 -0.066 Q 0.05 -0.14100000000000001 0.05 -0.252 Q 0.05 -0.401 0.159 -0.531 Q 0.26 -0.652 0.398 -0.6910000000000001 Q 0.449 -0.705 0.498 -0.705 Q 0.607 -0.705 0.664 -0.616 L 0.734 -0.6930000000000001 Q 0.746 -0.705 0.749 -0.705 Q 0.76 -0.705 0.76 -0.6950000000000001 Z"/></g></g><path fill="rgb(0,102,51)" stroke="none" paint-order="stroke fill markers" d=" M 474.00000000000006 390 C 474.00000000000006 392.76142374915395 471.761423749154 395 469.00000000000006 395 C 466.2385762508461 395 464.00000000000006 392.76142374915395 464.00000000000006 390 C 464.00000000000006 387.23857625084605 466.2385762508461 385 469.00000000000006 385 C 471.761423749154 385 474.00000000000006 387.23857625084605 474.00000000000006 390 Z" fill-opacity="1"/><path fill="none" stroke="rgb(0,0,0)" paint-order="fill stroke markers" d=" M 474.00000000000006 390 C 474.00000000000006 392.76142374915395 471.761423749154 395 469.00000000000006 395 C 466.2385762508461 395 464.00000000000006 392.76142374915395 464.00000000000006 390 C 464.00000000000006 387.23857625084605 466.2385762508461 385 469.00000000000006 385 C 471.761423749154 385 474.00000000000006 387.23857625084605 474.00000000000006 390 Z" stroke-opacity="1" stroke-linecap="round" stroke-linejoin="round" stroke-miterlimit="10"/><g transform="scale(35,35)"><g transform="translate(13.714285714285714,10.540142857142857)"><path fill="rgb(0,102,51)" stroke="none" paint-order="stroke fill markers" d=" M 0.159 -0.078 L 0.159 -0.078 L 0.293 -0.615 Q 0.297 -0.631 0.297 -0.634 Q 0.297 -0.646 0.281 -0.649 L 0.28 -0.649 L 0.28 -0.649 Q 0.278 -0.65 0.275 -0.65 Q 0.251 -0.652 0.232 -0.652 Q 0.20600000000000002 -0.652 0.20400000000000001 -0.66 Q 0.203 -0.662 0.203 -0.664 Q 0.203 -0.681 0.22 -0.683 L 0.22 -0.683 L 0.233 -0.683 L 0.5690000000000001 -0.683 Q 0.6990000000000001 -0.683 0.763 -0.582 Q 0.804 -0.518 0.804 -0.43 Q 0.804 -0.28500000000000003 0.7030000000000001 -0.159 Q 0.607 -0.042 0.47700000000000004 -0.01 Q 0.438 0 0.399 0 L 0.068 0 Q 0.043000000000000003 0 0.041 -0.008 Q 0.04 -0.009000000000000001 0.04 -0.012 Q 0.04 -0.029 0.056 -0.031 L 0.068 -0.031 Q 0.133 -0.031 0.146 -0.045 Q 0.152 -0.052000000000000005 0.158 -0.073 Q 0.158 -0.074 0.159 -0.078 M 0.375 -0.614 L 0.23800000000000002 -0.065 Q 0.233 -0.047 0.233 -0.042 Q 0.233 -0.034 0.242 -0.032 L 0.242 -0.032 L 0.242 -0.032 L 0.246 -0.032 Q 0.252 -0.031 0.268 -0.031 L 0.381 -0.031 Q 0.505 -0.031 0.595 -0.124 Q 0.604 -0.134 0.612 -0.14400000000000002 Q 0.6920000000000001 -0.248 0.713 -0.41600000000000004 Q 0.717 -0.447 0.717 -0.467 Q 0.717 -0.601 0.612 -0.639 Q 0.578 -0.652 0.536 -0.652 L 0.429 -0.652 Q 0.393 -0.652 0.385 -0.642 L 0.385 -0.642 L 0.385 -0.641 L 0.384 -0.641 L 0.384 -0.64 Q 0.38 -0.634 0.375 -0.614 Z"/></g></g></g></g></svg>