<svg version="1.1" xmlns="http://www.w3.org/2000/svg" xmlns:xlink="http://www.w3.org/1999/xlink" width="606" height="1230"><defs><clipPath id="rerKUFhDmHbf"><path fill="none" stroke="none" d=" M 0 0 L 606 0 L 606 1230 L 0 1230 L 0 0 Z"/></clipPath></defs><g transform="scale(1,1)" clip-path="url(#rerKUFhDmHbf)"><g><rect fill="rgb(255,255,255)" stroke="none" x="0" y="0" width="606" height="1230" fill-opacity="1"/><path fill="none" stroke="rgb(0,0,0)" paint-order="fill stroke markers" d=" M -5 1056.399064352935 L 462.8204406863646 -5" stroke-opacity="0.6980392156862745" stroke-linejoin="round" stroke-miterlimit="10" stroke-width="2.5" stroke-dasharray="10.5,8"/><path fill="rgb(0,0,255)" stroke="none" paint-order="stroke fill markers" d=" M 408.4376553731025 348.26969099148863 L 409.37701257282214 353.18065912937493 L 156.53032140014017 401.5445159310568 C 155.17419499541037 401.8039122590813 154.28511960303234 403.11355219513007 154.54451593105682 404.46967859985983 C 154.77356508359034 405.6671496901305 155.8214933185375 406.50045926443204 156.99722872188616 406.50045926443204 C 157.15300423217164 406.50045926443204 157.3110232854007 406.48583124443417 157.46967859985983 406.4554840689432 L 410.3163697725418 358.0916272672613 L 411.25572697226147 363.0025954051476 L 439.3125 350 L 408.4376553731025 348.26969099148863 Z" fill-opacity="0.6980392156862745"/><g transform="scale(35,35)"><g transform="translate(9.885714285714286,11.256857142857143)"><path fill="rgb(0,0,255)" stroke="none" paint-order="stroke fill markers" d=" M 0.537 -0.595 L 0.217 -0.595 Q 0.186 -0.595 0.183 -0.609 Q 0.182 -0.612 0.182 -0.615 Q 0.188 -0.635 0.217 -0.635 L 0.554 -0.635 Q 0.534 -0.661 0.53 -0.6930000000000001 Q 0.53 -0.709 0.544 -0.713 Q 0.547 -0.714 0.55 -0.714 Q 0.5650000000000001 -0.714 0.5700000000000001 -0.6920000000000001 Q 0.583 -0.654 0.611 -0.635 Q 0.625 -0.625 0.625 -0.615 Q 0.625 -0.604 0.608 -0.594 Q 0.5630000000000001 -0.5720000000000001 0.529 -0.529 Q 0.518 -0.516 0.51 -0.516 Q 0.496 -0.516 0.491 -0.53 Q 0.49 -0.533 0.49 -0.536 Q 0.49 -0.552 0.537 -0.595 Z"/></g><g transform="translate(9.898714285714286,11.256857142857143)"><path fill="rgb(0,0,255)" stroke="none" paint-order="stroke fill markers" d=" M 0.35000000000000003 -0.056 L 0.35000000000000003 -0.056 Q 0.298 0.011 0.231 0.011 Q 0.15 0.011 0.121 -0.048 Q 0.108 -0.074 0.108 -0.109 Q 0.108 -0.163 0.161 -0.305 Q 0.163 -0.312 0.166 -0.319 Q 0.183 -0.362 0.183 -0.387 Q 0.183 -0.42 0.158 -0.42 Q 0.10200000000000001 -0.42 0.067 -0.325 Q 0.066 -0.325 0.066 -0.324 L 0.066 -0.323 Q 0.061 -0.31 0.057 -0.296 Q 0.046 -0.279 0.041 -0.278 Q 0.029 -0.278 0.029 -0.28800000000000003 Q 0.029 -0.306 0.05 -0.35100000000000003 Q 0.094 -0.442 0.161 -0.442 Q 0.214 -0.442 0.23500000000000001 -0.397 Q 0.243 -0.38 0.243 -0.36 Q 0.243 -0.34 0.226 -0.297 Q 0.17200000000000001 -0.154 0.17200000000000001 -0.093 Q 0.17200000000000001 -0.011 0.234 -0.011 Q 0.297 -0.011 0.34 -0.08 Q 0.34600000000000003 -0.089 0.34800000000000003 -0.095 Q 0.37 -0.194 0.423 -0.396 Q 0.431 -0.431 0.462 -0.431 Q 0.487 -0.426 0.491 -0.404 Q 0.491 -0.406 0.47600000000000003 -0.337 Q 0.462 -0.28600000000000003 0.459 -0.269 L 0.431 -0.161 Q 0.41100000000000003 -0.074 0.41100000000000003 -0.057 Q 0.41100000000000003 -0.011 0.442 -0.011 Q 0.484 -0.011 0.511 -0.111 Q 0.514 -0.121 0.517 -0.135 Q 0.525 -0.152 0.531 -0.153 Q 0.543 -0.153 0.543 -0.14300000000000002 Q 0.543 -0.128 0.525 -0.073 Q 0.519 -0.056 0.513 -0.044 Q 0.486 0.011 0.439 0.011 Q 0.382 0.011 0.358 -0.037 Q 0.353 -0.046 0.35000000000000003 -0.056 Z"/></g></g><path fill="rgb(0,0,255)" stroke="none" paint-order="stroke fill markers" d=" M 532.3125 139 L 515.2462148610856 160.9841854876925 L 519.3639806293086 162.79912490212251 L 437.2536171158885 349.092530292785 C 436.75243543566023 350.2296199113674 437.2679406742026 351.5577012038832 438.405030292785 352.0588828841115 C 438.70018432972773 352.18897447385405 439.00820670590645 352.25056531747447 439.3112956386051 352.25056531747447 C 440.1758657440435 352.25056531747447 441.00029279362576 351.7494052888547 441.3713828841115 350.907469707215 L 523.4817463975314 164.61406431655251 L 527.5995121657544 166.42900373098252 L 532.3125 139 Z" fill-opacity="0.6980392156862745"/><g transform="scale(35,35)"><g transform="translate(14.142857142857142,7.6568571428571435)"><path fill="rgb(0,0,255)" stroke="none" paint-order="stroke fill markers" d=" M 0.537 -0.595 L 0.217 -0.595 Q 0.186 -0.595 0.183 -0.609 Q 0.182 -0.612 0.182 -0.615 Q 0.188 -0.635 0.217 -0.635 L 0.554 -0.635 Q 0.534 -0.661 0.53 -0.6930000000000001 Q 0.53 -0.709 0.544 -0.713 Q 0.547 -0.714 0.55 -0.714 Q 0.5650000000000001 -0.714 0.5700000000000001 -0.6920000000000001 Q 0.583 -0.654 0.611 -0.635 Q 0.625 -0.625 0.625 -0.615 Q 0.625 -0.604 0.608 -0.594 Q 0.5630000000000001 -0.5720000000000001 0.529 -0.529 Q 0.518 -0.516 0.51 -0.516 Q 0.496 -0.516 0.491 -0.53 Q 0.49 -0.533 0.49 -0.536 Q 0.49 -0.552 0.537 -0.595 Z"/></g><g transform="translate(14.181357142857143,7.6568571428571435)"><path fill="rgb(0,0,255)" stroke="none" paint-order="stroke fill markers" d=" M 0.468 -0.372 Q 0.468 -0.317 0.438 -0.218 Q 0.38 -0.024 0.277 0.006 Q 0.261 0.011 0.243 0.011 Q 0.152 0.011 0.122 -0.052000000000000005 Q 0.109 -0.078 0.109 -0.113 Q 0.109 -0.165 0.155 -0.289 L 0.166 -0.318 Q 0.183 -0.362 0.183 -0.388 Q 0.183 -0.42 0.158 -0.42 Q 0.10400000000000001 -0.42 0.069 -0.331 Q 0.062 -0.315 0.057 -0.296 Q 0.046 -0.279 0.041 -0.278 Q 0.029 -0.278 0.029 -0.28800000000000003 Q 0.029 -0.306 0.051000000000000004 -0.35100000000000003 Q 0.094 -0.442 0.161 -0.442 Q 0.214 -0.442 0.23500000000000001 -0.397 Q 0.243 -0.38 0.243 -0.36 Q 0.243 -0.339 0.231 -0.31 Q 0.177 -0.166 0.17300000000000001 -0.111 L 0.17300000000000001 -0.098 Q 0.17300000000000001 -0.018000000000000002 0.23700000000000002 -0.011 L 0.247 -0.011 Q 0.328 -0.011 0.387 -0.147 Q 0.422 -0.227 0.425 -0.28200000000000003 Q 0.425 -0.332 0.391 -0.364 Q 0.375 -0.38 0.375 -0.394 Q 0.375 -0.419 0.401 -0.435 Q 0.41200000000000003 -0.442 0.424 -0.442 Q 0.453 -0.442 0.464 -0.405 Q 0.468 -0.391 0.468 -0.372 Z"/></g></g><path fill="rgb(255,0,0)" stroke="none" paint-order="stroke fill markers" d=" M 532.3125 139 L 503.47980125455877 150.17700689158914 L 506.3637513060018 154.26146916963526 L 155.55802497427848 401.95776886097696 C 154.4301318605665 402.7541496773198 154.1613880446341 404.3140819120095 154.95776886097696 405.4419750257215 C 155.444809369619 406.13175763289024 156.21742927833577 406.5002058346227 157.00215502165742 406.5002058346227 C 157.50056798442452 406.5002058346227 158.00386451917825 406.3515714467239 158.44197502572152 406.04223113902304 L 158.44197502572155 406.04223113902304 L 509.24770135744484 158.34593144768138 L 509.2477013574449 158.34593144768138 L 512.1316514088879 162.43039372572747 L 532.3125 139 Z" fill-opacity="0.6980392156862745"/><g transform="scale(35,35)"><g transform="translate(10.8,5.171142857142858)"><path fill="rgb(255,0,0)" stroke="none" paint-order="stroke fill markers" d=" M 0.537 -0.595 L 0.217 -0.595 Q 0.186 -0.595 0.183 -0.609 Q 0.182 -0.612 0.182 -0.615 Q 0.188 -0.635 0.217 -0.635 L 0.554 -0.635 Q 0.534 -0.661 0.53 -0.6930000000000001 Q 0.53 -0.709 0.544 -0.713 Q 0.547 -0.714 0.55 -0.714 Q 0.5650000000000001 -0.714 0.5700000000000001 -0.6920000000000001 Q 0.583 -0.654 0.611 -0.635 Q 0.625 -0.625 0.625 -0.615 Q 0.625 -0.604 0.608 -0.594 Q 0.5630000000000001 -0.5720000000000001 0.529 -0.529 Q 0.518 -0.516 0.51 -0.516 Q 0.496 -0.516 0.491 -0.53 Q 0.49 -0.533 0.49 -0.536 Q 0.49 -0.552 0.537 -0.595 Z"/></g><g transform="translate(10.813,5.171142857142858)"><path fill="rgb(255,0,0)" stroke="none" paint-order="stroke fill markers" d=" M 0.35000000000000003 -0.056 L 0.35000000000000003 -0.056 Q 0.298 0.011 0.231 0.011 Q 0.15 0.011 0.121 -0.048 Q 0.108 -0.074 0.108 -0.109 Q 0.108 -0.163 0.161 -0.305 Q 0.163 -0.312 0.166 -0.319 Q 0.183 -0.362 0.183 -0.387 Q 0.183 -0.42 0.158 -0.42 Q 0.10200000000000001 -0.42 0.067 -0.325 Q 0.066 -0.325 0.066 -0.324 L 0.066 -0.323 Q 0.061 -0.31 0.057 -0.296 Q 0.046 -0.279 0.041 -0.278 Q 0.029 -0.278 0.029 -0.28800000000000003 Q 0.029 -0.306 0.05 -0.35100000000000003 Q 0.094 -0.442 0.161 -0.442 Q 0.214 -0.442 0.23500000000000001 -0.397 Q 0.243 -0.38 0.243 -0.36 Q 0.243 -0.34 0.226 -0.297 Q 0.17200000000000001 -0.154 0.17200000000000001 -0.093 Q 0.17200000000000001 -0.011 0.234 -0.011 Q 0.297 -0.011 0.34 -0.08 Q 0.34600000000000003 -0.089 0.34800000000000003 -0.095 Q 0.37 -0.194 0.423 -0.396 Q 0.431 -0.431 0.462 -0.431 Q 0.487 -0.426 0.491 -0.404 Q 0.491 -0.406 0.47600000000000003 -0.337 Q 0.462 -0.28600000000000003 0.459 -0.269 L 0.431 -0.161 Q 0.41100000000000003 -0.074 0.41100000000000003 -0.057 Q 0.41100000000000003 -0.011 0.442 -0.011 Q 0.484 -0.011 0.511 -0.111 Q 0.514 -0.121 0.517 -0.135 Q 0.525 -0.152 0.531 -0.153 Q 0.543 -0.153 0.543 -0.14300000000000002 Q 0.543 -0.128 0.525 -0.073 Q 0.519 -0.056 0.513 -0.044 Q 0.486 0.011 0.439 0.011 Q 0.382 0.011 0.358 -0.037 Q 0.353 -0.046 0.35000000000000003 -0.056 Z"/></g><g transform="translate(11.607222222222223,5.171142857142858)"><path fill="rgb(255,0,0)" stroke="none" paint-order="stroke fill markers" d=" M 0.40900000000000003 -0.23 L 0.40900000000000003 0.05 Q 0.40900000000000003 0.082 0.389 0.083 Q 0.369 0.083 0.369 0.05 L 0.369 -0.23 L 0.089 -0.23 Q 0.057 -0.23 0.056 -0.25 Q 0.056 -0.27 0.089 -0.27 L 0.369 -0.27 L 0.369 -0.55 Q 0.369 -0.582 0.389 -0.583 Q 0.40900000000000003 -0.583 0.40900000000000003 -0.55 L 0.40900000000000003 -0.27 L 0.6880000000000001 -0.27 Q 0.72 -0.27 0.721 -0.25 Q 0.721 -0.23 0.6880000000000001 -0.23 L 0.40900000000000003 -0.23 Z"/></g><g transform="translate(12.607444444444445,5.171142857142858)"><path fill="rgb(255,0,0)" stroke="none" paint-order="stroke fill markers" d=" M 0.537 -0.595 L 0.217 -0.595 Q 0.186 -0.595 0.183 -0.609 Q 0.182 -0.612 0.182 -0.615 Q 0.188 -0.635 0.217 -0.635 L 0.554 -0.635 Q 0.534 -0.661 0.53 -0.6930000000000001 Q 0.53 -0.709 0.544 -0.713 Q 0.547 -0.714 0.55 -0.714 Q 0.5650000000000001 -0.714 0.5700000000000001 -0.6920000000000001 Q 0.583 -0.654 0.611 -0.635 Q 0.625 -0.625 0.625 -0.615 Q 0.625 -0.604 0.608 -0.594 Q 0.5630000000000001 -0.5720000000000001 0.529 -0.529 Q 0.518 -0.516 0.51 -0.516 Q 0.496 -0.516 0.491 -0.53 Q 0.49 -0.533 0.49 -0.536 Q 0.49 -0.552 0.537 -0.595 Z"/></g><g transform="translate(12.645944444444446,5.171142857142858)"><path fill="rgb(255,0,0)" stroke="none" paint-order="stroke fill markers" d=" M 0.468 -0.372 Q 0.468 -0.317 0.438 -0.218 Q 0.38 -0.024 0.277 0.006 Q 0.261 0.011 0.243 0.011 Q 0.152 0.011 0.122 -0.052000000000000005 Q 0.109 -0.078 0.109 -0.113 Q 0.109 -0.165 0.155 -0.289 L 0.166 -0.318 Q 0.183 -0.362 0.183 -0.388 Q 0.183 -0.42 0.158 -0.42 Q 0.10400000000000001 -0.42 0.069 -0.331 Q 0.062 -0.315 0.057 -0.296 Q 0.046 -0.279 0.041 -0.278 Q 0.029 -0.278 0.029 -0.28800000000000003 Q 0.029 -0.306 0.051000000000000004 -0.35100000000000003 Q 0.094 -0.442 0.161 -0.442 Q 0.214 -0.442 0.23500000000000001 -0.397 Q 0.243 -0.38 0.243 -0.36 Q 0.243 -0.339 0.231 -0.31 Q 0.177 -0.166 0.17300000000000001 -0.111 L 0.17300000000000001 -0.098 Q 0.17300000000000001 -0.018000000000000002 0.23700000000000002 -0.011 L 0.247 -0.011 Q 0.328 -0.011 0.387 -0.147 Q 0.422 -0.227 0.425 -0.28200000000000003 Q 0.425 -0.332 0.391 -0.364 Q 0.375 -0.38 0.375 -0.394 Q 0.375 -0.419 0.401 -0.435 Q 0.41200000000000003 -0.442 0.424 -0.442 Q 0.453 -0.442 0.464 -0.405 Q 0.468 -0.391 0.468 -0.372 Z"/></g></g><path fill="rgb(0,0,0)" stroke="none" paint-order="stroke fill markers" d=" M 339.27655986509274 275.2984822934233 L 321.0158506596466 282.3772533247631 L 322.7462206905125 284.8279306915908 L 155.99061748199495 402.5704382026839 C 155.20109230239655 403.12790477412386 155.0129716312439 404.21985733840665 155.57043820268387 405.00938251800505 C 155.91136655873328 405.49223034302315 156.452200494835 405.7501440842359 157.00150851516017 405.7501440842359 C 157.35039758909716 405.7501440842359 157.70270516342478 405.6461000127067 158.00938251800505 405.4295617973161 L 324.7649857265226 287.68705428622303 L 326.49535575738844 290.1377316530507 L 339.27655986509274 275.2984822934233 Z" fill-opacity="0.6980392156862745"/><g transform="scale(35,35)"><g transform="translate(5.285714285714286,8.064285714285713)"><path fill="rgb(0,0,0)" stroke="none" paint-order="stroke fill markers" d=" M 0.47700000000000004 -0.23600000000000002 L 0.47700000000000004 -0.23600000000000002 L 0.47700000000000004 -0.17400000000000002 Q 0.542 -0.255 0.5750000000000001 -0.372 Q 0.585 -0.392 0.59 -0.393 Q 0.602 -0.393 0.602 -0.383 Q 0.602 -0.366 0.579 -0.307 Q 0.545 -0.221 0.487 -0.148 Q 0.47700000000000004 -0.128 0.47700000000000004 -0.113 Q 0.47700000000000004 -0.011 0.508 -0.011 Q 0.539 -0.011 0.558 -0.046 Q 0.561 -0.052000000000000005 0.5640000000000001 -0.06 Q 0.5680000000000001 -0.07 0.577 -0.07 Q 0.589 -0.07 0.589 -0.06 Q 0.589 -0.041 0.5640000000000001 -0.015 Q 0.538 0.011 0.505 0.011 Q 0.442 0.011 0.418 -0.058 Q 0.41600000000000004 -0.065 0.41400000000000003 -0.073 Q 0.309 0.011 0.203 0.011 Q 0.109 0.011 0.065 -0.064 Q 0.041 -0.105 0.041 -0.158 Q 0.041 -0.26 0.11900000000000001 -0.34700000000000003 Q 0.196 -0.433 0.293 -0.441 Q 0.302 -0.442 0.31 -0.442 Q 0.394 -0.442 0.44 -0.376 Q 0.44 -0.375 0.441 -0.375 Q 0.47700000000000004 -0.322 0.47700000000000004 -0.23600000000000002 M 0.41000000000000003 -0.099 L 0.41000000000000003 -0.099 Q 0.40800000000000003 -0.116 0.40800000000000003 -0.211 Q 0.40800000000000003 -0.334 0.381 -0.379 Q 0.369 -0.399 0.352 -0.40900000000000003 L 0.35100000000000003 -0.41000000000000003 L 0.35100000000000003 -0.41000000000000003 L 0.35000000000000003 -0.41000000000000003 Q 0.332 -0.42 0.309 -0.42 Q 0.23800000000000002 -0.42 0.181 -0.34 L 0.17300000000000001 -0.328 Q 0.137 -0.27 0.12 -0.166 Q 0.115 -0.138 0.115 -0.12 Q 0.115 -0.036000000000000004 0.17400000000000002 -0.016 Q 0.188 -0.011 0.20500000000000002 -0.011 Q 0.309 -0.011 0.41000000000000003 -0.099 Z"/></g><g transform="translate(5.929714285714286,8.064285714285713)"><path fill="rgb(0,0,0)" stroke="none" paint-order="stroke fill markers" d=" M 0.331 0.24 L 0.331 0.24 Q 0.331 0.25 0.321 0.25 Q 0.309 0.25 0.268 0.209 Q 0.20600000000000002 0.147 0.165 0.062 Q 0.099 -0.074 0.099 -0.25 Q 0.099 -0.419 0.162 -0.555 Q 0.214 -0.666 0.294 -0.733 Q 0.315 -0.75 0.321 -0.75 Q 0.331 -0.75 0.331 -0.74 Q 0.331 -0.735 0.318 -0.723 Q 0.157 -0.559 0.157 -0.25 Q 0.157 0.058 0.314 0.218 Q 0.331 0.23500000000000001 0.331 0.24 Z"/></g><g transform="translate(6.318714285714286,8.064285714285713)"><path fill="rgb(0,0,0)" stroke="none" paint-order="stroke fill markers" d=" M 0.537 -0.595 L 0.217 -0.595 Q 0.186 -0.595 0.183 -0.609 Q 0.182 -0.612 0.182 -0.615 Q 0.188 -0.635 0.217 -0.635 L 0.554 -0.635 Q 0.534 -0.661 0.53 -0.6930000000000001 Q 0.53 -0.709 0.544 -0.713 Q 0.547 -0.714 0.55 -0.714 Q 0.5650000000000001 -0.714 0.5700000000000001 -0.6920000000000001 Q 0.583 -0.654 0.611 -0.635 Q 0.625 -0.625 0.625 -0.615 Q 0.625 -0.604 0.608 -0.594 Q 0.5630000000000001 -0.5720000000000001 0.529 -0.529 Q 0.518 -0.516 0.51 -0.516 Q 0.496 -0.516 0.491 -0.53 Q 0.49 -0.533 0.49 -0.536 Q 0.49 -0.552 0.537 -0.595 Z"/></g><g transform="translate(6.331714285714286,8.064285714285713)"><path fill="rgb(0,0,0)" stroke="none" paint-order="stroke fill markers" d=" M 0.35000000000000003 -0.056 L 0.35000000000000003 -0.056 Q 0.298 0.011 0.231 0.011 Q 0.15 0.011 0.121 -0.048 Q 0.108 -0.074 0.108 -0.109 Q 0.108 -0.163 0.161 -0.305 Q 0.163 -0.312 0.166 -0.319 Q 0.183 -0.362 0.183 -0.387 Q 0.183 -0.42 0.158 -0.42 Q 0.10200000000000001 -0.42 0.067 -0.325 Q 0.066 -0.325 0.066 -0.324 L 0.066 -0.323 Q 0.061 -0.31 0.057 -0.296 Q 0.046 -0.279 0.041 -0.278 Q 0.029 -0.278 0.029 -0.28800000000000003 Q 0.029 -0.306 0.05 -0.35100000000000003 Q 0.094 -0.442 0.161 -0.442 Q 0.214 -0.442 0.23500000000000001 -0.397 Q 0.243 -0.38 0.243 -0.36 Q 0.243 -0.34 0.226 -0.297 Q 0.17200000000000001 -0.154 0.17200000000000001 -0.093 Q 0.17200000000000001 -0.011 0.234 -0.011 Q 0.297 -0.011 0.34 -0.08 Q 0.34600000000000003 -0.089 0.34800000000000003 -0.095 Q 0.37 -0.194 0.423 -0.396 Q 0.431 -0.431 0.462 -0.431 Q 0.487 -0.426 0.491 -0.404 Q 0.491 -0.406 0.47600000000000003 -0.337 Q 0.462 -0.28600000000000003 0.459 -0.269 L 0.431 -0.161 Q 0.41100000000000003 -0.074 0.41100000000000003 -0.057 Q 0.41100000000000003 -0.011 0.442 -0.011 Q 0.484 -0.011 0.511 -0.111 Q 0.514 -0.121 0.517 -0.135 Q 0.525 -0.152 0.531 -0.153 Q 0.543 -0.153 0.543 -0.14300000000000002 Q 0.543 -0.128 0.525 -0.073 Q 0.519 -0.056 0.513 -0.044 Q 0.486 0.011 0.439 0.011 Q 0.382 0.011 0.358 -0.037 Q 0.353 -0.046 0.35000000000000003 -0.056 Z"/></g><g transform="translate(7.125936507936508,8.064285714285713)"><path fill="rgb(0,0,0)" stroke="none" paint-order="stroke fill markers" d=" M 0.40900000000000003 -0.23 L 0.40900000000000003 0.05 Q 0.40900000000000003 0.082 0.389 0.083 Q 0.369 0.083 0.369 0.05 L 0.369 -0.23 L 0.089 -0.23 Q 0.057 -0.23 0.056 -0.25 Q 0.056 -0.27 0.089 -0.27 L 0.369 -0.27 L 0.369 -0.55 Q 0.369 -0.582 0.389 -0.583 Q 0.40900000000000003 -0.583 0.40900000000000003 -0.55 L 0.40900000000000003 -0.27 L 0.6880000000000001 -0.27 Q 0.72 -0.27 0.721 -0.25 Q 0.721 -0.23 0.6880000000000001 -0.23 L 0.40900000000000003 -0.23 Z"/></g><g transform="translate(8.12615873015873,8.064285714285713)"><path fill="rgb(0,0,0)" stroke="none" paint-order="stroke fill markers" d=" M 0.537 -0.595 L 0.217 -0.595 Q 0.186 -0.595 0.183 -0.609 Q 0.182 -0.612 0.182 -0.615 Q 0.188 -0.635 0.217 -0.635 L 0.554 -0.635 Q 0.534 -0.661 0.53 -0.6930000000000001 Q 0.53 -0.709 0.544 -0.713 Q 0.547 -0.714 0.55 -0.714 Q 0.5650000000000001 -0.714 0.5700000000000001 -0.6920000000000001 Q 0.583 -0.654 0.611 -0.635 Q 0.625 -0.625 0.625 -0.615 Q 0.625 -0.604 0.608 -0.594 Q 0.5630000000000001 -0.5720000000000001 0.529 -0.529 Q 0.518 -0.516 0.51 -0.516 Q 0.496 -0.516 0.491 -0.53 Q 0.49 -0.533 0.49 -0.536 Q 0.49 -0.552 0.537 -0.595 Z"/></g><g transform="translate(8.164658730158731,8.064285714285713)"><path fill="rgb(0,0,0)" stroke="none" paint-order="stroke fill markers" d=" M 0.468 -0.372 Q 0.468 -0.317 0.438 -0.218 Q 0.38 -0.024 0.277 0.006 Q 0.261 0.011 0.243 0.011 Q 0.152 0.011 0.122 -0.052000000000000005 Q 0.109 -0.078 0.109 -0.113 Q 0.109 -0.165 0.155 -0.289 L 0.166 -0.318 Q 0.183 -0.362 0.183 -0.388 Q 0.183 -0.42 0.158 -0.42 Q 0.10400000000000001 -0.42 0.069 -0.331 Q 0.062 -0.315 0.057 -0.296 Q 0.046 -0.279 0.041 -0.278 Q 0.029 -0.278 0.029 -0.28800000000000003 Q 0.029 -0.306 0.051000000000000004 -0.35100000000000003 Q 0.094 -0.442 0.161 -0.442 Q 0.214 -0.442 0.23500000000000001 -0.397 Q 0.243 -0.38 0.243 -0.36 Q 0.243 -0.339 0.231 -0.31 Q 0.177 -0.166 0.17300000000000001 -0.111 L 0.17300000000000001 -0.098 Q 0.17300000000000001 -0.018000000000000002 0.23700000000000002 -0.011 L 0.247 -0.011 Q 0.328 -0.011 0.387 -0.147 Q 0.422 -0.227 0.425 -0.28200000000000003 Q 0.425 -0.332 0.391 -0.364 Q 0.375 -0.38 0.375 -0.394 Q 0.375 -0.419 0.401 -0.435 Q 0.41200000000000003 -0.442 0.424 -0.442 Q 0.453 -0.442 0.464 -0.405 Q 0.468 -0.391 0.468 -0.372 Z"/></g><g transform="translate(8.68565873015873,8.064285714285713)"><path fill="rgb(0,0,0)" stroke="none" paint-order="stroke fill markers" d=" M 0.289 -0.25 L 0.289 -0.25 Q 0.289 -0.081 0.226 0.055 Q 0.17400000000000002 0.166 0.094 0.233 Q 0.073 0.25 0.067 0.25 Q 0.057 0.25 0.057 0.24 Q 0.057 0.23500000000000001 0.07 0.223 Q 0.231 0.059000000000000004 0.231 -0.25 Q 0.231 -0.555 0.081 -0.712 L 0.076 -0.717 Q 0.057 -0.735 0.057 -0.74 Q 0.057 -0.75 0.067 -0.75 Q 0.079 -0.75 0.12 -0.709 Q 0.182 -0.647 0.223 -0.562 Q 0.289 -0.426 0.289 -0.25 Z"/></g></g><path fill="rgb(0,0,0)" stroke="none" paint-order="stroke fill markers" d=" M 272.81593191754956 377.0109164287838 L 273.37954623738136 379.9574973115156 L 156.67122498009812 402.2811611517398 C 155.7219364967873 402.4627385813569 155.09958372212267 403.379486536591 155.2811611517398 404.32877501990185 C 155.44149555851328 405.16700478309133 156.17504532297633 405.7503214851024 156.99806010532035 405.7503214851024 C 157.10710296252017 405.7503214851024 157.2177162997805 405.7400818711039 157.32877501990188 405.7188388482602 L 274.0370962771849 383.39517500803606 L 274.0370962771852 383.39517500803606 L 274.600710597017 386.34175589076784 L 292.3700001812513 378.106778800841 L 272.81593191754956 377.0109164287838 Z" fill-opacity="0.6980392156862745"/><g transform="scale(35,35)"><g transform="translate(6.057142857142857,11.914)"><path fill="rgb(0,0,0)" stroke="none" paint-order="stroke fill markers" d=" M 0.47700000000000004 -0.23600000000000002 L 0.47700000000000004 -0.23600000000000002 L 0.47700000000000004 -0.17400000000000002 Q 0.542 -0.255 0.5750000000000001 -0.372 Q 0.585 -0.392 0.59 -0.393 Q 0.602 -0.393 0.602 -0.383 Q 0.602 -0.366 0.579 -0.307 Q 0.545 -0.221 0.487 -0.148 Q 0.47700000000000004 -0.128 0.47700000000000004 -0.113 Q 0.47700000000000004 -0.011 0.508 -0.011 Q 0.539 -0.011 0.558 -0.046 Q 0.561 -0.052000000000000005 0.5640000000000001 -0.06 Q 0.5680000000000001 -0.07 0.577 -0.07 Q 0.589 -0.07 0.589 -0.06 Q 0.589 -0.041 0.5640000000000001 -0.015 Q 0.538 0.011 0.505 0.011 Q 0.442 0.011 0.418 -0.058 Q 0.41600000000000004 -0.065 0.41400000000000003 -0.073 Q 0.309 0.011 0.203 0.011 Q 0.109 0.011 0.065 -0.064 Q 0.041 -0.105 0.041 -0.158 Q 0.041 -0.26 0.11900000000000001 -0.34700000000000003 Q 0.196 -0.433 0.293 -0.441 Q 0.302 -0.442 0.31 -0.442 Q 0.394 -0.442 0.44 -0.376 Q 0.44 -0.375 0.441 -0.375 Q 0.47700000000000004 -0.322 0.47700000000000004 -0.23600000000000002 M 0.41000000000000003 -0.099 L 0.41000000000000003 -0.099 Q 0.40800000000000003 -0.116 0.40800000000000003 -0.211 Q 0.40800000000000003 -0.334 0.381 -0.379 Q 0.369 -0.399 0.352 -0.40900000000000003 L 0.35100000000000003 -0.41000000000000003 L 0.35100000000000003 -0.41000000000000003 L 0.35000000000000003 -0.41000000000000003 Q 0.332 -0.42 0.309 -0.42 Q 0.23800000000000002 -0.42 0.181 -0.34 L 0.17300000000000001 -0.328 Q 0.137 -0.27 0.12 -0.166 Q 0.115 -0.138 0.115 -0.12 Q 0.115 -0.036000000000000004 0.17400000000000002 -0.016 Q 0.188 -0.011 0.20500000000000002 -0.011 Q 0.309 -0.011 0.41000000000000003 -0.099 Z"/></g><g transform="translate(6.701142857142857,11.914)"><path fill="rgb(0,0,0)" stroke="none" paint-order="stroke fill markers" d=" M 0.537 -0.595 L 0.217 -0.595 Q 0.186 -0.595 0.183 -0.609 Q 0.182 -0.612 0.182 -0.615 Q 0.188 -0.635 0.217 -0.635 L 0.554 -0.635 Q 0.534 -0.661 0.53 -0.6930000000000001 Q 0.53 -0.709 0.544 -0.713 Q 0.547 -0.714 0.55 -0.714 Q 0.5650000000000001 -0.714 0.5700000000000001 -0.6920000000000001 Q 0.583 -0.654 0.611 -0.635 Q 0.625 -0.625 0.625 -0.615 Q 0.625 -0.604 0.608 -0.594 Q 0.5630000000000001 -0.5720000000000001 0.529 -0.529 Q 0.518 -0.516 0.51 -0.516 Q 0.496 -0.516 0.491 -0.53 Q 0.49 -0.533 0.49 -0.536 Q 0.49 -0.552 0.537 -0.595 Z"/></g><g transform="translate(6.714142857142857,11.914)"><path fill="rgb(0,0,0)" stroke="none" paint-order="stroke fill markers" d=" M 0.35000000000000003 -0.056 L 0.35000000000000003 -0.056 Q 0.298 0.011 0.231 0.011 Q 0.15 0.011 0.121 -0.048 Q 0.108 -0.074 0.108 -0.109 Q 0.108 -0.163 0.161 -0.305 Q 0.163 -0.312 0.166 -0.319 Q 0.183 -0.362 0.183 -0.387 Q 0.183 -0.42 0.158 -0.42 Q 0.10200000000000001 -0.42 0.067 -0.325 Q 0.066 -0.325 0.066 -0.324 L 0.066 -0.323 Q 0.061 -0.31 0.057 -0.296 Q 0.046 -0.279 0.041 -0.278 Q 0.029 -0.278 0.029 -0.28800000000000003 Q 0.029 -0.306 0.05 -0.35100000000000003 Q 0.094 -0.442 0.161 -0.442 Q 0.214 -0.442 0.23500000000000001 -0.397 Q 0.243 -0.38 0.243 -0.36 Q 0.243 -0.34 0.226 -0.297 Q 0.17200000000000001 -0.154 0.17200000000000001 -0.093 Q 0.17200000000000001 -0.011 0.234 -0.011 Q 0.297 -0.011 0.34 -0.08 Q 0.34600000000000003 -0.089 0.34800000000000003 -0.095 Q 0.37 -0.194 0.423 -0.396 Q 0.431 -0.431 0.462 -0.431 Q 0.487 -0.426 0.491 -0.404 Q 0.491 -0.406 0.47600000000000003 -0.337 Q 0.462 -0.28600000000000003 0.459 -0.269 L 0.431 -0.161 Q 0.41100000000000003 -0.074 0.41100000000000003 -0.057 Q 0.41100000000000003 -0.011 0.442 -0.011 Q 0.484 -0.011 0.511 -0.111 Q 0.514 -0.121 0.517 -0.135 Q 0.525 -0.152 0.531 -0.153 Q 0.543 -0.153 0.543 -0.14300000000000002 Q 0.543 -0.128 0.525 -0.073 Q 0.519 -0.056 0.513 -0.044 Q 0.486 0.011 0.439 0.011 Q 0.382 0.011 0.358 -0.037 Q 0.353 -0.046 0.35000000000000003 -0.056 Z"/></g></g><path fill="rgb(0,0,0)" stroke="none" paint-order="stroke fill markers" d=" M 339.27655986509274 275.2984822934233 L 327.0683971612622 290.61263468253065 L 329.7977385455443 291.857903973907 L 290.7778843737534 377.3803717142048 C 290.3767008176352 378.25967299465043 290.76429181416944 379.29771105222073 291.6435930946151 379.69889460833895 C 291.8790826337864 379.80633733912344 292.12595749676916 379.85720557054617 292.36893527674664 379.85720557054617 C 293.03321933865755 379.85720557054617 293.66837516341553 379.4769976287516 293.96211598874925 378.83318588747727 L 332.98197016054013 293.3107181471795 L 335.7113115448222 294.55598743855586 L 339.27655986509274 275.2984822934233 Z" fill-opacity="0.6980392156862745"/><g transform="scale(35,35)"><g transform="translate(9.371428571428572,9.399714285714285)"><path fill="rgb(0,0,0)" stroke="none" paint-order="stroke fill markers" d=" M 0.47700000000000004 -0.23600000000000002 L 0.47700000000000004 -0.23600000000000002 L 0.47700000000000004 -0.17400000000000002 Q 0.542 -0.255 0.5750000000000001 -0.372 Q 0.585 -0.392 0.59 -0.393 Q 0.602 -0.393 0.602 -0.383 Q 0.602 -0.366 0.579 -0.307 Q 0.545 -0.221 0.487 -0.148 Q 0.47700000000000004 -0.128 0.47700000000000004 -0.113 Q 0.47700000000000004 -0.011 0.508 -0.011 Q 0.539 -0.011 0.558 -0.046 Q 0.561 -0.052000000000000005 0.5640000000000001 -0.06 Q 0.5680000000000001 -0.07 0.577 -0.07 Q 0.589 -0.07 0.589 -0.06 Q 0.589 -0.041 0.5640000000000001 -0.015 Q 0.538 0.011 0.505 0.011 Q 0.442 0.011 0.418 -0.058 Q 0.41600000000000004 -0.065 0.41400000000000003 -0.073 Q 0.309 0.011 0.203 0.011 Q 0.109 0.011 0.065 -0.064 Q 0.041 -0.105 0.041 -0.158 Q 0.041 -0.26 0.11900000000000001 -0.34700000000000003 Q 0.196 -0.433 0.293 -0.441 Q 0.302 -0.442 0.31 -0.442 Q 0.394 -0.442 0.44 -0.376 Q 0.44 -0.375 0.441 -0.375 Q 0.47700000000000004 -0.322 0.47700000000000004 -0.23600000000000002 M 0.41000000000000003 -0.099 L 0.41000000000000003 -0.099 Q 0.40800000000000003 -0.116 0.40800000000000003 -0.211 Q 0.40800000000000003 -0.334 0.381 -0.379 Q 0.369 -0.399 0.352 -0.40900000000000003 L 0.35100000000000003 -0.41000000000000003 L 0.35100000000000003 -0.41000000000000003 L 0.35000000000000003 -0.41000000000000003 Q 0.332 -0.42 0.309 -0.42 Q 0.23800000000000002 -0.42 0.181 -0.34 L 0.17300000000000001 -0.328 Q 0.137 -0.27 0.12 -0.166 Q 0.115 -0.138 0.115 -0.12 Q 0.115 -0.036000000000000004 0.17400000000000002 -0.016 Q 0.188 -0.011 0.20500000000000002 -0.011 Q 0.309 -0.011 0.41000000000000003 -0.099 Z"/></g><g transform="translate(10.015428571428572,9.399714285714285)"><path fill="rgb(0,0,0)" stroke="none" paint-order="stroke fill markers" d=" M 0.537 -0.595 L 0.217 -0.595 Q 0.186 -0.595 0.183 -0.609 Q 0.182 -0.612 0.182 -0.615 Q 0.188 -0.635 0.217 -0.635 L 0.554 -0.635 Q 0.534 -0.661 0.53 -0.6930000000000001 Q 0.53 -0.709 0.544 -0.713 Q 0.547 -0.714 0.55 -0.714 Q 0.5650000000000001 -0.714 0.5700000000000001 -0.6920000000000001 Q 0.583 -0.654 0.611 -0.635 Q 0.625 -0.625 0.625 -0.615 Q 0.625 -0.604 0.608 -0.594 Q 0.5630000000000001 -0.5720000000000001 0.529 -0.529 Q 0.518 -0.516 0.51 -0.516 Q 0.496 -0.516 0.491 -0.53 Q 0.49 -0.533 0.49 -0.536 Q 0.49 -0.552 0.537 -0.595 Z"/></g><g transform="translate(10.053928571428573,9.399714285714285)"><path fill="rgb(0,0,0)" stroke="none" paint-order="stroke fill markers" d=" M 0.468 -0.372 Q 0.468 -0.317 0.438 -0.218 Q 0.38 -0.024 0.277 0.006 Q 0.261 0.011 0.243 0.011 Q 0.152 0.011 0.122 -0.052000000000000005 Q 0.109 -0.078 0.109 -0.113 Q 0.109 -0.165 0.155 -0.289 L 0.166 -0.318 Q 0.183 -0.362 0.183 -0.388 Q 0.183 -0.42 0.158 -0.42 Q 0.10400000000000001 -0.42 0.069 -0.331 Q 0.062 -0.315 0.057 -0.296 Q 0.046 -0.279 0.041 -0.278 Q 0.029 -0.278 0.029 -0.28800000000000003 Q 0.029 -0.306 0.051000000000000004 -0.35100000000000003 Q 0.094 -0.442 0.161 -0.442 Q 0.214 -0.442 0.23500000000000001 -0.397 Q 0.243 -0.38 0.243 -0.36 Q 0.243 -0.339 0.231 -0.31 Q 0.177 -0.166 0.17300000000000001 -0.111 L 0.17300000000000001 -0.098 Q 0.17300000000000001 -0.018000000000000002 0.23700000000000002 -0.011 L 0.247 -0.011 Q 0.328 -0.011 0.387 -0.147 Q 0.422 -0.227 0.425 -0.28200000000000003 Q 0.425 -0.332 0.391 -0.364 Q 0.375 -0.38 0.375 -0.394 Q 0.375 -0.419 0.401 -0.435 Q 0.41200000000000003 -0.442 0.424 -0.442 Q 0.453 -0.442 0.464 -0.405 Q 0.468 -0.391 0.468 -0.372 Z"/></g></g></g></g></svg>