<svg version="1.1" xmlns="http://www.w3.org/2000/svg" xmlns:xlink="http://www.w3.org/1999/xlink" width="606" height="646"><defs><clipPath id="ETGwKAgNeRXU"><path fill="none" stroke="none" d=" M 0 0 L 606 0 L 606 646 L 0 646 L 0 0 Z"/></clipPath></defs><g transform="scale(1,1)" clip-path="url(#ETGwKAgNeRXU)"><g><rect fill="rgb(255,255,255)" stroke="none" x="0" y="0" width="607" height="647" fill-opacity="1"/><path fill="none" stroke="rgb(192,192,192)" paint-order="fill stroke markers" d=" M 47.5 0.5 L 47.5 646.5 M 47.5 0.5 L 47.5 646.5 M 112.5 0.5 L 112.5 646.5 M 177.5 0.5 L 177.5 646.5 M 242.5 0.5 L 242.5 646.5 M 306.5 0.5 L 306.5 646.5 M 371.5 0.5 L 371.5 646.5 M 436.5 0.5 L 436.5 646.5 M 501.5 0.5 L 501.5 646.5 M 566.5 0.5 L 566.5 646.5" stroke-opacity="1" stroke-linecap="round" stroke-linejoin="round" stroke-miterlimit="10"/><path fill="none" stroke="rgb(192,192,192)" paint-order="fill stroke markers" d=" M 8.5 0.5 L 8.5 646.5 M 21.5 0.5 L 21.5 646.5 M 34.5 0.5 L 34.5 646.5 M 60.5 0.5 L 60.5 646.5 M 73.5 0.5 L 73.5 646.5 M 86.5 0.5 L 86.5 646.5 M 99.5 0.5 L 99.5 646.5 M 125.5 0.5 L 125.5 646.5 M 138.5 0.5 L 138.5 646.5 M 151.5 0.5 L 151.5 646.5 M 164.5 0.5 L 164.5 646.5 M 190.5 0.5 L 190.5 646.5 M 203.5 0.5 L 203.5 646.5 M 216.5 0.5 L 216.5 646.5 M 229.5 0.5 L 229.5 646.5 M 255.5 0.5 L 255.5 646.5 M 268.5 0.5 L 268.5 646.5 M 280.5 0.5 L 280.5 646.5 M 293.5 0.5 L 293.5 646.5 M 319.5 0.5 L 319.5 646.5 M 332.5 0.5 L 332.5 646.5 M 345.5 0.5 L 345.5 646.5 M 358.5 0.5 L 358.5 646.5 M 384.5 0.5 L 384.5 646.5 M 397.5 0.5 L 397.5 646.5 M 410.5 0.5 L 410.5 646.5 M 423.5 0.5 L 423.5 646.5 M 449.5 0.5 L 449.5 646.5 M 462.5 0.5 L 462.5 646.5 M 475.5 0.5 L 475.5 646.5 M 488.5 0.5 L 488.5 646.5 M 514.5 0.5 L 514.5 646.5 M 527.5 0.5 L 527.5 646.5 M 540.5 0.5 L 540.5 646.5 M 553.5 0.5 L 553.5 646.5 M 579.5 0.5 L 579.5 646.5 M 592.5 0.5 L 592.5 646.5 M 605.5 0.5 L 605.5 646.5" stroke-opacity="0.23529411764705882" stroke-linecap="round" stroke-linejoin="round" stroke-miterlimit="10"/><path fill="none" stroke="rgb(192,192,192)" paint-order="fill stroke markers" d=" M 0.5 39.5 L 606.5 39.5 M 0.5 39.5 L 606.5 39.5 M 0.5 104.5 L 606.5 104.5 M 0.5 169.5 L 606.5 169.5 M 0.5 234.5 L 606.5 234.5 M 0.5 298.5 L 606.5 298.5 M 0.5 363.5 L 606.5 363.5 M 0.5 428.5 L 606.5 428.5 M 0.5 493.5 L 606.5 493.5 M 0.5 558.5 L 606.5 558.5 M 0.5 623.5 L 606.5 623.5" stroke-opacity="1" stroke-linecap="round" stroke-linejoin="round" stroke-miterlimit="10"/><path fill="none" stroke="rgb(192,192,192)" paint-order="fill stroke markers" d=" M 0.5 0.5 L 606.5 0.5 M 0.5 0.5 L 606.5 0.5 M 0.5 13.5 L 606.5 13.5 M 0.5 26.5 L 606.5 26.5 M 0.5 52.5 L 606.5 52.5 M 0.5 65.5 L 606.5 65.5 M 0.5 78.5 L 606.5 78.5 M 0.5 91.5 L 606.5 91.5 M 0.5 117.5 L 606.5 117.5 M 0.5 130.5 L 606.5 130.5 M 0.5 143.5 L 606.5 143.5 M 0.5 156.5 L 606.5 156.5 M 0.5 182.5 L 606.5 182.5 M 0.5 195.5 L 606.5 195.5 M 0.5 208.5 L 606.5 208.5 M 0.5 221.5 L 606.5 221.5 M 0.5 247.5 L 606.5 247.5 M 0.5 260.5 L 606.5 260.5 M 0.5 273.5 L 606.5 273.5 M 0.5 285.5 L 606.5 285.5 M 0.5 311.5 L 606.5 311.5 M 0.5 324.5 L 606.5 324.5 M 0.5 337.5 L 606.5 337.5 M 0.5 350.5 L 606.5 350.5 M 0.5 376.5 L 606.5 376.5 M 0.5 389.5 L 606.5 389.5 M 0.5 402.5 L 606.5 402.5 M 0.5 415.5 L 606.5 415.5 M 0.5 441.5 L 606.5 441.5 M 0.5 454.5 L 606.5 454.5 M 0.5 467.5 L 606.5 467.5 M 0.5 480.5 L 606.5 480.5 M 0.5 506.5 L 606.5 506.5 M 0.5 519.5 L 606.5 519.5 M 0.5 532.5 L 606.5 532.5 M 0.5 545.5 L 606.5 545.5 M 0.5 571.5 L 606.5 571.5 M 0.5 584.5 L 606.5 584.5 M 0.5 597.5 L 606.5 597.5 M 0.5 610.5 L 606.5 610.5 M 0.5 636.5 L 606.5 636.5" stroke-opacity="0.23529411764705882" stroke-linecap="round" stroke-linejoin="round" stroke-miterlimit="10"/><path fill="rgb(0,0,255)" stroke="none" paint-order="stroke fill markers" d=" M 204.22224854889805 292.2044504419521 L 177.22224854889805 298.9544504419521 L 204.22224854889805 305.7044504419521 L 204.22224854889805 301.2044504419521 L 242.0658100513981 301.2044504419521 C 243.3084507385174 301.2044504419521 244.3158100513981 300.19709112907134 244.3158100513981 298.9544504419521 C 244.3158100513981 297.7118097548328 243.3084507385174 296.7044504419521 242.0658100513981 296.7044504419521 L 204.22224854889805 296.7044504419521 L 204.22224854889805 292.2044504419521 Z" fill-opacity="0.6980392156862745"/><g transform="scale(35,35)"><g transform="translate(4.314285714285714,8.599714285714287)"><path fill="rgb(0,0,255)" stroke="none" paint-order="stroke fill markers" d=" M 0.537 -0.595 L 0.217 -0.595 Q 0.186 -0.595 0.183 -0.609 Q 0.182 -0.612 0.182 -0.615 Q 0.188 -0.635 0.217 -0.635 L 0.554 -0.635 Q 0.534 -0.661 0.53 -0.6930000000000001 Q 0.53 -0.709 0.544 -0.713 Q 0.547 -0.714 0.55 -0.714 Q 0.5650000000000001 -0.714 0.5700000000000001 -0.6920000000000001 Q 0.583 -0.654 0.611 -0.635 Q 0.625 -0.625 0.625 -0.615 Q 0.625 -0.604 0.608 -0.594 Q 0.5630000000000001 -0.5720000000000001 0.529 -0.529 Q 0.518 -0.516 0.51 -0.516 Q 0.496 -0.516 0.491 -0.53 Q 0.49 -0.533 0.49 -0.536 Q 0.49 -0.552 0.537 -0.595 Z"/></g><g transform="translate(4.327285714285714,8.599714285714287)"><path fill="rgb(0,0,255)" stroke="none" paint-order="stroke fill markers" d=" M 0.334 -0.302 L 0.3 -0.165 Q 0.28300000000000003 -0.097 0.28300000000000003 -0.077 Q 0.28300000000000003 -0.025 0.32 -0.014 Q 0.328 -0.011 0.338 -0.011 Q 0.388 -0.011 0.429 -0.061 Q 0.456 -0.093 0.47100000000000003 -0.14200000000000002 Q 0.47400000000000003 -0.153 0.484 -0.153 Q 0.496 -0.153 0.496 -0.14300000000000002 Q 0.496 -0.11800000000000001 0.465 -0.07100000000000001 Q 0.41100000000000003 0.011 0.336 0.011 Q 0.268 0.011 0.23700000000000002 -0.046 Q 0.231 -0.055 0.228 -0.065 Q 0.20400000000000001 -0.017 0.162 0.002 Q 0.14300000000000002 0.011 0.123 0.011 Q 0.063 0.011 0.039 -0.024 Q 0.029 -0.037 0.029 -0.055 Q 0.029 -0.092 0.061 -0.107 Q 0.07200000000000001 -0.113 0.084 -0.113 Q 0.114 -0.113 0.12 -0.088 Q 0.121 -0.083 0.121 -0.078 Q 0.121 -0.044 0.08700000000000001 -0.028 Q 0.081 -0.025 0.074 -0.024 Q 0.095 -0.011 0.124 -0.011 Q 0.177 -0.011 0.20800000000000002 -0.082 Q 0.214 -0.097 0.219 -0.115 Q 0.273 -0.319 0.273 -0.353 Q 0.267 -0.41500000000000004 0.219 -0.42 Q 0.167 -0.42 0.124 -0.367 L 0.124 -0.366 Q 0.124 -0.365 0.123 -0.365 Q 0.108 -0.34500000000000003 0.096 -0.319 Q 0.091 -0.307 0.08700000000000001 -0.295 L 0.085 -0.289 Q 0.083 -0.278 0.07200000000000001 -0.278 Q 0.06 -0.278 0.06 -0.28800000000000003 Q 0.06 -0.313 0.092 -0.36 Q 0.146 -0.442 0.221 -0.442 Q 0.298 -0.442 0.329 -0.366 Q 0.361 -0.428 0.41400000000000003 -0.44 Q 0.424 -0.442 0.434 -0.442 Q 0.493 -0.442 0.517 -0.40900000000000003 Q 0.527 -0.395 0.527 -0.376 Q 0.527 -0.335 0.49 -0.321 Q 0.481 -0.318 0.47300000000000003 -0.318 Q 0.442 -0.318 0.436 -0.34500000000000003 Q 0.435 -0.34900000000000003 0.435 -0.353 Q 0.435 -0.383 0.464 -0.4 Q 0.47300000000000003 -0.405 0.483 -0.40700000000000003 Q 0.462 -0.42 0.433 -0.42 Q 0.365 -0.42 0.337 -0.314 Q 0.335 -0.308 0.334 -0.302 Z"/></g></g><path fill="rgb(0,0,255)" stroke="none" paint-order="stroke fill markers" d=" M 242.0658100513981 169.26732743695194 L 234.5658100513981 199.26732743695194 L 239.5658100513981 199.26732743695194 L 239.5658100513981 298.9544504419521 C 239.5658100513981 300.3351623165291 240.68509817682113 301.4544504419521 242.0658100513981 301.4544504419521 C 243.44652192597508 301.4544504419521 244.5658100513981 300.3351623165291 244.5658100513981 298.9544504419521 L 244.5658100513981 199.26732743695194 L 249.5658100513981 199.26732743695194 L 242.0658100513981 169.26732743695194 Z" fill-opacity="0.6980392156862745"/><g transform="scale(35,35)"><g transform="translate(7.0285714285714285,6.456857142857142)"><path fill="rgb(0,0,255)" stroke="none" paint-order="stroke fill markers" d=" M 0.537 -0.595 L 0.217 -0.595 Q 0.186 -0.595 0.183 -0.609 Q 0.182 -0.612 0.182 -0.615 Q 0.188 -0.635 0.217 -0.635 L 0.554 -0.635 Q 0.534 -0.661 0.53 -0.6930000000000001 Q 0.53 -0.709 0.544 -0.713 Q 0.547 -0.714 0.55 -0.714 Q 0.5650000000000001 -0.714 0.5700000000000001 -0.6920000000000001 Q 0.583 -0.654 0.611 -0.635 Q 0.625 -0.625 0.625 -0.615 Q 0.625 -0.604 0.608 -0.594 Q 0.5630000000000001 -0.5720000000000001 0.529 -0.529 Q 0.518 -0.516 0.51 -0.516 Q 0.496 -0.516 0.491 -0.53 Q 0.49 -0.533 0.49 -0.536 Q 0.49 -0.552 0.537 -0.595 Z"/></g><g transform="translate(7.0365714285714285,6.456857142857142)"><path fill="rgb(0,0,255)" stroke="none" paint-order="stroke fill markers" d=" M 0.486 -0.381 L 0.39 0.001 Q 0.366 0.099 0.28300000000000003 0.16 Q 0.222 0.20500000000000002 0.156 0.20500000000000002 Q 0.089 0.20500000000000002 0.061 0.159 Q 0.05 0.14 0.05 0.11800000000000001 Q 0.05 0.067 0.091 0.055 Q 0.099 0.053 0.106 0.053 Q 0.138 0.053 0.14200000000000002 0.081 Q 0.14300000000000002 0.084 0.14300000000000002 0.088 Q 0.14300000000000002 0.111 0.123 0.129 Q 0.109 0.14100000000000001 0.08 0.14100000000000001 Q 0.098 0.183 0.156 0.183 Q 0.218 0.183 0.266 0.12 Q 0.305 0.068 0.328 -0.021 Q 0.329 -0.025 0.331 -0.034 Q 0.28600000000000003 0.011 0.23 0.011 Q 0.15 0.011 0.121 -0.048 Q 0.108 -0.074 0.108 -0.108 Q 0.108 -0.163 0.161 -0.305 Q 0.163 -0.311 0.166 -0.318 Q 0.183 -0.364 0.183 -0.388 Q 0.183 -0.42 0.158 -0.42 Q 0.10300000000000001 -0.42 0.068 -0.329 L 0.068 -0.328 Q 0.062 -0.313 0.057 -0.296 Q 0.046 -0.279 0.041 -0.278 Q 0.029 -0.278 0.029 -0.28800000000000003 Q 0.029 -0.306 0.05 -0.35100000000000003 Q 0.094 -0.442 0.161 -0.442 Q 0.214 -0.442 0.23500000000000001 -0.397 Q 0.243 -0.38 0.243 -0.36 Q 0.243 -0.339 0.223 -0.28800000000000003 Q 0.17200000000000001 -0.156 0.17200000000000001 -0.092 Q 0.17200000000000001 -0.011 0.234 -0.011 Q 0.292 -0.011 0.335 -0.073 Q 0.34500000000000003 -0.088 0.34700000000000003 -0.096 L 0.392 -0.276 Q 0.399 -0.309 0.41200000000000003 -0.356 Q 0.422 -0.399 0.426 -0.41000000000000003 Q 0.439 -0.431 0.461 -0.431 Q 0.486 -0.426 0.49 -0.404 Q 0.49 -0.395 0.486 -0.381 Z"/></g></g><path fill="rgb(255,0,0)" stroke="none" paint-order="stroke fill markers" d=" M 371.75293305639815 104.42376593445188 L 348.87154996210745 125.22502329289794 L 353.0318014337967 127.99852427402412 L 353.03180143379666 127.99852427402412 L 239.9856843155535 297.567699951389 C 239.21980316779513 298.71652167302653 239.53023783919747 300.2686950300383 240.67905956083501 301.0345761777967 C 241.10527449131718 301.3187194647848 241.58700768397125 301.4547161258827 242.06350931483624 301.4547161258827 C 242.87137241355538 301.4547161258827 243.66419792647244 301.06380772367055 244.1459357872427 300.34120093251516 L 357.19205290548587 130.77202525515023 L 361.3523043771751 133.54552623627637 L 371.75293305639815 104.42376593445188 Z" fill-opacity="0.6980392156862745"/><g transform="scale(35,35)"><g transform="translate(9.2,6.256857142857143)"><path fill="rgb(255,0,0)" stroke="none" paint-order="stroke fill markers" d=" M 0.537 -0.595 L 0.217 -0.595 Q 0.186 -0.595 0.183 -0.609 Q 0.182 -0.612 0.182 -0.615 Q 0.188 -0.635 0.217 -0.635 L 0.554 -0.635 Q 0.534 -0.661 0.53 -0.6930000000000001 Q 0.53 -0.709 0.544 -0.713 Q 0.547 -0.714 0.55 -0.714 Q 0.5650000000000001 -0.714 0.5700000000000001 -0.6920000000000001 Q 0.583 -0.654 0.611 -0.635 Q 0.625 -0.625 0.625 -0.615 Q 0.625 -0.604 0.608 -0.594 Q 0.5630000000000001 -0.5720000000000001 0.529 -0.529 Q 0.518 -0.516 0.51 -0.516 Q 0.496 -0.516 0.491 -0.53 Q 0.49 -0.533 0.49 -0.536 Q 0.49 -0.552 0.537 -0.595 Z"/></g><g transform="translate(9.213,6.256857142857143)"><path fill="rgb(255,0,0)" stroke="none" paint-order="stroke fill markers" d=" M 0.35000000000000003 -0.056 L 0.35000000000000003 -0.056 Q 0.298 0.011 0.231 0.011 Q 0.15 0.011 0.121 -0.048 Q 0.108 -0.074 0.108 -0.109 Q 0.108 -0.163 0.161 -0.305 Q 0.163 -0.312 0.166 -0.319 Q 0.183 -0.362 0.183 -0.387 Q 0.183 -0.42 0.158 -0.42 Q 0.10200000000000001 -0.42 0.067 -0.325 Q 0.066 -0.325 0.066 -0.324 L 0.066 -0.323 Q 0.061 -0.31 0.057 -0.296 Q 0.046 -0.279 0.041 -0.278 Q 0.029 -0.278 0.029 -0.28800000000000003 Q 0.029 -0.306 0.05 -0.35100000000000003 Q 0.094 -0.442 0.161 -0.442 Q 0.214 -0.442 0.23500000000000001 -0.397 Q 0.243 -0.38 0.243 -0.36 Q 0.243 -0.34 0.226 -0.297 Q 0.17200000000000001 -0.154 0.17200000000000001 -0.093 Q 0.17200000000000001 -0.011 0.234 -0.011 Q 0.297 -0.011 0.34 -0.08 Q 0.34600000000000003 -0.089 0.34800000000000003 -0.095 Q 0.37 -0.194 0.423 -0.396 Q 0.431 -0.431 0.462 -0.431 Q 0.487 -0.426 0.491 -0.404 Q 0.491 -0.406 0.47600000000000003 -0.337 Q 0.462 -0.28600000000000003 0.459 -0.269 L 0.431 -0.161 Q 0.41100000000000003 -0.074 0.41100000000000003 -0.057 Q 0.41100000000000003 -0.011 0.442 -0.011 Q 0.484 -0.011 0.511 -0.111 Q 0.514 -0.121 0.517 -0.135 Q 0.525 -0.152 0.531 -0.153 Q 0.543 -0.153 0.543 -0.14300000000000002 Q 0.543 -0.128 0.525 -0.073 Q 0.519 -0.056 0.513 -0.044 Q 0.486 0.011 0.439 0.011 Q 0.382 0.011 0.358 -0.037 Q 0.353 -0.046 0.35000000000000003 -0.056 Z"/></g></g><path fill="rgb(0,102,51)" stroke="none" paint-order="stroke fill markers" d=" M 112.378687046398 169.26732743695194 L 128.2885896230953 195.78383173144746 L 131.82412352902807 192.24829782551473 L 131.82412352902804 192.24829782551473 L 240.29804309843172 300.72221739491846 C 240.7861984631208 301.21037275960754 241.42600425725945 301.4544504419521 242.0658100513981 301.4544504419521 C 242.70561584553676 301.4544504419521 243.3454216396754 301.21037275960754 243.83357700436449 300.72221739491846 C 244.80988773374267 299.7459066655403 244.80988773374267 298.16299421836385 243.83357700436449 297.1866834889857 L 135.3596574349608 188.71276391958202 L 135.35965743496078 188.71276391958202 L 138.89519134089355 185.17723001364928 L 112.378687046398 169.26732743695194 Z" fill-opacity="0.6980392156862745"/><g transform="scale(35,35)"><g transform="translate(5.0285714285714285,6.428285714285714)"><path fill="rgb(0,102,51)" stroke="none" paint-order="stroke fill markers" d=" M 0.537 -0.595 L 0.217 -0.595 Q 0.186 -0.595 0.183 -0.609 Q 0.182 -0.612 0.182 -0.615 Q 0.188 -0.635 0.217 -0.635 L 0.554 -0.635 Q 0.534 -0.661 0.53 -0.6930000000000001 Q 0.53 -0.709 0.544 -0.713 Q 0.547 -0.714 0.55 -0.714 Q 0.5650000000000001 -0.714 0.5700000000000001 -0.6920000000000001 Q 0.583 -0.654 0.611 -0.635 Q 0.625 -0.625 0.625 -0.615 Q 0.625 -0.604 0.608 -0.594 Q 0.5630000000000001 -0.5720000000000001 0.529 -0.529 Q 0.518 -0.516 0.51 -0.516 Q 0.496 -0.516 0.491 -0.53 Q 0.49 -0.533 0.49 -0.536 Q 0.49 -0.552 0.537 -0.595 Z"/></g><g transform="translate(5.0670714285714284,6.428285714285714)"><path fill="rgb(0,102,51)" stroke="none" paint-order="stroke fill markers" d=" M 0.468 -0.372 Q 0.468 -0.317 0.438 -0.218 Q 0.38 -0.024 0.277 0.006 Q 0.261 0.011 0.243 0.011 Q 0.152 0.011 0.122 -0.052000000000000005 Q 0.109 -0.078 0.109 -0.113 Q 0.109 -0.165 0.155 -0.289 L 0.166 -0.318 Q 0.183 -0.362 0.183 -0.388 Q 0.183 -0.42 0.158 -0.42 Q 0.10400000000000001 -0.42 0.069 -0.331 Q 0.062 -0.315 0.057 -0.296 Q 0.046 -0.279 0.041 -0.278 Q 0.029 -0.278 0.029 -0.28800000000000003 Q 0.029 -0.306 0.051000000000000004 -0.35100000000000003 Q 0.094 -0.442 0.161 -0.442 Q 0.214 -0.442 0.23500000000000001 -0.397 Q 0.243 -0.38 0.243 -0.36 Q 0.243 -0.339 0.231 -0.31 Q 0.177 -0.166 0.17300000000000001 -0.111 L 0.17300000000000001 -0.098 Q 0.17300000000000001 -0.018000000000000002 0.23700000000000002 -0.011 L 0.247 -0.011 Q 0.328 -0.011 0.387 -0.147 Q 0.422 -0.227 0.425 -0.28200000000000003 Q 0.425 -0.332 0.391 -0.364 Q 0.375 -0.38 0.375 -0.394 Q 0.375 -0.419 0.401 -0.435 Q 0.41200000000000003 -0.442 0.424 -0.442 Q 0.453 -0.442 0.464 -0.405 Q 0.468 -0.391 0.468 -0.372 Z"/></g></g><path fill="rgb(255,102,0)" stroke="none" paint-order="stroke fill markers" d=" M 242.06386890015202 296.45390280055864 C 241.68814388675537 296.45390280055864 241.30669454507216 296.5389232232403 240.94777606264822 296.7183824644523 L 138.09346878764558 348.14553610195367 L 135.85740081014578 343.67340014695407 L 112.378687046398 363.7980119444522 L 142.56560474264515 357.0898080119528 L 140.32953676514535 352.6176720569532 L 243.183844040148 301.19051841945185 C 244.4187902837061 300.5730452976728 244.91935115067693 299.07136269676033 244.30187802889787 297.8364164532022 C 243.86386414833078 296.960388692068 242.98091708353093 296.4539028005587 242.06386890015202 296.45390280055864 Z" fill-opacity="0.6980392156862745"/><g transform="scale(35,35)"><g transform="translate(5.613214285714286,10.314)"><path fill="rgb(255,102,0)" stroke="none" paint-order="stroke fill markers" d=" M 0.537 -0.595 L 0.217 -0.595 Q 0.186 -0.595 0.183 -0.609 Q 0.182 -0.612 0.182 -0.615 Q 0.188 -0.635 0.217 -0.635 L 0.554 -0.635 Q 0.534 -0.661 0.53 -0.6930000000000001 Q 0.53 -0.709 0.544 -0.713 Q 0.547 -0.714 0.55 -0.714 Q 0.5650000000000001 -0.714 0.5700000000000001 -0.6920000000000001 Q 0.583 -0.654 0.611 -0.635 Q 0.625 -0.625 0.625 -0.615 Q 0.625 -0.604 0.608 -0.594 Q 0.5630000000000001 -0.5720000000000001 0.529 -0.529 Q 0.518 -0.516 0.51 -0.516 Q 0.496 -0.516 0.491 -0.53 Q 0.49 -0.533 0.49 -0.536 Q 0.49 -0.552 0.537 -0.595 Z"/></g><g transform="translate(5.485714285714286,10.314)"><path fill="rgb(255,102,0)" stroke="none" paint-order="stroke fill markers" d=" M 0.462 -0.339 L 0.42 -0.171 Q 0.40900000000000003 -0.132 0.40900000000000003 -0.098 Q 0.417 -0.016 0.483 -0.011 Q 0.55 -0.011 0.593 -0.099 Q 0.627 -0.167 0.644 -0.252 Q 0.648 -0.271 0.648 -0.28200000000000003 Q 0.648 -0.331 0.612 -0.367 Q 0.597 -0.38 0.597 -0.394 Q 0.597 -0.419 0.624 -0.435 Q 0.635 -0.442 0.647 -0.442 Q 0.675 -0.442 0.686 -0.40700000000000003 Q 0.6910000000000001 -0.392 0.6910000000000001 -0.372 Q 0.6910000000000001 -0.31 0.651 -0.183 Q 0.638 -0.14200000000000002 0.625 -0.112 Q 0.5720000000000001 0.011 0.48 0.011 Q 0.383 0.011 0.355 -0.059000000000000004 Q 0.315 0.011 0.251 0.011 Q 0.153 0.011 0.121 -0.056 Q 0.109 -0.082 0.109 -0.115 Q 0.109 -0.166 0.162 -0.31 Q 0.164 -0.313 0.165 -0.317 Q 0.183 -0.361 0.183 -0.387 Q 0.183 -0.42 0.158 -0.42 Q 0.097 -0.42 0.061 -0.309 Q 0.059000000000000004 -0.303 0.057 -0.296 Q 0.046 -0.279 0.041 -0.278 Q 0.029 -0.278 0.029 -0.28800000000000003 Q 0.029 -0.306 0.05 -0.35100000000000003 Q 0.094 -0.442 0.161 -0.442 Q 0.213 -0.442 0.234 -0.398 Q 0.243 -0.381 0.243 -0.36 Q 0.243 -0.342 0.226 -0.296 Q 0.17400000000000002 -0.16 0.17400000000000002 -0.10200000000000001 Q 0.17400000000000002 -0.013000000000000001 0.254 -0.011 Q 0.31 -0.011 0.34600000000000003 -0.095 Q 0.34500000000000003 -0.1 0.34500000000000003 -0.113 Q 0.34500000000000003 -0.14 0.354 -0.179 L 0.41100000000000003 -0.403 Q 0.42 -0.429 0.448 -0.431 Q 0.47300000000000003 -0.426 0.47700000000000004 -0.404 Q 0.47700000000000004 -0.405 0.462 -0.339 Z"/></g></g><path fill="rgb(0,0,0)" stroke="none" paint-order="stroke fill markers" d=" M 242.0654581735296 296.45377218575817 C 241.01876303625266 296.4537721857582 240.04328900906663 297.1163194185255 239.69410180627182 298.16388102690996 C 239.25748237466144 299.47373932174116 239.96538234152482 300.889539255468 241.27524063635602 301.32615868707836 L 407.3454262023406 356.68288720907333 L 405.76428737225643 361.4263036993259 L 436.59649455889814 363.7980119444522 L 410.507703862509 347.1960542285682 L 408.92656503242483 351.9394707188207 L 408.92656503242466 351.9394707188207 L 242.8563794664402 296.5827421968258 C 242.59408277999344 296.4953099680102 242.3275379061489 296.45377218575817 242.0654581735296 296.45377218575817 Z" fill-opacity="0.6980392156862745"/><g transform="scale(35,35)"><g transform="translate(10.028571428571428,9.285428571428572)"><path fill="rgb(0,0,0)" stroke="none" paint-order="stroke fill markers" d=" M 0.537 -0.595 L 0.217 -0.595 Q 0.186 -0.595 0.183 -0.609 Q 0.182 -0.612 0.182 -0.615 Q 0.188 -0.635 0.217 -0.635 L 0.554 -0.635 Q 0.534 -0.661 0.53 -0.6930000000000001 Q 0.53 -0.709 0.544 -0.713 Q 0.547 -0.714 0.55 -0.714 Q 0.5650000000000001 -0.714 0.5700000000000001 -0.6920000000000001 Q 0.583 -0.654 0.611 -0.635 Q 0.625 -0.625 0.625 -0.615 Q 0.625 -0.604 0.608 -0.594 Q 0.5630000000000001 -0.5720000000000001 0.529 -0.529 Q 0.518 -0.516 0.51 -0.516 Q 0.496 -0.516 0.491 -0.53 Q 0.49 -0.533 0.49 -0.536 Q 0.49 -0.552 0.537 -0.595 Z"/></g><g transform="translate(10.045071428571429,9.285428571428572)"><path fill="rgb(0,0,0)" stroke="none" paint-order="stroke fill markers" d=" M 0.133 -0.083 L 0.133 -0.083 Q 0.14200000000000002 -0.08600000000000001 0.16 -0.08600000000000001 Q 0.186 -0.08600000000000001 0.23 -0.069 Q 0.269 -0.056 0.289 -0.056 Q 0.342 -0.056 0.38 -0.094 Q 0.4 -0.113 0.40900000000000003 -0.14 Q 0.41500000000000004 -0.153 0.423 -0.153 Q 0.435 -0.153 0.435 -0.14300000000000002 Q 0.435 -0.117 0.403 -0.069 Q 0.34900000000000003 0.011 0.278 0.011 Q 0.244 0.011 0.214 -0.026000000000000002 Q 0.186 -0.059000000000000004 0.169 -0.063 Q 0.164 -0.064 0.156 -0.064 Q 0.112 -0.064 0.07100000000000001 -0.002 Q 0.064 0.011 0.055 0.011 Q 0.043000000000000003 0.011 0.043000000000000003 0.001 Q 0.043000000000000003 -0.011 0.089 -0.067 Q 0.115 -0.099 0.146 -0.13 L 0.23600000000000002 -0.214 Q 0.335 -0.298 0.375 -0.34500000000000003 Q 0.339 -0.34500000000000003 0.298 -0.36 Q 0.255 -0.375 0.23500000000000001 -0.375 Q 0.177 -0.375 0.155 -0.337 Q 0.152 -0.333 0.15 -0.328 Q 0.146 -0.317 0.137 -0.317 Q 0.125 -0.317 0.125 -0.328 Q 0.125 -0.35000000000000003 0.154 -0.388 Q 0.194 -0.442 0.246 -0.442 Q 0.279 -0.442 0.308 -0.40700000000000003 L 0.309 -0.406 Q 0.311 -0.403 0.315 -0.399 Q 0.339 -0.372 0.354 -0.368 Q 0.36 -0.367 0.366 -0.367 Q 0.4 -0.367 0.437 -0.425 L 0.441 -0.431 Q 0.447 -0.442 0.456 -0.442 Q 0.467 -0.442 0.467 -0.432 Q 0.467 -0.42 0.425 -0.368 Q 0.395 -0.331 0.35000000000000003 -0.28700000000000003 Q 0.34400000000000003 -0.281 0.255 -0.2 L 0.252 -0.197 Q 0.187 -0.14100000000000001 0.133 -0.083 Z"/></g></g></g></g></svg>