<svg version="1.1" xmlns="http://www.w3.org/2000/svg" xmlns:xlink="http://www.w3.org/1999/xlink" width="1036" height="1022"><defs><clipPath id="hISuBVViuJBn"><path fill="none" stroke="none" d=" M 0 0 L 1036 0 L 1036 1022 L 0 1022 L 0 0 Z"/></clipPath></defs><g transform="scale(1,1)" clip-path="url(#hISuBVViuJBn)"><g><rect fill="rgb(255,255,255)" stroke="none" x="0" y="0" width="1037" height="1023" fill-opacity="1"/><path fill="rgb(0,0,255)" stroke="none" paint-order="stroke fill markers" d=" M 79.99999999999994 479 C 79.99999999999994 469.33870968157896 75.34715399036372 460.26868090054523 67.49991739945273 454.63295481572857 L 49.99999999999994 479 Z" fill-opacity="0.09803921568627451"/><path fill="none" stroke="rgb(0,0,255)" paint-order="fill stroke markers" d=" M 79.99999999999994 479 C 79.99999999999994 469.33870968157896 75.34715399036372 460.26868090054523 67.49991739945273 454.63295481572857 L 49.99999999999994 479 Z" stroke-opacity="0.6980392156862745" stroke-linecap="round" stroke-linejoin="round" stroke-miterlimit="10" stroke-width="2.5"/><g transform="scale(35,35)"><g transform="translate(2.6285714285714286,13.202428571428571)"><path fill="rgb(0,0,255)" stroke="none" paint-order="stroke fill markers" d=" M 0.47700000000000004 -0.23600000000000002 L 0.47700000000000004 -0.23600000000000002 L 0.47700000000000004 -0.17400000000000002 Q 0.542 -0.255 0.5750000000000001 -0.372 Q 0.585 -0.392 0.59 -0.393 Q 0.602 -0.393 0.602 -0.383 Q 0.602 -0.366 0.579 -0.307 Q 0.545 -0.221 0.487 -0.148 Q 0.47700000000000004 -0.128 0.47700000000000004 -0.113 Q 0.47700000000000004 -0.011 0.508 -0.011 Q 0.539 -0.011 0.558 -0.046 Q 0.561 -0.052000000000000005 0.5640000000000001 -0.06 Q 0.5680000000000001 -0.07 0.577 -0.07 Q 0.589 -0.07 0.589 -0.06 Q 0.589 -0.041 0.5640000000000001 -0.015 Q 0.538 0.011 0.505 0.011 Q 0.442 0.011 0.418 -0.058 Q 0.41600000000000004 -0.065 0.41400000000000003 -0.073 Q 0.309 0.011 0.203 0.011 Q 0.109 0.011 0.065 -0.064 Q 0.041 -0.105 0.041 -0.158 Q 0.041 -0.26 0.11900000000000001 -0.34700000000000003 Q 0.196 -0.433 0.293 -0.441 Q 0.302 -0.442 0.31 -0.442 Q 0.394 -0.442 0.44 -0.376 Q 0.44 -0.375 0.441 -0.375 Q 0.47700000000000004 -0.322 0.47700000000000004 -0.23600000000000002 M 0.41000000000000003 -0.099 L 0.41000000000000003 -0.099 Q 0.40800000000000003 -0.116 0.40800000000000003 -0.211 Q 0.40800000000000003 -0.334 0.381 -0.379 Q 0.369 -0.399 0.352 -0.40900000000000003 L 0.35100000000000003 -0.41000000000000003 L 0.35100000000000003 -0.41000000000000003 L 0.35000000000000003 -0.41000000000000003 Q 0.332 -0.42 0.309 -0.42 Q 0.23800000000000002 -0.42 0.181 -0.34 L 0.17300000000000001 -0.328 Q 0.137 -0.27 0.12 -0.166 Q 0.115 -0.138 0.115 -0.12 Q 0.115 -0.036000000000000004 0.17400000000000002 -0.016 Q 0.188 -0.011 0.20500000000000002 -0.011 Q 0.309 -0.011 0.41000000000000003 -0.099 Z"/></g></g><path fill="none" stroke="rgb(0,0,0)" paint-order="fill stroke markers" d=" M -5 479 L 1042 479" stroke-opacity="0.6980392156862745" stroke-linecap="round" stroke-linejoin="round" stroke-miterlimit="10" stroke-width="2.5"/><path fill="none" stroke="rgb(0,0,0)" paint-order="fill stroke markers" d=" M -5 555.5825034795214 L 397.5989787552239 -5" stroke-opacity="0.6980392156862745" stroke-linecap="round" stroke-linejoin="round" stroke-miterlimit="10" stroke-width="2.5"/><path fill="none" stroke="rgb(0,0,0)" paint-order="fill stroke markers" d=" M -5 258.99887500000114 L 1042 258.99887500000114" stroke-opacity="0.6980392156862745" stroke-linecap="round" stroke-linejoin="round" stroke-miterlimit="10" stroke-width="2.5"/><path fill="none" stroke="rgb(0,0,0)" paint-order="fill stroke markers" d=" M 111.71934021359925 1028 L 853.5989787552238 -5" stroke-opacity="0.6980392156862745" stroke-linecap="round" stroke-linejoin="round" stroke-miterlimit="10" stroke-width="2.5"/><g transform="scale(35,35)"><g transform="translate(7.542857142857143,14.797285714285714)"><path fill="rgb(0,0,255)" stroke="none" paint-order="stroke fill markers" d=" M 0.179 -0.115 L 0.527 -0.6990000000000001 Q 0.537 -0.715 0.553 -0.716 Q 0.5680000000000001 -0.716 0.5700000000000001 -0.706 Q 0.5710000000000001 -0.7030000000000001 0.5720000000000001 -0.6920000000000001 L 0.633 -0.067 Q 0.636 -0.042 0.645 -0.037 L 0.646 -0.037 L 0.646 -0.037 L 0.646 -0.037 L 0.646 -0.037 L 0.646 -0.036000000000000004 Q 0.658 -0.031 0.6980000000000001 -0.031 Q 0.72 -0.031 0.721 -0.02 Q 0.721 0 0.7030000000000001 0 L 0.591 -0.003 L 0.59 -0.003 L 0.466 0 L 0.465 0 Q 0.451 0 0.451 -0.011 Q 0.459 -0.03 0.47500000000000003 -0.031 Q 0.547 -0.031 0.547 -0.064 Q 0.547 -0.063 0.531 -0.231 L 0.28 -0.231 L 0.20400000000000001 -0.10300000000000001 Q 0.19 -0.078 0.19 -0.066 Q 0.19 -0.035 0.23700000000000002 -0.031 Q 0.253 -0.031 0.253 -0.019 Q 0.253 0 0.234 0 L 0.138 -0.003 L 0.134 -0.003 L 0.05 0 L 0.048 0 Q 0.035 0 0.035 -0.011 Q 0.035 -0.029 0.05 -0.03 L 0.05 -0.031 L 0.056 -0.031 Q 0.11900000000000001 -0.035 0.159 -0.085 Q 0.169 -0.098 0.179 -0.115 M 0.299 -0.262 L 0.528 -0.262 L 0.496 -0.592 L 0.299 -0.262 Z"/></g><g transform="translate(8.292857142857143,14.797285714285714)"><path fill="rgb(0,0,255)" stroke="none" paint-order="stroke fill markers" d=" M 0.16 -0.078 L 0.294 -0.615 Q 0.298 -0.631 0.298 -0.634 Q 0.298 -0.646 0.28200000000000003 -0.649 L 0.281 -0.649 L 0.28 -0.649 Q 0.277 -0.649 0.271 -0.65 Q 0.254 -0.652 0.233 -0.652 Q 0.20700000000000002 -0.652 0.20500000000000002 -0.663 Q 0.20500000000000002 -0.681 0.22 -0.683 L 0.221 -0.683 L 0.222 -0.683 L 0.234 -0.683 L 0.5700000000000001 -0.683 Q 0.685 -0.683 0.734 -0.615 Q 0.756 -0.583 0.756 -0.545 Q 0.756 -0.464 0.666 -0.404 Q 0.665 -0.404 0.664 -0.403 Q 0.611 -0.369 0.547 -0.357 Q 0.649 -0.34500000000000003 0.687 -0.277 Q 0.7020000000000001 -0.249 0.7020000000000001 -0.216 Q 0.7020000000000001 -0.14300000000000002 0.632 -0.079 L 0.631 -0.078 Q 0.545 0 0.426 0 L 0.069 0 Q 0.044 0 0.042 -0.011 Q 0.042 -0.029 0.057 -0.031 L 0.069 -0.031 Q 0.134 -0.031 0.147 -0.045 Q 0.153 -0.052000000000000005 0.159 -0.073 Q 0.159 -0.074 0.16 -0.078 M 0.311 -0.366 L 0.457 -0.366 Q 0.556 -0.366 0.62 -0.438 Q 0.665 -0.489 0.665 -0.549 Q 0.665 -0.622 0.605 -0.644 Q 0.584 -0.652 0.556 -0.652 L 0.427 -0.652 Q 0.391 -0.652 0.383 -0.642 L 0.383 -0.642 L 0.383 -0.641 L 0.382 -0.641 L 0.382 -0.64 Q 0.378 -0.634 0.373 -0.614 L 0.311 -0.366 M 0.266 -0.031 L 0.402 -0.031 Q 0.498 -0.031 0.561 -0.10300000000000001 Q 0.609 -0.159 0.609 -0.227 Q 0.609 -0.3 0.557 -0.33 Q 0.531 -0.34400000000000003 0.494 -0.34400000000000003 L 0.305 -0.34400000000000003 L 0.23600000000000002 -0.065 Q 0.231 -0.047 0.231 -0.042 Q 0.231 -0.034 0.24 -0.032 L 0.24 -0.032 L 0.24 -0.032 L 0.244 -0.032 Q 0.25 -0.031 0.266 -0.031 Z"/></g></g><path fill="none" stroke="rgb(0,0,255)" paint-order="fill stroke markers" d=" M 50 479 L 506 479" stroke-opacity="0.6980392156862745" stroke-linecap="round" stroke-linejoin="round" stroke-miterlimit="10" stroke-width="2.5"/><g transform="scale(35,35)"><g transform="translate(2.0285714285714285,9.911571428571428)"><path fill="rgb(0,0,255)" stroke="none" paint-order="stroke fill markers" d=" M 0.179 -0.115 L 0.527 -0.6990000000000001 Q 0.537 -0.715 0.553 -0.716 Q 0.5680000000000001 -0.716 0.5700000000000001 -0.706 Q 0.5710000000000001 -0.7030000000000001 0.5720000000000001 -0.6920000000000001 L 0.633 -0.067 Q 0.636 -0.042 0.645 -0.037 L 0.646 -0.037 L 0.646 -0.037 L 0.646 -0.037 L 0.646 -0.037 L 0.646 -0.036000000000000004 Q 0.658 -0.031 0.6980000000000001 -0.031 Q 0.72 -0.031 0.721 -0.02 Q 0.721 0 0.7030000000000001 0 L 0.591 -0.003 L 0.59 -0.003 L 0.466 0 L 0.465 0 Q 0.451 0 0.451 -0.011 Q 0.459 -0.03 0.47500000000000003 -0.031 Q 0.547 -0.031 0.547 -0.064 Q 0.547 -0.063 0.531 -0.231 L 0.28 -0.231 L 0.20400000000000001 -0.10300000000000001 Q 0.19 -0.078 0.19 -0.066 Q 0.19 -0.035 0.23700000000000002 -0.031 Q 0.253 -0.031 0.253 -0.019 Q 0.253 0 0.234 0 L 0.138 -0.003 L 0.134 -0.003 L 0.05 0 L 0.048 0 Q 0.035 0 0.035 -0.011 Q 0.035 -0.029 0.05 -0.03 L 0.05 -0.031 L 0.056 -0.031 Q 0.11900000000000001 -0.035 0.159 -0.085 Q 0.169 -0.098 0.179 -0.115 M 0.299 -0.262 L 0.528 -0.262 L 0.496 -0.592 L 0.299 -0.262 Z"/></g><g transform="translate(2.7785714285714285,9.911571428571428)"><path fill="rgb(0,0,255)" stroke="none" paint-order="stroke fill markers" d=" M 0.159 -0.078 L 0.159 -0.078 L 0.293 -0.615 Q 0.297 -0.631 0.297 -0.634 Q 0.297 -0.646 0.281 -0.649 L 0.28 -0.649 L 0.28 -0.649 Q 0.278 -0.65 0.275 -0.65 Q 0.251 -0.652 0.232 -0.652 Q 0.20600000000000002 -0.652 0.20400000000000001 -0.66 Q 0.203 -0.662 0.203 -0.664 Q 0.203 -0.681 0.22 -0.683 L 0.22 -0.683 L 0.233 -0.683 L 0.5690000000000001 -0.683 Q 0.6990000000000001 -0.683 0.763 -0.582 Q 0.804 -0.518 0.804 -0.43 Q 0.804 -0.28500000000000003 0.7030000000000001 -0.159 Q 0.607 -0.042 0.47700000000000004 -0.01 Q 0.438 0 0.399 0 L 0.068 0 Q 0.043000000000000003 0 0.041 -0.008 Q 0.04 -0.009000000000000001 0.04 -0.012 Q 0.04 -0.029 0.056 -0.031 L 0.068 -0.031 Q 0.133 -0.031 0.146 -0.045 Q 0.152 -0.052000000000000005 0.158 -0.073 Q 0.158 -0.074 0.159 -0.078 M 0.375 -0.614 L 0.23800000000000002 -0.065 Q 0.233 -0.047 0.233 -0.042 Q 0.233 -0.034 0.242 -0.032 L 0.242 -0.032 L 0.242 -0.032 L 0.246 -0.032 Q 0.252 -0.031 0.268 -0.031 L 0.381 -0.031 Q 0.505 -0.031 0.595 -0.124 Q 0.604 -0.134 0.612 -0.14400000000000002 Q 0.6920000000000001 -0.248 0.713 -0.41600000000000004 Q 0.717 -0.447 0.717 -0.467 Q 0.717 -0.601 0.612 -0.639 Q 0.578 -0.652 0.536 -0.652 L 0.429 -0.652 Q 0.393 -0.652 0.385 -0.642 L 0.385 -0.642 L 0.385 -0.641 L 0.384 -0.641 L 0.384 -0.64 Q 0.38 -0.634 0.375 -0.614 Z"/></g></g><path fill="none" stroke="rgb(0,0,255)" paint-order="fill stroke markers" d=" M 50 479 L 208.0003437499999 258.99887500000114" stroke-opacity="0.6980392156862745" stroke-linecap="round" stroke-linejoin="round" stroke-miterlimit="10" stroke-width="2.5"/><path fill="none" stroke="rgb(0,102,51)" paint-order="fill stroke markers" d=" M 208.0003437499999 258.99887500000114 L 664.0003437499998 258.99887500000114" stroke-opacity="0.6980392156862745" stroke-linecap="round" stroke-linejoin="round" stroke-miterlimit="10" stroke-width="2.5"/><path fill="none" stroke="rgb(0,102,51)" paint-order="fill stroke markers" d=" M 506 479 L 664.0003437499998 258.99887500000114" stroke-opacity="0.6980392156862745" stroke-linecap="round" stroke-linejoin="round" stroke-miterlimit="10" stroke-width="2.5"/><path fill="rgb(77,77,255)" stroke="none" paint-order="stroke fill markers" d=" M 55 479 C 55 481.76142374915395 52.76142374915396 484 50 484 C 47.23857625084603 484 45 481.76142374915395 45 479 C 45 476.23857625084605 47.23857625084603 474 50 474 C 52.76142374915396 474 55 476.23857625084605 55 479 Z" fill-opacity="1"/><path fill="none" stroke="rgb(0,0,0)" paint-order="fill stroke markers" d=" M 55 479 C 55 481.76142374915395 52.76142374915396 484 50 484 C 47.23857625084603 484 45 481.76142374915395 45 479 C 45 476.23857625084605 47.23857625084603 474 50 474 C 52.76142374915396 474 55 476.23857625084605 55 479 Z" stroke-opacity="1" stroke-linecap="round" stroke-linejoin="round" stroke-miterlimit="10"/><g transform="scale(35,35)"><g transform="translate(1.4857142857142858,14.654428571428571)"><path fill="rgb(77,77,255)" stroke="none" paint-order="stroke fill markers" d=" M 0.179 -0.115 L 0.527 -0.6990000000000001 Q 0.537 -0.715 0.553 -0.716 Q 0.5680000000000001 -0.716 0.5700000000000001 -0.706 Q 0.5710000000000001 -0.7030000000000001 0.5720000000000001 -0.6920000000000001 L 0.633 -0.067 Q 0.636 -0.042 0.645 -0.037 L 0.646 -0.037 L 0.646 -0.037 L 0.646 -0.037 L 0.646 -0.037 L 0.646 -0.036000000000000004 Q 0.658 -0.031 0.6980000000000001 -0.031 Q 0.72 -0.031 0.721 -0.02 Q 0.721 0 0.7030000000000001 0 L 0.591 -0.003 L 0.59 -0.003 L 0.466 0 L 0.465 0 Q 0.451 0 0.451 -0.011 Q 0.459 -0.03 0.47500000000000003 -0.031 Q 0.547 -0.031 0.547 -0.064 Q 0.547 -0.063 0.531 -0.231 L 0.28 -0.231 L 0.20400000000000001 -0.10300000000000001 Q 0.19 -0.078 0.19 -0.066 Q 0.19 -0.035 0.23700000000000002 -0.031 Q 0.253 -0.031 0.253 -0.019 Q 0.253 0 0.234 0 L 0.138 -0.003 L 0.134 -0.003 L 0.05 0 L 0.048 0 Q 0.035 0 0.035 -0.011 Q 0.035 -0.029 0.05 -0.03 L 0.05 -0.031 L 0.056 -0.031 Q 0.11900000000000001 -0.035 0.159 -0.085 Q 0.169 -0.098 0.179 -0.115 M 0.299 -0.262 L 0.528 -0.262 L 0.496 -0.592 L 0.299 -0.262 Z"/></g></g><path fill="rgb(77,77,255)" stroke="none" paint-order="stroke fill markers" d=" M 511 479 C 511 481.76142374915395 508.76142374915395 484 506 484 C 503.23857625084605 484 501 481.76142374915395 501 479 C 501 476.23857625084605 503.23857625084605 474 506 474 C 508.76142374915395 474 511 476.23857625084605 511 479 Z" fill-opacity="1"/><path fill="none" stroke="rgb(0,0,0)" paint-order="fill stroke markers" d=" M 511 479 C 511 481.76142374915395 508.76142374915395 484 506 484 C 503.23857625084605 484 501 481.76142374915395 501 479 C 501 476.23857625084605 503.23857625084605 474 506 474 C 508.76142374915395 474 511 476.23857625084605 511 479 Z" stroke-opacity="1" stroke-linecap="round" stroke-linejoin="round" stroke-miterlimit="10"/><g transform="scale(35,35)"><g transform="translate(14.628571428571428,14.711571428571428)"><path fill="rgb(77,77,255)" stroke="none" paint-order="stroke fill markers" d=" M 0.16 -0.078 L 0.294 -0.615 Q 0.298 -0.631 0.298 -0.634 Q 0.298 -0.646 0.28200000000000003 -0.649 L 0.281 -0.649 L 0.28 -0.649 Q 0.277 -0.649 0.271 -0.65 Q 0.254 -0.652 0.233 -0.652 Q 0.20700000000000002 -0.652 0.20500000000000002 -0.663 Q 0.20500000000000002 -0.681 0.22 -0.683 L 0.221 -0.683 L 0.222 -0.683 L 0.234 -0.683 L 0.5700000000000001 -0.683 Q 0.685 -0.683 0.734 -0.615 Q 0.756 -0.583 0.756 -0.545 Q 0.756 -0.464 0.666 -0.404 Q 0.665 -0.404 0.664 -0.403 Q 0.611 -0.369 0.547 -0.357 Q 0.649 -0.34500000000000003 0.687 -0.277 Q 0.7020000000000001 -0.249 0.7020000000000001 -0.216 Q 0.7020000000000001 -0.14300000000000002 0.632 -0.079 L 0.631 -0.078 Q 0.545 0 0.426 0 L 0.069 0 Q 0.044 0 0.042 -0.011 Q 0.042 -0.029 0.057 -0.031 L 0.069 -0.031 Q 0.134 -0.031 0.147 -0.045 Q 0.153 -0.052000000000000005 0.159 -0.073 Q 0.159 -0.074 0.16 -0.078 M 0.311 -0.366 L 0.457 -0.366 Q 0.556 -0.366 0.62 -0.438 Q 0.665 -0.489 0.665 -0.549 Q 0.665 -0.622 0.605 -0.644 Q 0.584 -0.652 0.556 -0.652 L 0.427 -0.652 Q 0.391 -0.652 0.383 -0.642 L 0.383 -0.642 L 0.383 -0.641 L 0.382 -0.641 L 0.382 -0.64 Q 0.378 -0.634 0.373 -0.614 L 0.311 -0.366 M 0.266 -0.031 L 0.402 -0.031 Q 0.498 -0.031 0.561 -0.10300000000000001 Q 0.609 -0.159 0.609 -0.227 Q 0.609 -0.3 0.557 -0.33 Q 0.531 -0.34400000000000003 0.494 -0.34400000000000003 L 0.305 -0.34400000000000003 L 0.23600000000000002 -0.065 Q 0.231 -0.047 0.231 -0.042 Q 0.231 -0.034 0.24 -0.032 L 0.24 -0.032 L 0.24 -0.032 L 0.244 -0.032 Q 0.25 -0.031 0.266 -0.031 Z"/></g></g><path fill="rgb(77,77,255)" stroke="none" paint-order="stroke fill markers" d=" M 213.0003437499999 258.99887500000114 C 213.0003437499999 261.7602987491551 210.76176749915388 263.99887500000114 208.0003437499999 263.99887500000114 C 205.23892000084592 263.99887500000114 203.0003437499999 261.7602987491551 203.0003437499999 258.99887500000114 C 203.0003437499999 256.2374512508472 205.23892000084592 253.99887500000114 208.0003437499999 253.99887500000114 C 210.76176749915388 253.99887500000114 213.0003437499999 256.2374512508472 213.0003437499999 258.99887500000114 Z" fill-opacity="1"/><path fill="none" stroke="rgb(0,0,0)" paint-order="fill stroke markers" d=" M 213.0003437499999 258.99887500000114 C 213.0003437499999 261.7602987491551 210.76176749915388 263.99887500000114 208.0003437499999 263.99887500000114 C 205.23892000084592 263.99887500000114 203.0003437499999 261.7602987491551 203.0003437499999 258.99887500000114 C 203.0003437499999 256.2374512508472 205.23892000084592 253.99887500000114 208.0003437499999 253.99887500000114 C 210.76176749915388 253.99887500000114 213.0003437499999 256.2374512508472 213.0003437499999 258.99887500000114 Z" stroke-opacity="1" stroke-linecap="round" stroke-linejoin="round" stroke-miterlimit="10"/><g transform="scale(35,35)"><g transform="translate(5.171428571428572,6.654428571428571)"><path fill="rgb(77,77,255)" stroke="none" paint-order="stroke fill markers" d=" M 0.159 -0.078 L 0.159 -0.078 L 0.293 -0.615 Q 0.297 -0.631 0.297 -0.634 Q 0.297 -0.646 0.281 -0.649 L 0.28 -0.649 L 0.28 -0.649 Q 0.278 -0.65 0.275 -0.65 Q 0.251 -0.652 0.232 -0.652 Q 0.20600000000000002 -0.652 0.20400000000000001 -0.66 Q 0.203 -0.662 0.203 -0.664 Q 0.203 -0.681 0.22 -0.683 L 0.22 -0.683 L 0.233 -0.683 L 0.5690000000000001 -0.683 Q 0.6990000000000001 -0.683 0.763 -0.582 Q 0.804 -0.518 0.804 -0.43 Q 0.804 -0.28500000000000003 0.7030000000000001 -0.159 Q 0.607 -0.042 0.47700000000000004 -0.01 Q 0.438 0 0.399 0 L 0.068 0 Q 0.043000000000000003 0 0.041 -0.008 Q 0.04 -0.009000000000000001 0.04 -0.012 Q 0.04 -0.029 0.056 -0.031 L 0.068 -0.031 Q 0.133 -0.031 0.146 -0.045 Q 0.152 -0.052000000000000005 0.158 -0.073 Q 0.158 -0.074 0.159 -0.078 M 0.375 -0.614 L 0.23800000000000002 -0.065 Q 0.233 -0.047 0.233 -0.042 Q 0.233 -0.034 0.242 -0.032 L 0.242 -0.032 L 0.242 -0.032 L 0.246 -0.032 Q 0.252 -0.031 0.268 -0.031 L 0.381 -0.031 Q 0.505 -0.031 0.595 -0.124 Q 0.604 -0.134 0.612 -0.14400000000000002 Q 0.6920000000000001 -0.248 0.713 -0.41600000000000004 Q 0.717 -0.447 0.717 -0.467 Q 0.717 -0.601 0.612 -0.639 Q 0.578 -0.652 0.536 -0.652 L 0.429 -0.652 Q 0.393 -0.652 0.385 -0.642 L 0.385 -0.642 L 0.385 -0.641 L 0.384 -0.641 L 0.384 -0.64 Q 0.38 -0.634 0.375 -0.614 Z"/></g></g><path fill="rgb(0,102,51)" stroke="none" paint-order="stroke fill markers" d=" M 668.0003437499998 258.99887500000114 C 668.0003437499998 261.2080139993243 666.209482749323 262.99887500000114 664.0003437499998 262.99887500000114 C 661.7912047506767 262.99887500000114 660.0003437499998 261.2080139993243 660.0003437499998 258.99887500000114 C 660.0003437499998 256.789736000678 661.7912047506767 254.99887500000114 664.0003437499998 254.99887500000114 C 666.209482749323 254.99887500000114 668.0003437499998 256.789736000678 668.0003437499998 258.99887500000114 Z" fill-opacity="1"/><path fill="none" stroke="rgb(0,0,0)" paint-order="fill stroke markers" d=" M 668.0003437499998 258.99887500000114 C 668.0003437499998 261.2080139993243 666.209482749323 262.99887500000114 664.0003437499998 262.99887500000114 C 661.7912047506767 262.99887500000114 660.0003437499998 261.2080139993243 660.0003437499998 258.99887500000114 C 660.0003437499998 256.789736000678 661.7912047506767 254.99887500000114 664.0003437499998 254.99887500000114 C 666.209482749323 254.99887500000114 668.0003437499998 256.789736000678 668.0003437499998 258.99887500000114 Z" stroke-opacity="1" stroke-linecap="round" stroke-linejoin="round" stroke-miterlimit="10"/><g transform="scale(35,35)"><g transform="translate(18.457142857142856,6.654428571428571)"><path fill="rgb(0,102,51)" stroke="none" paint-order="stroke fill markers" d=" M 0.76 -0.6950000000000001 L 0.6970000000000001 -0.44 Q 0.6920000000000001 -0.422 0.687 -0.421 L 0.686 -0.42 L 0.679 -0.42 Q 0.664 -0.42 0.664 -0.43 L 0.667 -0.47900000000000004 L 0.667 -0.481 Q 0.667 -0.605 0.589 -0.652 L 0.588 -0.653 Q 0.553 -0.674 0.506 -0.674 Q 0.4 -0.674 0.305 -0.595 Q 0.281 -0.5760000000000001 0.262 -0.553 Q 0.167 -0.442 0.145 -0.271 Q 0.14100000000000001 -0.24 0.14100000000000001 -0.217 Q 0.14100000000000001 -0.077 0.247 -0.028 Q 0.28800000000000003 -0.009000000000000001 0.337 -0.009000000000000001 Q 0.431 -0.009000000000000001 0.521 -0.082 Q 0.591 -0.14100000000000001 0.622 -0.24 Q 0.624 -0.25 0.635 -0.25 Q 0.647 -0.25 0.647 -0.24 Q 0.647 -0.222 0.624 -0.176 Q 0.593 -0.113 0.537 -0.064 Q 0.438 0.022 0.321 0.022 Q 0.193 0.022 0.116 -0.066 Q 0.05 -0.14100000000000001 0.05 -0.252 Q 0.05 -0.401 0.159 -0.531 Q 0.26 -0.652 0.398 -0.6910000000000001 Q 0.449 -0.705 0.498 -0.705 Q 0.607 -0.705 0.664 -0.616 L 0.734 -0.6930000000000001 Q 0.746 -0.705 0.749 -0.705 Q 0.76 -0.705 0.76 -0.6950000000000001 Z"/></g></g></g></g></svg>