<svg version="1.1" xmlns="http://www.w3.org/2000/svg" xmlns:xlink="http://www.w3.org/1999/xlink" width="772" height="1159"><defs><clipPath id="oLOqqBzUyUPB"><path fill="none" stroke="none" d=" M 0 0 L 772 0 L 772 1159 L 0 1159 L 0 0 Z"/></clipPath></defs><g transform="scale(1,1)" clip-path="url(#oLOqqBzUyUPB)"><g><rect fill="rgb(255,255,255)" stroke="none" x="0" y="0" width="773" height="1160" fill-opacity="1"/><path fill="none" stroke="rgb(0,0,0)" paint-order="fill stroke markers" d=" M -5 218.0666666666666 L 778 493.98095238095243" stroke-opacity="0.6980392156862745" stroke-linecap="round" stroke-linejoin="round" stroke-miterlimit="10" stroke-width="2.5"/><g transform="scale(35,35)"><g transform="translate(1.8,6.573857142857143)"><path fill="rgb(0,0,0)" stroke="none" paint-order="stroke fill markers" d=" M 0.088 -0.059000000000000004 L 0.088 -0.059000000000000004 L 0.146 -0.29 Q 0.162 -0.354 0.162 -0.374 Q 0.162 -0.42 0.131 -0.42 Q 0.09 -0.42 0.064 -0.325 Q 0.061 -0.314 0.058 -0.301 Q 0.047 -0.279 0.041 -0.278 Q 0.029 -0.278 0.029 -0.28800000000000003 Q 0.029 -0.304 0.047 -0.355 Q 0.054 -0.373 0.06 -0.385 Q 0.084 -0.434 0.12 -0.441 Q 0.127 -0.442 0.134 -0.442 Q 0.19 -0.442 0.215 -0.394 Q 0.221 -0.383 0.224 -0.37 Q 0.225 -0.368 0.225 -0.365 Q 0.28300000000000003 -0.437 0.353 -0.442 Q 0.40900000000000003 -0.442 0.429 -0.403 Q 0.436 -0.391 0.436 -0.377 Q 0.436 -0.338 0.403 -0.323 Q 0.392 -0.318 0.381 -0.318 Q 0.35000000000000003 -0.318 0.34400000000000003 -0.34500000000000003 Q 0.343 -0.34900000000000003 0.343 -0.353 Q 0.343 -0.386 0.377 -0.402 L 0.378 -0.403 Q 0.386 -0.406 0.395 -0.40800000000000003 L 0.375 -0.417 Q 0.362 -0.419 0.353 -0.42 Q 0.311 -0.42 0.273 -0.387 Q 0.242 -0.359 0.22 -0.313 Q 0.218 -0.308 0.217 -0.305 L 0.185 -0.17500000000000002 L 0.145 -0.017 Q 0.136 0.009000000000000001 0.108 0.011 Q 0.083 0.006 0.079 -0.016 Q 0.079 -0.014 0.088 -0.059000000000000004 Z"/></g></g><path fill="none" stroke="rgb(0,0,0)" paint-order="fill stroke markers" d=" M -5 542.9555555555556 L 225.44859813084116 -5" stroke-opacity="0.6980392156862745" stroke-linecap="round" stroke-linejoin="round" stroke-miterlimit="10" stroke-width="2.5"/><g transform="scale(35,35)"><g transform="translate(5.314285714285714,0.8024285714285715)"><path fill="rgb(0,0,0)" stroke="none" paint-order="stroke fill markers" d=" M 0.391 -0.374 L 0.391 -0.374 Q 0.37 -0.418 0.301 -0.42 Q 0.22 -0.42 0.195 -0.359 Q 0.189 -0.34400000000000003 0.189 -0.33 Q 0.189 -0.291 0.23700000000000002 -0.277 L 0.23700000000000002 -0.277 L 0.23800000000000002 -0.276 Q 0.245 -0.274 0.265 -0.27 Q 0.327 -0.257 0.34800000000000003 -0.242 Q 0.357 -0.23600000000000002 0.365 -0.228 Q 0.396 -0.197 0.396 -0.155 Q 0.396 -0.10300000000000001 0.357 -0.056 Q 0.301 0.011 0.195 0.011 Q 0.10200000000000001 0.011 0.066 -0.041 Q 0.052000000000000005 -0.061 0.052000000000000005 -0.08600000000000001 Q 0.052000000000000005 -0.135 0.09 -0.149 Q 0.099 -0.152 0.108 -0.152 Q 0.14100000000000001 -0.147 0.145 -0.117 Q 0.145 -0.08600000000000001 0.11800000000000001 -0.07100000000000001 Q 0.10200000000000001 -0.061 0.082 -0.064 Q 0.105 -0.011 0.196 -0.011 Q 0.299 -0.011 0.331 -0.08600000000000001 Q 0.339 -0.105 0.339 -0.121 Q 0.339 -0.169 0.28 -0.187 L 0.28 -0.187 L 0.279 -0.187 Q 0.264 -0.191 0.23500000000000001 -0.197 Q 0.145 -0.216 0.134 -0.277 Q 0.132 -0.28600000000000003 0.132 -0.296 Q 0.132 -0.34600000000000003 0.17 -0.389 Q 0.217 -0.442 0.301 -0.442 Q 0.38 -0.442 0.41000000000000003 -0.393 Q 0.42 -0.376 0.42 -0.356 Q 0.42 -0.311 0.386 -0.302 Q 0.38 -0.3 0.374 -0.3 Q 0.34600000000000003 -0.304 0.343 -0.329 Q 0.343 -0.356 0.37 -0.369 Q 0.38 -0.374 0.391 -0.374 Z"/></g></g><path fill="none" stroke="rgb(0,0,0)" paint-order="fill stroke markers" d=" M -5 34.94285714285712 L 778 310.85714285714295" stroke-opacity="0.6980392156862745" stroke-linecap="round" stroke-linejoin="round" stroke-miterlimit="10" stroke-width="2.5"/><path fill="none" stroke="rgb(0,0,0)" paint-order="fill stroke markers" d=" M -5 903.133333333333 L 376.9252336448597 -5" stroke-opacity="0.6980392156862745" stroke-linecap="round" stroke-linejoin="round" stroke-miterlimit="10" stroke-width="2.5"/><path fill="rgb(0,0,255)" stroke="none" paint-order="stroke fill markers" d=" M 113.99999063678034 257.4993186771927 C 112.96924453108092 257.4993186771927 112.00415427621161 258.141701161998 111.64210988458893 259.1691244355218 C 111.18322998132058 260.47135118804005 111.8668976830035 261.8990102121426 113.16912443552177 262.35789011541095 L 294.8744430505893 326.3873833416729 L 293.21269192163294 331.10316357249496 L 323.99999999999994 334 L 298.197945308502 316.9558228800288 L 296.5361941795457 321.6716031108508 L 296.53619417954553 321.6716031108508 L 114.83087556447812 257.64210988458893 C 114.55607208548362 257.54527437294325 114.27568286909153 257.4993186771927 113.99999063678034 257.4993186771927 Z" fill-opacity="0.6980392156862745"/><g transform="scale(35,35)"><g transform="translate(7.857142857142857,8.771142857142857)"><path fill="rgb(0,0,255)" stroke="none" paint-order="stroke fill markers" d=" M 0.537 -0.595 L 0.217 -0.595 Q 0.186 -0.595 0.183 -0.609 Q 0.182 -0.612 0.182 -0.615 Q 0.188 -0.635 0.217 -0.635 L 0.554 -0.635 Q 0.534 -0.661 0.53 -0.6930000000000001 Q 0.53 -0.709 0.544 -0.713 Q 0.547 -0.714 0.55 -0.714 Q 0.5650000000000001 -0.714 0.5700000000000001 -0.6920000000000001 Q 0.583 -0.654 0.611 -0.635 Q 0.625 -0.625 0.625 -0.615 Q 0.625 -0.604 0.608 -0.594 Q 0.5630000000000001 -0.5720000000000001 0.529 -0.529 Q 0.518 -0.516 0.51 -0.516 Q 0.496 -0.516 0.491 -0.53 Q 0.49 -0.533 0.49 -0.536 Q 0.49 -0.552 0.537 -0.595 Z"/></g><g transform="translate(7.870142857142857,8.771142857142857)"><path fill="rgb(0,0,255)" stroke="none" paint-order="stroke fill markers" d=" M 0.35000000000000003 -0.056 L 0.35000000000000003 -0.056 Q 0.298 0.011 0.231 0.011 Q 0.15 0.011 0.121 -0.048 Q 0.108 -0.074 0.108 -0.109 Q 0.108 -0.163 0.161 -0.305 Q 0.163 -0.312 0.166 -0.319 Q 0.183 -0.362 0.183 -0.387 Q 0.183 -0.42 0.158 -0.42 Q 0.10200000000000001 -0.42 0.067 -0.325 Q 0.066 -0.325 0.066 -0.324 L 0.066 -0.323 Q 0.061 -0.31 0.057 -0.296 Q 0.046 -0.279 0.041 -0.278 Q 0.029 -0.278 0.029 -0.28800000000000003 Q 0.029 -0.306 0.05 -0.35100000000000003 Q 0.094 -0.442 0.161 -0.442 Q 0.214 -0.442 0.23500000000000001 -0.397 Q 0.243 -0.38 0.243 -0.36 Q 0.243 -0.34 0.226 -0.297 Q 0.17200000000000001 -0.154 0.17200000000000001 -0.093 Q 0.17200000000000001 -0.011 0.234 -0.011 Q 0.297 -0.011 0.34 -0.08 Q 0.34600000000000003 -0.089 0.34800000000000003 -0.095 Q 0.37 -0.194 0.423 -0.396 Q 0.431 -0.431 0.462 -0.431 Q 0.487 -0.426 0.491 -0.404 Q 0.491 -0.406 0.47600000000000003 -0.337 Q 0.462 -0.28600000000000003 0.459 -0.269 L 0.431 -0.161 Q 0.41100000000000003 -0.074 0.41100000000000003 -0.057 Q 0.41100000000000003 -0.011 0.442 -0.011 Q 0.484 -0.011 0.511 -0.111 Q 0.514 -0.121 0.517 -0.135 Q 0.525 -0.152 0.531 -0.153 Q 0.543 -0.153 0.543 -0.14300000000000002 Q 0.543 -0.128 0.525 -0.073 Q 0.519 -0.056 0.513 -0.044 Q 0.486 0.011 0.439 0.011 Q 0.382 0.011 0.358 -0.037 Q 0.353 -0.046 0.35000000000000003 -0.056 Z"/></g></g><path fill="rgb(0,0,255)" stroke="none" paint-order="stroke fill markers" d=" M 312.99999999999994 146.99999999999994 L 283.2090838135932 155.29164113879082 L 285.6780046269881 159.63956363317655 L 112.76553959330249 257.82603875280705 C 111.56489394975472 258.507812409696 111.14426509591813 260.0338147631496 111.82603875280705 261.2344604066974 C 112.28648743996635 262.04533906815493 113.13200831764718 262.5004340716062 114.0023090628396 262.5004340716062 C 114.42063859978263 262.5004340716062 114.84469342460717 262.39528621692244 115.2344604066974 262.17396124719284 L 288.146925440383 163.9874861275623 L 288.14692544038303 163.9874861275623 L 290.61584625377793 168.335408621948 L 312.99999999999994 146.99999999999994 Z" fill-opacity="0.6980392156862745"/><g transform="scale(35,35)"><g transform="translate(6.171428571428572,6.485428571428571)"><path fill="rgb(0,0,255)" stroke="none" paint-order="stroke fill markers" d=" M 0.537 -0.595 L 0.217 -0.595 Q 0.186 -0.595 0.183 -0.609 Q 0.182 -0.612 0.182 -0.615 Q 0.188 -0.635 0.217 -0.635 L 0.554 -0.635 Q 0.534 -0.661 0.53 -0.6930000000000001 Q 0.53 -0.709 0.544 -0.713 Q 0.547 -0.714 0.55 -0.714 Q 0.5650000000000001 -0.714 0.5700000000000001 -0.6920000000000001 Q 0.583 -0.654 0.611 -0.635 Q 0.625 -0.625 0.625 -0.615 Q 0.625 -0.604 0.608 -0.594 Q 0.5630000000000001 -0.5720000000000001 0.529 -0.529 Q 0.518 -0.516 0.51 -0.516 Q 0.496 -0.516 0.491 -0.53 Q 0.49 -0.533 0.49 -0.536 Q 0.49 -0.552 0.537 -0.595 Z"/></g><g transform="translate(6.209928571428572,6.485428571428571)"><path fill="rgb(0,0,255)" stroke="none" paint-order="stroke fill markers" d=" M 0.468 -0.372 Q 0.468 -0.317 0.438 -0.218 Q 0.38 -0.024 0.277 0.006 Q 0.261 0.011 0.243 0.011 Q 0.152 0.011 0.122 -0.052000000000000005 Q 0.109 -0.078 0.109 -0.113 Q 0.109 -0.165 0.155 -0.289 L 0.166 -0.318 Q 0.183 -0.362 0.183 -0.388 Q 0.183 -0.42 0.158 -0.42 Q 0.10400000000000001 -0.42 0.069 -0.331 Q 0.062 -0.315 0.057 -0.296 Q 0.046 -0.279 0.041 -0.278 Q 0.029 -0.278 0.029 -0.28800000000000003 Q 0.029 -0.306 0.051000000000000004 -0.35100000000000003 Q 0.094 -0.442 0.161 -0.442 Q 0.214 -0.442 0.23500000000000001 -0.397 Q 0.243 -0.38 0.243 -0.36 Q 0.243 -0.339 0.231 -0.31 Q 0.177 -0.166 0.17300000000000001 -0.111 L 0.17300000000000001 -0.098 Q 0.17300000000000001 -0.018000000000000002 0.23700000000000002 -0.011 L 0.247 -0.011 Q 0.328 -0.011 0.387 -0.147 Q 0.422 -0.227 0.425 -0.28200000000000003 Q 0.425 -0.332 0.391 -0.364 Q 0.375 -0.38 0.375 -0.394 Q 0.375 -0.419 0.401 -0.435 Q 0.41200000000000003 -0.442 0.424 -0.442 Q 0.453 -0.442 0.464 -0.405 Q 0.468 -0.391 0.468 -0.372 Z"/></g></g><path fill="rgb(0,0,255)" stroke="none" paint-order="stroke fill markers" d=" M 158.99999999999994 152.99999999999997 L 140.45636422016213 177.74638503023652 L 145.06535151038898 179.68474417098614 L 145.06535151038895 179.68474417098614 L 111.69550635488653 259.0308204296251 C 111.16024325832096 260.30355712590324 111.75808373334701 261.76923054854774 113.03082042962512 262.3044936451133 C 113.34734897140383 262.43761312530063 113.67581089474574 262.50064871049767 113.99892647241593 262.50064871049767 C 114.97503355103142 262.50064871049767 115.90235002873509 261.92538772487416 116.30449364511335 260.96917957037476 L 149.67433880061577 181.62310331173572 L 149.67433880061574 181.62310331173572 L 154.2833260908426 183.56146245248533 L 158.99999999999997 152.99999999999997 Z" fill-opacity="0.6980392156862745"/><g transform="scale(35,35)"><g transform="translate(3.070357142857143,5.799714285714286)"><path fill="rgb(0,0,255)" stroke="none" paint-order="stroke fill markers" d=" M 0.537 -0.595 L 0.217 -0.595 Q 0.186 -0.595 0.183 -0.609 Q 0.182 -0.612 0.182 -0.615 Q 0.188 -0.635 0.217 -0.635 L 0.554 -0.635 Q 0.534 -0.661 0.53 -0.6930000000000001 Q 0.53 -0.709 0.544 -0.713 Q 0.547 -0.714 0.55 -0.714 Q 0.5650000000000001 -0.714 0.5700000000000001 -0.6920000000000001 Q 0.583 -0.654 0.611 -0.635 Q 0.625 -0.625 0.625 -0.615 Q 0.625 -0.604 0.608 -0.594 Q 0.5630000000000001 -0.5720000000000001 0.529 -0.529 Q 0.518 -0.516 0.51 -0.516 Q 0.496 -0.516 0.491 -0.53 Q 0.49 -0.533 0.49 -0.536 Q 0.49 -0.552 0.537 -0.595 Z"/></g><g transform="translate(2.942857142857143,5.799714285714286)"><path fill="rgb(0,0,255)" stroke="none" paint-order="stroke fill markers" d=" M 0.462 -0.339 L 0.42 -0.171 Q 0.40900000000000003 -0.132 0.40900000000000003 -0.098 Q 0.417 -0.016 0.483 -0.011 Q 0.55 -0.011 0.593 -0.099 Q 0.627 -0.167 0.644 -0.252 Q 0.648 -0.271 0.648 -0.28200000000000003 Q 0.648 -0.331 0.612 -0.367 Q 0.597 -0.38 0.597 -0.394 Q 0.597 -0.419 0.624 -0.435 Q 0.635 -0.442 0.647 -0.442 Q 0.675 -0.442 0.686 -0.40700000000000003 Q 0.6910000000000001 -0.392 0.6910000000000001 -0.372 Q 0.6910000000000001 -0.31 0.651 -0.183 Q 0.638 -0.14200000000000002 0.625 -0.112 Q 0.5720000000000001 0.011 0.48 0.011 Q 0.383 0.011 0.355 -0.059000000000000004 Q 0.315 0.011 0.251 0.011 Q 0.153 0.011 0.121 -0.056 Q 0.109 -0.082 0.109 -0.115 Q 0.109 -0.166 0.162 -0.31 Q 0.164 -0.313 0.165 -0.317 Q 0.183 -0.361 0.183 -0.387 Q 0.183 -0.42 0.158 -0.42 Q 0.097 -0.42 0.061 -0.309 Q 0.059000000000000004 -0.303 0.057 -0.296 Q 0.046 -0.279 0.041 -0.278 Q 0.029 -0.278 0.029 -0.28800000000000003 Q 0.029 -0.306 0.05 -0.35100000000000003 Q 0.094 -0.442 0.161 -0.442 Q 0.213 -0.442 0.234 -0.398 Q 0.243 -0.381 0.243 -0.36 Q 0.243 -0.342 0.226 -0.296 Q 0.17400000000000002 -0.16 0.17400000000000002 -0.10200000000000001 Q 0.17400000000000002 -0.013000000000000001 0.254 -0.011 Q 0.31 -0.011 0.34600000000000003 -0.095 Q 0.34500000000000003 -0.1 0.34500000000000003 -0.113 Q 0.34500000000000003 -0.14 0.354 -0.179 L 0.41100000000000003 -0.403 Q 0.42 -0.429 0.448 -0.431 Q 0.47300000000000003 -0.426 0.47700000000000004 -0.404 Q 0.47700000000000004 -0.405 0.462 -0.339 Z"/></g></g><path fill="rgb(255,0,0)" stroke="none" paint-order="stroke fill markers" d=" M 113.99999063678034 257.4993186771927 C 112.96924453108092 257.4993186771927 112.00415427621161 258.141701161998 111.64210988458893 259.1691244355218 C 111.18322998132058 260.47135118804005 111.8668976830035 261.8990102121426 113.16912443552177 262.35789011541095 L 216.8000244459382 298.8754453571767 L 215.13827331698184 303.5912255879988 L 245.9255813953488 306.48806201550383 L 220.12352670385087 289.4438848955326 L 218.46177557489452 294.1596651263547 L 114.83087556447812 257.64210988458893 C 114.55607208548362 257.54527437294325 114.27568286909153 257.4993186771927 113.99999063678034 257.4993186771927 Z" fill-opacity="0.5019607843137255"/><g transform="scale(35,35)"><g transform="translate(4.057142857142857,8.999714285714287)"><path fill="rgb(255,0,0)" stroke="none" paint-order="stroke fill markers" d=" M 0.47700000000000004 -0.23600000000000002 L 0.47700000000000004 -0.23600000000000002 L 0.47700000000000004 -0.17400000000000002 Q 0.542 -0.255 0.5750000000000001 -0.372 Q 0.585 -0.392 0.59 -0.393 Q 0.602 -0.393 0.602 -0.383 Q 0.602 -0.366 0.579 -0.307 Q 0.545 -0.221 0.487 -0.148 Q 0.47700000000000004 -0.128 0.47700000000000004 -0.113 Q 0.47700000000000004 -0.011 0.508 -0.011 Q 0.539 -0.011 0.558 -0.046 Q 0.561 -0.052000000000000005 0.5640000000000001 -0.06 Q 0.5680000000000001 -0.07 0.577 -0.07 Q 0.589 -0.07 0.589 -0.06 Q 0.589 -0.041 0.5640000000000001 -0.015 Q 0.538 0.011 0.505 0.011 Q 0.442 0.011 0.418 -0.058 Q 0.41600000000000004 -0.065 0.41400000000000003 -0.073 Q 0.309 0.011 0.203 0.011 Q 0.109 0.011 0.065 -0.064 Q 0.041 -0.105 0.041 -0.158 Q 0.041 -0.26 0.11900000000000001 -0.34700000000000003 Q 0.196 -0.433 0.293 -0.441 Q 0.302 -0.442 0.31 -0.442 Q 0.394 -0.442 0.44 -0.376 Q 0.44 -0.375 0.441 -0.375 Q 0.47700000000000004 -0.322 0.47700000000000004 -0.23600000000000002 M 0.41000000000000003 -0.099 L 0.41000000000000003 -0.099 Q 0.40800000000000003 -0.116 0.40800000000000003 -0.211 Q 0.40800000000000003 -0.334 0.381 -0.379 Q 0.369 -0.399 0.352 -0.40900000000000003 L 0.35100000000000003 -0.41000000000000003 L 0.35100000000000003 -0.41000000000000003 L 0.35000000000000003 -0.41000000000000003 Q 0.332 -0.42 0.309 -0.42 Q 0.23800000000000002 -0.42 0.181 -0.34 L 0.17300000000000001 -0.328 Q 0.137 -0.27 0.12 -0.166 Q 0.115 -0.138 0.115 -0.12 Q 0.115 -0.036000000000000004 0.17400000000000002 -0.016 Q 0.188 -0.011 0.20500000000000002 -0.011 Q 0.309 -0.011 0.41000000000000003 -0.099 Z"/></g><g transform="translate(4.701142857142857,8.999714285714287)"><path fill="rgb(255,0,0)" stroke="none" paint-order="stroke fill markers" d=" M 0.537 -0.595 L 0.217 -0.595 Q 0.186 -0.595 0.183 -0.609 Q 0.182 -0.612 0.182 -0.615 Q 0.188 -0.635 0.217 -0.635 L 0.554 -0.635 Q 0.534 -0.661 0.53 -0.6930000000000001 Q 0.53 -0.709 0.544 -0.713 Q 0.547 -0.714 0.55 -0.714 Q 0.5650000000000001 -0.714 0.5700000000000001 -0.6920000000000001 Q 0.583 -0.654 0.611 -0.635 Q 0.625 -0.625 0.625 -0.615 Q 0.625 -0.604 0.608 -0.594 Q 0.5630000000000001 -0.5720000000000001 0.529 -0.529 Q 0.518 -0.516 0.51 -0.516 Q 0.496 -0.516 0.491 -0.53 Q 0.49 -0.533 0.49 -0.536 Q 0.49 -0.552 0.537 -0.595 Z"/></g><g transform="translate(4.714142857142857,8.999714285714287)"><path fill="rgb(255,0,0)" stroke="none" paint-order="stroke fill markers" d=" M 0.35000000000000003 -0.056 L 0.35000000000000003 -0.056 Q 0.298 0.011 0.231 0.011 Q 0.15 0.011 0.121 -0.048 Q 0.108 -0.074 0.108 -0.109 Q 0.108 -0.163 0.161 -0.305 Q 0.163 -0.312 0.166 -0.319 Q 0.183 -0.362 0.183 -0.387 Q 0.183 -0.42 0.158 -0.42 Q 0.10200000000000001 -0.42 0.067 -0.325 Q 0.066 -0.325 0.066 -0.324 L 0.066 -0.323 Q 0.061 -0.31 0.057 -0.296 Q 0.046 -0.279 0.041 -0.278 Q 0.029 -0.278 0.029 -0.28800000000000003 Q 0.029 -0.306 0.05 -0.35100000000000003 Q 0.094 -0.442 0.161 -0.442 Q 0.214 -0.442 0.23500000000000001 -0.397 Q 0.243 -0.38 0.243 -0.36 Q 0.243 -0.34 0.226 -0.297 Q 0.17200000000000001 -0.154 0.17200000000000001 -0.093 Q 0.17200000000000001 -0.011 0.234 -0.011 Q 0.297 -0.011 0.34 -0.08 Q 0.34600000000000003 -0.089 0.34800000000000003 -0.095 Q 0.37 -0.194 0.423 -0.396 Q 0.431 -0.431 0.462 -0.431 Q 0.487 -0.426 0.491 -0.404 Q 0.491 -0.406 0.47600000000000003 -0.337 Q 0.462 -0.28600000000000003 0.459 -0.269 L 0.431 -0.161 Q 0.41100000000000003 -0.074 0.41100000000000003 -0.057 Q 0.41100000000000003 -0.011 0.442 -0.011 Q 0.484 -0.011 0.511 -0.111 Q 0.514 -0.121 0.517 -0.135 Q 0.525 -0.152 0.531 -0.153 Q 0.543 -0.153 0.543 -0.14300000000000002 Q 0.543 -0.128 0.525 -0.073 Q 0.519 -0.056 0.513 -0.044 Q 0.486 0.011 0.439 0.011 Q 0.382 0.011 0.358 -0.037 Q 0.353 -0.046 0.35000000000000003 -0.056 Z"/></g></g><path fill="rgb(255,0,0)" stroke="none" paint-order="stroke fill markers" d=" M 181.0744186046512 100.51193798449614 L 162.53078282481337 125.2583230147327 L 167.1397701150402 127.19668215548229 L 111.69550635488653 259.0308204296251 C 111.16024325832096 260.30355712590324 111.75808373334701 261.76923054854774 113.03082042962512 262.3044936451133 C 113.34734897140383 262.43761312530063 113.67581089474574 262.50064871049767 113.99892647241593 262.50064871049767 C 114.97503355103142 262.50064871049767 115.90235002873509 261.92538772487416 116.30449364511335 260.96917957037476 L 171.748757405267 129.13504129623192 L 171.74875740526707 129.13504129623192 L 176.35774469549384 131.0734004369815 L 181.07441860465124 100.51193798449614 Z" fill-opacity="0.5019607843137255"/><g transform="scale(35,35)"><g transform="translate(4.8,4.485428571428571)"><path fill="rgb(255,0,0)" stroke="none" paint-order="stroke fill markers" d=" M 0.028 0.169 L 0.18 -0.437 Q 0.209 -0.551 0.292 -0.631 Q 0.37 -0.705 0.456 -0.705 Q 0.539 -0.705 0.5750000000000001 -0.639 Q 0.59 -0.611 0.59 -0.577 Q 0.59 -0.502 0.528 -0.439 Q 0.507 -0.418 0.482 -0.403 Q 0.549 -0.357 0.549 -0.264 Q 0.549 -0.161 0.46900000000000003 -0.076 Q 0.392 0.005 0.296 0.012 L 0.28300000000000003 0.012 Q 0.186 0.012 0.14100000000000001 -0.063 Q 0.129 -0.083 0.123 -0.105 L 0.048 0.188 L 0.047 0.19 Q 0.043000000000000003 0.194 0.037 0.194 Q 0.025 0.194 0.025 0.184 Q 0.025 0.181 0.028 0.169 M 0.328 -0.401 Q 0.34500000000000003 -0.395 0.371 -0.395 Q 0.401 -0.395 0.419 -0.403 Q 0.406 -0.40900000000000003 0.379 -0.40900000000000003 Q 0.34400000000000003 -0.40900000000000003 0.328 -0.401 M 0.45 -0.421 Q 0.511 -0.467 0.525 -0.577 L 0.525 -0.578 L 0.525 -0.58 Q 0.527 -0.594 0.527 -0.602 Q 0.527 -0.673 0.46900000000000003 -0.682 Q 0.462 -0.683 0.455 -0.683 Q 0.372 -0.683 0.299 -0.606 Q 0.23 -0.534 0.2 -0.41600000000000004 L 0.154 -0.231 Q 0.14100000000000001 -0.179 0.14100000000000001 -0.156 Q 0.14100000000000001 -0.074 0.2 -0.034 Q 0.234 -0.01 0.281 -0.01 Q 0.359 -0.01 0.41500000000000004 -0.094 Q 0.422 -0.10300000000000001 0.427 -0.113 Q 0.462 -0.179 0.47400000000000003 -0.274 Q 0.47600000000000003 -0.291 0.47600000000000003 -0.302 Q 0.47600000000000003 -0.355 0.446 -0.386 Q 0.41400000000000003 -0.373 0.371 -0.373 Q 0.303 -0.373 0.303 -0.399 Q 0.303 -0.431 0.381 -0.431 Q 0.422 -0.431 0.45 -0.421 Z"/></g><g transform="translate(5.5465,4.485428571428571)"><path fill="rgb(255,0,0)" stroke="none" paint-order="stroke fill markers" d=" M 0.537 -0.595 L 0.217 -0.595 Q 0.186 -0.595 0.183 -0.609 Q 0.182 -0.612 0.182 -0.615 Q 0.188 -0.635 0.217 -0.635 L 0.554 -0.635 Q 0.534 -0.661 0.53 -0.6930000000000001 Q 0.53 -0.709 0.544 -0.713 Q 0.547 -0.714 0.55 -0.714 Q 0.5650000000000001 -0.714 0.5700000000000001 -0.6920000000000001 Q 0.583 -0.654 0.611 -0.635 Q 0.625 -0.625 0.625 -0.615 Q 0.625 -0.604 0.608 -0.594 Q 0.5630000000000001 -0.5720000000000001 0.529 -0.529 Q 0.518 -0.516 0.51 -0.516 Q 0.496 -0.516 0.491 -0.53 Q 0.49 -0.533 0.49 -0.536 Q 0.49 -0.552 0.537 -0.595 Z"/></g><g transform="translate(5.419,4.485428571428571)"><path fill="rgb(255,0,0)" stroke="none" paint-order="stroke fill markers" d=" M 0.462 -0.339 L 0.42 -0.171 Q 0.40900000000000003 -0.132 0.40900000000000003 -0.098 Q 0.417 -0.016 0.483 -0.011 Q 0.55 -0.011 0.593 -0.099 Q 0.627 -0.167 0.644 -0.252 Q 0.648 -0.271 0.648 -0.28200000000000003 Q 0.648 -0.331 0.612 -0.367 Q 0.597 -0.38 0.597 -0.394 Q 0.597 -0.419 0.624 -0.435 Q 0.635 -0.442 0.647 -0.442 Q 0.675 -0.442 0.686 -0.40700000000000003 Q 0.6910000000000001 -0.392 0.6910000000000001 -0.372 Q 0.6910000000000001 -0.31 0.651 -0.183 Q 0.638 -0.14200000000000002 0.625 -0.112 Q 0.5720000000000001 0.011 0.48 0.011 Q 0.383 0.011 0.355 -0.059000000000000004 Q 0.315 0.011 0.251 0.011 Q 0.153 0.011 0.121 -0.056 Q 0.109 -0.082 0.109 -0.115 Q 0.109 -0.166 0.162 -0.31 Q 0.164 -0.313 0.165 -0.317 Q 0.183 -0.361 0.183 -0.387 Q 0.183 -0.42 0.158 -0.42 Q 0.097 -0.42 0.061 -0.309 Q 0.059000000000000004 -0.303 0.057 -0.296 Q 0.046 -0.279 0.041 -0.278 Q 0.029 -0.278 0.029 -0.28800000000000003 Q 0.029 -0.306 0.05 -0.35100000000000003 Q 0.094 -0.442 0.161 -0.442 Q 0.213 -0.442 0.234 -0.398 Q 0.243 -0.381 0.243 -0.36 Q 0.243 -0.342 0.226 -0.296 Q 0.17400000000000002 -0.16 0.17400000000000002 -0.10200000000000001 Q 0.17400000000000002 -0.013000000000000001 0.254 -0.011 Q 0.31 -0.011 0.34600000000000003 -0.095 Q 0.34500000000000003 -0.1 0.34500000000000003 -0.113 Q 0.34500000000000003 -0.14 0.354 -0.179 L 0.41100000000000003 -0.403 Q 0.42 -0.429 0.448 -0.431 Q 0.47300000000000003 -0.426 0.47700000000000004 -0.404 Q 0.47700000000000004 -0.405 0.462 -0.339 Z"/></g></g><path fill="rgb(77,77,255)" stroke="none" paint-order="stroke fill markers" d=" M 118.99999999999994 259.99999999999994 C 118.99999999999994 262.7614237491539 116.7614237491539 264.99999999999994 113.99999999999994 264.99999999999994 C 111.23857625084598 264.99999999999994 108.99999999999994 262.7614237491539 108.99999999999994 259.99999999999994 C 108.99999999999994 257.238576250846 111.23857625084598 254.99999999999994 113.99999999999994 254.99999999999994 C 116.7614237491539 254.99999999999994 118.99999999999994 257.238576250846 118.99999999999994 259.99999999999994 Z" fill-opacity="1"/><path fill="none" stroke="rgb(0,0,0)" paint-order="fill stroke markers" d=" M 118.99999999999994 259.99999999999994 C 118.99999999999994 262.7614237491539 116.7614237491539 264.99999999999994 113.99999999999994 264.99999999999994 C 111.23857625084598 264.99999999999994 108.99999999999994 262.7614237491539 108.99999999999994 259.99999999999994 C 108.99999999999994 257.238576250846 111.23857625084598 254.99999999999994 113.99999999999994 254.99999999999994 C 116.7614237491539 254.99999999999994 118.99999999999994 257.238576250846 118.99999999999994 259.99999999999994 Z" stroke-opacity="1" stroke-linecap="round" stroke-linejoin="round" stroke-miterlimit="10"/><g transform="scale(35,35)"><g transform="translate(2.085714285714286,8.111571428571429)"><path fill="rgb(77,77,255)" stroke="none" paint-order="stroke fill markers" d=" M 0.303 -0.316 L 0.303 -0.316 L 0.241 -0.066 L 0.23800000000000002 -0.049 Q 0.23800000000000002 -0.032 0.28400000000000003 -0.031 L 0.28400000000000003 -0.031 L 0.28400000000000003 -0.031 L 0.303 -0.031 Q 0.329 -0.031 0.331 -0.02 Q 0.331 0 0.311 0 L 0.247 -0.002 L 0.246 -0.002 L 0.184 -0.003 L 0.182 -0.003 L 0.056 0 L 0.055 0 Q 0.04 0 0.04 -0.012 Q 0.04 -0.029 0.056 -0.031 L 0.068 -0.031 Q 0.133 -0.031 0.146 -0.045 Q 0.152 -0.052000000000000005 0.158 -0.073 Q 0.158 -0.074 0.159 -0.078 L 0.293 -0.615 Q 0.297 -0.631 0.297 -0.634 Q 0.297 -0.646 0.281 -0.649 L 0.28 -0.649 L 0.28 -0.649 Q 0.278 -0.65 0.275 -0.65 Q 0.251 -0.652 0.232 -0.652 Q 0.20600000000000002 -0.652 0.20400000000000001 -0.66 Q 0.203 -0.662 0.203 -0.664 Q 0.203 -0.681 0.22 -0.683 L 0.22 -0.683 L 0.233 -0.683 L 0.557 -0.683 Q 0.678 -0.683 0.73 -0.609 Q 0.754 -0.5740000000000001 0.754 -0.532 Q 0.754 -0.451 0.671 -0.385 Q 0.583 -0.316 0.47300000000000003 -0.316 L 0.303 -0.316 M 0.375 -0.614 L 0.307 -0.342 L 0.448 -0.342 Q 0.543 -0.342 0.602 -0.395 Q 0.643 -0.433 0.658 -0.522 L 0.658 -0.523 Q 0.661 -0.542 0.661 -0.556 Q 0.661 -0.652 0.525 -0.652 L 0.429 -0.652 Q 0.393 -0.652 0.385 -0.642 L 0.385 -0.642 L 0.385 -0.641 L 0.384 -0.641 L 0.384 -0.64 Q 0.38 -0.634 0.375 -0.614 Z"/></g></g><path fill="rgb(77,77,255)" stroke="none" paint-order="stroke fill markers" d=" M 328.99999999999994 334 C 328.99999999999994 336.76142374915395 326.7614237491539 339 323.99999999999994 339 C 321.238576250846 339 318.99999999999994 336.76142374915395 318.99999999999994 334 C 318.99999999999994 331.23857625084605 321.238576250846 329 323.99999999999994 329 C 326.7614237491539 329 328.99999999999994 331.23857625084605 328.99999999999994 334 Z" fill-opacity="1"/><path fill="none" stroke="rgb(0,0,0)" paint-order="fill stroke markers" d=" M 328.99999999999994 334 C 328.99999999999994 336.76142374915395 326.7614237491539 339 323.99999999999994 339 C 321.238576250846 339 318.99999999999994 336.76142374915395 318.99999999999994 334 C 318.99999999999994 331.23857625084605 321.238576250846 329 323.99999999999994 329 C 326.7614237491539 329 328.99999999999994 331.23857625084605 328.99999999999994 334 Z" stroke-opacity="1" stroke-linecap="round" stroke-linejoin="round" stroke-miterlimit="10"/><g transform="scale(35,35)"><g transform="translate(9.2,10.683)"><path fill="rgb(77,77,255)" stroke="none" paint-order="stroke fill markers" d=" M 0.179 -0.115 L 0.527 -0.6990000000000001 Q 0.537 -0.715 0.553 -0.716 Q 0.5680000000000001 -0.716 0.5700000000000001 -0.706 Q 0.5710000000000001 -0.7030000000000001 0.5720000000000001 -0.6920000000000001 L 0.633 -0.067 Q 0.636 -0.042 0.645 -0.037 L 0.646 -0.037 L 0.646 -0.037 L 0.646 -0.037 L 0.646 -0.037 L 0.646 -0.036000000000000004 Q 0.658 -0.031 0.6980000000000001 -0.031 Q 0.72 -0.031 0.721 -0.02 Q 0.721 0 0.7030000000000001 0 L 0.591 -0.003 L 0.59 -0.003 L 0.466 0 L 0.465 0 Q 0.451 0 0.451 -0.011 Q 0.459 -0.03 0.47500000000000003 -0.031 Q 0.547 -0.031 0.547 -0.064 Q 0.547 -0.063 0.531 -0.231 L 0.28 -0.231 L 0.20400000000000001 -0.10300000000000001 Q 0.19 -0.078 0.19 -0.066 Q 0.19 -0.035 0.23700000000000002 -0.031 Q 0.253 -0.031 0.253 -0.019 Q 0.253 0 0.234 0 L 0.138 -0.003 L 0.134 -0.003 L 0.05 0 L 0.048 0 Q 0.035 0 0.035 -0.011 Q 0.035 -0.029 0.05 -0.03 L 0.05 -0.031 L 0.056 -0.031 Q 0.11900000000000001 -0.035 0.159 -0.085 Q 0.169 -0.098 0.179 -0.115 M 0.299 -0.262 L 0.528 -0.262 L 0.496 -0.592 L 0.299 -0.262 Z"/></g></g><path fill="rgb(77,77,255)" stroke="none" paint-order="stroke fill markers" d=" M 317.99999999999994 146.99999999999994 C 317.99999999999994 149.76142374915392 315.7614237491539 151.99999999999994 312.99999999999994 151.99999999999994 C 310.238576250846 151.99999999999994 307.99999999999994 149.76142374915392 307.99999999999994 146.99999999999994 C 307.99999999999994 144.23857625084597 310.238576250846 141.99999999999994 312.99999999999994 141.99999999999994 C 315.7614237491539 141.99999999999994 317.99999999999994 144.23857625084597 317.99999999999994 146.99999999999994 Z" fill-opacity="1"/><path fill="none" stroke="rgb(0,0,0)" paint-order="fill stroke markers" d=" M 317.99999999999994 146.99999999999994 C 317.99999999999994 149.76142374915392 315.7614237491539 151.99999999999994 312.99999999999994 151.99999999999994 C 310.238576250846 151.99999999999994 307.99999999999994 149.76142374915392 307.99999999999994 146.99999999999994 C 307.99999999999994 144.23857625084597 310.238576250846 141.99999999999994 312.99999999999994 141.99999999999994 C 315.7614237491539 141.99999999999994 317.99999999999994 144.23857625084597 317.99999999999994 146.99999999999994 Z" stroke-opacity="1" stroke-linecap="round" stroke-linejoin="round" stroke-miterlimit="10"/><g transform="scale(35,35)"><g transform="translate(9.285714285714286,4.054428571428572)"><path fill="rgb(77,77,255)" stroke="none" paint-order="stroke fill markers" d=" M 0.16 -0.078 L 0.294 -0.615 Q 0.298 -0.631 0.298 -0.634 Q 0.298 -0.646 0.28200000000000003 -0.649 L 0.281 -0.649 L 0.28 -0.649 Q 0.277 -0.649 0.271 -0.65 Q 0.254 -0.652 0.233 -0.652 Q 0.20700000000000002 -0.652 0.20500000000000002 -0.663 Q 0.20500000000000002 -0.681 0.22 -0.683 L 0.221 -0.683 L 0.222 -0.683 L 0.234 -0.683 L 0.5700000000000001 -0.683 Q 0.685 -0.683 0.734 -0.615 Q 0.756 -0.583 0.756 -0.545 Q 0.756 -0.464 0.666 -0.404 Q 0.665 -0.404 0.664 -0.403 Q 0.611 -0.369 0.547 -0.357 Q 0.649 -0.34500000000000003 0.687 -0.277 Q 0.7020000000000001 -0.249 0.7020000000000001 -0.216 Q 0.7020000000000001 -0.14300000000000002 0.632 -0.079 L 0.631 -0.078 Q 0.545 0 0.426 0 L 0.069 0 Q 0.044 0 0.042 -0.011 Q 0.042 -0.029 0.057 -0.031 L 0.069 -0.031 Q 0.134 -0.031 0.147 -0.045 Q 0.153 -0.052000000000000005 0.159 -0.073 Q 0.159 -0.074 0.16 -0.078 M 0.311 -0.366 L 0.457 -0.366 Q 0.556 -0.366 0.62 -0.438 Q 0.665 -0.489 0.665 -0.549 Q 0.665 -0.622 0.605 -0.644 Q 0.584 -0.652 0.556 -0.652 L 0.427 -0.652 Q 0.391 -0.652 0.383 -0.642 L 0.383 -0.642 L 0.383 -0.641 L 0.382 -0.641 L 0.382 -0.64 Q 0.378 -0.634 0.373 -0.614 L 0.311 -0.366 M 0.266 -0.031 L 0.402 -0.031 Q 0.498 -0.031 0.561 -0.10300000000000001 Q 0.609 -0.159 0.609 -0.227 Q 0.609 -0.3 0.557 -0.33 Q 0.531 -0.34400000000000003 0.494 -0.34400000000000003 L 0.305 -0.34400000000000003 L 0.23600000000000002 -0.065 Q 0.231 -0.047 0.231 -0.042 Q 0.231 -0.034 0.24 -0.032 L 0.24 -0.032 L 0.24 -0.032 L 0.244 -0.032 Q 0.25 -0.031 0.266 -0.031 Z"/></g></g><path fill="rgb(77,77,255)" stroke="none" paint-order="stroke fill markers" d=" M 163.99999999999997 152.99999999999994 C 163.99999999999997 155.76142374915392 161.76142374915395 157.99999999999994 158.99999999999997 157.99999999999994 C 156.238576250846 157.99999999999994 153.99999999999997 155.76142374915392 153.99999999999997 152.99999999999994 C 153.99999999999997 150.23857625084597 156.238576250846 147.99999999999994 158.99999999999997 147.99999999999994 C 161.76142374915395 147.99999999999994 163.99999999999997 150.23857625084597 163.99999999999997 152.99999999999994 Z" fill-opacity="1"/><path fill="none" stroke="rgb(0,0,0)" paint-order="fill stroke markers" d=" M 163.99999999999997 152.99999999999994 C 163.99999999999997 155.76142374915392 161.76142374915395 157.99999999999994 158.99999999999997 157.99999999999994 C 156.238576250846 157.99999999999994 153.99999999999997 155.76142374915392 153.99999999999997 152.99999999999994 C 153.99999999999997 150.23857625084597 156.238576250846 147.99999999999994 158.99999999999997 147.99999999999994 C 161.76142374915395 147.99999999999994 163.99999999999997 150.23857625084597 163.99999999999997 152.99999999999994 Z" stroke-opacity="1" stroke-linecap="round" stroke-linejoin="round" stroke-miterlimit="10"/><g transform="scale(35,35)"><g transform="translate(3.6285714285714286,4.054428571428572)"><path fill="rgb(77,77,255)" stroke="none" paint-order="stroke fill markers" d=" M 0.76 -0.6950000000000001 L 0.6970000000000001 -0.44 Q 0.6920000000000001 -0.422 0.687 -0.421 L 0.686 -0.42 L 0.679 -0.42 Q 0.664 -0.42 0.664 -0.43 L 0.667 -0.47900000000000004 L 0.667 -0.481 Q 0.667 -0.605 0.589 -0.652 L 0.588 -0.653 Q 0.553 -0.674 0.506 -0.674 Q 0.4 -0.674 0.305 -0.595 Q 0.281 -0.5760000000000001 0.262 -0.553 Q 0.167 -0.442 0.145 -0.271 Q 0.14100000000000001 -0.24 0.14100000000000001 -0.217 Q 0.14100000000000001 -0.077 0.247 -0.028 Q 0.28800000000000003 -0.009000000000000001 0.337 -0.009000000000000001 Q 0.431 -0.009000000000000001 0.521 -0.082 Q 0.591 -0.14100000000000001 0.622 -0.24 Q 0.624 -0.25 0.635 -0.25 Q 0.647 -0.25 0.647 -0.24 Q 0.647 -0.222 0.624 -0.176 Q 0.593 -0.113 0.537 -0.064 Q 0.438 0.022 0.321 0.022 Q 0.193 0.022 0.116 -0.066 Q 0.05 -0.14100000000000001 0.05 -0.252 Q 0.05 -0.401 0.159 -0.531 Q 0.26 -0.652 0.398 -0.6910000000000001 Q 0.449 -0.705 0.498 -0.705 Q 0.607 -0.705 0.664 -0.616 L 0.734 -0.6930000000000001 Q 0.746 -0.705 0.749 -0.705 Q 0.76 -0.705 0.76 -0.6950000000000001 Z"/></g></g><path fill="rgb(255,0,0)" stroke="none" paint-order="stroke fill markers" d=" M 185.07441860465124 100.51193798449611 C 185.07441860465124 102.72107698381929 183.28355760397443 104.51193798449611 181.07441860465124 104.51193798449611 C 178.86527960532806 104.51193798449611 177.07441860465124 102.72107698381929 177.07441860465124 100.51193798449611 C 177.07441860465124 98.30279898517294 178.86527960532806 96.51193798449611 181.07441860465124 96.51193798449611 C 183.28355760397443 96.51193798449611 185.07441860465124 98.30279898517294 185.07441860465124 100.51193798449611 Z" fill-opacity="1"/><path fill="none" stroke="rgb(0,0,0)" paint-order="fill stroke markers" d=" M 185.07441860465124 100.51193798449611 C 185.07441860465124 102.72107698381929 183.28355760397443 104.51193798449611 181.07441860465124 104.51193798449611 C 178.86527960532806 104.51193798449611 177.07441860465124 102.72107698381929 177.07441860465124 100.51193798449611 C 177.07441860465124 98.30279898517294 178.86527960532806 96.51193798449611 181.07441860465124 96.51193798449611 C 183.28355760397443 96.51193798449611 185.07441860465124 98.30279898517294 185.07441860465124 100.51193798449611 Z" stroke-opacity="1" stroke-linecap="round" stroke-linejoin="round" stroke-miterlimit="10"/><g transform="scale(35,35)"><g transform="translate(5.628571428571429,2.7401428571428568)"><path fill="rgb(255,0,0)" stroke="none" paint-order="stroke fill markers" d=" M 0.159 -0.078 L 0.159 -0.078 L 0.293 -0.615 Q 0.297 -0.631 0.297 -0.634 Q 0.297 -0.646 0.281 -0.649 L 0.28 -0.649 L 0.28 -0.649 Q 0.278 -0.65 0.275 -0.65 Q 0.251 -0.652 0.232 -0.652 Q 0.20600000000000002 -0.652 0.20400000000000001 -0.66 Q 0.203 -0.662 0.203 -0.664 Q 0.203 -0.681 0.22 -0.683 L 0.22 -0.683 L 0.233 -0.683 L 0.5690000000000001 -0.683 Q 0.6990000000000001 -0.683 0.763 -0.582 Q 0.804 -0.518 0.804 -0.43 Q 0.804 -0.28500000000000003 0.7030000000000001 -0.159 Q 0.607 -0.042 0.47700000000000004 -0.01 Q 0.438 0 0.399 0 L 0.068 0 Q 0.043000000000000003 0 0.041 -0.008 Q 0.04 -0.009000000000000001 0.04 -0.012 Q 0.04 -0.029 0.056 -0.031 L 0.068 -0.031 Q 0.133 -0.031 0.146 -0.045 Q 0.152 -0.052000000000000005 0.158 -0.073 Q 0.158 -0.074 0.159 -0.078 M 0.375 -0.614 L 0.23800000000000002 -0.065 Q 0.233 -0.047 0.233 -0.042 Q 0.233 -0.034 0.242 -0.032 L 0.242 -0.032 L 0.242 -0.032 L 0.246 -0.032 Q 0.252 -0.031 0.268 -0.031 L 0.381 -0.031 Q 0.505 -0.031 0.595 -0.124 Q 0.604 -0.134 0.612 -0.14400000000000002 Q 0.6920000000000001 -0.248 0.713 -0.41600000000000004 Q 0.717 -0.447 0.717 -0.467 Q 0.717 -0.601 0.612 -0.639 Q 0.578 -0.652 0.536 -0.652 L 0.429 -0.652 Q 0.393 -0.652 0.385 -0.642 L 0.385 -0.642 L 0.385 -0.641 L 0.384 -0.641 L 0.384 -0.64 Q 0.38 -0.634 0.375 -0.614 Z"/></g></g><path fill="rgb(255,0,0)" stroke="none" paint-order="stroke fill markers" d=" M 249.9255813953488 306.48806201550383 C 249.9255813953488 308.697201014827 248.13472039467194 310.48806201550383 245.9255813953488 310.48806201550383 C 243.7164423960256 310.48806201550383 241.9255813953488 308.697201014827 241.9255813953488 306.48806201550383 C 241.9255813953488 304.27892301618067 243.7164423960256 302.48806201550383 245.9255813953488 302.48806201550383 C 248.13472039467194 302.48806201550383 249.9255813953488 304.27892301618067 249.9255813953488 306.48806201550383 Z" fill-opacity="1"/><path fill="none" stroke="rgb(0,0,0)" paint-order="fill stroke markers" d=" M 249.9255813953488 306.48806201550383 C 249.9255813953488 308.697201014827 248.13472039467194 310.48806201550383 245.9255813953488 310.48806201550383 C 243.7164423960256 310.48806201550383 241.9255813953488 308.697201014827 241.9255813953488 306.48806201550383 C 241.9255813953488 304.27892301618067 243.7164423960256 302.48806201550383 245.9255813953488 302.48806201550383 C 248.13472039467194 302.48806201550383 249.9255813953488 304.27892301618067 249.9255813953488 306.48806201550383 Z" stroke-opacity="1" stroke-linecap="round" stroke-linejoin="round" stroke-miterlimit="10"/><g transform="scale(35,35)"><g transform="translate(6.885714285714286,9.940142857142858)"><path fill="rgb(255,0,0)" stroke="none" paint-order="stroke fill markers" d=" M 0.708 -0.233 L 0.708 -0.233 L 0.616 -0.017 Q 0.61 -0.003 0.602 -0.001 L 0.602 -0.001 L 0.601 -0.001 Q 0.597 0 0.585 0 L 0.066 0 Q 0.041 0 0.039 -0.008 Q 0.038 -0.009000000000000001 0.038 -0.012 Q 0.038 -0.029 0.054 -0.031 L 0.066 -0.031 Q 0.131 -0.031 0.14400000000000002 -0.045 Q 0.15 -0.052000000000000005 0.156 -0.073 Q 0.156 -0.074 0.157 -0.078 L 0.289 -0.607 Q 0.294 -0.625 0.294 -0.631 Q 0.294 -0.648 0.248 -0.649 L 0.247 -0.649 L 0.229 -0.649 Q 0.203 -0.649 0.201 -0.66 Q 0.201 -0.678 0.217 -0.68 L 0.231 -0.68 L 0.736 -0.68 Q 0.76 -0.68 0.762 -0.673 L 0.763 -0.673 Q 0.765 -0.667 0.763 -0.653 L 0.743 -0.48 Q 0.736 -0.457 0.729 -0.455 Q 0.717 -0.455 0.717 -0.467 L 0.718 -0.484 L 0.718 -0.485 Q 0.722 -0.512 0.722 -0.538 Q 0.722 -0.608 0.683 -0.63 Q 0.65 -0.649 0.5700000000000001 -0.649 L 0.429 -0.649 Q 0.392 -0.649 0.385 -0.638 L 0.384 -0.638 L 0.384 -0.637 Q 0.381 -0.633 0.379 -0.625 L 0.379 -0.624 L 0.378 -0.623 Q 0.377 -0.619 0.375 -0.61 L 0.315 -0.369 L 0.40900000000000003 -0.369 Q 0.485 -0.369 0.51 -0.399 Q 0.526 -0.418 0.54 -0.468 Q 0.544 -0.485 0.554 -0.486 Q 0.5660000000000001 -0.486 0.5660000000000001 -0.47500000000000003 L 0.509 -0.241 Q 0.504 -0.222 0.494 -0.221 Q 0.481 -0.221 0.481 -0.232 Q 0.481 -0.23600000000000002 0.484 -0.243 Q 0.491 -0.273 0.491 -0.292 Q 0.491 -0.319 0.47600000000000003 -0.327 Q 0.457 -0.338 0.406 -0.338 L 0.307 -0.338 L 0.23900000000000002 -0.065 Q 0.234 -0.047 0.234 -0.042 Q 0.234 -0.034 0.243 -0.032 L 0.243 -0.032 L 0.243 -0.032 L 0.247 -0.032 Q 0.253 -0.031 0.269 -0.031 L 0.41500000000000004 -0.031 Q 0.537 -0.031 0.595 -0.08700000000000001 Q 0.633 -0.123 0.678 -0.222 Q 0.682 -0.233 0.6880000000000001 -0.246 Q 0.6920000000000001 -0.258 0.7010000000000001 -0.258 Q 0.713 -0.258 0.713 -0.247 Q 0.713 -0.246 0.708 -0.233 Z"/></g></g></g></g></svg>