<svg version="1.1" xmlns="http://www.w3.org/2000/svg" xmlns:xlink="http://www.w3.org/1999/xlink" width="606" height="646"><defs><clipPath id="xlWCTxMyrCkf"><path fill="none" stroke="none" d=" M 0 0 L 606 0 L 606 646 L 0 646 L 0 0 Z"/></clipPath></defs><g transform="scale(1,1)" clip-path="url(#xlWCTxMyrCkf)"><g><rect fill="rgb(255,255,255)" stroke="none" x="0" y="0" width="607" height="647" fill-opacity="1"/><path fill="none" stroke="rgb(192,192,192)" paint-order="fill stroke markers" d=" M 31.5 0.5 L 31.5 646.5 M 31.5 0.5 L 31.5 646.5 M 109.5 0.5 L 109.5 646.5 M 188.5 0.5 L 188.5 646.5 M 266.5 0.5 L 266.5 646.5 M 345.5 0.5 L 345.5 646.5 M 423.5 0.5 L 423.5 646.5 M 502.5 0.5 L 502.5 646.5 M 580.5 0.5 L 580.5 646.5" stroke-opacity="1" stroke-linecap="round" stroke-linejoin="round" stroke-miterlimit="10"/><path fill="none" stroke="rgb(192,192,192)" paint-order="fill stroke markers" d=" M 15.5 0.5 L 15.5 646.5 M 47.5 0.5 L 47.5 646.5 M 62.5 0.5 L 62.5 646.5 M 78.5 0.5 L 78.5 646.5 M 94.5 0.5 L 94.5 646.5 M 125.5 0.5 L 125.5 646.5 M 141.5 0.5 L 141.5 646.5 M 156.5 0.5 L 156.5 646.5 M 172.5 0.5 L 172.5 646.5 M 203.5 0.5 L 203.5 646.5 M 219.5 0.5 L 219.5 646.5 M 235.5 0.5 L 235.5 646.5 M 251.5 0.5 L 251.5 646.5 M 282.5 0.5 L 282.5 646.5 M 298.5 0.5 L 298.5 646.5 M 313.5 0.5 L 313.5 646.5 M 329.5 0.5 L 329.5 646.5 M 360.5 0.5 L 360.5 646.5 M 376.5 0.5 L 376.5 646.5 M 392.5 0.5 L 392.5 646.5 M 407.5 0.5 L 407.5 646.5 M 439.5 0.5 L 439.5 646.5 M 455.5 0.5 L 455.5 646.5 M 470.5 0.5 L 470.5 646.5 M 486.5 0.5 L 486.5 646.5 M 517.5 0.5 L 517.5 646.5 M 533.5 0.5 L 533.5 646.5 M 549.5 0.5 L 549.5 646.5 M 564.5 0.5 L 564.5 646.5 M 596.5 0.5 L 596.5 646.5" stroke-opacity="0.23529411764705882" stroke-linecap="round" stroke-linejoin="round" stroke-miterlimit="10"/><path fill="none" stroke="rgb(192,192,192)" paint-order="fill stroke markers" d=" M 0.5 57.5 L 606.5 57.5 M 0.5 57.5 L 606.5 57.5 M 0.5 135.5 L 606.5 135.5 M 0.5 214.5 L 606.5 214.5 M 0.5 292.5 L 606.5 292.5 M 0.5 371.5 L 606.5 371.5 M 0.5 449.5 L 606.5 449.5 M 0.5 528.5 L 606.5 528.5 M 0.5 606.5 L 606.5 606.5" stroke-opacity="1" stroke-linecap="round" stroke-linejoin="round" stroke-miterlimit="10"/><path fill="none" stroke="rgb(192,192,192)" paint-order="fill stroke markers" d=" M 0.5 10.5 L 606.5 10.5 M 0.5 10.5 L 606.5 10.5 M 0.5 25.5 L 606.5 25.5 M 0.5 41.5 L 606.5 41.5 M 0.5 73.5 L 606.5 73.5 M 0.5 88.5 L 606.5 88.5 M 0.5 104.5 L 606.5 104.5 M 0.5 120.5 L 606.5 120.5 M 0.5 151.5 L 606.5 151.5 M 0.5 167.5 L 606.5 167.5 M 0.5 182.5 L 606.5 182.5 M 0.5 198.5 L 606.5 198.5 M 0.5 229.5 L 606.5 229.5 M 0.5 245.5 L 606.5 245.5 M 0.5 261.5 L 606.5 261.5 M 0.5 277.5 L 606.5 277.5 M 0.5 308.5 L 606.5 308.5 M 0.5 324.5 L 606.5 324.5 M 0.5 339.5 L 606.5 339.5 M 0.5 355.5 L 606.5 355.5 M 0.5 386.5 L 606.5 386.5 M 0.5 402.5 L 606.5 402.5 M 0.5 418.5 L 606.5 418.5 M 0.5 433.5 L 606.5 433.5 M 0.5 465.5 L 606.5 465.5 M 0.5 481.5 L 606.5 481.5 M 0.5 496.5 L 606.5 496.5 M 0.5 512.5 L 606.5 512.5 M 0.5 543.5 L 606.5 543.5 M 0.5 559.5 L 606.5 559.5 M 0.5 575.5 L 606.5 575.5 M 0.5 590.5 L 606.5 590.5 M 0.5 622.5 L 606.5 622.5 M 0.5 637.5 L 606.5 637.5" stroke-opacity="0.23529411764705882" stroke-linecap="round" stroke-linejoin="round" stroke-miterlimit="10"/><path fill="rgb(0,0,255)" stroke="none" paint-order="stroke fill markers" d=" M 239.75306685294402 286.0030668529439 L 239.75306685294402 290.5030668529439 L 188.29235743491893 290.5030668529439 C 187.04971674779964 290.5030668529439 186.04235743491893 291.51042616582464 186.04235743491893 292.7530668529439 C 186.04235743491893 293.99570754006317 187.04971674779964 295.0030668529439 188.29235743491893 295.0030668529439 L 239.75306685294402 295.0030668529439 L 239.75306685294402 299.5030668529439 L 266.753066852944 292.7530668529439 L 239.75306685294402 286.0030668529439 Z" fill-opacity="0.6980392156862745"/><g transform="scale(35,35)"><g transform="translate(6,9.314)"><path fill="rgb(0,0,255)" stroke="none" paint-order="stroke fill markers" d=" M 0.537 -0.595 L 0.217 -0.595 Q 0.186 -0.595 0.183 -0.609 Q 0.182 -0.612 0.182 -0.615 Q 0.188 -0.635 0.217 -0.635 L 0.554 -0.635 Q 0.534 -0.661 0.53 -0.6930000000000001 Q 0.53 -0.709 0.544 -0.713 Q 0.547 -0.714 0.55 -0.714 Q 0.5650000000000001 -0.714 0.5700000000000001 -0.6920000000000001 Q 0.583 -0.654 0.611 -0.635 Q 0.625 -0.625 0.625 -0.615 Q 0.625 -0.604 0.608 -0.594 Q 0.5630000000000001 -0.5720000000000001 0.529 -0.529 Q 0.518 -0.516 0.51 -0.516 Q 0.496 -0.516 0.491 -0.53 Q 0.49 -0.533 0.49 -0.536 Q 0.49 -0.552 0.537 -0.595 Z"/></g><g transform="translate(6.1545,9.543000000000001)"><path fill="rgb(0,0,255)" stroke="none" paint-order="stroke fill markers" d=" M 0.28400000000000003 -0.625 Q 0.28400000000000003 -0.594 0.253 -0.578 Q 0.242 -0.5720000000000001 0.231 -0.5720000000000001 Q 0.201 -0.5720000000000001 0.194 -0.599 Q 0.193 -0.604 0.193 -0.608 Q 0.193 -0.636 0.221 -0.653 Q 0.234 -0.661 0.247 -0.661 Q 0.277 -0.661 0.28300000000000003 -0.634 L 0.28300000000000003 -0.633 Q 0.28400000000000003 -0.629 0.28400000000000003 -0.625 M 0.20800000000000002 -0.249 L 0.169 -0.14400000000000002 Q 0.14100000000000001 -0.063 0.14 -0.044 Q 0.14 -0.011 0.164 -0.011 Q 0.227 -0.011 0.262 -0.123 L 0.266 -0.135 Q 0.271 -0.151 0.276 -0.152 L 0.276 -0.153 L 0.281 -0.153 Q 0.293 -0.153 0.293 -0.14300000000000002 Q 0.293 -0.125 0.271 -0.079 Q 0.228 0.011 0.162 0.011 Q 0.109 0.011 0.088 -0.033 Q 0.08 -0.051000000000000004 0.08 -0.07100000000000001 Q 0.08 -0.091 0.10300000000000001 -0.151 Q 0.17300000000000001 -0.339 0.17200000000000001 -0.336 Q 0.183 -0.364 0.183 -0.388 Q 0.183 -0.42 0.158 -0.42 Q 0.10300000000000001 -0.42 0.068 -0.329 L 0.068 -0.328 Q 0.062 -0.313 0.057 -0.296 Q 0.046 -0.279 0.041 -0.278 Q 0.029 -0.278 0.029 -0.28800000000000003 Q 0.029 -0.306 0.051000000000000004 -0.35100000000000003 Q 0.094 -0.442 0.161 -0.442 Q 0.214 -0.442 0.23500000000000001 -0.397 Q 0.243 -0.38 0.243 -0.36 Q 0.243 -0.34 0.23 -0.307 Q 0.213 -0.261 0.20800000000000002 -0.249 Z"/></g></g><path fill="rgb(0,0,255)" stroke="none" paint-order="stroke fill markers" d=" M 188.29235743491893 214.29235743491878 L 180.79235743491893 244.29235743491878 L 185.79235743491893 244.29235743491878 L 185.79235743491893 292.7530668529439 C 185.79235743491893 294.1337787275209 186.91164556034195 295.2530668529439 188.29235743491893 295.2530668529439 C 189.6730693094959 295.2530668529439 190.79235743491893 294.1337787275209 190.79235743491893 292.7530668529439 L 190.79235743491893 244.29235743491878 L 195.79235743491893 244.29235743491878 L 188.29235743491893 214.29235743491878 Z" fill-opacity="0.6980392156862745"/><g transform="scale(35,35)"><g transform="translate(4.314285714285714,7.742571428571429)"><path fill="rgb(0,0,255)" stroke="none" paint-order="stroke fill markers" d=" M 0.537 -0.595 L 0.217 -0.595 Q 0.186 -0.595 0.183 -0.609 Q 0.182 -0.612 0.182 -0.615 Q 0.188 -0.635 0.217 -0.635 L 0.554 -0.635 Q 0.534 -0.661 0.53 -0.6930000000000001 Q 0.53 -0.709 0.544 -0.713 Q 0.547 -0.714 0.55 -0.714 Q 0.5650000000000001 -0.714 0.5700000000000001 -0.6920000000000001 Q 0.583 -0.654 0.611 -0.635 Q 0.625 -0.625 0.625 -0.615 Q 0.625 -0.604 0.608 -0.594 Q 0.5630000000000001 -0.5720000000000001 0.529 -0.529 Q 0.518 -0.516 0.51 -0.516 Q 0.496 -0.516 0.491 -0.53 Q 0.49 -0.533 0.49 -0.536 Q 0.49 -0.552 0.537 -0.595 Z"/></g><g transform="translate(4.406785714285714,7.971571428571429)"><path fill="rgb(0,0,255)" stroke="none" paint-order="stroke fill markers" d=" M 0.397 -0.625 Q 0.397 -0.597 0.369 -0.58 Q 0.356 -0.5720000000000001 0.343 -0.5720000000000001 Q 0.313 -0.5720000000000001 0.307 -0.599 L 0.307 -0.6 Q 0.306 -0.604 0.306 -0.608 Q 0.306 -0.639 0.337 -0.655 Q 0.34800000000000003 -0.661 0.359 -0.661 Q 0.389 -0.661 0.396 -0.634 Q 0.397 -0.629 0.397 -0.625 M 0.196 0.05 L 0.196 0.05 L 0.29 -0.323 Q 0.297 -0.353 0.297 -0.374 Q 0.297 -0.42 0.265 -0.42 Q 0.20400000000000001 -0.42 0.155 -0.332 Q 0.146 -0.316 0.139 -0.298 Q 0.127 -0.279 0.121 -0.278 Q 0.109 -0.278 0.109 -0.28800000000000003 Q 0.109 -0.301 0.135 -0.34500000000000003 Q 0.193 -0.442 0.268 -0.442 Q 0.324 -0.442 0.34900000000000003 -0.397 Q 0.36 -0.376 0.36 -0.35000000000000003 Q 0.36 -0.333 0.355 -0.313 L 0.263 0.053 Q 0.241 0.14 0.159 0.183 Q 0.117 0.20500000000000002 0.075 0.20500000000000002 Q 0.012 0.20500000000000002 -0.007 0.167 Q -0.013000000000000001 0.156 -0.013000000000000001 0.14300000000000002 Q -0.013000000000000001 0.105 0.021 0.09 Q 0.031 0.08600000000000001 0.041 0.08600000000000001 Q 0.07200000000000001 0.08600000000000001 0.078 0.113 Q 0.079 0.117 0.079 0.121 Q 0.079 0.151 0.051000000000000004 0.167 Q 0.043000000000000003 0.17200000000000001 0.034 0.17400000000000002 Q 0.052000000000000005 0.183 0.073 0.183 Q 0.132 0.183 0.17200000000000001 0.111 Q 0.188 0.083 0.196 0.05 Z"/></g></g><path fill="rgb(255,0,0)" stroke="none" paint-order="stroke fill markers" d=" M 423.6744856889941 135.83164801689367 L 394.5527253871696 146.2322766961167 L 397.3262263682957 150.39252816780595 L 186.90560694435587 290.6729411170993 C 185.75678522271832 291.43882226485766 185.446350551316 292.9909956218694 186.21223169907432 294.13981734350693 C 186.6939695598446 294.8624241346623 187.48679507276168 295.25333253687455 188.29465817148082 295.25333253687455 C 188.77115980234578 295.25333253687455 189.25289299499985 295.1173358757766 189.679107925482 294.8331925887885 L 400.0997273494218 154.55277963949518 L 400.09972734942187 154.55277963949518 L 402.873228330548 158.7130311111844 L 423.6744856889941 135.83164801689367 Z" fill-opacity="0.6980392156862745"/><g transform="scale(35,35)"><g transform="translate(9.057142857142857,7.056857142857142)"><path fill="rgb(255,0,0)" stroke="none" paint-order="stroke fill markers" d=" M 0.537 -0.595 L 0.217 -0.595 Q 0.186 -0.595 0.183 -0.609 Q 0.182 -0.612 0.182 -0.615 Q 0.188 -0.635 0.217 -0.635 L 0.554 -0.635 Q 0.534 -0.661 0.53 -0.6930000000000001 Q 0.53 -0.709 0.544 -0.713 Q 0.547 -0.714 0.55 -0.714 Q 0.5650000000000001 -0.714 0.5700000000000001 -0.6920000000000001 Q 0.583 -0.654 0.611 -0.635 Q 0.625 -0.625 0.625 -0.615 Q 0.625 -0.604 0.608 -0.594 Q 0.5630000000000001 -0.5720000000000001 0.529 -0.529 Q 0.518 -0.516 0.51 -0.516 Q 0.496 -0.516 0.491 -0.53 Q 0.49 -0.533 0.49 -0.536 Q 0.49 -0.552 0.537 -0.595 Z"/></g><g transform="translate(9.070142857142857,7.056857142857142)"><path fill="rgb(255,0,0)" stroke="none" paint-order="stroke fill markers" d=" M 0.35000000000000003 -0.056 L 0.35000000000000003 -0.056 Q 0.298 0.011 0.231 0.011 Q 0.15 0.011 0.121 -0.048 Q 0.108 -0.074 0.108 -0.109 Q 0.108 -0.163 0.161 -0.305 Q 0.163 -0.312 0.166 -0.319 Q 0.183 -0.362 0.183 -0.387 Q 0.183 -0.42 0.158 -0.42 Q 0.10200000000000001 -0.42 0.067 -0.325 Q 0.066 -0.325 0.066 -0.324 L 0.066 -0.323 Q 0.061 -0.31 0.057 -0.296 Q 0.046 -0.279 0.041 -0.278 Q 0.029 -0.278 0.029 -0.28800000000000003 Q 0.029 -0.306 0.05 -0.35100000000000003 Q 0.094 -0.442 0.161 -0.442 Q 0.214 -0.442 0.23500000000000001 -0.397 Q 0.243 -0.38 0.243 -0.36 Q 0.243 -0.34 0.226 -0.297 Q 0.17200000000000001 -0.154 0.17200000000000001 -0.093 Q 0.17200000000000001 -0.011 0.234 -0.011 Q 0.297 -0.011 0.34 -0.08 Q 0.34600000000000003 -0.089 0.34800000000000003 -0.095 Q 0.37 -0.194 0.423 -0.396 Q 0.431 -0.431 0.462 -0.431 Q 0.487 -0.426 0.491 -0.404 Q 0.491 -0.406 0.47600000000000003 -0.337 Q 0.462 -0.28600000000000003 0.459 -0.269 L 0.431 -0.161 Q 0.41100000000000003 -0.074 0.41100000000000003 -0.057 Q 0.41100000000000003 -0.011 0.442 -0.011 Q 0.484 -0.011 0.511 -0.111 Q 0.514 -0.121 0.517 -0.135 Q 0.525 -0.152 0.531 -0.153 Q 0.543 -0.153 0.543 -0.14300000000000002 Q 0.543 -0.128 0.525 -0.073 Q 0.519 -0.056 0.513 -0.044 Q 0.486 0.011 0.439 0.011 Q 0.382 0.011 0.358 -0.037 Q 0.353 -0.046 0.35000000000000003 -0.056 Z"/></g></g></g></g></svg>