<svg version="1.1" xmlns="http://www.w3.org/2000/svg" xmlns:xlink="http://www.w3.org/1999/xlink" width="1028" height="1022"><defs><clipPath id="EiENbwbdMJfT"><path fill="none" stroke="none" d=" M 0 0 L 1028 0 L 1028 1022 L 0 1022 L 0 0 Z"/></clipPath></defs><g transform="scale(1,1)" clip-path="url(#EiENbwbdMJfT)"><g><rect fill="rgb(255,255,255)" stroke="none" x="0" y="0" width="1029" height="1023" fill-opacity="1"/><path fill="none" stroke="rgb(0,0,0)" paint-order="fill stroke markers" d=" M -5 425.1416666666668 L 1034 18.199999999999932" stroke-opacity="0.6980392156862745" stroke-linecap="round" stroke-linejoin="round" stroke-miterlimit="10" stroke-width="2.5"/><path fill="none" stroke="rgb(0,0,0)" paint-order="fill stroke markers" d=" M -5 425.14166666666677 L 1034 18.199999999999932" stroke-opacity="0.6980392156862745" stroke-linecap="round" stroke-linejoin="round" stroke-miterlimit="10" stroke-width="2.5"/><path fill="none" stroke="rgb(0,0,255)" paint-order="fill stroke markers" d=" M 146 366 L 266 319" stroke-opacity="0.6980392156862745" stroke-linecap="round" stroke-linejoin="round" stroke-miterlimit="10" stroke-width="2.5"/><path fill="none" stroke="rgb(0,102,51)" paint-order="fill stroke markers" d=" M 319.94906376061175 297.86995002709375 L 654.5387440544283 166.8223252453489" stroke-opacity="0.6980392156862745" stroke-linecap="round" stroke-linejoin="round" stroke-miterlimit="10" stroke-width="2.5"/><path fill="rgb(77,77,255)" stroke="none" paint-order="stroke fill markers" d=" M 151 366 C 151 368.76142374915395 148.76142374915398 371 146 371 C 143.23857625084602 371 141 368.76142374915395 141 366 C 141 363.23857625084605 143.23857625084602 361 146 361 C 148.76142374915398 361 151 363.23857625084605 151 366 Z" fill-opacity="1"/><path fill="none" stroke="rgb(0,0,0)" paint-order="fill stroke markers" d=" M 151 366 C 151 368.76142374915395 148.76142374915398 371 146 371 C 143.23857625084602 371 141 368.76142374915395 141 366 C 141 363.23857625084605 143.23857625084602 361 146 361 C 148.76142374915398 361 151 363.23857625084605 151 366 Z" stroke-opacity="1" stroke-linecap="round" stroke-linejoin="round" stroke-miterlimit="10"/><g transform="scale(35,35)"><g transform="translate(3.6857142857142855,9.597285714285714)"><path fill="rgb(77,77,255)" stroke="none" paint-order="stroke fill markers" d=" M 0.179 -0.115 L 0.527 -0.6990000000000001 Q 0.537 -0.715 0.553 -0.716 Q 0.5680000000000001 -0.716 0.5700000000000001 -0.706 Q 0.5710000000000001 -0.7030000000000001 0.5720000000000001 -0.6920000000000001 L 0.633 -0.067 Q 0.636 -0.042 0.645 -0.037 L 0.646 -0.037 L 0.646 -0.037 L 0.646 -0.037 L 0.646 -0.037 L 0.646 -0.036000000000000004 Q 0.658 -0.031 0.6980000000000001 -0.031 Q 0.72 -0.031 0.721 -0.02 Q 0.721 0 0.7030000000000001 0 L 0.591 -0.003 L 0.59 -0.003 L 0.466 0 L 0.465 0 Q 0.451 0 0.451 -0.011 Q 0.459 -0.03 0.47500000000000003 -0.031 Q 0.547 -0.031 0.547 -0.064 Q 0.547 -0.063 0.531 -0.231 L 0.28 -0.231 L 0.20400000000000001 -0.10300000000000001 Q 0.19 -0.078 0.19 -0.066 Q 0.19 -0.035 0.23700000000000002 -0.031 Q 0.253 -0.031 0.253 -0.019 Q 0.253 0 0.234 0 L 0.138 -0.003 L 0.134 -0.003 L 0.05 0 L 0.048 0 Q 0.035 0 0.035 -0.011 Q 0.035 -0.029 0.05 -0.03 L 0.05 -0.031 L 0.056 -0.031 Q 0.11900000000000001 -0.035 0.159 -0.085 Q 0.169 -0.098 0.179 -0.115 M 0.299 -0.262 L 0.528 -0.262 L 0.496 -0.592 L 0.299 -0.262 Z"/></g></g><path fill="rgb(77,77,255)" stroke="none" paint-order="stroke fill markers" d=" M 271 319 C 271 321.76142374915395 268.76142374915395 324 266 324 C 263.23857625084605 324 261 321.76142374915395 261 319 C 261 316.23857625084605 263.23857625084605 314 266 314 C 268.76142374915395 314 271 316.23857625084605 271 319 Z" fill-opacity="1"/><path fill="none" stroke="rgb(0,0,0)" paint-order="fill stroke markers" d=" M 271 319 C 271 321.76142374915395 268.76142374915395 324 266 324 C 263.23857625084605 324 261 321.76142374915395 261 319 C 261 316.23857625084605 263.23857625084605 314 266 314 C 268.76142374915395 314 271 316.23857625084605 271 319 Z" stroke-opacity="1" stroke-linecap="round" stroke-linejoin="round" stroke-miterlimit="10"/><g transform="scale(35,35)"><g transform="translate(7.257142857142857,8.254428571428571)"><path fill="rgb(77,77,255)" stroke="none" paint-order="stroke fill markers" d=" M 0.16 -0.078 L 0.294 -0.615 Q 0.298 -0.631 0.298 -0.634 Q 0.298 -0.646 0.28200000000000003 -0.649 L 0.281 -0.649 L 0.28 -0.649 Q 0.277 -0.649 0.271 -0.65 Q 0.254 -0.652 0.233 -0.652 Q 0.20700000000000002 -0.652 0.20500000000000002 -0.663 Q 0.20500000000000002 -0.681 0.22 -0.683 L 0.221 -0.683 L 0.222 -0.683 L 0.234 -0.683 L 0.5700000000000001 -0.683 Q 0.685 -0.683 0.734 -0.615 Q 0.756 -0.583 0.756 -0.545 Q 0.756 -0.464 0.666 -0.404 Q 0.665 -0.404 0.664 -0.403 Q 0.611 -0.369 0.547 -0.357 Q 0.649 -0.34500000000000003 0.687 -0.277 Q 0.7020000000000001 -0.249 0.7020000000000001 -0.216 Q 0.7020000000000001 -0.14300000000000002 0.632 -0.079 L 0.631 -0.078 Q 0.545 0 0.426 0 L 0.069 0 Q 0.044 0 0.042 -0.011 Q 0.042 -0.029 0.057 -0.031 L 0.069 -0.031 Q 0.134 -0.031 0.147 -0.045 Q 0.153 -0.052000000000000005 0.159 -0.073 Q 0.159 -0.074 0.16 -0.078 M 0.311 -0.366 L 0.457 -0.366 Q 0.556 -0.366 0.62 -0.438 Q 0.665 -0.489 0.665 -0.549 Q 0.665 -0.622 0.605 -0.644 Q 0.584 -0.652 0.556 -0.652 L 0.427 -0.652 Q 0.391 -0.652 0.383 -0.642 L 0.383 -0.642 L 0.383 -0.641 L 0.382 -0.641 L 0.382 -0.64 Q 0.378 -0.634 0.373 -0.614 L 0.311 -0.366 M 0.266 -0.031 L 0.402 -0.031 Q 0.498 -0.031 0.561 -0.10300000000000001 Q 0.609 -0.159 0.609 -0.227 Q 0.609 -0.3 0.557 -0.33 Q 0.531 -0.34400000000000003 0.494 -0.34400000000000003 L 0.305 -0.34400000000000003 L 0.23600000000000002 -0.065 Q 0.231 -0.047 0.231 -0.042 Q 0.231 -0.034 0.24 -0.032 L 0.24 -0.032 L 0.24 -0.032 L 0.244 -0.032 Q 0.25 -0.031 0.266 -0.031 Z"/></g></g><path fill="rgb(0,102,51)" stroke="none" paint-order="stroke fill markers" d=" M 324.94906376061175 297.86995002709375 C 324.94906376061175 300.6313737762477 322.7104875097657 302.86995002709375 319.94906376061175 302.86995002709375 C 317.1876400114578 302.86995002709375 314.94906376061175 300.6313737762477 314.94906376061175 297.86995002709375 C 314.94906376061175 295.1085262779398 317.1876400114578 292.86995002709375 319.94906376061175 292.86995002709375 C 322.7104875097657 292.86995002709375 324.94906376061175 295.1085262779398 324.94906376061175 297.86995002709375 Z" fill-opacity="1"/><path fill="none" stroke="rgb(0,0,0)" paint-order="fill stroke markers" d=" M 324.94906376061175 297.86995002709375 C 324.94906376061175 300.6313737762477 322.7104875097657 302.86995002709375 319.94906376061175 302.86995002709375 C 317.1876400114578 302.86995002709375 314.94906376061175 300.6313737762477 314.94906376061175 297.86995002709375 C 314.94906376061175 295.1085262779398 317.1876400114578 292.86995002709375 319.94906376061175 292.86995002709375 C 322.7104875097657 292.86995002709375 324.94906376061175 295.1085262779398 324.94906376061175 297.86995002709375 Z" stroke-opacity="1" stroke-linecap="round" stroke-linejoin="round" stroke-miterlimit="10"/><g transform="scale(35,35)"><g transform="translate(9.057142857142857,7.740142857142857)"><path fill="rgb(0,102,51)" stroke="none" paint-order="stroke fill markers" d=" M 0.76 -0.6950000000000001 L 0.6970000000000001 -0.44 Q 0.6920000000000001 -0.422 0.687 -0.421 L 0.686 -0.42 L 0.679 -0.42 Q 0.664 -0.42 0.664 -0.43 L 0.667 -0.47900000000000004 L 0.667 -0.481 Q 0.667 -0.605 0.589 -0.652 L 0.588 -0.653 Q 0.553 -0.674 0.506 -0.674 Q 0.4 -0.674 0.305 -0.595 Q 0.281 -0.5760000000000001 0.262 -0.553 Q 0.167 -0.442 0.145 -0.271 Q 0.14100000000000001 -0.24 0.14100000000000001 -0.217 Q 0.14100000000000001 -0.077 0.247 -0.028 Q 0.28800000000000003 -0.009000000000000001 0.337 -0.009000000000000001 Q 0.431 -0.009000000000000001 0.521 -0.082 Q 0.591 -0.14100000000000001 0.622 -0.24 Q 0.624 -0.25 0.635 -0.25 Q 0.647 -0.25 0.647 -0.24 Q 0.647 -0.222 0.624 -0.176 Q 0.593 -0.113 0.537 -0.064 Q 0.438 0.022 0.321 0.022 Q 0.193 0.022 0.116 -0.066 Q 0.05 -0.14100000000000001 0.05 -0.252 Q 0.05 -0.401 0.159 -0.531 Q 0.26 -0.652 0.398 -0.6910000000000001 Q 0.449 -0.705 0.498 -0.705 Q 0.607 -0.705 0.664 -0.616 L 0.734 -0.6930000000000001 Q 0.746 -0.705 0.749 -0.705 Q 0.76 -0.705 0.76 -0.6950000000000001 Z"/></g></g><path fill="rgb(0,102,51)" stroke="none" paint-order="stroke fill markers" d=" M 659.5387440544283 166.8223252453489 C 659.5387440544283 169.58374899450288 657.3001678035823 171.8223252453489 654.5387440544283 171.8223252453489 C 651.7773203052743 171.8223252453489 649.5387440544283 169.58374899450288 649.5387440544283 166.8223252453489 C 649.5387440544283 164.06090149619493 651.7773203052743 161.8223252453489 654.5387440544283 161.8223252453489 C 657.3001678035823 161.8223252453489 659.5387440544283 164.06090149619493 659.5387440544283 166.8223252453489 Z" fill-opacity="1"/><path fill="none" stroke="rgb(0,0,0)" paint-order="fill stroke markers" d=" M 659.5387440544283 166.8223252453489 C 659.5387440544283 169.58374899450288 657.3001678035823 171.8223252453489 654.5387440544283 171.8223252453489 C 651.7773203052743 171.8223252453489 649.5387440544283 169.58374899450288 649.5387440544283 166.8223252453489 C 649.5387440544283 164.06090149619493 651.7773203052743 161.8223252453489 654.5387440544283 161.8223252453489 C 657.3001678035823 161.8223252453489 659.5387440544283 164.06090149619493 659.5387440544283 166.8223252453489 Z" stroke-opacity="1" stroke-linecap="round" stroke-linejoin="round" stroke-miterlimit="10"/><g transform="scale(35,35)"><g transform="translate(18.457142857142856,4.054428571428572)"><path fill="rgb(0,102,51)" stroke="none" paint-order="stroke fill markers" d=" M 0.159 -0.078 L 0.159 -0.078 L 0.293 -0.615 Q 0.297 -0.631 0.297 -0.634 Q 0.297 -0.646 0.281 -0.649 L 0.28 -0.649 L 0.28 -0.649 Q 0.278 -0.65 0.275 -0.65 Q 0.251 -0.652 0.232 -0.652 Q 0.20600000000000002 -0.652 0.20400000000000001 -0.66 Q 0.203 -0.662 0.203 -0.664 Q 0.203 -0.681 0.22 -0.683 L 0.22 -0.683 L 0.233 -0.683 L 0.5690000000000001 -0.683 Q 0.6990000000000001 -0.683 0.763 -0.582 Q 0.804 -0.518 0.804 -0.43 Q 0.804 -0.28500000000000003 0.7030000000000001 -0.159 Q 0.607 -0.042 0.47700000000000004 -0.01 Q 0.438 0 0.399 0 L 0.068 0 Q 0.043000000000000003 0 0.041 -0.008 Q 0.04 -0.009000000000000001 0.04 -0.012 Q 0.04 -0.029 0.056 -0.031 L 0.068 -0.031 Q 0.133 -0.031 0.146 -0.045 Q 0.152 -0.052000000000000005 0.158 -0.073 Q 0.158 -0.074 0.159 -0.078 M 0.375 -0.614 L 0.23800000000000002 -0.065 Q 0.233 -0.047 0.233 -0.042 Q 0.233 -0.034 0.242 -0.032 L 0.242 -0.032 L 0.242 -0.032 L 0.246 -0.032 Q 0.252 -0.031 0.268 -0.031 L 0.381 -0.031 Q 0.505 -0.031 0.595 -0.124 Q 0.604 -0.134 0.612 -0.14400000000000002 Q 0.6920000000000001 -0.248 0.713 -0.41600000000000004 Q 0.717 -0.447 0.717 -0.467 Q 0.717 -0.601 0.612 -0.639 Q 0.578 -0.652 0.536 -0.652 L 0.429 -0.652 Q 0.393 -0.652 0.385 -0.642 L 0.385 -0.642 L 0.385 -0.641 L 0.384 -0.641 L 0.384 -0.64 Q 0.38 -0.634 0.375 -0.614 Z"/></g></g></g></g></svg>