<svg version="1.1" xmlns="http://www.w3.org/2000/svg" xmlns:xlink="http://www.w3.org/1999/xlink" width="801" height="1230"><defs><clipPath id="UrBCrVZRWEel"><path fill="none" stroke="none" d=" M 0 0 L 801 0 L 801 1230 L 0 1230 L 0 0 Z"/></clipPath></defs><g transform="scale(1,1)" clip-path="url(#UrBCrVZRWEel)"><g><rect fill="rgb(255,255,255)" stroke="none" x="0" y="0" width="801" height="1230" fill-opacity="1"/><path fill="none" stroke="rgb(0,0,0)" paint-order="fill stroke markers" d=" M 641.9908173862085 309.8091599912105 L 648.009182613791 320.19084000879076" stroke-opacity="0.6980392156862745" stroke-linecap="round" stroke-linejoin="round" stroke-miterlimit="10" stroke-width="2.5"/><path fill="rgb(0,0,0)" stroke="none" paint-order="stroke fill markers" d=" M 712.2916619536288 274.5454880427098 L 576.4545119572912 353.2916619536289 L 577.708338046371 355.4545119572914 L 713.5454880427085 276.7083380463724 L 712.2916619536287 274.5454880427098 Z" fill-opacity="0.6980392156862745"/><path fill="rgb(0,0,0)" stroke="none" paint-order="stroke fill markers" d=" M 572.4109228200091 351.3012130372147 L 577.426227176328 359.9526130518649 C 577.7724616902973 360.549867588462 578.5373106861019 360.7533595231257 579.134565222699 360.40712500915635 C 579.7318197592963 360.060890495187 579.9353116939599 359.2960414993823 579.5890771799905 358.69878696278516 L 574.5737728236716 350.047386948135 C 574.2275383097023 349.4501324115379 573.4626893138976 349.24664047687423 572.8654347773005 349.5928749908436 C 572.2681802407034 349.93910950481296 572.0646883060397 350.7039585006176 572.4109228200091 351.3012130372147 Z" fill-opacity="0.6980392156862745"/><path fill="rgb(0,0,0)" stroke="none" paint-order="stroke fill markers" d=" M 710.4109228200092 271.30121303721603 L 715.4262271763281 279.95261305186625 C 715.7724616902974 280.54986758846337 716.537310686102 280.75335952312696 717.1345652226993 280.40712500915765 C 717.7318197592964 280.06089049518835 717.93531169396 279.29604149938365 717.5890771799906 278.69878696278647 L 712.5737728236718 270.04738694813636 C 712.2275383097025 269.4501324115392 711.4626893138978 269.2466404768756 710.8654347773007 269.5928749908449 C 710.2681802407034 269.93910950481427 710.0646883060398 270.7039585006189 710.4109228200092 271.30121303721603 Z" fill-opacity="0.6980392156862745"/><path fill="none" stroke="rgb(0,0,0)" paint-order="fill stroke markers" d=" M 142.3658173862083 393.8091599912099 L 148.384182613791 404.1908400087901" stroke-opacity="0.6980392156862745" stroke-linecap="round" stroke-linejoin="round" stroke-miterlimit="10" stroke-width="2.5"/><path fill="rgb(0,0,0)" stroke="none" paint-order="stroke fill markers" d=" M 212.66666195362828 358.54548804270866 L 76.82951195729123 437.2916619536289 L 76.8295119572912 437.2916619536289 L 78.08333804637098 439.45451195729146 L 78.08333804637095 439.45451195729146 L 213.9204880427081 360.7083380463712 L 213.92048804270817 360.7083380463712 L 212.66666195362845 358.54548804270866 Z" fill-opacity="0.6980392156862745"/><path fill="rgb(0,0,0)" stroke="none" paint-order="stroke fill markers" d=" M 72.78592282000909 435.30121303721484 L 77.80122717632798 443.95261305186494 C 78.14746169029735 444.54986758846206 78.91231068610199 444.75335952312577 79.50956522269917 444.4071250091564 C 80.10681975929629 444.06089049518704 80.31031169395987 443.29604149938234 79.96407717999057 442.6987869627852 L 74.94877282367162 434.0473869481351 C 74.60253830970225 433.450132411538 73.83768931389761 433.24664047687435 73.2404347773005 433.5928749908437 C 72.64318024070332 433.9391095048131 72.43968830603973 434.7039585006177 72.78592282000909 435.30121303721484 Z" fill-opacity="0.6980392156862745"/><path fill="rgb(0,0,0)" stroke="none" paint-order="stroke fill markers" d=" M 210.78592282000886 355.30121303721484 L 215.80122717632776 363.952613051865 C 216.14746169029712 364.5498675884621 216.91231068610176 364.7533595231257 217.50956522269894 364.40712500915635 C 218.10681975929606 364.060890495187 218.31031169395965 363.29604149938234 217.96407717999028 362.6987869627852 L 212.94877282367133 354.0473869481351 C 212.60253830970203 353.450132411538 211.83768931389739 353.24664047687435 211.24043477730027 353.5928749908437 C 210.6431802407031 353.9391095048131 210.43968830603944 354.7039585006177 210.78592282000886 355.30121303721484 Z" fill-opacity="0.6980392156862745"/><path fill="none" stroke="rgb(0,0,0)" paint-order="fill stroke markers" d=" M 504.99081738620845 389.8091599912099 L 511.0091826137911 400.1908400087901" stroke-opacity="0.6980392156862745" stroke-linecap="round" stroke-linejoin="round" stroke-miterlimit="10" stroke-width="2.5"/><path fill="rgb(0,0,0)" stroke="none" paint-order="stroke fill markers" d=" M 575.2916619536285 354.54548804270866 L 439.4545119572911 433.2916619536288 L 439.4545119572912 433.2916619536288 L 440.70833804637095 435.4545119572914 L 440.7083380463709 435.4545119572914 L 576.5454880427084 356.7083380463711 L 575.2916619536287 354.54548804270866 Z" fill-opacity="0.6980392156862745"/><path fill="rgb(0,0,0)" stroke="none" paint-order="stroke fill markers" d=" M 435.41092282000903 431.3012130372148 L 440.4262271763279 439.9526130518649 C 440.77246169029735 440.549867588462 441.537310686102 440.7533595231257 442.1345652226991 440.4071250091563 C 442.73181975929623 440.060890495187 442.9353116939598 439.2960414993823 442.5890771799905 438.69878696278516 L 437.5737728236716 430.04738694813506 C 437.2275383097023 429.45013241153794 436.46268931389756 429.2466404768743 435.86543477730044 429.5928749908436 C 435.2681802407033 429.939109504813 435.0646883060397 430.70395850061766 435.41092282000903 431.3012130372148 Z" fill-opacity="0.6980392156862745"/><path fill="rgb(0,0,0)" stroke="none" paint-order="stroke fill markers" d=" M 573.4109228200091 351.3012130372148 L 578.426227176328 359.95261305186494 C 578.7724616902974 360.54986758846206 579.537310686102 360.7533595231257 580.1345652226992 360.40712500915635 C 580.7318197592963 360.060890495187 580.9353116939599 359.29604149938234 580.5890771799906 358.6987869627852 L 575.5737728236716 350.04738694813506 C 575.2275383097023 349.45013241153794 574.4626893138976 349.24664047687435 573.8654347773005 349.5928749908437 C 573.2681802407034 349.9391095048131 573.0646883060397 350.70395850061766 573.4109228200091 351.3012130372148 Z" fill-opacity="0.6980392156862745"/><path fill="none" stroke="rgb(0,0,0)" paint-order="fill stroke markers" d=" M 342.9908173862087 398.8091599912099 L 349.0091826137913 409.1908400087901" stroke-opacity="0.6980392156862745" stroke-linecap="round" stroke-linejoin="round" stroke-miterlimit="10" stroke-width="2.5"/><path fill="rgb(0,0,0)" stroke="none" paint-order="stroke fill markers" d=" M 413.2916619536292 363.5454880427086 L 277.45451195729106 442.2916619536288 L 277.454511957291 442.2916619536288 L 278.7083380463708 444.4545119572915 L 278.70833804637067 444.4545119572915 L 414.545488042709 365.7083380463712 L 414.54548804270894 365.7083380463712 L 413.29166195362916 363.5454880427086 Z" fill-opacity="0.6980392156862745"/><path fill="rgb(0,0,0)" stroke="none" paint-order="stroke fill markers" d=" M 273.4109228200089 440.3012130372148 L 278.4262271763278 448.952613051865 C 278.7724616902972 449.5498675884621 279.5373106861018 449.7533595231257 280.13456522269894 449.40712500915635 C 280.73181975929606 449.060890495187 280.9353116939597 448.29604149938234 280.58907717999034 447.6987869627852 L 275.57377282367145 439.0473869481351 C 275.22753830970214 438.450132411538 274.4626893138975 438.2466404768743 273.8654347773004 438.59287499084365 C 273.2681802407032 438.939109504813 273.06468830603956 439.70395850061766 273.4109228200089 440.3012130372148 Z" fill-opacity="0.6980392156862745"/><path fill="rgb(0,0,0)" stroke="none" paint-order="stroke fill markers" d=" M 411.4109228200096 360.30121303721484 L 416.4262271763285 368.95261305186494 C 416.7724616902978 369.5498675884621 417.53731068610256 369.7533595231257 418.1345652226997 369.4071250091564 C 418.7318197592968 369.060890495187 418.9353116939604 368.2960414993824 418.5890771799911 367.6987869627852 L 413.5737728236722 359.0473869481351 C 413.22753830970277 358.45013241153794 412.4626893138981 358.2466404768743 411.865434777301 358.5928749908437 C 411.2681802407039 358.939109504813 411.0646883060403 359.70395850061766 411.4109228200096 360.30121303721484 Z" fill-opacity="0.6980392156862745"/><path fill="rgb(0,0,255)" stroke="none" paint-order="stroke fill markers" d=" M 427.00000000000034 379 L 397.28432168881073 387.5573630579692 L 399.79197386697024 391.8830630652943 L 399.79197386697007 391.8830630652943 L 287.7461739109207 456.8371499963375 C 286.5516648377264 457.5296190242762 286.14468096839914 459.0593170158854 286.83714999633787 460.2538260890797 C 287.30082660484317 461.0536682387513 288.13988561770617 461.5004133058472 289.0023397827648 461.5004133058472 C 289.42790141657315 461.5004133058472 289.8591591655574 461.39164242309596 290.2538260890801 461.1628500036625 L 402.2996260451296 396.2087630726193 L 404.8072782232891 400.5344630799444 L 427.00000000000034 379 Z" fill-opacity="0.6980392156862745"/><g transform="scale(35,35)"><g transform="translate(10.314285714285715,12.885428571428571)"><path fill="rgb(0,0,255)" stroke="none" paint-order="stroke fill markers" d=" M 0.537 -0.595 L 0.217 -0.595 Q 0.186 -0.595 0.183 -0.609 Q 0.182 -0.612 0.182 -0.615 Q 0.188 -0.635 0.217 -0.635 L 0.554 -0.635 Q 0.534 -0.661 0.53 -0.6930000000000001 Q 0.53 -0.709 0.544 -0.713 Q 0.547 -0.714 0.55 -0.714 Q 0.5650000000000001 -0.714 0.5700000000000001 -0.6920000000000001 Q 0.583 -0.654 0.611 -0.635 Q 0.625 -0.625 0.625 -0.615 Q 0.625 -0.604 0.608 -0.594 Q 0.5630000000000001 -0.5720000000000001 0.529 -0.529 Q 0.518 -0.516 0.51 -0.516 Q 0.496 -0.516 0.491 -0.53 Q 0.49 -0.533 0.49 -0.536 Q 0.49 -0.552 0.537 -0.595 Z"/></g><g transform="translate(10.327285714285715,12.885428571428571)"><path fill="rgb(0,0,255)" stroke="none" paint-order="stroke fill markers" d=" M 0.35000000000000003 -0.056 L 0.35000000000000003 -0.056 Q 0.298 0.011 0.231 0.011 Q 0.15 0.011 0.121 -0.048 Q 0.108 -0.074 0.108 -0.109 Q 0.108 -0.163 0.161 -0.305 Q 0.163 -0.312 0.166 -0.319 Q 0.183 -0.362 0.183 -0.387 Q 0.183 -0.42 0.158 -0.42 Q 0.10200000000000001 -0.42 0.067 -0.325 Q 0.066 -0.325 0.066 -0.324 L 0.066 -0.323 Q 0.061 -0.31 0.057 -0.296 Q 0.046 -0.279 0.041 -0.278 Q 0.029 -0.278 0.029 -0.28800000000000003 Q 0.029 -0.306 0.05 -0.35100000000000003 Q 0.094 -0.442 0.161 -0.442 Q 0.214 -0.442 0.23500000000000001 -0.397 Q 0.243 -0.38 0.243 -0.36 Q 0.243 -0.34 0.226 -0.297 Q 0.17200000000000001 -0.154 0.17200000000000001 -0.093 Q 0.17200000000000001 -0.011 0.234 -0.011 Q 0.297 -0.011 0.34 -0.08 Q 0.34600000000000003 -0.089 0.34800000000000003 -0.095 Q 0.37 -0.194 0.423 -0.396 Q 0.431 -0.431 0.462 -0.431 Q 0.487 -0.426 0.491 -0.404 Q 0.491 -0.406 0.47600000000000003 -0.337 Q 0.462 -0.28600000000000003 0.459 -0.269 L 0.431 -0.161 Q 0.41100000000000003 -0.074 0.41100000000000003 -0.057 Q 0.41100000000000003 -0.011 0.442 -0.011 Q 0.484 -0.011 0.511 -0.111 Q 0.514 -0.121 0.517 -0.135 Q 0.525 -0.152 0.531 -0.153 Q 0.543 -0.153 0.543 -0.14300000000000002 Q 0.543 -0.128 0.525 -0.073 Q 0.519 -0.056 0.513 -0.044 Q 0.486 0.011 0.439 0.011 Q 0.382 0.011 0.358 -0.037 Q 0.353 -0.046 0.35000000000000003 -0.056 Z"/></g></g><path fill="rgb(0,0,255)" stroke="none" paint-order="stroke fill markers" d=" M 727.9999999999997 297.0000000000013 L 698.2843216888102 305.55736305797035 L 700.7919738669697 309.88306306529546 L 450.74617391091994 454.8371499963384 C 449.55166483772564 455.5296190242771 449.1446809683984 457.05931701588634 449.83714999633713 458.25382608908063 C 450.3008266048424 459.0536682387522 451.13988561770543 459.5004133058481 452.00233978276407 459.5004133058481 C 452.4279014165724 459.5004133058481 452.85915916555666 459.39164242309687 453.2538260890794 459.16285000366344 L 453.2538260890793 459.16285000366344 L 703.2996260451291 314.20876307262057 L 703.2996260451292 314.20876307262057 L 705.8072782232887 318.5344630799456 L 727.9999999999998 297.0000000000013 Z" fill-opacity="0.6980392156862745"/><g transform="scale(35,35)"><g transform="translate(17.057142857142857,11.656857142857143)"><path fill="rgb(0,0,255)" stroke="none" paint-order="stroke fill markers" d=" M 0.449 -0.17400000000000002 L 0.449 -0.17400000000000002 L 0.421 0 L 0.05 0 Q 0.05 -0.025 0.056 -0.032 L 0.061 -0.037 L 0.253 -0.251 Q 0.358 -0.369 0.358 -0.47200000000000003 Q 0.358 -0.561 0.304 -0.607 L 0.303 -0.608 L 0.302 -0.608 Q 0.27 -0.635 0.224 -0.635 Q 0.152 -0.635 0.109 -0.5730000000000001 Q 0.097 -0.555 0.089 -0.533 Q 0.092 -0.534 0.10200000000000001 -0.534 Q 0.14200000000000002 -0.534 0.153 -0.498 L 0.153 -0.497 Q 0.155 -0.49 0.155 -0.482 Q 0.155 -0.442 0.117 -0.431 Q 0.109 -0.429 0.10300000000000001 -0.429 Q 0.066 -0.429 0.054 -0.46 Q 0.05 -0.47100000000000003 0.05 -0.485 Q 0.05 -0.562 0.109 -0.617 Q 0.162 -0.666 0.23700000000000002 -0.666 Q 0.34700000000000003 -0.666 0.40800000000000003 -0.592 Q 0.443 -0.549 0.448 -0.49 Q 0.449 -0.481 0.449 -0.47200000000000003 Q 0.449 -0.399 0.394 -0.333 Q 0.365 -0.299 0.304 -0.243 L 0.243 -0.189 L 0.233 -0.18 L 0.127 -0.077 L 0.307 -0.077 Q 0.395 -0.077 0.402 -0.085 Q 0.41200000000000003 -0.099 0.424 -0.17400000000000002 L 0.449 -0.17400000000000002 Z"/></g><g transform="translate(17.557142857142857,11.656857142857143)"><path fill="rgb(0,0,255)" stroke="none" paint-order="stroke fill markers" d=" M 0.537 -0.595 L 0.217 -0.595 Q 0.186 -0.595 0.183 -0.609 Q 0.182 -0.612 0.182 -0.615 Q 0.188 -0.635 0.217 -0.635 L 0.554 -0.635 Q 0.534 -0.661 0.53 -0.6930000000000001 Q 0.53 -0.709 0.544 -0.713 Q 0.547 -0.714 0.55 -0.714 Q 0.5650000000000001 -0.714 0.5700000000000001 -0.6920000000000001 Q 0.583 -0.654 0.611 -0.635 Q 0.625 -0.625 0.625 -0.615 Q 0.625 -0.604 0.608 -0.594 Q 0.5630000000000001 -0.5720000000000001 0.529 -0.529 Q 0.518 -0.516 0.51 -0.516 Q 0.496 -0.516 0.491 -0.53 Q 0.49 -0.533 0.49 -0.536 Q 0.49 -0.552 0.537 -0.595 Z"/></g><g transform="translate(17.57014285714286,11.656857142857143)"><path fill="rgb(0,0,255)" stroke="none" paint-order="stroke fill markers" d=" M 0.35000000000000003 -0.056 L 0.35000000000000003 -0.056 Q 0.298 0.011 0.231 0.011 Q 0.15 0.011 0.121 -0.048 Q 0.108 -0.074 0.108 -0.109 Q 0.108 -0.163 0.161 -0.305 Q 0.163 -0.312 0.166 -0.319 Q 0.183 -0.362 0.183 -0.387 Q 0.183 -0.42 0.158 -0.42 Q 0.10200000000000001 -0.42 0.067 -0.325 Q 0.066 -0.325 0.066 -0.324 L 0.066 -0.323 Q 0.061 -0.31 0.057 -0.296 Q 0.046 -0.279 0.041 -0.278 Q 0.029 -0.278 0.029 -0.28800000000000003 Q 0.029 -0.306 0.05 -0.35100000000000003 Q 0.094 -0.442 0.161 -0.442 Q 0.214 -0.442 0.23500000000000001 -0.397 Q 0.243 -0.38 0.243 -0.36 Q 0.243 -0.34 0.226 -0.297 Q 0.17200000000000001 -0.154 0.17200000000000001 -0.093 Q 0.17200000000000001 -0.011 0.234 -0.011 Q 0.297 -0.011 0.34 -0.08 Q 0.34600000000000003 -0.089 0.34800000000000003 -0.095 Q 0.37 -0.194 0.423 -0.396 Q 0.431 -0.431 0.462 -0.431 Q 0.487 -0.426 0.491 -0.404 Q 0.491 -0.406 0.47600000000000003 -0.337 Q 0.462 -0.28600000000000003 0.459 -0.269 L 0.431 -0.161 Q 0.41100000000000003 -0.074 0.41100000000000003 -0.057 Q 0.41100000000000003 -0.011 0.442 -0.011 Q 0.484 -0.011 0.511 -0.111 Q 0.514 -0.121 0.517 -0.135 Q 0.525 -0.152 0.531 -0.153 Q 0.543 -0.153 0.543 -0.14300000000000002 Q 0.543 -0.128 0.525 -0.073 Q 0.519 -0.056 0.513 -0.044 Q 0.486 0.011 0.439 0.011 Q 0.382 0.011 0.358 -0.037 Q 0.353 -0.046 0.35000000000000003 -0.056 Z"/></g></g><path fill="rgb(0,0,255)" stroke="none" paint-order="stroke fill markers" d=" M 224.3726602172354 373.4995866941539 C 223.947098583427 373.4995866941539 223.51584083444277 373.6083575769051 223.12117391092005 373.83714999633855 L 180.07537395487017 398.7912369273818 L 177.56772177671073 394.4655369200567 L 155.37499999999943 416.000000000001 L 185.09067831118907 407.442636942032 L 182.58302613302962 403.11693693470687 L 225.6288260890795 378.1628500036636 C 226.8233351622738 377.4703809757249 227.23031903160103 375.94068298411565 226.5378500036623 374.74617391092136 C 226.07417339515703 373.9463317612498 225.23511438229406 373.4995866941539 224.3726602172354 373.4995866941539 Z" fill-opacity="0.6980392156862745"/><g transform="scale(35,35)"><g transform="translate(4.428571428571429,12.977650857142857)"><path fill="rgb(0,0,255)" stroke="none" paint-order="stroke fill markers" d=" M 0.661 -0.23 L 0.116 -0.23 Q 0.084 -0.23 0.083 -0.25 Q 0.083 -0.27 0.116 -0.27 L 0.661 -0.27 Q 0.6930000000000001 -0.27 0.6940000000000001 -0.25 Q 0.6940000000000001 -0.23 0.661 -0.23 Z"/></g><g transform="translate(5.4073957184346675,12.301142857142857)"><path fill="rgb(0,0,255)" stroke="none" paint-order="stroke fill markers" d=" M 0.294 -0.64 L 0.294 -0.079 Q 0.294 -0.049 0.306 -0.041 Q 0.323 -0.031 0.387 -0.031 L 0.419 -0.031 L 0.419 0 Q 0.384 -0.003 0.257 -0.003 Q 0.13 -0.003 0.095 0 L 0.095 -0.031 L 0.127 -0.031 Q 0.20400000000000001 -0.031 0.215 -0.049 L 0.216 -0.05 Q 0.22 -0.058 0.22 -0.079 L 0.22 -0.597 Q 0.168 -0.5710000000000001 0.089 -0.5710000000000001 L 0.089 -0.602 Q 0.209 -0.602 0.271 -0.666 Q 0.29 -0.666 0.293 -0.659 L 0.293 -0.659 L 0.293 -0.658 Q 0.294 -0.655 0.294 -0.64 Z"/></g><rect fill="rgb(0,0,255)" stroke="none" x="5.4073957184346675" y="12.707651357142856" width="0.5" height="0.039999"/><g transform="translate(5.4073957184346675,13.663601857142856)"><path fill="rgb(0,0,255)" stroke="none" paint-order="stroke fill markers" d=" M 0.449 -0.17400000000000002 L 0.449 -0.17400000000000002 L 0.421 0 L 0.05 0 Q 0.05 -0.025 0.056 -0.032 L 0.061 -0.037 L 0.253 -0.251 Q 0.358 -0.369 0.358 -0.47200000000000003 Q 0.358 -0.561 0.304 -0.607 L 0.303 -0.608 L 0.302 -0.608 Q 0.27 -0.635 0.224 -0.635 Q 0.152 -0.635 0.109 -0.5730000000000001 Q 0.097 -0.555 0.089 -0.533 Q 0.092 -0.534 0.10200000000000001 -0.534 Q 0.14200000000000002 -0.534 0.153 -0.498 L 0.153 -0.497 Q 0.155 -0.49 0.155 -0.482 Q 0.155 -0.442 0.117 -0.431 Q 0.109 -0.429 0.10300000000000001 -0.429 Q 0.066 -0.429 0.054 -0.46 Q 0.05 -0.47100000000000003 0.05 -0.485 Q 0.05 -0.562 0.109 -0.617 Q 0.162 -0.666 0.23700000000000002 -0.666 Q 0.34700000000000003 -0.666 0.40800000000000003 -0.592 Q 0.443 -0.549 0.448 -0.49 Q 0.449 -0.481 0.449 -0.47200000000000003 Q 0.449 -0.399 0.394 -0.333 Q 0.365 -0.299 0.304 -0.243 L 0.243 -0.189 L 0.233 -0.18 L 0.127 -0.077 L 0.307 -0.077 Q 0.395 -0.077 0.402 -0.085 Q 0.41200000000000003 -0.099 0.424 -0.17400000000000002 L 0.449 -0.17400000000000002 Z"/></g><g transform="translate(6.108220008297907,12.977650857142857)"><path fill="rgb(0,0,255)" stroke="none" paint-order="stroke fill markers" d=" M 0.537 -0.595 L 0.217 -0.595 Q 0.186 -0.595 0.183 -0.609 Q 0.182 -0.612 0.182 -0.615 Q 0.188 -0.635 0.217 -0.635 L 0.554 -0.635 Q 0.534 -0.661 0.53 -0.6930000000000001 Q 0.53 -0.709 0.544 -0.713 Q 0.547 -0.714 0.55 -0.714 Q 0.5650000000000001 -0.714 0.5700000000000001 -0.6920000000000001 Q 0.583 -0.654 0.611 -0.635 Q 0.625 -0.625 0.625 -0.615 Q 0.625 -0.604 0.608 -0.594 Q 0.5630000000000001 -0.5720000000000001 0.529 -0.529 Q 0.518 -0.516 0.51 -0.516 Q 0.496 -0.516 0.491 -0.53 Q 0.49 -0.533 0.49 -0.536 Q 0.49 -0.552 0.537 -0.595 Z"/></g><g transform="translate(6.1212200082979065,12.977650857142857)"><path fill="rgb(0,0,255)" stroke="none" paint-order="stroke fill markers" d=" M 0.35000000000000003 -0.056 L 0.35000000000000003 -0.056 Q 0.298 0.011 0.231 0.011 Q 0.15 0.011 0.121 -0.048 Q 0.108 -0.074 0.108 -0.109 Q 0.108 -0.163 0.161 -0.305 Q 0.163 -0.312 0.166 -0.319 Q 0.183 -0.362 0.183 -0.387 Q 0.183 -0.42 0.158 -0.42 Q 0.10200000000000001 -0.42 0.067 -0.325 Q 0.066 -0.325 0.066 -0.324 L 0.066 -0.323 Q 0.061 -0.31 0.057 -0.296 Q 0.046 -0.279 0.041 -0.278 Q 0.029 -0.278 0.029 -0.28800000000000003 Q 0.029 -0.306 0.05 -0.35100000000000003 Q 0.094 -0.442 0.161 -0.442 Q 0.214 -0.442 0.23500000000000001 -0.397 Q 0.243 -0.38 0.243 -0.36 Q 0.243 -0.34 0.226 -0.297 Q 0.17200000000000001 -0.154 0.17200000000000001 -0.093 Q 0.17200000000000001 -0.011 0.234 -0.011 Q 0.297 -0.011 0.34 -0.08 Q 0.34600000000000003 -0.089 0.34800000000000003 -0.095 Q 0.37 -0.194 0.423 -0.396 Q 0.431 -0.431 0.462 -0.431 Q 0.487 -0.426 0.491 -0.404 Q 0.491 -0.406 0.47600000000000003 -0.337 Q 0.462 -0.28600000000000003 0.459 -0.269 L 0.431 -0.161 Q 0.41100000000000003 -0.074 0.41100000000000003 -0.057 Q 0.41100000000000003 -0.011 0.442 -0.011 Q 0.484 -0.011 0.511 -0.111 Q 0.514 -0.121 0.517 -0.135 Q 0.525 -0.152 0.531 -0.153 Q 0.543 -0.153 0.543 -0.14300000000000002 Q 0.543 -0.128 0.525 -0.073 Q 0.519 -0.056 0.513 -0.044 Q 0.486 0.011 0.439 0.011 Q 0.382 0.011 0.358 -0.037 Q 0.353 -0.046 0.35000000000000003 -0.056 Z"/></g></g></g></g></svg>