<svg version="1.1" xmlns="http://www.w3.org/2000/svg" xmlns:xlink="http://www.w3.org/1999/xlink" width="1028" height="1379"><defs><clipPath id="bTGiQkiWFzft"><path fill="none" stroke="none" d=" M 0 0 L 1028 0 L 1028 1379 L 0 1379 L 0 0 Z"/></clipPath></defs><g transform="scale(1,1)" clip-path="url(#bTGiQkiWFzft)"><g><rect fill="rgb(255,255,255)" stroke="none" x="0" y="0" width="1029" height="1380" fill-opacity="1"/><path fill="none" stroke="rgb(255,0,0)" paint-order="fill stroke markers" d=" M 152 328.00000000000034 L 114 442.0000000000002" stroke-opacity="0.6980392156862745" stroke-linecap="round" stroke-linejoin="round" stroke-miterlimit="10" stroke-width="2.5"/><path fill="none" stroke="rgb(255,0,0)" paint-order="fill stroke markers" d=" M 459.00000000000006 179.00000000000028 L 512.6966423357665 248.49576642335785" stroke-opacity="0.6980392156862745" stroke-linecap="round" stroke-linejoin="round" stroke-miterlimit="10" stroke-width="2.5"/><path fill="none" stroke="rgb(255,0,0)" paint-order="fill stroke markers" d=" M 603.0000000000001 143.00000000000017 L 942.0000000000001 404.0000000000001" stroke-opacity="0.6980392156862745" stroke-linecap="round" stroke-linejoin="round" stroke-miterlimit="10" stroke-width="2.5"/><path fill="none" stroke="rgb(255,0,0)" paint-order="fill stroke markers" d=" M 718.0000000000001 277.0000000000002 L 713.3424842051251 137.56428594336302" stroke-opacity="0.6980392156862745" stroke-linecap="round" stroke-linejoin="round" stroke-miterlimit="10" stroke-width="2.5"/><path fill="rgb(0,0,255)" stroke="none" paint-order="stroke fill markers" d=" M 458.99999999999994 179.0000000000003 L 428.7360607009298 185.3516909640027 L 430.91922553054076 189.84988963977833 L 150.9084175851945 325.75090066211254 C 149.66627432002454 326.3537649829931 149.14803634123166 327.8494391496359 149.7509006621122 329.0915824148058 C 150.18311507383245 329.98211814902135 151.0742297361375 330.5005698175258 152.001816630839 330.5005698175258 C 152.36805295944512 330.5005698175258 152.73997488385106 330.4197492470484 153.0915824148055 330.24909933788814 L 433.10239036015173 194.34808831555398 L 435.2855551897627 198.8462869913296 L 459 179.0000000000003 Z" fill-opacity="0.6980392156862745"/><g transform="scale(35,35)"><g transform="translate(7.942857142857143,6.511571428571428)"><path fill="rgb(0,0,255)" stroke="none" paint-order="stroke fill markers" d=" M 0.179 -0.115 L 0.527 -0.6990000000000001 Q 0.537 -0.715 0.553 -0.716 Q 0.5680000000000001 -0.716 0.5700000000000001 -0.706 Q 0.5710000000000001 -0.7030000000000001 0.5720000000000001 -0.6920000000000001 L 0.633 -0.067 Q 0.636 -0.042 0.645 -0.037 L 0.646 -0.037 L 0.646 -0.037 L 0.646 -0.037 L 0.646 -0.037 L 0.646 -0.036000000000000004 Q 0.658 -0.031 0.6980000000000001 -0.031 Q 0.72 -0.031 0.721 -0.02 Q 0.721 0 0.7030000000000001 0 L 0.591 -0.003 L 0.59 -0.003 L 0.466 0 L 0.465 0 Q 0.451 0 0.451 -0.011 Q 0.459 -0.03 0.47500000000000003 -0.031 Q 0.547 -0.031 0.547 -0.064 Q 0.547 -0.063 0.531 -0.231 L 0.28 -0.231 L 0.20400000000000001 -0.10300000000000001 Q 0.19 -0.078 0.19 -0.066 Q 0.19 -0.035 0.23700000000000002 -0.031 Q 0.253 -0.031 0.253 -0.019 Q 0.253 0 0.234 0 L 0.138 -0.003 L 0.134 -0.003 L 0.05 0 L 0.048 0 Q 0.035 0 0.035 -0.011 Q 0.035 -0.029 0.05 -0.03 L 0.05 -0.031 L 0.056 -0.031 Q 0.11900000000000001 -0.035 0.159 -0.085 Q 0.169 -0.098 0.179 -0.115 M 0.299 -0.262 L 0.528 -0.262 L 0.496 -0.592 L 0.299 -0.262 Z"/></g><g transform="translate(8.692857142857143,6.511571428571428)"><path fill="rgb(0,0,255)" stroke="none" paint-order="stroke fill markers" d=" M 0.16 -0.078 L 0.294 -0.615 Q 0.298 -0.631 0.298 -0.634 Q 0.298 -0.646 0.28200000000000003 -0.649 L 0.281 -0.649 L 0.28 -0.649 Q 0.277 -0.649 0.271 -0.65 Q 0.254 -0.652 0.233 -0.652 Q 0.20700000000000002 -0.652 0.20500000000000002 -0.663 Q 0.20500000000000002 -0.681 0.22 -0.683 L 0.221 -0.683 L 0.222 -0.683 L 0.234 -0.683 L 0.5700000000000001 -0.683 Q 0.685 -0.683 0.734 -0.615 Q 0.756 -0.583 0.756 -0.545 Q 0.756 -0.464 0.666 -0.404 Q 0.665 -0.404 0.664 -0.403 Q 0.611 -0.369 0.547 -0.357 Q 0.649 -0.34500000000000003 0.687 -0.277 Q 0.7020000000000001 -0.249 0.7020000000000001 -0.216 Q 0.7020000000000001 -0.14300000000000002 0.632 -0.079 L 0.631 -0.078 Q 0.545 0 0.426 0 L 0.069 0 Q 0.044 0 0.042 -0.011 Q 0.042 -0.029 0.057 -0.031 L 0.069 -0.031 Q 0.134 -0.031 0.147 -0.045 Q 0.153 -0.052000000000000005 0.159 -0.073 Q 0.159 -0.074 0.16 -0.078 M 0.311 -0.366 L 0.457 -0.366 Q 0.556 -0.366 0.62 -0.438 Q 0.665 -0.489 0.665 -0.549 Q 0.665 -0.622 0.605 -0.644 Q 0.584 -0.652 0.556 -0.652 L 0.427 -0.652 Q 0.391 -0.652 0.383 -0.642 L 0.383 -0.642 L 0.383 -0.641 L 0.382 -0.641 L 0.382 -0.64 Q 0.378 -0.634 0.373 -0.614 L 0.311 -0.366 M 0.266 -0.031 L 0.402 -0.031 Q 0.498 -0.031 0.561 -0.10300000000000001 Q 0.609 -0.159 0.609 -0.227 Q 0.609 -0.3 0.557 -0.33 Q 0.531 -0.34400000000000003 0.494 -0.34400000000000003 L 0.305 -0.34400000000000003 L 0.23600000000000002 -0.065 Q 0.231 -0.047 0.231 -0.042 Q 0.231 -0.034 0.24 -0.032 L 0.24 -0.032 L 0.24 -0.032 L 0.244 -0.032 Q 0.25 -0.031 0.266 -0.031 Z"/></g></g><path fill="rgb(0,0,255)" stroke="none" paint-order="stroke fill markers" d=" M 512.6966423357665 248.49576642335785 L 482.4327030366962 254.84745738736024 L 484.61586786630716 259.3456560631359 L 112.90841758519451 439.75090066211243 C 111.66627432002454 440.35376498299297 111.14803634123166 441.84943914963577 111.7509006621122 443.0915824148057 C 112.18311507383245 443.98211814902123 113.07422973613753 444.5005698175257 114.00181663083899 444.5005698175257 C 114.36805295944511 444.5005698175257 114.73997488385106 444.4197492470483 115.09158241480549 444.249099337888 L 486.79903269591813 263.8438547389115 L 488.9821975255291 268.34205341468714 L 512.6966423357665 248.49576642335785 Z" fill-opacity="0.6980392156862745"/><g transform="scale(35,35)"><g transform="translate(9.2,10.711571428571428)"><path fill="rgb(0,0,255)" stroke="none" paint-order="stroke fill markers" d=" M 0.76 -0.6950000000000001 L 0.6970000000000001 -0.44 Q 0.6920000000000001 -0.422 0.687 -0.421 L 0.686 -0.42 L 0.679 -0.42 Q 0.664 -0.42 0.664 -0.43 L 0.667 -0.47900000000000004 L 0.667 -0.481 Q 0.667 -0.605 0.589 -0.652 L 0.588 -0.653 Q 0.553 -0.674 0.506 -0.674 Q 0.4 -0.674 0.305 -0.595 Q 0.281 -0.5760000000000001 0.262 -0.553 Q 0.167 -0.442 0.145 -0.271 Q 0.14100000000000001 -0.24 0.14100000000000001 -0.217 Q 0.14100000000000001 -0.077 0.247 -0.028 Q 0.28800000000000003 -0.009000000000000001 0.337 -0.009000000000000001 Q 0.431 -0.009000000000000001 0.521 -0.082 Q 0.591 -0.14100000000000001 0.622 -0.24 Q 0.624 -0.25 0.635 -0.25 Q 0.647 -0.25 0.647 -0.24 Q 0.647 -0.222 0.624 -0.176 Q 0.593 -0.113 0.537 -0.064 Q 0.438 0.022 0.321 0.022 Q 0.193 0.022 0.116 -0.066 Q 0.05 -0.14100000000000001 0.05 -0.252 Q 0.05 -0.401 0.159 -0.531 Q 0.26 -0.652 0.398 -0.6910000000000001 Q 0.449 -0.705 0.498 -0.705 Q 0.607 -0.705 0.664 -0.616 L 0.734 -0.6930000000000001 Q 0.746 -0.705 0.749 -0.705 Q 0.76 -0.705 0.76 -0.6950000000000001 Z"/></g><g transform="translate(9.986999999999998,10.711571428571428)"><path fill="rgb(0,0,255)" stroke="none" paint-order="stroke fill markers" d=" M 0.159 -0.078 L 0.159 -0.078 L 0.293 -0.615 Q 0.297 -0.631 0.297 -0.634 Q 0.297 -0.646 0.281 -0.649 L 0.28 -0.649 L 0.28 -0.649 Q 0.278 -0.65 0.275 -0.65 Q 0.251 -0.652 0.232 -0.652 Q 0.20600000000000002 -0.652 0.20400000000000001 -0.66 Q 0.203 -0.662 0.203 -0.664 Q 0.203 -0.681 0.22 -0.683 L 0.22 -0.683 L 0.233 -0.683 L 0.5690000000000001 -0.683 Q 0.6990000000000001 -0.683 0.763 -0.582 Q 0.804 -0.518 0.804 -0.43 Q 0.804 -0.28500000000000003 0.7030000000000001 -0.159 Q 0.607 -0.042 0.47700000000000004 -0.01 Q 0.438 0 0.399 0 L 0.068 0 Q 0.043000000000000003 0 0.041 -0.008 Q 0.04 -0.009000000000000001 0.04 -0.012 Q 0.04 -0.029 0.056 -0.031 L 0.068 -0.031 Q 0.133 -0.031 0.146 -0.045 Q 0.152 -0.052000000000000005 0.158 -0.073 Q 0.158 -0.074 0.159 -0.078 M 0.375 -0.614 L 0.23800000000000002 -0.065 Q 0.233 -0.047 0.233 -0.042 Q 0.233 -0.034 0.242 -0.032 L 0.242 -0.032 L 0.242 -0.032 L 0.246 -0.032 Q 0.252 -0.031 0.268 -0.031 L 0.381 -0.031 Q 0.505 -0.031 0.595 -0.124 Q 0.604 -0.134 0.612 -0.14400000000000002 Q 0.6920000000000001 -0.248 0.713 -0.41600000000000004 Q 0.717 -0.447 0.717 -0.467 Q 0.717 -0.601 0.612 -0.639 Q 0.578 -0.652 0.536 -0.652 L 0.429 -0.652 Q 0.393 -0.652 0.385 -0.642 L 0.385 -0.642 L 0.385 -0.641 L 0.384 -0.641 L 0.384 -0.64 Q 0.38 -0.634 0.375 -0.614 Z"/></g></g><path fill="rgb(0,102,51)" stroke="none" paint-order="stroke fill markers" d=" M 602.9988524044867 140.49995538263673 C 602.4225713782727 140.49995538263673 601.8434673258489 140.69811710884636 601.3718559389267 141.10285822448856 C 600.3240934680448 142.00205735994697 600.2036590890301 143.5803815901916 601.1028582244885 144.62814406107358 L 696.5651294916076 255.86244275493416 L 692.7708459405844 259.11873087708096 L 718.0000000000001 277.0000000000002 L 704.1536965936541 249.34986651064054 L 700.3594130426309 252.60615463278734 L 604.8971417755117 141.37185593892676 C 604.4026837556955 140.795704854967 603.7028747142224 140.49995538263673 602.9988524044867 140.49995538263673 Z" fill-opacity="0.6980392156862745"/><g transform="scale(35,35)"><g transform="translate(17.285714285714285,6.740142857142857)"><path fill="rgb(0,102,51)" stroke="none" paint-order="stroke fill markers" d=" M 0.708 -0.233 L 0.708 -0.233 L 0.616 -0.017 Q 0.61 -0.003 0.602 -0.001 L 0.602 -0.001 L 0.601 -0.001 Q 0.597 0 0.585 0 L 0.066 0 Q 0.041 0 0.039 -0.008 Q 0.038 -0.009000000000000001 0.038 -0.012 Q 0.038 -0.029 0.054 -0.031 L 0.066 -0.031 Q 0.131 -0.031 0.14400000000000002 -0.045 Q 0.15 -0.052000000000000005 0.156 -0.073 Q 0.156 -0.074 0.157 -0.078 L 0.289 -0.607 Q 0.294 -0.625 0.294 -0.631 Q 0.294 -0.648 0.248 -0.649 L 0.247 -0.649 L 0.229 -0.649 Q 0.203 -0.649 0.201 -0.66 Q 0.201 -0.678 0.217 -0.68 L 0.231 -0.68 L 0.736 -0.68 Q 0.76 -0.68 0.762 -0.673 L 0.763 -0.673 Q 0.765 -0.667 0.763 -0.653 L 0.743 -0.48 Q 0.736 -0.457 0.729 -0.455 Q 0.717 -0.455 0.717 -0.467 L 0.718 -0.484 L 0.718 -0.485 Q 0.722 -0.512 0.722 -0.538 Q 0.722 -0.608 0.683 -0.63 Q 0.65 -0.649 0.5700000000000001 -0.649 L 0.429 -0.649 Q 0.392 -0.649 0.385 -0.638 L 0.384 -0.638 L 0.384 -0.637 Q 0.381 -0.633 0.379 -0.625 L 0.379 -0.624 L 0.378 -0.623 Q 0.377 -0.619 0.375 -0.61 L 0.315 -0.369 L 0.40900000000000003 -0.369 Q 0.485 -0.369 0.51 -0.399 Q 0.526 -0.418 0.54 -0.468 Q 0.544 -0.485 0.554 -0.486 Q 0.5660000000000001 -0.486 0.5660000000000001 -0.47500000000000003 L 0.509 -0.241 Q 0.504 -0.222 0.494 -0.221 Q 0.481 -0.221 0.481 -0.232 Q 0.481 -0.23600000000000002 0.484 -0.243 Q 0.491 -0.273 0.491 -0.292 Q 0.491 -0.319 0.47600000000000003 -0.327 Q 0.457 -0.338 0.406 -0.338 L 0.307 -0.338 L 0.23900000000000002 -0.065 Q 0.234 -0.047 0.234 -0.042 Q 0.234 -0.034 0.243 -0.032 L 0.243 -0.032 L 0.243 -0.032 L 0.247 -0.032 Q 0.253 -0.031 0.269 -0.031 L 0.41500000000000004 -0.031 Q 0.537 -0.031 0.595 -0.08700000000000001 Q 0.633 -0.123 0.678 -0.222 Q 0.682 -0.233 0.6880000000000001 -0.246 Q 0.6920000000000001 -0.258 0.7010000000000001 -0.258 Q 0.713 -0.258 0.713 -0.247 Q 0.713 -0.246 0.708 -0.233 Z"/></g><g transform="translate(18.081714285714284,6.740142857142857)"><path fill="rgb(0,102,51)" stroke="none" paint-order="stroke fill markers" d=" M 0.303 -0.325 L 0.241 -0.076 Q 0.23700000000000002 -0.061 0.23700000000000002 -0.053 Q 0.23700000000000002 -0.039 0.25 -0.036000000000000004 Q 0.257 -0.034 0.269 -0.033 Q 0.294 -0.031 0.321 -0.031 Q 0.34600000000000003 -0.031 0.34900000000000003 -0.03 L 0.354 -0.023 Q 0.355 -0.021 0.355 -0.019 Q 0.355 0 0.334 0 L 0.186 -0.003 L 0.185 -0.003 L 0.054 0 L 0.053 0 Q 0.038 0 0.038 -0.012 Q 0.038 -0.029 0.054 -0.031 L 0.066 -0.031 Q 0.131 -0.031 0.14400000000000002 -0.045 Q 0.15 -0.052000000000000005 0.156 -0.073 Q 0.156 -0.074 0.157 -0.078 L 0.289 -0.607 Q 0.294 -0.625 0.294 -0.631 Q 0.294 -0.648 0.248 -0.649 L 0.247 -0.649 L 0.229 -0.649 Q 0.203 -0.649 0.201 -0.66 Q 0.201 -0.678 0.217 -0.68 L 0.231 -0.68 L 0.721 -0.68 Q 0.745 -0.68 0.747 -0.673 L 0.748 -0.673 Q 0.75 -0.667 0.748 -0.653 L 0.728 -0.48 Q 0.721 -0.457 0.714 -0.455 Q 0.7020000000000001 -0.455 0.7020000000000001 -0.467 Q 0.7020000000000001 -0.47200000000000003 0.704 -0.485 Q 0.707 -0.512 0.707 -0.539 Q 0.707 -0.606 0.673 -0.628 L 0.672 -0.629 Q 0.64 -0.649 0.561 -0.649 L 0.429 -0.649 Q 0.392 -0.649 0.385 -0.638 L 0.384 -0.638 L 0.384 -0.637 Q 0.381 -0.633 0.379 -0.625 L 0.379 -0.624 L 0.378 -0.623 Q 0.377 -0.619 0.375 -0.61 L 0.311 -0.356 L 0.402 -0.356 Q 0.47500000000000003 -0.356 0.5 -0.383 L 0.501 -0.384 Q 0.518 -0.403 0.531 -0.452 Q 0.536 -0.47100000000000003 0.546 -0.47300000000000003 Q 0.557 -0.47300000000000003 0.558 -0.462 Q 0.558 -0.457 0.555 -0.446 L 0.5 -0.229 Q 0.49 -0.209 0.485 -0.20800000000000002 Q 0.47300000000000003 -0.20800000000000002 0.47300000000000003 -0.22 Q 0.47300000000000003 -0.224 0.47600000000000003 -0.231 Q 0.483 -0.261 0.483 -0.28 Q 0.483 -0.309 0.461 -0.318 L 0.461 -0.318 Q 0.442 -0.325 0.4 -0.325 L 0.303 -0.325 Z"/></g></g><path fill="rgb(0,102,51)" stroke="none" paint-order="stroke fill markers" d=" M 713.3424842051251 137.56428594336302 L 727.1887876114711 165.2144194327227 L 730.9830711624943 161.9581313105759 L 940.1028582244885 405.6281440610735 C 940.5973162443047 406.20429514503326 941.2971252857778 406.5000446173635 942.0011475955135 406.5000446173635 C 942.5774286217276 406.5000446173635 943.1565326741513 406.3018828911539 943.6281440610735 405.8971417755117 C 944.6759065319554 404.99794264005334 944.7963409109701 403.4196184098087 943.8971417755117 402.3718559389267 L 734.7773547135175 158.7018431884291 L 738.5716382645408 155.44555506628228 L 713.3424842051251 137.56428594336302 Z" fill-opacity="0.6980392156862745"/><g transform="scale(35,35)"><g transform="translate(23.65714285714286,7.2829999999999995)"><path fill="rgb(0,102,51)" stroke="none" paint-order="stroke fill markers" d=" M 0.76 -0.6950000000000001 L 0.6970000000000001 -0.44 Q 0.6920000000000001 -0.422 0.687 -0.421 L 0.686 -0.42 L 0.679 -0.42 Q 0.664 -0.42 0.664 -0.43 L 0.667 -0.47900000000000004 L 0.667 -0.481 Q 0.667 -0.605 0.589 -0.652 L 0.588 -0.653 Q 0.553 -0.674 0.506 -0.674 Q 0.399 -0.674 0.303 -0.593 Q 0.276 -0.5710000000000001 0.256 -0.545 Q 0.16 -0.427 0.14300000000000002 -0.255 Q 0.14100000000000001 -0.234 0.14100000000000001 -0.219 Q 0.14100000000000001 -0.082 0.245 -0.031 Q 0.289 -0.009000000000000001 0.342 -0.009000000000000001 Q 0.427 -0.009000000000000001 0.483 -0.052000000000000005 Q 0.523 -0.082 0.535 -0.13 Q 0.556 -0.20800000000000002 0.556 -0.221 Q 0.556 -0.234 0.541 -0.23800000000000002 Q 0.536 -0.23900000000000002 0.525 -0.24 Q 0.502 -0.242 0.47200000000000003 -0.242 Q 0.445 -0.242 0.443 -0.248 Q 0.442 -0.249 0.442 -0.253 Q 0.442 -0.273 0.463 -0.273 L 0.602 -0.27 L 0.603 -0.27 L 0.707 -0.273 L 0.708 -0.273 Q 0.721 -0.273 0.721 -0.262 Q 0.721 -0.242 0.705 -0.242 Q 0.659 -0.241 0.65 -0.232 Q 0.644 -0.225 0.636 -0.194 Q 0.636 -0.196 0.626 -0.155 Q 0.624 -0.148 0.623 -0.14300000000000002 L 0.604 -0.066 Q 0.59 -0.008 0.587 -0.005 Q 0.587 -0.001 0.58 -0.001 Q 0.5690000000000001 -0.001 0.546 -0.039 Q 0.539 -0.052000000000000005 0.535 -0.063 Q 0.501 -0.025 0.458 -0.006 L 0.448 -0.002 Q 0.39 0.022 0.323 0.022 Q 0.188 0.022 0.111 -0.07200000000000001 Q 0.05 -0.146 0.05 -0.252 Q 0.05 -0.401 0.159 -0.531 Q 0.26 -0.652 0.398 -0.6910000000000001 Q 0.449 -0.705 0.498 -0.705 Q 0.607 -0.705 0.664 -0.616 L 0.734 -0.6930000000000001 Q 0.746 -0.705 0.749 -0.705 Q 0.76 -0.705 0.76 -0.6950000000000001 Z"/></g><g transform="translate(24.44314285714286,7.2829999999999995)"><path fill="rgb(0,102,51)" stroke="none" paint-order="stroke fill markers" d=" M 0.763 -0.606 L 0.628 -0.066 L 0.625 -0.049 Q 0.625 -0.032 0.672 -0.031 L 0.673 -0.031 L 0.6900000000000001 -0.031 Q 0.716 -0.031 0.718 -0.02 Q 0.718 0 0.6980000000000001 0 L 0.634 -0.002 L 0.633 -0.002 L 0.5710000000000001 -0.003 L 0.5690000000000001 -0.003 L 0.443 0 L 0.442 0 Q 0.428 0 0.428 -0.011 Q 0.428 -0.029 0.442 -0.031 L 0.442 -0.031 L 0.442 -0.031 L 0.452 -0.031 Q 0.515 -0.031 0.529 -0.041 L 0.53 -0.042 Q 0.538 -0.049 0.543 -0.064 L 0.612 -0.34 L 0.307 -0.34 L 0.23900000000000002 -0.066 L 0.23600000000000002 -0.049 Q 0.23600000000000002 -0.032 0.28200000000000003 -0.031 L 0.28200000000000003 -0.031 L 0.28200000000000003 -0.031 L 0.301 -0.031 Q 0.327 -0.031 0.329 -0.02 Q 0.329 0 0.309 0 L 0.245 -0.002 L 0.244 -0.002 L 0.182 -0.003 L 0.18 -0.003 L 0.054 0 L 0.053 0 Q 0.039 0 0.039 -0.011 Q 0.039 -0.029 0.054 -0.031 L 0.066 -0.031 Q 0.131 -0.031 0.14400000000000002 -0.045 Q 0.15 -0.052000000000000005 0.156 -0.073 Q 0.156 -0.074 0.157 -0.078 L 0.291 -0.615 Q 0.295 -0.631 0.295 -0.634 Q 0.295 -0.646 0.279 -0.649 L 0.278 -0.649 L 0.277 -0.649 Q 0.274 -0.649 0.268 -0.65 Q 0.251 -0.652 0.23 -0.652 Q 0.20400000000000001 -0.652 0.202 -0.663 Q 0.202 -0.683 0.221 -0.683 L 0.34900000000000003 -0.68 L 0.35000000000000003 -0.68 L 0.47700000000000004 -0.683 L 0.47800000000000004 -0.683 Q 0.492 -0.683 0.492 -0.672 Q 0.492 -0.655 0.47800000000000004 -0.653 L 0.47700000000000004 -0.653 L 0.47700000000000004 -0.653 L 0.47700000000000004 -0.653 L 0.47600000000000003 -0.652 L 0.458 -0.652 Q 0.397 -0.652 0.385 -0.635 L 0.384 -0.635 L 0.384 -0.634 Q 0.379 -0.627 0.374 -0.606 L 0.315 -0.371 L 0.62 -0.371 L 0.68 -0.615 Q 0.684 -0.632 0.684 -0.634 Q 0.684 -0.646 0.668 -0.649 Q 0.665 -0.649 0.657 -0.65 Q 0.64 -0.652 0.619 -0.652 Q 0.593 -0.652 0.591 -0.663 Q 0.591 -0.683 0.61 -0.683 L 0.738 -0.68 L 0.739 -0.68 L 0.866 -0.683 L 0.867 -0.683 Q 0.881 -0.683 0.881 -0.672 Q 0.881 -0.655 0.867 -0.653 L 0.866 -0.653 Q 0.861 -0.652 0.847 -0.652 Q 0.786 -0.652 0.774 -0.636 Q 0.769 -0.629 0.763 -0.606 Z"/></g></g><path fill="rgb(77,77,255)" stroke="none" paint-order="stroke fill markers" d=" M 157 328.00000000000034 C 157 330.7614237491543 154.76142374915398 333.00000000000034 152 333.00000000000034 C 149.23857625084602 333.00000000000034 147 330.7614237491543 147 328.00000000000034 C 147 325.2385762508464 149.23857625084602 323.00000000000034 152 323.00000000000034 C 154.76142374915398 323.00000000000034 157 325.2385762508464 157 328.00000000000034 Z" fill-opacity="1"/><path fill="none" stroke="rgb(0,0,0)" paint-order="fill stroke markers" d=" M 157 328.00000000000034 C 157 330.7614237491543 154.76142374915398 333.00000000000034 152 333.00000000000034 C 149.23857625084602 333.00000000000034 147 330.7614237491543 147 328.00000000000034 C 147 325.2385762508464 149.23857625084602 323.00000000000034 152 323.00000000000034 C 154.76142374915398 323.00000000000034 157 325.2385762508464 157 328.00000000000034 Z" stroke-opacity="1" stroke-linecap="round" stroke-linejoin="round" stroke-miterlimit="10"/><g transform="scale(35,35)"><g transform="translate(3.9714285714285715,8.540142857142857)"><path fill="rgb(77,77,255)" stroke="none" paint-order="stroke fill markers" d=" M 0.179 -0.115 L 0.527 -0.6990000000000001 Q 0.537 -0.715 0.553 -0.716 Q 0.5680000000000001 -0.716 0.5700000000000001 -0.706 Q 0.5710000000000001 -0.7030000000000001 0.5720000000000001 -0.6920000000000001 L 0.633 -0.067 Q 0.636 -0.042 0.645 -0.037 L 0.646 -0.037 L 0.646 -0.037 L 0.646 -0.037 L 0.646 -0.037 L 0.646 -0.036000000000000004 Q 0.658 -0.031 0.6980000000000001 -0.031 Q 0.72 -0.031 0.721 -0.02 Q 0.721 0 0.7030000000000001 0 L 0.591 -0.003 L 0.59 -0.003 L 0.466 0 L 0.465 0 Q 0.451 0 0.451 -0.011 Q 0.459 -0.03 0.47500000000000003 -0.031 Q 0.547 -0.031 0.547 -0.064 Q 0.547 -0.063 0.531 -0.231 L 0.28 -0.231 L 0.20400000000000001 -0.10300000000000001 Q 0.19 -0.078 0.19 -0.066 Q 0.19 -0.035 0.23700000000000002 -0.031 Q 0.253 -0.031 0.253 -0.019 Q 0.253 0 0.234 0 L 0.138 -0.003 L 0.134 -0.003 L 0.05 0 L 0.048 0 Q 0.035 0 0.035 -0.011 Q 0.035 -0.029 0.05 -0.03 L 0.05 -0.031 L 0.056 -0.031 Q 0.11900000000000001 -0.035 0.159 -0.085 Q 0.169 -0.098 0.179 -0.115 M 0.299 -0.262 L 0.528 -0.262 L 0.496 -0.592 L 0.299 -0.262 Z"/></g></g><path fill="rgb(77,77,255)" stroke="none" paint-order="stroke fill markers" d=" M 464.00000000000006 179.00000000000028 C 464.00000000000006 181.76142374915426 461.761423749154 184.00000000000028 459.00000000000006 184.00000000000028 C 456.2385762508461 184.00000000000028 454.00000000000006 181.76142374915426 454.00000000000006 179.00000000000028 C 454.00000000000006 176.2385762508463 456.2385762508461 174.00000000000028 459.00000000000006 174.00000000000028 C 461.761423749154 174.00000000000028 464.00000000000006 176.2385762508463 464.00000000000006 179.00000000000028 Z" fill-opacity="1"/><path fill="none" stroke="rgb(0,0,0)" paint-order="fill stroke markers" d=" M 464.00000000000006 179.00000000000028 C 464.00000000000006 181.76142374915426 461.761423749154 184.00000000000028 459.00000000000006 184.00000000000028 C 456.2385762508461 184.00000000000028 454.00000000000006 181.76142374915426 454.00000000000006 179.00000000000028 C 454.00000000000006 176.2385762508463 456.2385762508461 174.00000000000028 459.00000000000006 174.00000000000028 C 461.761423749154 174.00000000000028 464.00000000000006 176.2385762508463 464.00000000000006 179.00000000000028 Z" stroke-opacity="1" stroke-linecap="round" stroke-linejoin="round" stroke-miterlimit="10"/><g transform="scale(35,35)"><g transform="translate(12.714285714285714,4.368714285714286)"><path fill="rgb(77,77,255)" stroke="none" paint-order="stroke fill markers" d=" M 0.16 -0.078 L 0.294 -0.615 Q 0.298 -0.631 0.298 -0.634 Q 0.298 -0.646 0.28200000000000003 -0.649 L 0.281 -0.649 L 0.28 -0.649 Q 0.277 -0.649 0.271 -0.65 Q 0.254 -0.652 0.233 -0.652 Q 0.20700000000000002 -0.652 0.20500000000000002 -0.663 Q 0.20500000000000002 -0.681 0.22 -0.683 L 0.221 -0.683 L 0.222 -0.683 L 0.234 -0.683 L 0.5700000000000001 -0.683 Q 0.685 -0.683 0.734 -0.615 Q 0.756 -0.583 0.756 -0.545 Q 0.756 -0.464 0.666 -0.404 Q 0.665 -0.404 0.664 -0.403 Q 0.611 -0.369 0.547 -0.357 Q 0.649 -0.34500000000000003 0.687 -0.277 Q 0.7020000000000001 -0.249 0.7020000000000001 -0.216 Q 0.7020000000000001 -0.14300000000000002 0.632 -0.079 L 0.631 -0.078 Q 0.545 0 0.426 0 L 0.069 0 Q 0.044 0 0.042 -0.011 Q 0.042 -0.029 0.057 -0.031 L 0.069 -0.031 Q 0.134 -0.031 0.147 -0.045 Q 0.153 -0.052000000000000005 0.159 -0.073 Q 0.159 -0.074 0.16 -0.078 M 0.311 -0.366 L 0.457 -0.366 Q 0.556 -0.366 0.62 -0.438 Q 0.665 -0.489 0.665 -0.549 Q 0.665 -0.622 0.605 -0.644 Q 0.584 -0.652 0.556 -0.652 L 0.427 -0.652 Q 0.391 -0.652 0.383 -0.642 L 0.383 -0.642 L 0.383 -0.641 L 0.382 -0.641 L 0.382 -0.64 Q 0.378 -0.634 0.373 -0.614 L 0.311 -0.366 M 0.266 -0.031 L 0.402 -0.031 Q 0.498 -0.031 0.561 -0.10300000000000001 Q 0.609 -0.159 0.609 -0.227 Q 0.609 -0.3 0.557 -0.33 Q 0.531 -0.34400000000000003 0.494 -0.34400000000000003 L 0.305 -0.34400000000000003 L 0.23600000000000002 -0.065 Q 0.231 -0.047 0.231 -0.042 Q 0.231 -0.034 0.24 -0.032 L 0.24 -0.032 L 0.24 -0.032 L 0.244 -0.032 Q 0.25 -0.031 0.266 -0.031 Z"/></g></g><path fill="rgb(77,77,255)" stroke="none" paint-order="stroke fill markers" d=" M 119 442.0000000000002 C 119 444.7614237491542 116.76142374915396 447.0000000000002 114 447.0000000000002 C 111.23857625084604 447.0000000000002 109 444.7614237491542 109 442.0000000000002 C 109 439.2385762508463 111.23857625084604 437.0000000000002 114 437.0000000000002 C 116.76142374915396 437.0000000000002 119 439.2385762508463 119 442.0000000000002 Z" fill-opacity="1"/><path fill="none" stroke="rgb(0,0,0)" paint-order="fill stroke markers" d=" M 119 442.0000000000002 C 119 444.7614237491542 116.76142374915396 447.0000000000002 114 447.0000000000002 C 111.23857625084604 447.0000000000002 109 444.7614237491542 109 442.0000000000002 C 109 439.2385762508463 111.23857625084604 437.0000000000002 114 437.0000000000002 C 116.76142374915396 437.0000000000002 119 439.2385762508463 119 442.0000000000002 Z" stroke-opacity="1" stroke-linecap="round" stroke-linejoin="round" stroke-miterlimit="10"/><g transform="scale(35,35)"><g transform="translate(3.4285714285714284,13.425857142857142)"><path fill="rgb(77,77,255)" stroke="none" paint-order="stroke fill markers" d=" M 0.76 -0.6950000000000001 L 0.6970000000000001 -0.44 Q 0.6920000000000001 -0.422 0.687 -0.421 L 0.686 -0.42 L 0.679 -0.42 Q 0.664 -0.42 0.664 -0.43 L 0.667 -0.47900000000000004 L 0.667 -0.481 Q 0.667 -0.605 0.589 -0.652 L 0.588 -0.653 Q 0.553 -0.674 0.506 -0.674 Q 0.4 -0.674 0.305 -0.595 Q 0.281 -0.5760000000000001 0.262 -0.553 Q 0.167 -0.442 0.145 -0.271 Q 0.14100000000000001 -0.24 0.14100000000000001 -0.217 Q 0.14100000000000001 -0.077 0.247 -0.028 Q 0.28800000000000003 -0.009000000000000001 0.337 -0.009000000000000001 Q 0.431 -0.009000000000000001 0.521 -0.082 Q 0.591 -0.14100000000000001 0.622 -0.24 Q 0.624 -0.25 0.635 -0.25 Q 0.647 -0.25 0.647 -0.24 Q 0.647 -0.222 0.624 -0.176 Q 0.593 -0.113 0.537 -0.064 Q 0.438 0.022 0.321 0.022 Q 0.193 0.022 0.116 -0.066 Q 0.05 -0.14100000000000001 0.05 -0.252 Q 0.05 -0.401 0.159 -0.531 Q 0.26 -0.652 0.398 -0.6910000000000001 Q 0.449 -0.705 0.498 -0.705 Q 0.607 -0.705 0.664 -0.616 L 0.734 -0.6930000000000001 Q 0.746 -0.705 0.749 -0.705 Q 0.76 -0.705 0.76 -0.6950000000000001 Z"/></g></g><path fill="rgb(0,0,255)" stroke="none" paint-order="stroke fill markers" d=" M 517.6966423357665 248.49576642335785 C 517.6966423357665 251.25719017251183 515.4580660849205 253.49576642335785 512.6966423357665 253.49576642335785 C 509.9352185866125 253.49576642335785 507.69664233576646 251.25719017251183 507.69664233576646 248.49576642335785 C 507.69664233576646 245.73434267420387 509.9352185866125 243.49576642335785 512.6966423357665 243.49576642335785 C 515.4580660849205 243.49576642335785 517.6966423357665 245.73434267420387 517.6966423357665 248.49576642335785 Z" fill-opacity="1"/><path fill="none" stroke="rgb(0,0,0)" paint-order="fill stroke markers" d=" M 517.6966423357665 248.49576642335785 C 517.6966423357665 251.25719017251183 515.4580660849205 253.49576642335785 512.6966423357665 253.49576642335785 C 509.9352185866125 253.49576642335785 507.69664233576646 251.25719017251183 507.69664233576646 248.49576642335785 C 507.69664233576646 245.73434267420387 509.9352185866125 243.49576642335785 512.6966423357665 243.49576642335785 C 515.4580660849205 243.49576642335785 517.6966423357665 245.73434267420387 517.6966423357665 248.49576642335785 Z" stroke-opacity="1" stroke-linecap="round" stroke-linejoin="round" stroke-miterlimit="10"/><g transform="scale(35,35)"><g transform="translate(14.057142857142857,8.454428571428572)"><path fill="rgb(0,0,255)" stroke="none" paint-order="stroke fill markers" d=" M 0.159 -0.078 L 0.159 -0.078 L 0.293 -0.615 Q 0.297 -0.631 0.297 -0.634 Q 0.297 -0.646 0.281 -0.649 L 0.28 -0.649 L 0.28 -0.649 Q 0.278 -0.65 0.275 -0.65 Q 0.251 -0.652 0.232 -0.652 Q 0.20600000000000002 -0.652 0.20400000000000001 -0.66 Q 0.203 -0.662 0.203 -0.664 Q 0.203 -0.681 0.22 -0.683 L 0.22 -0.683 L 0.233 -0.683 L 0.5690000000000001 -0.683 Q 0.6990000000000001 -0.683 0.763 -0.582 Q 0.804 -0.518 0.804 -0.43 Q 0.804 -0.28500000000000003 0.7030000000000001 -0.159 Q 0.607 -0.042 0.47700000000000004 -0.01 Q 0.438 0 0.399 0 L 0.068 0 Q 0.043000000000000003 0 0.041 -0.008 Q 0.04 -0.009000000000000001 0.04 -0.012 Q 0.04 -0.029 0.056 -0.031 L 0.068 -0.031 Q 0.133 -0.031 0.146 -0.045 Q 0.152 -0.052000000000000005 0.158 -0.073 Q 0.158 -0.074 0.159 -0.078 M 0.375 -0.614 L 0.23800000000000002 -0.065 Q 0.233 -0.047 0.233 -0.042 Q 0.233 -0.034 0.242 -0.032 L 0.242 -0.032 L 0.242 -0.032 L 0.246 -0.032 Q 0.252 -0.031 0.268 -0.031 L 0.381 -0.031 Q 0.505 -0.031 0.595 -0.124 Q 0.604 -0.134 0.612 -0.14400000000000002 Q 0.6920000000000001 -0.248 0.713 -0.41600000000000004 Q 0.717 -0.447 0.717 -0.467 Q 0.717 -0.601 0.612 -0.639 Q 0.578 -0.652 0.536 -0.652 L 0.429 -0.652 Q 0.393 -0.652 0.385 -0.642 L 0.385 -0.642 L 0.385 -0.641 L 0.384 -0.641 L 0.384 -0.64 Q 0.38 -0.634 0.375 -0.614 Z"/></g></g><path fill="rgb(0,102,51)" stroke="none" paint-order="stroke fill markers" d=" M 608.0000000000001 143.00000000000017 C 608.0000000000001 145.76142374915415 605.7614237491541 148.00000000000017 603.0000000000001 148.00000000000017 C 600.2385762508461 148.00000000000017 598.0000000000001 145.76142374915415 598.0000000000001 143.00000000000017 C 598.0000000000001 140.2385762508462 600.2385762508461 138.00000000000017 603.0000000000001 138.00000000000017 C 605.7614237491541 138.00000000000017 608.0000000000001 140.2385762508462 608.0000000000001 143.00000000000017 Z" fill-opacity="1"/><path fill="none" stroke="rgb(0,0,0)" paint-order="fill stroke markers" d=" M 608.0000000000001 143.00000000000017 C 608.0000000000001 145.76142374915415 605.7614237491541 148.00000000000017 603.0000000000001 148.00000000000017 C 600.2385762508461 148.00000000000017 598.0000000000001 145.76142374915415 598.0000000000001 143.00000000000017 C 598.0000000000001 140.2385762508462 600.2385762508461 138.00000000000017 603.0000000000001 138.00000000000017 C 605.7614237491541 138.00000000000017 608.0000000000001 140.2385762508462 608.0000000000001 143.00000000000017 Z" stroke-opacity="1" stroke-linecap="round" stroke-linejoin="round" stroke-miterlimit="10"/><g transform="scale(35,35)"><g transform="translate(15.942857142857143,4.197285714285714)"><path fill="rgb(0,102,51)" stroke="none" paint-order="stroke fill markers" d=" M 0.708 -0.233 L 0.708 -0.233 L 0.616 -0.017 Q 0.61 -0.003 0.602 -0.001 L 0.602 -0.001 L 0.601 -0.001 Q 0.597 0 0.585 0 L 0.066 0 Q 0.041 0 0.039 -0.008 Q 0.038 -0.009000000000000001 0.038 -0.012 Q 0.038 -0.029 0.054 -0.031 L 0.066 -0.031 Q 0.131 -0.031 0.14400000000000002 -0.045 Q 0.15 -0.052000000000000005 0.156 -0.073 Q 0.156 -0.074 0.157 -0.078 L 0.289 -0.607 Q 0.294 -0.625 0.294 -0.631 Q 0.294 -0.648 0.248 -0.649 L 0.247 -0.649 L 0.229 -0.649 Q 0.203 -0.649 0.201 -0.66 Q 0.201 -0.678 0.217 -0.68 L 0.231 -0.68 L 0.736 -0.68 Q 0.76 -0.68 0.762 -0.673 L 0.763 -0.673 Q 0.765 -0.667 0.763 -0.653 L 0.743 -0.48 Q 0.736 -0.457 0.729 -0.455 Q 0.717 -0.455 0.717 -0.467 L 0.718 -0.484 L 0.718 -0.485 Q 0.722 -0.512 0.722 -0.538 Q 0.722 -0.608 0.683 -0.63 Q 0.65 -0.649 0.5700000000000001 -0.649 L 0.429 -0.649 Q 0.392 -0.649 0.385 -0.638 L 0.384 -0.638 L 0.384 -0.637 Q 0.381 -0.633 0.379 -0.625 L 0.379 -0.624 L 0.378 -0.623 Q 0.377 -0.619 0.375 -0.61 L 0.315 -0.369 L 0.40900000000000003 -0.369 Q 0.485 -0.369 0.51 -0.399 Q 0.526 -0.418 0.54 -0.468 Q 0.544 -0.485 0.554 -0.486 Q 0.5660000000000001 -0.486 0.5660000000000001 -0.47500000000000003 L 0.509 -0.241 Q 0.504 -0.222 0.494 -0.221 Q 0.481 -0.221 0.481 -0.232 Q 0.481 -0.23600000000000002 0.484 -0.243 Q 0.491 -0.273 0.491 -0.292 Q 0.491 -0.319 0.47600000000000003 -0.327 Q 0.457 -0.338 0.406 -0.338 L 0.307 -0.338 L 0.23900000000000002 -0.065 Q 0.234 -0.047 0.234 -0.042 Q 0.234 -0.034 0.243 -0.032 L 0.243 -0.032 L 0.243 -0.032 L 0.247 -0.032 Q 0.253 -0.031 0.269 -0.031 L 0.41500000000000004 -0.031 Q 0.537 -0.031 0.595 -0.08700000000000001 Q 0.633 -0.123 0.678 -0.222 Q 0.682 -0.233 0.6880000000000001 -0.246 Q 0.6920000000000001 -0.258 0.7010000000000001 -0.258 Q 0.713 -0.258 0.713 -0.247 Q 0.713 -0.246 0.708 -0.233 Z"/></g></g><path fill="rgb(0,102,51)" stroke="none" paint-order="stroke fill markers" d=" M 723.0000000000001 277.0000000000002 C 723.0000000000001 279.7614237491542 720.7614237491541 282.0000000000002 718.0000000000001 282.0000000000002 C 715.2385762508461 282.0000000000002 713.0000000000001 279.7614237491542 713.0000000000001 277.0000000000002 C 713.0000000000001 274.2385762508463 715.2385762508461 272.0000000000002 718.0000000000001 272.0000000000002 C 720.7614237491541 272.0000000000002 723.0000000000001 274.2385762508463 723.0000000000001 277.0000000000002 Z" fill-opacity="1"/><path fill="none" stroke="rgb(0,0,0)" paint-order="fill stroke markers" d=" M 723.0000000000001 277.0000000000002 C 723.0000000000001 279.7614237491542 720.7614237491541 282.0000000000002 718.0000000000001 282.0000000000002 C 715.2385762508461 282.0000000000002 713.0000000000001 279.7614237491542 713.0000000000001 277.0000000000002 C 713.0000000000001 274.2385762508463 715.2385762508461 272.0000000000002 718.0000000000001 272.0000000000002 C 720.7614237491541 272.0000000000002 723.0000000000001 274.2385762508463 723.0000000000001 277.0000000000002 Z" stroke-opacity="1" stroke-linecap="round" stroke-linejoin="round" stroke-miterlimit="10"/><g transform="scale(35,35)"><g transform="translate(19.085714285714285,8.540142857142857)"><path fill="rgb(0,102,51)" stroke="none" paint-order="stroke fill markers" d=" M 0.303 -0.325 L 0.241 -0.076 Q 0.23700000000000002 -0.061 0.23700000000000002 -0.053 Q 0.23700000000000002 -0.039 0.25 -0.036000000000000004 Q 0.257 -0.034 0.269 -0.033 Q 0.294 -0.031 0.321 -0.031 Q 0.34600000000000003 -0.031 0.34900000000000003 -0.03 L 0.354 -0.023 Q 0.355 -0.021 0.355 -0.019 Q 0.355 0 0.334 0 L 0.186 -0.003 L 0.185 -0.003 L 0.054 0 L 0.053 0 Q 0.038 0 0.038 -0.012 Q 0.038 -0.029 0.054 -0.031 L 0.066 -0.031 Q 0.131 -0.031 0.14400000000000002 -0.045 Q 0.15 -0.052000000000000005 0.156 -0.073 Q 0.156 -0.074 0.157 -0.078 L 0.289 -0.607 Q 0.294 -0.625 0.294 -0.631 Q 0.294 -0.648 0.248 -0.649 L 0.247 -0.649 L 0.229 -0.649 Q 0.203 -0.649 0.201 -0.66 Q 0.201 -0.678 0.217 -0.68 L 0.231 -0.68 L 0.721 -0.68 Q 0.745 -0.68 0.747 -0.673 L 0.748 -0.673 Q 0.75 -0.667 0.748 -0.653 L 0.728 -0.48 Q 0.721 -0.457 0.714 -0.455 Q 0.7020000000000001 -0.455 0.7020000000000001 -0.467 Q 0.7020000000000001 -0.47200000000000003 0.704 -0.485 Q 0.707 -0.512 0.707 -0.539 Q 0.707 -0.606 0.673 -0.628 L 0.672 -0.629 Q 0.64 -0.649 0.561 -0.649 L 0.429 -0.649 Q 0.392 -0.649 0.385 -0.638 L 0.384 -0.638 L 0.384 -0.637 Q 0.381 -0.633 0.379 -0.625 L 0.379 -0.624 L 0.378 -0.623 Q 0.377 -0.619 0.375 -0.61 L 0.311 -0.356 L 0.402 -0.356 Q 0.47500000000000003 -0.356 0.5 -0.383 L 0.501 -0.384 Q 0.518 -0.403 0.531 -0.452 Q 0.536 -0.47100000000000003 0.546 -0.47300000000000003 Q 0.557 -0.47300000000000003 0.558 -0.462 Q 0.558 -0.457 0.555 -0.446 L 0.5 -0.229 Q 0.49 -0.209 0.485 -0.20800000000000002 Q 0.47300000000000003 -0.20800000000000002 0.47300000000000003 -0.22 Q 0.47300000000000003 -0.224 0.47600000000000003 -0.231 Q 0.483 -0.261 0.483 -0.28 Q 0.483 -0.309 0.461 -0.318 L 0.461 -0.318 Q 0.442 -0.325 0.4 -0.325 L 0.303 -0.325 Z"/></g></g><path fill="rgb(0,102,51)" stroke="none" paint-order="stroke fill markers" d=" M 947.0000000000001 404.0000000000001 C 947.0000000000001 406.76142374915406 944.7614237491541 409.0000000000001 942.0000000000001 409.0000000000001 C 939.2385762508461 409.0000000000001 937.0000000000001 406.76142374915406 937.0000000000001 404.0000000000001 C 937.0000000000001 401.23857625084617 939.2385762508461 399.0000000000001 942.0000000000001 399.0000000000001 C 944.7614237491541 399.0000000000001 947.0000000000001 401.23857625084617 947.0000000000001 404.0000000000001 Z" fill-opacity="1"/><path fill="none" stroke="rgb(0,0,0)" paint-order="fill stroke markers" d=" M 947.0000000000001 404.0000000000001 C 947.0000000000001 406.76142374915406 944.7614237491541 409.0000000000001 942.0000000000001 409.0000000000001 C 939.2385762508461 409.0000000000001 937.0000000000001 406.76142374915406 937.0000000000001 404.0000000000001 C 937.0000000000001 401.23857625084617 939.2385762508461 399.0000000000001 942.0000000000001 399.0000000000001 C 944.7614237491541 399.0000000000001 947.0000000000001 401.23857625084617 947.0000000000001 404.0000000000001 Z" stroke-opacity="1" stroke-linecap="round" stroke-linejoin="round" stroke-miterlimit="10"/><g transform="scale(35,35)"><g transform="translate(26.771428571428572,10.711571428571428)"><path fill="rgb(0,102,51)" stroke="none" paint-order="stroke fill markers" d=" M 0.76 -0.6950000000000001 L 0.6970000000000001 -0.44 Q 0.6920000000000001 -0.422 0.687 -0.421 L 0.686 -0.42 L 0.679 -0.42 Q 0.664 -0.42 0.664 -0.43 L 0.667 -0.47900000000000004 L 0.667 -0.481 Q 0.667 -0.605 0.589 -0.652 L 0.588 -0.653 Q 0.553 -0.674 0.506 -0.674 Q 0.399 -0.674 0.303 -0.593 Q 0.276 -0.5710000000000001 0.256 -0.545 Q 0.16 -0.427 0.14300000000000002 -0.255 Q 0.14100000000000001 -0.234 0.14100000000000001 -0.219 Q 0.14100000000000001 -0.082 0.245 -0.031 Q 0.289 -0.009000000000000001 0.342 -0.009000000000000001 Q 0.427 -0.009000000000000001 0.483 -0.052000000000000005 Q 0.523 -0.082 0.535 -0.13 Q 0.556 -0.20800000000000002 0.556 -0.221 Q 0.556 -0.234 0.541 -0.23800000000000002 Q 0.536 -0.23900000000000002 0.525 -0.24 Q 0.502 -0.242 0.47200000000000003 -0.242 Q 0.445 -0.242 0.443 -0.248 Q 0.442 -0.249 0.442 -0.253 Q 0.442 -0.273 0.463 -0.273 L 0.602 -0.27 L 0.603 -0.27 L 0.707 -0.273 L 0.708 -0.273 Q 0.721 -0.273 0.721 -0.262 Q 0.721 -0.242 0.705 -0.242 Q 0.659 -0.241 0.65 -0.232 Q 0.644 -0.225 0.636 -0.194 Q 0.636 -0.196 0.626 -0.155 Q 0.624 -0.148 0.623 -0.14300000000000002 L 0.604 -0.066 Q 0.59 -0.008 0.587 -0.005 Q 0.587 -0.001 0.58 -0.001 Q 0.5690000000000001 -0.001 0.546 -0.039 Q 0.539 -0.052000000000000005 0.535 -0.063 Q 0.501 -0.025 0.458 -0.006 L 0.448 -0.002 Q 0.39 0.022 0.323 0.022 Q 0.188 0.022 0.111 -0.07200000000000001 Q 0.05 -0.146 0.05 -0.252 Q 0.05 -0.401 0.159 -0.531 Q 0.26 -0.652 0.398 -0.6910000000000001 Q 0.449 -0.705 0.498 -0.705 Q 0.607 -0.705 0.664 -0.616 L 0.734 -0.6930000000000001 Q 0.746 -0.705 0.749 -0.705 Q 0.76 -0.705 0.76 -0.6950000000000001 Z"/></g></g><path fill="rgb(0,102,51)" stroke="none" paint-order="stroke fill markers" d=" M 718.3424842051251 137.56428594336302 C 718.3424842051251 140.325709692517 716.1039079542791 142.56428594336302 713.3424842051251 142.56428594336302 C 710.581060455971 142.56428594336302 708.3424842051251 140.325709692517 708.3424842051251 137.56428594336302 C 708.3424842051251 134.80286219420904 710.581060455971 132.56428594336302 713.3424842051251 132.56428594336302 C 716.1039079542791 132.56428594336302 718.3424842051251 134.80286219420904 718.3424842051251 137.56428594336302 Z" fill-opacity="1"/><path fill="none" stroke="rgb(0,0,0)" paint-order="fill stroke markers" d=" M 718.3424842051251 137.56428594336302 C 718.3424842051251 140.325709692517 716.1039079542791 142.56428594336302 713.3424842051251 142.56428594336302 C 710.581060455971 142.56428594336302 708.3424842051251 140.325709692517 708.3424842051251 137.56428594336302 C 708.3424842051251 134.80286219420904 710.581060455971 132.56428594336302 713.3424842051251 132.56428594336302 C 716.1039079542791 132.56428594336302 718.3424842051251 134.80286219420904 718.3424842051251 137.56428594336302 Z" stroke-opacity="1" stroke-linecap="round" stroke-linejoin="round" stroke-miterlimit="10"/><g transform="scale(35,35)"><g transform="translate(20.97142857142857,4.083)"><path fill="rgb(0,102,51)" stroke="none" paint-order="stroke fill markers" d=" M 0.763 -0.606 L 0.628 -0.066 L 0.625 -0.049 Q 0.625 -0.032 0.672 -0.031 L 0.673 -0.031 L 0.6900000000000001 -0.031 Q 0.716 -0.031 0.718 -0.02 Q 0.718 0 0.6980000000000001 0 L 0.634 -0.002 L 0.633 -0.002 L 0.5710000000000001 -0.003 L 0.5690000000000001 -0.003 L 0.443 0 L 0.442 0 Q 0.428 0 0.428 -0.011 Q 0.428 -0.029 0.442 -0.031 L 0.442 -0.031 L 0.442 -0.031 L 0.452 -0.031 Q 0.515 -0.031 0.529 -0.041 L 0.53 -0.042 Q 0.538 -0.049 0.543 -0.064 L 0.612 -0.34 L 0.307 -0.34 L 0.23900000000000002 -0.066 L 0.23600000000000002 -0.049 Q 0.23600000000000002 -0.032 0.28200000000000003 -0.031 L 0.28200000000000003 -0.031 L 0.28200000000000003 -0.031 L 0.301 -0.031 Q 0.327 -0.031 0.329 -0.02 Q 0.329 0 0.309 0 L 0.245 -0.002 L 0.244 -0.002 L 0.182 -0.003 L 0.18 -0.003 L 0.054 0 L 0.053 0 Q 0.039 0 0.039 -0.011 Q 0.039 -0.029 0.054 -0.031 L 0.066 -0.031 Q 0.131 -0.031 0.14400000000000002 -0.045 Q 0.15 -0.052000000000000005 0.156 -0.073 Q 0.156 -0.074 0.157 -0.078 L 0.291 -0.615 Q 0.295 -0.631 0.295 -0.634 Q 0.295 -0.646 0.279 -0.649 L 0.278 -0.649 L 0.277 -0.649 Q 0.274 -0.649 0.268 -0.65 Q 0.251 -0.652 0.23 -0.652 Q 0.20400000000000001 -0.652 0.202 -0.663 Q 0.202 -0.683 0.221 -0.683 L 0.34900000000000003 -0.68 L 0.35000000000000003 -0.68 L 0.47700000000000004 -0.683 L 0.47800000000000004 -0.683 Q 0.492 -0.683 0.492 -0.672 Q 0.492 -0.655 0.47800000000000004 -0.653 L 0.47700000000000004 -0.653 L 0.47700000000000004 -0.653 L 0.47700000000000004 -0.653 L 0.47600000000000003 -0.652 L 0.458 -0.652 Q 0.397 -0.652 0.385 -0.635 L 0.384 -0.635 L 0.384 -0.634 Q 0.379 -0.627 0.374 -0.606 L 0.315 -0.371 L 0.62 -0.371 L 0.68 -0.615 Q 0.684 -0.632 0.684 -0.634 Q 0.684 -0.646 0.668 -0.649 Q 0.665 -0.649 0.657 -0.65 Q 0.64 -0.652 0.619 -0.652 Q 0.593 -0.652 0.591 -0.663 Q 0.591 -0.683 0.61 -0.683 L 0.738 -0.68 L 0.739 -0.68 L 0.866 -0.683 L 0.867 -0.683 Q 0.881 -0.683 0.881 -0.672 Q 0.881 -0.655 0.867 -0.653 L 0.866 -0.653 Q 0.861 -0.652 0.847 -0.652 Q 0.786 -0.652 0.774 -0.636 Q 0.769 -0.629 0.763 -0.606 Z"/></g></g></g></g></svg>